<!-- Generator: Adobe Illustrator 18.1.1, SVG Export Plug-In  -->
<svg version="1.1"
	 xmlns="http://www.w3.org/2000/svg" xmlns:xlink="http://www.w3.org/1999/xlink" xmlns:a="http://ns.adobe.com/AdobeSVGViewerExtensions/3.0/"
	 x="0px" y="0px" width="459.4px" height="473.4px" viewBox="0 0 382.9 470.8" enable-background="new 0 0 382.9 470.8"
	 xml:space="preserve">
<style>
path {
	fill:#000;
}
.st1 {
	fill:#f26464;
}
</style>
<defs>
</defs>
<g>
	<path d="M23.5,174c2.8-9.3,6.1-18.4,10.2-27.2c1.1-2.3,2.2-4.6,3.4-6.9c0.6-1.1,1.2-2.2,1.8-3.3c1.1-0.8,1.2-1.7,0.5-2.6
		c0.5-1.1,1.6-1.6,2.5-2.7c1.4-1.7,2.5-3.9,3.7-5.8C57,108.7,72,94.4,89.9,84.8C87,83,83,79.2,79.8,78.5c-2.3-0.5-2.9,3-4.9,3.1
		c-1,0-1.7-0.9-2.7-1.8c-3.8-3.4-7.6-6.8-11.4-10.2c-0.3-0.3-1.8-2.1-2.4-2.1c-1.9,0-7.8,9.2-9,10.7c-21.9,28.3-35.3,62.7-38.2,98.4
		c-1.8,22.7,0.6,45.7,7,67.5c1.7-3.3,3.5-6.5,5.2-9.8c1.6-2.9,1.2-4.1,0.8-7.5c-0.7-6.4-1.2-10.3,0.4-16.3
		c2.2-8.4,4.4-16.9,6.7-25.3c0.3-1.1,1.7-4.2,1.2-5.2C31.6,177.9,25.5,175.3,23.5,174z"/>
	<path d="M292.8,271.8c4.2-1.3,8.6-2.1,13-2c-2.1-4.4-4.3-8.8-6.4-13.2C297.4,261.7,295.2,266.8,292.8,271.8
		C296,270.8,295.3,266.6,292.8,271.8z"/>
	<path d="M313.6,91.1c7.4,8.5,13.6,17.3,19.1,27.1c2.1-2.1,13.2-0.8,16.4-0.9c5.8-0.2,11.7-0.4,17.5-0.6
		c-4.5-10.2-9.9-19.9-16.1-29.2c-1.3-1.9-3.7-6.9-5.8-7.2c-1.3-0.2-3.8,1.3-5,1.7C331.1,85,322.4,88,313.6,91.1z"/>
	<path d="M291.7,70.3c3,2.4,6.1,4.9,8.9,7.5c2,1.8,4,3.7,5.9,5.7c1,1,4.3,5.8,5.6,6c2,0.3,6.1-2.1,8-2.8c8-2.8,16-5.5,23.9-8.3
		c-6.5-8.5-13.8-16.5-21.6-23.8c-2.1-1.9-3.1-3.9-5.4-3.3c-1.3,0.4-3.1,2.3-4.2,3.2C305.8,59.7,298.7,65,291.7,70.3z"/>
	<path d="M272.3,49.8c-1.3,1.7-2.6,3.5-3.9,5.2c7.6,4,14.8,8.7,21.7,13.9c8.2-7,17.6-13.2,26.3-19.7c-6.8-5.8-14-11.1-21.6-15.8
		c-1.3-0.8-6-4.4-7.3-3.9c-0.7,0.2-1.9,2.5-2.3,3.1C280.9,38.4,276.6,44.1,272.3,49.8z"/>
	<path d="M346.5,151.3c1.6,5.5,2.8,11.1,3.7,16.7c0.9,5.5,0.8,11.3,1.7,16.7c0.5,2.8,0,1.6,1.8,3.2c1.6,1.4,3.8,2.4,5.6,3.5
		c7.5,4.7,15,9.3,22.5,14c0.9-11.6,0.6-23.2-0.6-34.8c-0.3-2.7,0.1-6.9-1.9-8.5c-1.2-1-4.2-1.4-5.6-1.9
		C364.6,157.3,355.5,154.3,346.5,151.3z"/>
	<path d="M348.7,221.2c-2.4,10.7-5.9,21-10.5,30.9c1.1,0.8,2,3.6,2.7,5.1c2,4,3.9,8.1,5.9,12.1c3,6.1,5.9,12.2,8.9,18.3
		c5.9-9.8,11-20.2,15-31c0.9-2.4,4.1-8.5,3.1-10.7c-0.5-1.3-2.9-2.9-3.9-3.9C362.8,235.2,355.8,228.2,348.7,221.2z"/>
	<path d="M333.6,119.8c5.1,9.4,9.2,19.1,12.2,29.4c5,0.4,11.5,3.7,16.4,5.3c5.8,1.9,11.6,3.9,17.4,5.8c-1.9-11.3-4.8-22.3-8.8-33.1
		c-0.9-2.6-1.9-7.6-4.1-8.5c-1.2-0.5-4.2,0.1-5.4,0.2C352.1,119.1,342.9,119.5,333.6,119.8z"/>
	<path d="M352,189.3c0.1,5.7-0.2,11.4-0.8,17c-0.3,2.9-2.9,10.3-1.9,12.8c1.1,2.5,5.4,5.4,7.3,7.3c6,6,12.1,12,18.1,17.9
		c3.1-10.6,5.3-21.4,6.5-32.4c0.3-3.2,0.8-3.3-0.9-5c-1.3-1.4-3.8-2.4-5.4-3.4C367.3,198.8,359.7,194,352,189.3z"/>
	<path d="M337.2,254.2c-2.9,6-6.1,11.7-9.7,17.3c-1.6,2.4-4.1,4.8-3.4,7.2c0.5,1.7,2.7,3.8,3.6,5.4c5.1,8.9,7.6,19.2,9.3,29.2
		c3.6-4.2,7-8.5,10.3-13c1.7-2.3,7-7.9,7-10.7c0-2.7-3.8-7.8-5-10.3C345.3,270.9,341.3,262.6,337.2,254.2z"/>
	<path d="M80.6,76.7c3.1,1.9,6.5,4.9,9.9,6.1c2.7,1,3.7-0.3,6.6-1.6c4.1-1.9,8.4-3.5,12.7-5c-3.4-3-6.8-6.1-10.1-9.1
		c-2.2-2-1.8-2.4-4.3-1.3C90.1,68.2,85,73.1,80.6,76.7z"/>
	<path d="M193.1,72.2c4.7,0.8,9.4,1.7,14.1,2.7c0.1-7.4,0.2-14.7,0.4-22.1c0-2.8,1.3-8.5,0.2-11.1c-0.8-1.8-0.9-1.2-3.8-1.5
		c-4.6-0.4-9.3-0.7-13.9-0.8C191.1,50.3,192.1,61.3,193.1,72.2z"/>
	<path d="M224.6,79.2c4.7,1.3,9.4,2.7,14.1,4.4c3.9-11.2,7.8-22.5,11.7-33.7c-6.1-2-12.3-3.7-18.5-5.1
		C229.4,56.2,227,67.7,224.6,79.2z"/>
	<path d="M156.5,69.1c5.5,0,10.9,0.2,16.4,0.6c-1.2-6.3-2.3-12.7-3.5-19c-0.4-2.1-0.4-7.8-1.7-9.5c-1.9-2.3-13.2,1-16.4,1.6
		C153,51.5,154.7,60.3,156.5,69.1z"/>
	<path d="M141.1,69.8c4.4-0.4,8.9-0.7,13.4-0.7c-1.7-8.6-3.4-17.3-5.2-25.9c-5.8,1.2-11.5,2.8-17.1,4.7
		C135.2,55.2,138.1,62.5,141.1,69.8z"/>
	<path d="M125,72.2c4.6-0.9,9.3-1.7,14-2.2c-2.1-5.1-4.1-10.1-6.2-15.2c-0.4-0.9-1.5-5.7-2.5-6.2c-1-0.4-5.5,1.9-6.6,2.3
		c-3.4,1.4-6.8,2.8-10,4.4C117.4,61,121.1,66.7,125,72.2C129.5,71.3,121.9,67.8,125,72.2z"/>
	<path d="M174.9,69.9c5.4,0.5,10.8,1.2,16.1,2c-0.7-7.6-1.4-15.1-2.1-22.7c-0.2-1.9,0.4-8.1-0.9-9.6c-1.5-1.7-16.5,0.4-18.5,0.5
		C171.3,50,173.1,59.9,174.9,69.9z"/>
	<path d="M308,230.2c-1,3.9-2.1,7.8-3.3,11.7c-1.1,3.4-3.6,7.7-3.9,11.2c-0.2,2.7,1.7,5.4,3,8c1.1,2.2,2.3,7,4.2,8.6
		c1.3,1.1,5.1,1,7.1,1.8c2.7,1,4.9,2.8,6.9,4.8c3.3-4.7,3-4.5,1-9.3c-2-4.8-3.9-9.6-5.9-14.4C314.1,245,311,237.6,308,230.2z
		 M313.6,269.4l3.2-1L313.6,269.4z"/>
	<path d="M209.2,75.3c4.5,1,9,2.1,13.5,3.4c1.6-7.5,3.2-15,4.7-22.5c0.6-2.8,2.9-8.1,2.3-10.9c-0.4-1.8-1.3-1.4-3.5-1.8
		c-5.4-1.1-10.9-2-16.4-2.7C209.6,52.3,209.4,63.8,209.2,75.3z"/>
	<path d="M112,75.5c3.6-1.1,7.2-2.1,10.9-2.9c-3.1-4.4-6.1-8.9-9-13.4c-0.3-0.5-1-2.2-1.6-2.4c-1.2-0.6-2.7,0.6-4.2,1.4
		c-3.2,1.7-6.3,3.5-9.3,5.4C103.2,67.6,107.6,71.6,112,75.5z"/>
	<path d="M311.9,173.1c0.9,6.6,0,13.9,1.2,20.4c0.3,1.5,0.6,2,1.5,3.4c3.1,5,6.3,10,9.4,15.1c5.8,9.2,11.5,18.5,17.3,27.7
		c2.5-6.9,4.6-14,6-21.3c0.7-3.3,3.7-12.8,2-15.6c-1.9-3.3-8-6.4-11-8.7C329.5,187,320.7,180,311.9,173.1z"/>
	<path d="M252.6,89.6c4.4,2.2,8.8,6.2,13.4,7.9c3.4,1.3,0.4,1.1,2.8,0.3c3.5-1.1,7.2-4.6,10.2-6.5c6.6-4.2,13.2-8.4,19.8-12.6
		c-4-3.6-8.2-7-12.6-10.2c-1.6-1.2-8.4-7.2-10.2-6.7c-2.1,0.6-5.4,6.4-6.7,8C263.7,76.5,258.1,83,252.6,89.6z"/>
	<path d="M300.3,80.2c-10.3,6.6-20.7,13.2-31,19.7c4.1,3,8,6.3,11.6,9.9c1.7,1.7,2.8,3.6,4.9,3.9c3.4,0.6,9-1.7,12.4-2.4
		c8.4-1.6,16.7-3.2,25.1-4.8C316.6,97,308.8,88.1,300.3,80.2z"/>
	<path d="M337.7,132.8c-13.3-0.4-26.6-0.7-39.9-1.1c2.8,4.8,5.2,9.8,7.3,15c1,2.5,0.9,2.5,2.7,3.7c4,2.6,9.4,4,13.8,5.9
		c8.8,3.8,17.7,7.5,26.5,11.3C346.1,155.6,342.6,143.9,337.7,132.8z"/>
	<path d="M286.3,115.7c3.3,3.8,5.8,8.8,9.3,12.4c2.3,2.4,0.3,1.1,2.9,1.7c4,0.9,9.2,0.2,13.3,0.3c8.4,0.2,16.7,0.4,25.1,0.7
		c-2.2-4.8-4.6-9.5-7.2-14c-1.1-1.9-3.6-7.7-5.6-8.3c-2.7-0.8-9,1.7-11.7,2.2C303.7,112.3,295,114,286.3,115.7z"/>
	<path d="M307.1,152.3c1.7,5.3,2,11.9,4.2,16.9c0.6,1.4,0.9,1.4,2.1,2.5c4,3.7,8.6,6.8,12.9,10.2c7.8,6.2,15.6,12.4,23.4,18.6
		c0.5-6.9,0.4-13.8-0.1-20.7c-0.2-2.9,0.2-8.2-1.8-10.1c-2.7-2.7-9.6-4.1-13-5.6C325.6,160.2,316.4,156.2,307.1,152.3z"/>
	<path d="M252.3,50.5c-2.2,6.3-4.4,12.7-6.6,19c-1.4,3.9-2.7,7.8-4.1,11.7c-0.1,0.4-1.1,2.4-1,2.8c0.4,1,5.6,2.6,6.8,3.1
		c4.1,1.8,3.6,1.3,6.3-1.9c2.7-3.2,5.5-6.5,8.2-9.7c4.2-4.9,8.3-9.9,12.5-14.8C267.3,56.5,260.1,53.1,252.3,50.5z"/>
	<path d="M326.3,269.7c4.1-6.5,7.8-13.3,10.9-20.2c1.2-2.7,3.3-5.7,2.6-8.5c-1.3-4.7-6.2-10-8.8-14.1c-6-9.6-12-19.3-18-28.9
		c-0.3,6.3-1,12.5-2.1,18.7c-0.6,3.3-2.3,7.5-1.8,10.7c0.7,4.3,3.8,9.2,5.4,13.3C318.4,250.4,322.4,260.1,326.3,269.7z"/>
	
		<line fill="none" stroke="#000000" stroke-width="0" stroke-linecap="round" stroke-linejoin="round" x1="276.3" y1="60" x2="276.3" y2="60"/>
	
		<line fill="none" stroke="#000000" stroke-width="0" stroke-linecap="round" stroke-linejoin="round" x1="301.1" y1="78.5" x2="301.1" y2="78.5"/>
	
		<line fill="none" stroke="#000000" stroke-width="0" stroke-linecap="round" stroke-linejoin="round" x1="339.1" y1="131.8" x2="339.1" y2="131.8"/>
	
		<line fill="none" stroke="#000000" stroke-width="0" stroke-linecap="round" stroke-linejoin="round" x1="349.7" y1="169.4" x2="349.7" y2="169.4"/>
	
		<line fill="none" stroke="#000000" stroke-width="0" stroke-linecap="round" stroke-linejoin="round" x1="290.7" y1="69.8" x2="290.7" y2="69.8"/>
	
		<line fill="none" stroke="#000000" stroke-width="0" stroke-linecap="round" stroke-linejoin="round" x1="348.3" y1="219.4" x2="348.3" y2="219.4"/>
	<path d="M141.5,375.7c2.1-6.9,3.2-12,2.7-19.4c-0.8-10.7-1.6-18.6,4.6-28c7.4-11.1,19-19.9,30.6-26.3c0.1,0.2,0.2,0.5,0.3,0.7
		c1.5-5.8,3.2-9.9,5.6-15.3c-3.8,2.1-8,4.8-10.4,8.5c-2.6,3.9-4.3,7.5-8.6,10c-8,4.7-20.8,4.3-26.4-3.9c2.2,12.3,4.4,24.1-4.2,34.6
		c-7.1,8.7-17.4,13.5-27.4,18c-2.5,1.1-5.6,2.1-7.7,4c-1,1-1.4,3-2.5,3.7c-3.2,2.2-7.1-5.7-8.9-7.9c-3.3-4.2-9.8-8.1-11.7-13.1
		c-2.2-5.9,3-12,6.6-16c-2.9-1-5.8-2-8.7-2.9c11.2-24.4,22.3-50.1,28.1-76.3c0.9-4.2,3.8-13.3,1.5-17.5c-1.1-2-4.5-3.5-6.4-4.7
		c-12.1-8-24.2-16.1-36.3-24.1c-9.3-6.2-18.6-12.3-27.9-18.5c-2.6,9.8-5.2,19.7-7.8,29.5c-0.8,3.2-1.5,5.4-1.2,8.6
		c0.4,3.8,2.1,9.2,1.3,13c-0.6,2.8-3.3,6.2-4.7,8.7c-3,5.7-6,11.4-9.1,17c-2.7,5.1-5.5,10.3-8.2,15.4c-1.1,2.1-3,4.3-2.4,6.3
		c0.7,2.5,4.2,5.8,5.8,7.9c1.2,1.7,2.4,4.3,4.9,4c3-0.3,7.9-8,10.1-10.4c1.8,2.2,3.8,5.8,6.1,7.3c1.2,0.8,0.5,0.8,1.6,1
		c1.1,0.1,4.1-1.5,5.1-2.1c2.7-1.7,1.8-1.7,1-5.4c-0.4-2-3.1-7.4,0.5-7.1c0.5,2.5,3.8,11,2.6,12.9c-0.8,1.2-5.2,2.2-6.5,2.7
		c-3.1,1.3-6.4,2.5-9.5,3.9c-2.5,1.2-2.4,1.2-3.4,4c-1.4,3.7-4.3,6.7-0.3,9c7.4,4.3,16.6,6.1,24.8,8.2c-2.5,0.4-5,0.9-7.4,1.4
		c-3.7,0.7-12.7,0.8-12.7,5.3c0.1,7,11.4,9.1,11,13.8c-0.3,2.9-3.7,7.3-5,9.9c-0.9,1.8-3.5,5.1-3.6,7.1c0,1.9,2.5,5.4,3.3,7.2
		c1.9,4.2,3.8,8.3,5.7,12.5c2.1,4.7,1.6,4.6,6.5,4.3c7.1-0.4,14.1-0.8,21.2-1.2c16-0.9,32-1.8,48-2.7c0.8,0,3.1-0.6,3.8-0.2
		c1.5,0.8,3.1,5.7,3.8,7.1c3.6,6.8,7.3,13.6,10.9,20.4c1.4-5,3.3-9.7,5.6-14.4C137.8,383,140.4,379.5,141.5,375.7
		C141.9,374.4,141.2,376.8,141.5,375.7z M88.8,240.1c-3.6-2.1-11,0.8-14.9,1.3c0.7,2-12,5-14,5.6c-5.5,1.8-10.9,3.6-16.4,5.4
		c0.8-9.7,1.5-19.4,2.3-29.2c7.8,2.7,15.6,5.3,23.4,8c5,1.7,10,3.4,14.9,5.1C85.9,237,90.8,237.3,88.8,240.1z M30.6,225.4
		c-0.3-2.7-2.6-10.3-1.4-12.6c0.7-1.3,5.3-1.5,7.1-1.8c5.5-1.1,11.1-2.2,16.6-3.2c1.9-0.4,4.7-1.4,6.5-1c2.5,0.6,5.7,3.8,7.9,5.2
		c4.5,3,9.1,6,13.6,9c6.3,4.2,12.7,8.4,19,12.6c-13-5-26.1-10-39.1-15c-5.2-2-5.6-2-11-0.1C43.4,220.7,37,223,30.6,225.4z"/>
	<path d="M23.1,284.5c-2.5,2.7-4.9,5.4-7.4,8c1.7,0.5,3.8,1.4,5.5,1.2c2.3-0.3,5-2.1,7.1-2.9C26.6,288.7,24.8,286.6,23.1,284.5z"/>
	<path d="M158.8,266.8c-1.3,11.9-21.7,16.6-18.9,30.6c1.5,7.3,10.4,10,16.9,9.5c7.1-0.6,12-4.6,15.5-10.5c3.1-5.4,7.8-7.5,12.6-11
		c4.1-3,5.2-11.1,6.1-16.1c2.2-12.3,0.1-32.1-14.1-36.8c-7-2.3-16.9,2.7-20.8,8.6c-1.4,2.1-0.5,3.4,0.2,5.9c0.6,2,1.1,4.1,1.5,6.2
		C158.6,257.6,159.2,262.3,158.8,266.8C158.3,271,159.6,258.9,158.8,266.8z M175.4,242.3c-5.7-3.8-9.9,0.7-11.7,6
		c2,0.5,6.1,0.4,4.4,3.2c-2.3-0.6-4.6-1.2-6.9-1.8c1.3-5.3,4.9-11.9,11.2-10.8c8.1,1.3,15.1,11.5,15.4,19.3
		c0.3,8.7-5.4,16.6-12,21.6c-5,3.8-17.1,10.9-23.5,6.7c0.7-2.5,3.3-1,5.3-1.2c3.2-0.2,6.5-1.4,9.4-2.7c6.1-2.8,11.8-7.1,15.3-12.8
		C188.6,259.5,185.3,249,175.4,242.3C173.1,240.8,190.2,252.3,175.4,242.3z"/>
	<path d="M161.2,317.4c-5.6,5-10.9,10.8-13.9,17.8c-3,7-1.6,13.5-1.1,20.8c0.6,8.6-0.3,15.6-4.1,23.4c-4.9,10.1-10.3,19.7-11.4,31.1
		c-1.5,14.3,4.5,30.7,16.9,38.8c0.4-3,2.9-9.9,2.1-12.8c-0.4-1.3-2.3-3-3.2-4.2c-1.6-2.2-3-4.6-4.2-7.1c-3.3-6.7-5.1-14.5-2.3-21.6
		c4.2-11,14.6-19.5,15.2-32c0.5-10.6-5.7-19.5,0.3-29.9c3.6-6.4,9.1-11.6,14.7-16.4c1.3-1.1,3.5-2.3,4.5-3.6
		c1.3-1.8,1.6-4.4,2.1-6.7c0.6-2.6,3.1-7.7,1.7-10.1C172.2,308.6,166.5,312.7,161.2,317.4C153.2,324.6,168.3,311.1,161.2,317.4z"/>
	<path class="st1" d="M147.5,449.3c-14.2-9.2-19.4-28.1-16.1-44c2.5-12,9.7-21.8,13.5-33.2c3.5-10.6-1.6-21.4,0.7-32
		c3.4-15.5,19.8-27.5,32.6-35.1c0.2,0.4,0.3,0.9,0.5,1.3c0.4-1.5,0.9-2.8,0.6-4.2c-14.3,7.8-32.3,21-35.8,37.9
		c-2,9.9,2.7,20.2-0.2,30.2c-3.6,12.5-11.7,22.8-14.1,35.8c-3.1,16.6,2.8,36.3,17.8,45.5C147.3,450.7,147.4,450,147.5,449.3
		C145.1,447.7,147.4,450,147.5,449.3z"/>
	<path d="M153.4,272.5c6.8-7.3,2.5-20-0.3-28.4c-1.3,1.5-5,5.1-5,7.1c0,1.3,1.7,3.7,2.2,5C152.4,261.3,154.1,267.1,153.4,272.5
		C155.2,270.6,154.5,264.3,153.4,272.5z"/>
	<path d="M146.1,279.5c2.3-2.2,4.6-3.6,5.3-6.7c0.5-2.3,0.2-5-0.3-7.3c-0.8-4.3-2.4-8.5-4.3-12.4c-2.5,4.5-5.6,10.3-6.5,15.4
		c-0.5,2.7,0,2.3,1.8,4.4C143.9,274.7,145.6,276.9,146.1,279.5C147.1,278.5,145.4,275.5,146.1,279.5z"/>
	<path d="M97.2,348.7c-0.1,1.8-1.7,11.2-0.5,12.2c3.3-7.1,13.8-9.1,20.4-12.5c9-4.7,18.8-11.5,21.8-21.7c3.1-10.3-1.6-20-1.8-30.3
		c-0.1-5.5,2.2-8.7,5.4-12.9c3.1-4.2,0.3-7.5-3.4-10.8c-2.5,8-6,17.3-6.5,25.6c-0.3,4.5,3,8.7,3.7,13.4c1,7.4-2.3,9.9-7.3,14.2
		c-3.1,2.6-2.8,9.2-3.3,13.5c-4-1.3-8.8-4-13-4.3C107.3,334.4,97.4,342.8,97.2,348.7z"/>
	<path d="M131.5,303.3c-1.4,6.9-2.6,13.8-3.7,20.8C136.2,319.2,135.2,311.2,131.5,303.3C130,311,133.5,307.5,131.5,303.3z"/>
	<path d="M88,350c2.4,2.7,4.6,5.6,6.8,8.6c0.1-3.3,0-6.6,0.4-9.9c0.8-7.4,7.8-11.7,13.7-15c-4.5-1.5-9.2-3.7-13.9-4.6
		c-0.4-0.1-1.7-0.9-2.1-0.7c-1.1,0.4-2.4,4.3-2.9,5.6C88,338.9,86.6,344.6,88,350C90.6,352.9,86.3,343.5,88,350z"/>
	<path d="M78.9,338.6c0,3.9,4.2,6.3,6.6,8.8c-0.6-6.9,2.1-13.8,5.2-19.7c-3-1-3.5-1.9-5.9,0C82,329.7,78.9,334.9,78.9,338.6
		C79,340.4,78.9,334.9,78.9,338.6z"/>
	<path class="st1" d="M76.9,338.6c0.1,5.3,5.7,8.5,8.9,12c3,3.2,5.5,8.8,9.1,11.3c3.4,2.4,3.4-1.3,5.5-3.3
		c3.6-3.3,9.4-4.7,13.7-6.7c9-4.2,18.1-9.7,23.6-18.3c6.3-9.9,3.8-20.8,1.9-31.6c6.6,9.5,22.2,8.6,30,1.2c3.8-3.6,5.2-8.5,9.3-11.8
		c1.9-1.5,10.1-4.5,7.7-7.1c-3.2,1.5-6.3,3.3-9,5.5c-4,3.2-5.4,7.7-8.8,11.3c-7,7.3-24.4,8.9-28.7-2.3c-3.4-8.9,7-17.6,12.5-22.9
		c4.9-4.6,6.5-8.7,6-15.4c-0.5-6.2-2.1-12.3-4.1-18.2c-2.8,3.1,1,10.4,1.6,14.5c0.9,5.8,1.3,11.1-2.9,15.6c1-7.3-2.1-15.1-5.4-21.5
		c-2.2,3.5,1.8,9,2.7,13c0.6,2.4,1,4.9,0.8,7.4c-0.3,4-2.7,5.4-5.4,8.1c-0.7-3.8-4-7.2-6.9-9.5c-2.8,2,2.7,5,3.8,7.1
		c3,5.4-2.9,7.8-4.9,12.6c-4.1,10,3,22.1,1.7,32.7c-1.4,11.3-10.5,19.1-19.9,24.4c-7.1,4-19.6,6.3-23.2,14.1c-1-0.8,0.3-10,0.5-11.5
		c0.8-7.6,8.3-11.6,14.4-14.9c-5.8-1.9-14.5,6.4-16,12c-1,3.8-0.6,8.1-0.7,12c-3-4-7.2-7.5-7.3-12.7c-0.2-6.2,2.4-12.3,5.2-17.6
		c-4.5-3-7.4,15.9-7.2,19.1c-2.9-3-7.1-5.3-6.5-10c0.6-4.3,4.3-8.2,7.2-11.2C82.2,323.4,76.9,335,76.9,338.6
		C77,341,76.9,334.4,76.9,338.6z"/>
	<path d="M154.2,352.3c0.3,5.9,2.6,11.4,2.8,17.3c0.2,5.1-1.5,10-3.7,14.6c-3.8,8-11.7,15.6-12.8,24.6c-1.1,9.1,4,18.1,9.5,25
		c6.7-36.7,15.4-73.1,24.2-109.4C166.4,330.8,153.6,341,154.2,352.3C154.4,356.5,153.7,343,154.2,352.3z"/>
	<path class="st1" d="M152.2,352.5c0.3,5.9,2.6,11.5,2.8,17.4c0.2,5.2-1.8,10.1-4,14.6c-3.8,7.7-11.1,14.9-12.3,23.7
		c-1.5,10.4,4.5,20.6,10.9,28.3c0.9-4.8-5.2-10.6-7-15.3c-2.4-6.2-3-12.9,0.1-19c4.8-9.3,12.5-17.4,14.1-28.1
		c1.1-7.4-2.5-14.3-2.6-21.7c-0.1-5.8,3.2-10.9,6.8-15.3c4.2-5,12.5-9.6,14-15.8C166,328.2,151.5,339.6,152.2,352.5
		C152.4,356.8,151.6,341.5,152.2,352.5z"/>
	<path class="st1" d="M132.1,300.1c-1,4.9,2.2,8.9,2.3,14c0,2.3-0.4,4.5-1.9,6.4c-2.1,2.7-4.6,2.5-5.1,6.1
		c5.7-3.1,9.5-6.8,9-13.7C136.1,308.4,134.3,304,132.1,300.1C131.9,301.2,133.5,302.5,132.1,300.1z"/>
	<path d="M241.2,331.4c0.7,2.3,1.4,4.6,2.1,7c3-3.1,6.5-5.9,9.8-8.7c2.8-2.3,6.1-3.6,9.1-5.7c-3.9-4.5-9.5-8.4-14.3-11.8
		C245.7,318.6,243.5,325,241.2,331.4z"/>
	<path d="M106.6,226.8c1.8,6.5,0.1,13.9-1.3,20.3c-2.2,10-5.5,19.8-8.9,29.4c-5.4,15.2-11.6,30.1-18.2,44.8c1.3,0.5,2.7,0.9,4,1.4
		c2.4,0.8,2.1,1.1,3.7-0.1c1.4-1,2.3-4.3,3.1-5.9c1.5-3,2.9-6,4.2-9c4.9-11.2,9-22.8,12.7-34.4c3.2-10,6.1-20,8.8-30.2
		c1-3.8,2-7.5,2.9-11.3c0.3-1.3,2-5.2,1.6-6.4c-0.6-1.6-4.4-3.3-5.9-4.3c-5-3.4-10-6.8-15-10.3c-14.2-9.7-28.4-19.4-42.5-29
		c-8.9-6.1-17.8-12.2-26.7-18.3c-1.1,2.9-4.1,7.9-2.3,10.3c0.9,1.3,3.7,2.5,5,3.3c6.2,4.1,12.4,8.2,18.6,12.3
		c15.1,10.1,30.3,20.1,45.4,30.2C99.3,222,103,224.4,106.6,226.8z"/>
	<path d="M153.1,184.2c9.7,3.2,20.5,5.4,30.8,3.8c-7.9-3.7-12.3-12.6-11.4-21c-4,1-7.3,3.9-11.4,4.9c-4.2,1-8.6,1-12.9,0
		c-8.6-2.2-15.7-8.8-19.3-16.8c-0.9-1.9-1.2-3.9-2.5-5.4c-1.4-1.6-3.6-2.8-5.2-4.1c-4.3-3.5-8.4-7.2-12.5-11
		c-7.2-6.8-14.2-14-20.8-21.4c-2.5-2.8-4.9-5.5-7.3-8.4c-1.4-1.7-3.2-4.9-5-6.1c-1.5-0.9,0-1.1-1.8-0.7c-1.6,0.4-4.5,3.7-5.7,4.8
		c-1.6,1.5-3.2,3-4.7,4.5c-0.8,0.8-2.1,1.8-2.6,2.7c-1.2,2.1-1,1,0.3,3.2c4.2,7.1,12.2,13.6,17.9,19.4c6.5,6.5,13.2,12.9,20.2,18.8
		C115,165,133,177.4,153.1,184.2C168.5,189.3,116.8,172,153.1,184.2z"/>
	<path d="M76,96.1c14.8,18.6,31.5,36.3,50.3,50.9c-3.1-17.3,7.8-31.9,23.2-38.4c13.2-5.6,28.3-5.6,42.3-3.5
		c33.2,5,60.5,23.3,82.5,48.2c14.2,16.2,26.4,34.5,36,53.8c4.4-39.7-8.4-79.7-40.7-104.6c-17.3-13.3-37.8-20-58.9-24.9
		c-22.4-5.2-45.6-8-68.5-6C118.3,73.9,95.1,81.6,76,96.1C79.9,101,98,79.5,76,96.1z"/>
	<path d="M303.3,239.5c-12.7-19.2-26.8-39.1-45.2-53.3c-9.7-7.5-19.7-12.5-31.8-9.7c0.7,29.1-32.8,43.9-57.4,41.4
		c-36.7-3.7-66.2-31.1-93.6-53.1c-11.4-9.2-23.6-18.1-34.1-28.4c-4,7.1-7.5,14.6-10.5,22.2c-1.3,3.5-1.3,2.1,0.3,3.8
		c3.1,3.3,8.3,5.7,12.1,8.2c14.3,9.8,28.6,19.6,43,29.3c11,7.5,23.2,14.4,33.5,22.9c2.1,1.8,1.8,1.7,1.1,4.5
		c-1.7,7.2-3.6,14.4-5.6,21.6c-7,25.5-14.7,52.1-28,75.2c9.2,3.1,18.4,6.1,27.5,9.2c2.6-22.2,6.8-44.5,14.4-65.5
		c6-16.6,15.5-38,33.6-44.1c9.5-3.2,21-1.3,28.6,5.4c7.1,6.3,9.8,15.9,10.3,25.1c0.5,9.7-1,19.7-4.2,28.8
		c-2.2,6.2-7.4,11.9-4.7,18.8c2,4.9,7.5,8.6,12.9,7.2c5.3-1.4,9.1-7.7,5.7-12.7c-2.8-4.1-11.3-4.2-11.1,2.2c0,2.4,2.2,4.7,4.7,4.1
		c2-0.4,2.1-2.9,4.3-1.2c-2.2,5.6-10.1,3.3-10.9-2.1c-0.7-5,4.4-8.9,9.1-8c12.8,2.5,6.5,20.8-5,19.9c12,1.9,8.1,18.6-2.3,19.9
		c7.8,3.5,6.6,13.9-0.1,17.8c-1.7,1-6.1,0.8-7.1,1.7c-0.3,0.3-0.3,1.4-0.4,1.8c-2.9,6.9-3.8,15.7-5.5,23
		c-3.7,15.5-7.4,30.9-11.2,46.4c3-2.5,7.9-2.6,11.5-4.5c4.5-2.2,9-4.4,13.5-6.7c14.2-7,28.4-14.1,42.7-21.1
		c13.1-6.5,26.1-12.9,39.2-19.4c2-1,7.8-2.6,9.1-4.5c1-1.4-1-4.5-1.6-6.4c-2.3-7.2-3.1-14.6-4.9-21.8c-3.7-15.1-23.5-4.7-32.2-0.5
		c-2.5,1.2-8,2.4-9.8,4.3c-2.4,2.5-0.3,8.6,0.2,11.7c-6.6-9.9-15.4-23.7-7.2-35.2c2.9-4,7.4-5.4,10.7-8.2c3.6-3.1,8.1-6.2,11.1-9.9
		c5.6-6.9,11.2-13.1,18.3-18.6c3.3-2.6,6.8-5,10.5-7c0.8-0.4,2.7-0.9,3.3-1.5c1.4-1.4,2.3-4.9,3.1-6.8
		C297.2,257.4,300.5,248.5,303.3,239.5C271.4,191,300.1,249.9,303.3,239.5z"/>
	<path d="M308.3,219.8c0.9-4.6,2.1-7.8,0.1-11.9c-1.6-3.1-3.2-6.2-4.9-9.3c-5.9-10.5-12.5-20.7-19.7-30.3
		c-18.9-25-43.4-48.3-74.2-57.2c-22.3-6.5-55.1-10.4-73,8.6c-8.4,8.9-11,22.3-6.2,33.6c7.1,16.6,32.5,25.3,43.8,7.4
		c5.5-8.7,5.3-19.9-3.5-26.6c-6.4-4.9-15.7-4.1-20.9,2c-6.7,7.9,0.1,23.7,11.3,18.6c4.5-2.1,6.8-8,3.3-12c-1.5-1.7-3.7-2.5-5.9-2
		c-2,0.5-2.9,3.1-4.6,0.7c6.9-8.9,18.6,3.4,12.4,11.8c-5.4,7.3-16.2,4.7-19.9-2.8c-7.6-15.3,11.3-22.3,22.9-24.1
		c34.6-5.5,68.5,15,92.9,37.6C279.6,180.3,294.8,199.6,308.3,219.8C308.9,216.7,275,170.2,308.3,219.8z"/>
	<path d="M307.7,222.5c-16.9-25.5-36.8-49.9-61.1-68.7c-22.6-17.4-53.1-31.9-82.2-24.6c10.6,2,16.9,13.5,15.2,23.7
		c18.3-16.9,44.8-0.7,46.7,21.7c11-5.4,25.2,4,33.6,10.5c17.9,14.1,31.7,33.2,44.2,52C305.5,232.2,306.7,227.4,307.7,222.5
		C284.7,187.8,306.7,227.2,307.7,222.5z"/>
	<path d="M212.6,153c-9.5-7.4-25.2-6.9-33.1,2.9c-8,9.9-6.6,27.3,7.5,31.2c6.6,1.8,14.2-1.1,17.3-7.3c2.9-5.8,0.6-13.7-5.8-16.2
		c-5.8-2.2-13.6,2.3-12.1,9.1c0.7,2.9,3,5.3,6,5.3c2.5,0,4.4-3.3,6.1-0.9c-6.4,8.2-17.5-1.9-13.4-10.2c4.1-8.3,15.6-7.2,20.2-0.1
		c5.4,8.4,0.1,19-8.9,22c-3.3,1.1-6.5,0.4-9.8,0.7c-3.9,0.3-7.6,1.2-11.6,1c-25.8-0.8-50.4-16-70.1-31.5
		c-17.3-13.6-32.8-29.4-47.1-46.1c-4.2,4.8-8,9.8-11.5,15.1c-0.7,1.1-4.3,5.5-4,6.8c0.1,0.3,0.7,0.6,0.9,0.9c1.2,2.1,4.5,4,6.3,5.5
		c12.3,10.5,25,20.6,37.7,30.7c31,24.8,81.9,64.9,121.9,33.4C225.6,192.3,230.9,167.3,212.6,153C202,144.8,219.1,158,212.6,153z"/>
	<path d="M188.1,313.2c-1,4.4-1,8.6,2.4,12.2c4.7,5.2,14.4,5.4,17.1-2.1c2.3-6.3-6-14.4-10.9-7.8c-1.7,2.3-1.3,6,1.7,7
		c3,1,3.7-3,6.2-1.1c-2,4.9-8.5,3.9-10.4-0.5c-2.1-5,2.6-10.1,7.7-9.7c-5-0.6-9.5-4.5-11.1-9.2C189.8,305.8,188.9,309.5,188.1,313.2
		z"/>
	<path d="M198.9,332.9c-4.1-1.6-9.8,2.8-7.1,7.2c3,4.7,5.6-1.4,8.3,0.6c-1.8,4.5-7.9,4.1-10.1,0.2c-2.3-4.1,0.7-9.1,5-10.2
		c-4.1-1.4-7.5-4.7-9-8.8c-1.5,6.4-5.2,15-1.4,21c3,4.8,9.6,7.3,14.6,4.2C204.5,343.9,205.3,335.5,198.9,332.9
		C197.5,332.4,200.8,333.7,198.9,332.9z"/>
	<path d="M186.8,419.9c9.4,3.3,11.7,14.9,5.9,22.4c33.3-16.1,66.6-32.1,99.9-48.2c4.7-2.3,9.5-4.6,14.2-6.9
		c-2.7-2.2-6.2-8.8-9.1-8.5c-1.8,0.2-4.6,2.3-6.2,3.2c-8.1,4.2-16.3,8.4-24.4,12.5c-19.5,10-38.9,20-58.4,30
		c-3.1,1.6-6.1,3.1-9.2,4.7c-1.5,0.8-3.4,2.7-3.8-0.3c29.7-15.3,59.4-30.5,89.2-45.8c4.2-2.2,8.5-4.4,12.7-6.5
		c-1.8-2.9-3.3-6-4.6-9.1c-31,15.3-62,30.7-93,46C195.6,415.6,191.2,417.7,186.8,419.9z"/>
	<path d="M184.6,448.4c-1.5-0.3-4.4,0.7-6.4,0.6c-2.4-0.1-4.8-0.7-6.9-1.8c-4.1-2-7.5-5.4-9.6-9.4c-3.1-6-2.5-11.8-0.7-18
		c1.9-6.9,3.3-14,4.9-20.9c5.7-24.1,11.3-48.2,17-72.3c1.3-5.4,2.6-10.8,3.8-16.2c1.2-5.2,2.4-10.5,3.6-15.8
		c0.7-3.1,2.8-5.9,4.2-9.1c1.8-4.3,3-8.9,3.9-13.5c3.5-18.5,1-43.3-21.4-47.2c-18.1-3.1-30.7,11.7-38.2,26.1
		c-8.6,16.3-13.5,34.7-17.2,52.7c-1.5,7.5-2.8,15.1-3.9,22.7c-0.2,1.4-1.7,6.7-1,7.9c0.7,1.1,5.9,2,7.3,2.4
		c2.4-18.4,5.6-36.9,10.4-54.9c2.7-10.2,5.7-20.7,11-30c5.1-9,14.1-19.7,24.7-21.6c14.3-2.5,22.7,14.3,23.7,26.1
		c1,11.5-2.5,23.1-7.3,33.4c-3.6,7.7-5.3,15.5-7.4,23.9c-9.2,37.6-18.3,75.3-25.6,113.3c-1.5,8.1-3,16.1-4.2,24.3
		c-0.4,3.1-0.9,6.3-1.1,9.4c-0.1,1.7-1,5.3-0.3,6.9c3,6.3,33.2-8.4,37.5-10.2c41-17.6,80.7-38.3,120.2-59.1
		c3.5-1.9,7.1-3.7,10.6-5.6c-1.8-0.6-6.1-3.9-7.7-3.8c-0.6,0-1.3,0.7-1.9,0.9c-2.7,0.8-5.3,2.6-7.8,3.8c-9.7,4.7-19.4,9.3-29,14
		c-22.9,11.1-45.9,22.1-68.8,33.2C195.5,443.2,190,445.8,184.6,448.4z"/>
	<path d="M182.1,342.4c-0.2-0.5-0.4-0.9-0.5-1.4c-5.1,21.8-10.2,43.5-15.4,65.3c-1.9,8-6.4,19.4-4,27.4c2.9,9.4,13.3,16.2,22.9,12.1
		c9.3-4,12.8-17.7,2.8-23.2c-10.1-5.5-20.2,10.1-9.5,14.1c5.7,2.1,11.1-6.7,4.9-8.7c-2.3-0.8-6.2,2-3.7,4.4c1.8,1.8,2.8-1.3,4.9,0.3
		c-1.3,3.4-6,2.7-7.2-0.3c-1.8-4.2,3-7.7,6.8-6.3c9.3,3.5,0.4,17.5-8.4,11.4c-6.3-4.5-2.7-12.6-1.3-18.7
		c4.6-19.1,9.2-38.2,13.8-57.3c0.7-2.9,2.3-6.7,2.3-9.7c0-0.3,0.5-1.3,0.4-1.6c-0.3-0.6-3.8-1.8-4.5-2.3
		C184.6,346.4,183,344.6,182.1,342.4C181.8,342,183.6,345.7,182.1,342.4z"/>
	<path class="st1" d="M316.1,392.5c-38.5,20.4-77.2,40.5-116.8,58.5c-14.4,6.5-29.9,14.8-45.7,17.4c-2.1,0.3-4.8,1-5.7-1
		c-0.7-1.6,0.1-5.2,0.3-6.9c0.6-6.9,1.7-13.7,2.9-20.5c6.7-38.8,16-77.1,25.3-115.3c2.3-9.5,3.7-20.2,7.3-29.4
		c2.6-6.8,6.3-12.9,8.2-20.2c3.4-12.9,3.3-27.3-5.6-38c-18.7-22.7-41.1,12-46.9,28.4c-7.2,20.3-11,41.9-14.2,63.1
		c-0.4,2.6-0.8,5.3-1.1,8c-1.5-0.5-3.1-1-4.6-1.6c-2.7-0.9-2.4-0.4-2.4-3c0-4,1.1-8.3,1.7-12.2c1.8-11.4,4.1-22.7,7.1-33.9
		c5.4-20.3,14-49.4,34.9-59.1c14.6-6.7,31.7,0.3,36.9,15.5c4.6,13.3,2.3,29.7-2.8,42.5c-1.8,4.6-3.9,7.7-4.9,12.4
		c-0.9,4.4-2,8.7-3.1,13c-0.8,3.6-1.7,7.2-2.5,10.8c-7.5,32-15.1,64-22.6,96c-1.7,7.1-3.5,13.6,0.1,20.7
		c4.4,8.6,14.8,13.5,23.8,10.3c11.3-4.1,22.2-10.7,32.9-15.9c17.9-8.6,35.8-17.2,53.6-25.9c11.5-5.5,24.3-10.2,35.2-17
		c0.6-0.4,1.3-0.6,2-0.9c-0.5-2.6-2.2-1.2-3.7-0.4c-2.4,1.2-4.8,2.3-7.2,3.5c-9,4.3-17.9,8.6-26.9,13
		c-21.2,10.2-42.3,20.4-63.5,30.6c-5.1,2.5-10.2,4.9-15.3,7.4c5.8-7.5,3.5-19.1-5.9-22.4c31.4-15.5,62.7-31,94.1-46.5
		c4.4-2.2,8.7-4.3,13.1-6.5c-0.5-2.5-1.9-1.3-3.4-0.6c-2.5,1.2-4.9,2.4-7.4,3.7c-8.9,4.4-17.7,8.8-26.6,13.1
		c-20.5,10.1-41,20.3-61.4,30.4c-3,1.5-6.1,3-9.1,4.5c-3.4,1.7-7.3,1.3-10.3,3.8c3.7-15.5,7.4-30.9,11.2-46.4
		c1.7-7.2,2.5-16.3,5.5-23c0.2-0.4,0.1-1.5,0.4-1.8c1-0.9,5.4-0.7,7.1-1.7c6.7-3.9,7.8-14.3,0.1-17.8c10.4-1.3,14.4-18,2.3-19.9
		c11.5,0.9,17.8-17.4,5-19.9c-4.4-0.9-9.2,2.5-9.1,7.2c0.1,5.7,8.4,9,10.9,2.9c-2.6-2.1-4.8,3.7-8-0.2c-3.8-4.8,3.2-9.3,7.5-7.2
		c10.8,5.3-1.8,20.3-11.7,13.1c-6.9-5-5.1-11.8-2-17.9c4.2-8.4,6.2-18.2,6.7-27.5c1.1-19.9-8.2-40.7-31.2-39.5
		c-19.8,1-31.4,21.4-38.2,37.5c-9.8,23.2-14.6,48.7-17.6,73.6c-9.2-3.1-18.4-6.1-27.5-9.2c11.9-20.7,19.2-44.3,25.8-67.1
		c2.5-8.6,4.8-17.2,6.9-25.8c0.5-1.9,2.1-5.7,1.3-7.4c-1.4-2.5-7.6-5.2-9.8-6.7c-6.4-4.4-12.9-8.8-19.3-13.2
		c-14.7-10-29.4-20.1-44.1-30.1c-5.2-3.6-10.5-7.1-15.7-10.7c-0.4-0.3-2.2-1.1-2.4-1.7c-0.7-2.1,4-10,5-12.1c2-4.4,4.2-8.8,6.6-13
		c8.9,8.8,19.2,16.4,28.9,24.3c15,12.1,29.7,24.8,45.7,35.5c26.3,17.6,63.5,32.8,92.5,12.2c10.3-7.3,18.2-18.8,17.9-31.8
		c15.2-3.6,28.3,5.9,39.2,16.1c10.2,9.4,18.9,20.3,27.1,31.5c2.4,3.3,4.7,6.6,7,10c1.8,2.6,3.5,4.2,3.1,7.2
		c-0.3,1.7-1.2,3.7-1.8,5.3c-3.1,8.9-6.8,17.7-10.9,26.2c3.4-1.3,3.8-3.4,5.3-6.7c1.4-3.1,2.7-6.3,4-9.4c1.2,2.5,2.5,5.1,3.7,7.6
		c1.5,3.1,1.6,5.4,5,5.7c-2.2-4.5-4.3-8.9-6.5-13.4c-1.5-3.1-0.5-4.1,0.7-7.6c2.2-6.2,4.1-12.4,5.7-18.7c3.1,7.6,6.2,15.2,9.3,22.8
		c1.9,4.7,3.9,9.5,5.8,14.2c0.4,1.1,1.5,2.7,1.6,3.9c0.1,3-3.8,3.7-1.4,6.6c5.2-7.5,9.9-15.3,13.9-23.5c4.5,9.4,9.1,18.8,13.6,28.2
		c0.9,1.8,2.3,3.9,2.8,5.9c0.7,2.8-0.6,3.6-2.5,6.4c-5.3,7.9-11.9,14.9-16.7,23c59.5-65.3,64.8-166.2,12.4-237.2
		C322,46.7,286.8,23.2,246.8,11C199.9-3.2,149.5-2.4,101.5,6.3c-28.7,5.1-58.1,12.5-84.9,24.2C30,42.3,43.4,54.2,56.8,66.1
		C27,99.1,9.6,142.3,8.5,186.9c-0.3,12.8,0.7,25.6,2.9,38.1c1.1,6.1,2.5,12.1,4.2,18c1,3.5,1.2,3.3,0,6.1c-2.2,5.1-5.3,10-8,15
		c-1.5,2.7-2.9,5.5-4.4,8.2c-0.9,1.7-2.9,4.2-3.2,6.1c-0.5,3.4,5.1,8.6,7.2,11.5c3.1,4.3,7.1,4.3,12.3,5.7c-1.7,4.7-6,10.1-0.8,13.4
		c5,3.3,11.6,4.9,17.3,6.5c-5,1-13.9,0.8-13,7.6c0.6,4.1,2.4,6.2,5.4,8.5c1.3,1,5.2,3.2,5.4,4.5c0.3,2.2-4,7.9-5,9.9
		c-0.9,1.7-3.5,5.1-3.6,7.2c-0.1,1.6,2,4.6,2.7,6c1.6,3.6,3.3,7.2,4.9,10.8c0.9,2,2.4,8,4.2,9.3c1.7,1.2,6.2,0.1,8.4,0
		c7.6-0.4,15.2-0.8,22.7-1.3c14.5-0.8,29.5-2.8,44.1-2.5c1.1,0,1.8-0.3,2.6,0.2c1.8,1.2,3.4,6.3,4.4,8.1c3.5,6.6,7.1,13.2,10.6,19.8
		c1.4-6.1-4.8-13.3-7.7-18.6c-1.6-3-4.1-10.8-7.2-11.7c-1.5-0.5-4.3,0.2-5.9,0.3c-3.4,0.2-6.8,0.4-10.2,0.6
		c-8.9,0.5-17.8,1-26.7,1.5c-8.1,0.5-16.2,0.9-24.4,1.4c-2.3,0.1-7.8,1.4-9.5,0c-1.9-1.5-3.2-7-4.2-9.2c-1.8-3.9-3.5-7.7-5.3-11.6
		c-1-2.2-1.3-2.3-0.8-4.3c0.9-3.5,3.7-7.3,5.4-10.6c0.7-1.4,2.5-3.6,2.6-5.1c0.2-1.9,0.6,0-0.5-1.8c-1.9-3-6.6-4.2-8.7-7.2
		c-1.4-2-2.7-5.9-0.8-7.4c1.8-1.5,6.6-1.6,8.8-2.1c3.5-0.7,6.9-1.3,10.4-2c-7.1-1.8-14.1-3.7-20.9-6.5c-1.4-0.6-5.7-1.8-6.2-3.5
		c-0.6-2,2.9-8.1,3.7-10.3c-0.8-0.2-1.1-1.1-0.9-1.8c-1.7-0.4-3.4-1.1-5.1-1.3c-0.4,0-2.9,2.1-2.2-0.6c-4.5-1.2-6.1-5.3-8.8-9
		c-2.1-2.8-2.9-2.8-1.8-5.6c3.4-9.1,9.5-17.9,14.1-26.5c2.4-4.6,4.8-9.1,7.3-13.7c0.8-1.6,2.3-3.4,2.6-5.2c0.8-4.3-1.5-9.8-1.5-14.1
		c0-2.3,0.6-4.4,1.2-6.7c2.6-10,5.2-19.9,7.9-29.9c20.3,13.5,40.5,26.9,60.8,40.4c2.5,1.6,7.5,3.7,9.3,6.1c2.2,2.9,0.6,9.6,0,13
		c-2.8,16.8-9.2,33.2-15.3,49c-4.3,11-8.9,21.9-13.8,32.7c16.6,5.6,33.4,11.2,50.3,16.8c1.3-11,3.2-22,5.3-32.9
		c1.4-7.5,3-14.9,4.9-22.2c1-3.8,2.6-7.8,3.3-11.6c-0.1,0.5-1.8-4.2,0.7-2.1c3.1-9.7,7.1-18.9,13.8-26.7
		c5.8-6.6,15.1-14.8,24.5-10.7c8.7,3.8,13,14.9,13.7,23.7c0.7,9.5-1.7,19.1-5.3,27.8c0.5-0.2,1.3,1,1.1,1.4
		c-0.3,0.7-1.7,0.8-2.3,1.5c-1.3,1.3-2.6,5-3.4,6.8c-2.5,6.1-3.4,13.4-5,19.8c-3.9,15.9-7.7,31.8-11.4,47.7
		c-3.9,16.8-7.7,33.6-11.1,50.5c-3.3,16.3-7.1,32.8-8.2,49.4c-0.4,5.3-0.9,9.4,5.7,8.9c2.8-0.2,5.6-1,8.3-1.8
		c8.4-2.5,16.5-5.8,24.6-9.2c23.2-9.8,45.8-20.9,68.3-32.2c22.1-11.1,44.1-22.5,66-34.1C317.9,393.1,317,392.8,316.1,392.5
		C277.3,413.1,316.6,392.7,316.1,392.5z M172.7,425.9c-5.7,12.4,15.4,18.2,15.3,5.9c0-5-6.7-8.6-10.1-4.1c-3.7,5.1,4.5,10.3,6.6,4.8
		c-2.1-1.7-2.2,1-4.1,0.2c-2.3-1-1.6-4,0.4-4.9c5.1-2.4,6.9,6.5,1.9,8.7c-9.2,4-12.1-12.7-1.8-15.1c11.5-2.6,16.1,12.3,9.9,19.9
		c-6.8,8.4-19.2,6.5-25.5-1.5c-6.9-8.9-2.5-19.7-0.2-29.5c3.2-13.4,6.3-26.8,9.5-40.2c2.3-9.7,4.6-19.4,6.9-29.1
		c1.5,4.5,4.5,5.6,7.7,8.4c1.1,1,1.3,0.2,1.6,1.3c0.4,1.4-1.3,5.2-1.6,6.6c-2.1,8.6-4.1,17.2-6.2,25.8
		C179.6,397.4,176.1,411.6,172.7,425.9z M203,336.9c2.3,5.4-2.5,11.1-7.9,11.6c-5.3,0.5-10.5-3.7-11.9-8.7
		c-1.4-5.3,1.5-12.5,2.8-17.9c1.4,4.1,4.9,7.4,9,8.8c-4.3,1-7.4,6.1-5,10.2c2.2,3.9,8.3,4.3,10.1-0.2c-2.1-1.6-2.3,0.8-4.3,1.2
		c-2.6,0.6-4.8-2-4.7-4.4C191.5,330.6,200.8,331.9,203,336.9C203.8,338.7,202.2,335.1,203,336.9z M199,310.6
		c0.9,0.4,1.8,0.6,2.8,0.7c-5.1-0.4-9.8,4.8-7.7,9.7c1.9,4.3,8.4,5.4,10.4,0.5c-2.6-2-4,3.2-7.4,0.4c-3.8-3.2,0-8.5,4-8.6
		c11-0.2,7,17.9-4.2,15.9c-14.1-2.5-8.3-18.1-6.2-27.1C192.1,306,195.2,309.1,199,310.6C199.9,311,194.9,309,199,310.6z
		 M119.3,225.1c-3.8,16.2-8.3,32.3-13.3,48.1c-3.7,11.6-7.8,23.2-12.7,34.4c-1.9,4.3-3.8,10.9-7,14.3c-1.7,1.9-0.9,1.7-3.6,0.8
		c-1.5-0.5-3-1-4.5-1.5c6-13.3,11.6-26.8,16.6-40.4c5.6-15.2,13.6-33.5,12.5-50c-0.2-3.8-0.7-4-3.6-6c-4.6-3-9.1-6.1-13.7-9.1
		c-13.5-9-27-17.9-40.5-26.9c-6-4-12-8-18-11.9c-1.2-0.8-3.9-1.9-4.8-3.2c-1.8-2.4,1.3-7.3,2.3-10.3c26.3,18,52.6,35.9,79,53.9
		C111.7,219.9,115.5,222.5,119.3,225.1z M24.8,231.8c-2.2,4.1-4.4,8.2-6.6,12.3c-11-36.9-10-77.1,2.7-113.5
		c5.8-16.7,14-32.5,24.3-46.8c2.1-2.9,10.6-16.4,13.6-15.9c1.1,0.2,3.1,2.8,4,3.5c2.2,1.9,4.3,3.9,6.5,5.8c1,0.9,3.5,4.1,4.9,4.3
		c1.8,0.3,3.1-3.5,4.9-3.5c1.4,0,4.2,2.6,5.3,3.3c1.8,1.1,3.6,2.3,5.4,3.4c-16.4,8.9-30.5,21.7-41.4,36.7c-2.7,3.7-5.1,7.5-7.5,11.4
		c0,0-1.1,0-1.3,0.4c-0.3,0.5,0.3,1.3,0.2,1.5c-1.2,2.2-2.5,4.4-3.6,6.7c-4.4,8.6-8,17.6-11,26.7c-0.7,2.2-2.2,4.5-1.1,6.2
		c1,1.5,4.6,3.1,6.1,4.1c2.8,1.9,2.4,1.7,1.5,4.9c-2.4,9.3-4.9,18.6-7.3,27.9C22.7,218.3,24,224.6,24.8,231.8z M290.7,69.8
		L290.7,69.8L290.7,69.8z M339.1,131.8L339.1,131.8L339.1,131.8z M348.3,219.4L348.3,219.4L348.3,219.4z M204.6,129.3
		c-11.5-3.4-23.8-4.9-35.8-3c-6.1,1-14.6,2.9-19.2,7c-9.3,8.3-4,27.6,10.1,24c5.7-1.4,9.6-7.3,7.5-13c-2.1-5.7-9.7-7.9-13.7-2.7
		c1.7,2.3,5.5-2,8.9-0.1c4.1,2.3,4.3,7.9,1.4,11.2c-7.2,8.2-18.5-1-17.2-10.1c0.9-6.6,7.3-11.1,13.4-11.5
		c9.8-0.6,17.4,8.3,17.8,17.7c0.8,20.1-25.1,27.6-39,16.3c-13.1-10.7-14.6-30.3-4.1-43.3c13.5-16.9,39.7-17.4,59-14.1
		c34.2,5.8,61.4,26.1,83.2,52.4c9.2,11.1,17.4,23.1,24.6,35.5c2.2,3.8,4.3,7.6,6.3,11.5c2.4,4.7,1.5,7.3,0.4,12.9
		C283.1,182.3,249.7,142.6,204.6,129.3C178,121.4,240.2,139.8,204.6,129.3z M74.1,14.1c3.5,6.1,7,12.1,10.6,18.2
		c4.8,8.3,10.9,16.7,14.8,25.5c0.2,0.4,1.3,1.7,1.2,2.1c-0.3,1.4-8.7,6-10.2,6.7c-2.7,1.2-0.8,1.2-2.4,0.3c-0.9-0.5-1.8-2.3-2.5-3.2
		c-6.2-8.1-12.5-16.1-18.7-24.2c-5-6.5-10-13-15.1-19.4C59.2,18,66.6,16,74.1,14.1z M102.1,7.9L102.1,7.9L102.1,7.9z M129.6,4.1
		L129.6,4.1L129.6,4.1z M159.7,40.3L159.7,40.3L159.7,40.3z M197.7,3.5c0.3,11.4,0.7,22.9,1,34.3c-4.7-0.3-9.3-0.4-14-0.4
		c-2.6,0-2.4,0.6-3.2-1c-1.4-2.7-0.7-8.7-0.9-11.6c-0.6-7.5-1.2-15-1.8-22.5C185.1,2.4,191.4,2.8,197.7,3.5z M242.3,46.1L242.3,46.1
		L242.3,46.1z M349.7,169.4L349.7,169.4L349.7,169.4z M310.7,210.6C310.7,210.6,310.7,210.6,310.7,210.6L310.7,210.6z M179.7,39.5
		c1.6-0.1,7.5-1.1,8.4-0.1c0.3,0.3,0.1,1.5,0.2,1.9c1,3.3,0.7,7.6,1,11c0.6,6.5,1.2,13,1.8,19.5c-3.6-0.6-14.5-0.3-16.3-2.8
		c-1.4-1.9-1.4-7.5-1.8-9.8c-1.2-6.4-2.3-12.8-3.5-19.2C172.9,39.8,176.3,39.5,179.7,39.5z M139,70c-3,0.3-6.1,0.7-9.1,1.3
		c-4.3,0.7-4.6,1.4-7-2.1c-3.1-4.5-6.2-9.1-9.2-13.8c3-1.4,6-2.8,9.1-4.1c1.2-0.5,6.6-3.3,7.5-2.8c1.1,0.7,2.1,5.1,2.5,6.3
		C134.9,59.9,137,65,139,70z M122.9,72.6c-2.7,0.6-8.8,3.4-11.2,2.6c-1.3-0.4-2.9-2.6-3.9-3.5c-3-2.7-6-5.4-9-8.1
		c2.7-1.7,5.5-3.3,8.4-4.9c4-2.2,4.3-3.2,6.7,0.5C116.8,63.8,119.8,68.3,122.9,72.6C119.2,73.5,119.4,67.8,122.9,72.6z M222.7,78.7
		c-2.6-0.7-5.1-1.4-7.7-2c-1.2-0.3-5.2-0.6-5.7-1.4c-0.3-0.4,0.1-1.6,0-2.1c-0.6-3.6,0.1-7.8,0.2-11.4c0.1-7,0.2-14.1,0.3-21.1
		c5.2,0.6,10.3,1.5,15.4,2.5c2.5,0.5,4.1,0,4.5,2c0.6,2.7-1.7,8.2-2.3,10.9C225.8,63.7,224.2,71.2,222.7,78.7z M207.2,74.9
		c-2-0.4-13.1-1.3-14.1-2.7c-0.3-0.3,0-1.2-0.1-1.6c-1.2-2.9-0.7-7.8-1-11c-0.6-6.7-1.2-13.4-1.9-20.2c4.6,0.1,9.3,0.4,13.9,0.8
		c3,0.3,3-0.3,3.8,1.5c1.1,2.6-0.1,8.3-0.2,11.1C207.4,60.1,207.3,67.5,207.2,74.9z M238.6,83.6c-3.8-1.4-8.6-2-12.2-3.9
		c-3-1.6-1.3,0.2-1.5-2c-0.3-3.4,1.7-8.2,2.4-11.5c1.5-7.2,3-14.4,4.5-21.5c6.2,1.4,12.4,3.1,18.5,5.1
		C246.5,61.1,242.5,72.3,238.6,83.6z M199.7,38.1L199.7,38.1L199.7,38.1z M172.9,69.7c-3.9-0.3-7.8-0.5-11.7-0.6
		c-1.3,0-3.9,0.5-4.7-0.3c-1.1-1-1.3-6.7-1.6-8.1c-1.2-6-2.4-12-3.6-18c3.3-0.7,14.6-4,16.4-1.6c1.4,1.7,1.3,7.3,1.7,9.5
		C170.6,57,171.7,63.3,172.9,69.7z M154.5,69.1c-2.9,0-11.8,1.9-13.6,0.2c-1.3-1.2-2.1-5.2-2.8-6.9c-2-4.8-3.9-9.7-5.9-14.5
		c5.6-1.9,11.3-3.4,17.1-4.7C151,51.8,152.7,60.5,154.5,69.1z M97,64.7c4.3,3.8,8.5,7.7,12.8,11.5c-4.3,1.4-8.5,3.1-12.7,5
		c-3,1.4-3.9,2.7-6.6,1.6c-3.4-1.3-6.8-4.2-9.9-6.1C85.8,72.4,91.3,68.4,97,64.7z M157.3,71.1c16.9,0,33.7,2.3,50.2,6
		c16.2,3.6,32.4,8,47,15.9c24.4,13.2,43,35.3,51.3,61.8c5.3,16.9,6.3,34.9,4.4,52.4c-16.5-33.2-40.6-65.5-72.4-85.3
		c-23.9-14.9-57.2-23.7-84.7-14.6c-17,5.7-30.3,20.8-26.9,39.8c-18.8-14.6-35.5-32.4-50.3-50.9C99.3,78.4,128.3,71.1,157.3,71.1z
		 M313.1,194.5c0.2-7.1-0.2-14.3-1.2-21.4c8.8,7,17.6,14,26.4,21c2.8,2.2,9.3,5.5,11,8.7c1.5,2.8-1.2,11.4-1.8,14.6
		c-1.5,7.6-3.6,15-6.2,22.3C331.9,224.5,322.5,209.5,313.1,194.5z M349.7,200.5c-7.8-6.2-15.6-12.4-23.4-18.6
		c-4.2-3.3-8.4-6.7-12.7-10c-0.6-0.5-1.7-1.1-2.2-1.7c-1.3-2-1.3-6.9-1.9-9.4c-0.7-2.9-1.5-5.7-2.4-8.5c9.2,3.9,18.4,7.9,27.7,11.8
		c3.5,1.5,10.1,2.9,12.9,5.5c1.9,1.8,1.6,6.3,1.8,9.1C350.2,185.9,350.2,193.2,349.7,200.5z M306.3,149.8
		c-2.2-6.3-5.1-12.3-8.4-18.1c9.7,0.3,19.4,0.5,29.1,0.8c2.3,0.1,8.8-1,10.8,0.3c1.2,0.8,2.4,5.7,2.8,6.9c1,2.7,1.9,5.4,2.8,8.1
		c2,6.5,3.6,13.1,4.8,19.8C334.2,161.7,320.2,155.7,306.3,149.8z M296.6,129.7c-3-4.9-6.5-9.6-10.3-14c8.7-1.7,17.4-3.3,26-5
		c2.8-0.5,8.8-2.9,11.6-2.2c2,0.5,4.1,5.4,5.2,7.4c2.8,4.8,5.4,9.8,7.7,14.8C323.4,130.4,310,130,296.6,129.7z M284.8,113.9
		c-4.7-5.2-9.9-9.8-15.5-14c7.8-5,15.7-10,23.5-15c2.3-1.4,5.9-4.9,8.2-4.1c2.2,0.8,4.6,4.4,6.2,6.2c1.8,1.9,3.5,3.8,5.2,5.8
		c3.8,4.4,7.4,9,10.7,13.9C310.4,109,297.6,111.5,284.8,113.9z M267.5,98.6c-4.7-3.4-9.7-6.4-14.9-9c5.6-6.6,11.1-13.2,16.7-19.7
		c1.4-1.6,4.7-7.4,6.7-8c1.8-0.5,8.6,5.5,10.2,6.7c4.4,3.2,8.6,6.6,12.6,10.2C288.3,85.4,277.9,92,267.5,98.6z M250.7,88.7
		c-1.8-0.9-9.8-3.3-10.1-4.7c-0.2-0.9,1.2-3.4,1.5-4.2c1.9-5.5,3.8-11.1,5.8-16.6c0.9-2.5,1.7-5,2.6-7.4c0.3-0.9,0.8-4.1,1.7-4.8
		c1.2-1,6.2,1.6,8,2.3c5,2,9.7,4.7,14.3,7.4C266.5,70.1,258.6,79.4,250.7,88.7z M128.7,4.3c1.9,8.2,3.8,16.5,5.7,24.7
		c0.9,3.9,2.9,8.7,2.9,12.8c0,0.5,0.7,1.8,0.5,2.3c-0.4,0.8-6.6,2.1-7.6,2.4c-2.3,0.8-5.1,2.5-7.5,2.8c-3.5,0.5-0.9,1.2-2.5-0.7
		c-0.9-1.2-1.4-3.3-2-4.7c-1.9-4.6-3.9-9.2-5.8-13.8c-3.1-7.3-6.2-14.7-9.3-22C111.7,6.5,120.2,5.3,128.7,4.3z M101.2,8.3
		c2.5,5.9,4.9,11.8,7.4,17.6c2,4.6,3.9,9.3,5.9,13.9c1.1,2.7,3.8,6.6,4,9.5c0,0.3,0.7,1,0.5,1.3c-0.3,0.8-4.8,2.1-5.6,2.6
		c-2.5,1.2-4.9,2.4-7.4,3.7c-4.3,2.3-3.5,2.2-5.6-1.4c-4.5-7.7-8.9-15.4-13.4-23.1c-3.7-6.3-7.3-12.6-11-18.9
		C84.4,11.6,92.8,9.9,101.2,8.3z M67.2,103.3c1.3-1.2,5.8-6.1,7.3-5.9c0.6,0.1,2,2.5,2.4,3c2.7,3.2,5.4,6.4,8.1,9.5
		c9.1,10.3,18.7,20.3,29,29.5c2.5,2.2,5.1,4.4,7.7,6.6c3.1,2.5,4.9,3.7,6.3,7.4c2.2,5.6,6.1,10.6,11,14.1c4.7,3.4,10.5,5.2,16.3,5
		c6.7-0.2,11-4.2,17-5.7c-0.9,8.5,3.6,17.4,11.4,21c-25.1,4-51.5-11.4-70.9-25.6c-11.7-8.6-22.6-18.3-32.8-28.5
		c-4.9-4.9-9.7-10-14.4-15.2c-1.4-1.6-5.4-4.6-5.9-6.7C59.3,109.9,65.5,105,67.2,103.3C69.6,101.2,64.5,105.9,67.2,103.3z
		 M312.9,198c6,9.6,12,19.3,18,28.9c2.6,4.2,7.1,9.2,8.7,13.9c0.9,2.9-1.2,5.7-2.5,8.6c-3.1,7-6.8,13.8-10.9,20.2
		c-3.9-9.7-7.9-19.3-11.8-29c-1.6-4-4.6-8.8-5.4-13.2c-0.6-3.3,1.1-7.4,1.7-10.9C311.9,210.5,312.6,204.3,312.9,198z M301.1,78.5
		L301.1,78.5L301.1,78.5z M276.3,60L276.3,60L276.3,60z M285.3,29.1c-5,6.6-9.9,13.3-14.9,19.9c-0.8,1-1.8,3.3-3,4
		c-1.6,1-0.2,0.7-2.4,0.2c-2.5-0.5-5.2-2.1-7.6-3c-4.6-1.7-9.3-3.2-14-4.6c1.8-5.5,3.6-11,5.4-16.5c1.1-3.3,2.2-6.7,3.3-10
		c0.6-1.7,2.2-4-0.8-4c-2,6-4,12.1-5.9,18.1c-0.9,2.9-1.5,7.9-3.4,10.3c-0.3,0.3-0.2,1.4-0.5,1.6c-1.1,0.7-9.4-2.4-11-2.7
		c-1.8-0.4-9.6-0.9-10.3-2.1c-0.2-0.4,0.2-1.6,0.2-2.1c-0.3-3.4,0.6-7.3,0.9-10.7c0.6-6.5,1.1-13,1.7-19.5c-2.5-1-2.1,0.8-2.2,2.6
		c-0.3,3.7-0.7,7.4-1,11.1c-0.5,6.1-1.1,12.2-1.6,18.3c-4.5-0.7-9-1.3-13.6-1.8c-3-0.3-3.2,0.4-4.1-1.5c-1.2-2.5-0.2-8.3-0.3-11
		c-0.2-7.4-0.4-14.7-0.6-22.1C229.5,6.8,258.9,14.8,285.3,29.1z M176.7,2.1c0.9,11.8,1.9,23.6,2.8,35.3c-6.3,0.2-12.6,0.8-18.9,1.7
		c-1.4-11.7-2.8-23.5-4.3-35.2c-3.2-0.5-1.7,3-1.4,4.9c0.6,5.2,1.3,10.4,1.9,15.7c0.5,3.9,2.1,9.2,1.6,13.1
		c-0.4,2.5,1.5,0.8-1.9,2.1c-5.1,1.9-11.4,2.2-16.8,3.7c-3-13.1-6-26.3-9.1-39.4C146,2.5,161.4,1.7,176.7,2.1z M49.8,20.8
		C62.3,36.9,74.7,53,87.2,69c-2.4,1.8-10.7,10.2-13.1,9.7c-1.4-0.3-3.8-3.4-4.8-4.3C63.1,69,56.9,63.5,50.8,58.1
		c-10.1-9-20.3-18-30.4-27C30,27.2,39.9,23.9,49.8,20.8z M217.9,196.2c-6.5,10.3-19.4,16.9-31,19c-17.8,3.3-35.9-2.1-51.7-10.1
		c-20.8-10.5-38.7-25.9-56.8-40.5c-9.8-7.9-19.7-15.8-29.3-24c-1.6-1.4-5-3.4-6-5.3c-1.1-2.2,1.3-4.4,2.8-6.6
		c3.6-5.6,7.6-10.9,12-15.9c21.6,25.2,46.4,49.5,76,65.2c10.9,5.7,22.6,10.3,34.8,11.9c7,0.9,13.7-0.5,20.6-0.5
		c9.5,0.1,19.5-6.1,18.2-16.9c-1.2-9.5-12.7-15.9-20.3-8.5c-8.4,8.3,4.1,22.2,11.3,12.9c-1.8-2.5-5,1.9-8.2,0.5
		c-3.7-1.5-5-6.4-3.3-9.8c4.3-8.8,16.1-4.4,18.2,3.6c2.4,9.4-6.9,17.1-15.7,16.2c-8.2-0.8-14.2-8.3-15.1-16.2
		c-2-17.2,18.2-27.8,32.8-21.5C225,157.4,229.3,181.5,217.9,196.2C217.8,196.4,223,189.7,217.9,196.2z M237.5,173.6
		c-3.7-0.7-7.8-0.7-11.2,1c-1.9-22.3-28.4-38.6-46.7-21.7c1.7-10.2-4.7-21.6-15.2-23.7c31.2-7.8,63.5,9.2,86.9,28.4
		c12.9,10.6,24.5,22.9,35.1,35.8c5,6.2,9.8,12.5,14.4,19c1.9,2.7,4.9,5.8,6.1,8.9c1.7,4.1-1.5,11.4-2.8,15.7
		c-11.6-17.5-24.5-35.1-40.5-48.9C256.2,181.7,247.4,175.4,237.5,173.6C231.6,172.5,250.3,175.9,237.5,173.6z M355.6,287.7
		c-3-6.1-5.9-12.2-8.9-18.3c-2-4-3.9-8.1-5.9-12.1c-0.7-1.5-1.7-4.2-2.7-5.1c4.6-9.9,8.2-20.3,10.5-30.9c7.1,7,14.1,14,21.2,21
		c1,1,3.3,2.5,3.8,3.7c1,2.4-1.7,7.4-2.7,9.9C366.9,266.9,361.7,277.6,355.6,287.7z M374.8,244.3c-6-6-12.1-12-18.1-17.9
		c-1.9-1.9-6.3-4.8-7.3-7.3c-1-2.4,1.5-9.9,1.9-12.8c0.6-5.6,0.9-11.3,0.8-17c7.6,4.7,15.3,9.5,22.9,14.2c1.6,1,3.8,1.9,5.2,3.2
		c1.8,1.6,1.6,0.8,1.3,4.1C380.2,222.1,378,233.3,374.8,244.3z M382.4,191.5c0,4.6-0.2,9.3-0.5,13.9c-7.5-4.7-15-9.3-22.5-14
		c-2.5-1.6-6.4-3-7.4-5.6c-0.8-2.2-0.3-6-0.5-8.4c-0.3-2.8-0.6-5.6-1-8.4c-0.9-6-2.2-11.9-3.9-17.8c8,2.6,16,5.3,23.9,7.9
		c2.3,0.8,7.7,1.4,9.5,3.1c1.8,1.7,1.5,9.8,1.7,12.4C382.1,180.3,382.4,185.9,382.4,191.5z M379.7,160.2c-5.8-1.9-11.6-3.9-17.4-5.8
		c-5-1.7-11.4-4.9-16.4-5.3c-3.1-10.2-7.1-20-12.2-29.4c9.3-0.3,18.5-0.6,27.8-1c1.4,0,3.9-0.7,5.2-0.2c2.3,0.8,3,5.1,4,7.6
		C374.7,137.2,377.8,148.6,379.7,160.2z M366.7,116.6c-5.8,0.2-11.7,0.4-17.5,0.6c-3,0.1-14.7-1.1-16.4,0.9
		c-5.5-9.8-11.7-18.6-19.1-27.1c8.7-3,17.4-6,26.2-9c1.2-0.4,3.6-1.8,4.9-1.7c2.2,0.2,4,4.3,5.4,6.3
		C356.5,96.1,362.1,106.2,366.7,116.6z M344.1,78.4c-8,2.8-16,5.5-23.9,8.3c-1.8,0.6-6,3.1-8,2.8c-1.3-0.2-4.6-4.9-5.6-6
		c-1.9-1.9-3.9-3.8-5.9-5.7c-2.8-2.6-5.9-5.1-8.9-7.5c7-5.3,14.1-10.5,21.1-15.8c1.1-0.8,2.9-2.8,4.2-3.2c2.3-0.6,3.4,1.4,5.4,3.3
		C330.3,61.9,337.6,69.9,344.1,78.4z M316.4,49.3c-8.7,6.5-18.1,12.7-26.3,19.7c-6.8-5.2-14.1-9.9-21.7-13.9
		c4.7-6.3,9.5-12.7,14.2-19c1.2-1.6,2.4-3.9,3.9-5.2c2-1.7,0.7-1.9,3.9-0.1C299.6,36.2,308.3,42.4,316.4,49.3z M198.6,2.5L198.6,2.5
		L198.6,2.5z M177.7,1.2L177.7,1.2L177.7,1.2z M74.5,13L74.5,13L74.5,13z M50.1,19.6L50.1,19.6L50.1,19.6z"/>
	<path class="st1" d="M40.2,288c-0.9-4.3-1.9-8.6-2.8-12.9c-3.5-0.2-1.1,4.5-0.6,6.6c0.8,3.6,1.9,4.2-0.9,5.9
		c-2.1,1.3-4.6,2.5-6.4,1.5c-2.4-1.5-4.6-5.4-6.4-7.6c-3.3,3.6-6.7,7.3-10,10.9c1.5,2.5,2.9-0.2,4.2-1.6c1.9-2.1,3.8-4.2,5.8-6.3
		c1.8,2.1,3.5,4.2,5.3,6.3c-2,0.8-9.4,2.3-7.1,5.1C27.6,293.2,33.9,290.6,40.2,288z"/>
	<path d="M45.7,249.6c9.3-3,18.6-6.1,27.9-9.1c0.8,2.2,10.9-0.7,13.4-1c-13.1-4.5-26.3-9-39.4-13.5
		C46.9,233.9,46.3,241.7,45.7,249.6z"/>
	<path class="st1" d="M43.5,252.4c5.8-1.9,11.6-3.8,17.5-5.7c3.5-1.2,7.1-2.3,10.6-3.5c1.7-0.6,3.6-0.6,2.1-2.8
		c-9.3,3-18.6,6.1-27.9,9.1c0.6-7.9,1.2-15.7,1.9-23.6c13.7,4.7,27.5,9.4,41.2,14.1c2-2.7-2.5-3-4.3-3.6c-5.1-1.7-10.2-3.5-15.3-5.2
		c-7.8-2.7-15.6-5.3-23.4-8C45,233,44.2,242.7,43.5,252.4z"/>
	<path class="st1" d="M160.2,285c-2.4,0.5-7.2-1-8,1.5c6.2,4.1,17.9-2.7,22.8-6.2c6.9-5,13-13.2,12.7-22.1
		c-0.3-7.8-6.9-17-14.6-19.1c-6.6-1.8-10.7,5.2-12,10.7c2.3,0.6,4.6,1.2,6.9,1.8c1.8-2.8-2.5-2.7-4.4-3.2c2.8-8,8.4-9.1,14.8-3.7
		c4.7,4.1,7.9,9.5,7.2,15.9C184.4,273,171.7,282.5,160.2,285C157.1,285.6,167.4,283.4,160.2,285z"/>
	<path d="M139.7,43.5c5.3-1.5,11.6-1.7,16.8-3.7c3.8-1.5,1.4,0.6,2-1.9c0.8-3.4-1.1-9.4-1.6-12.8c-0.6-5.1-1.2-10.3-1.9-15.4
		c-0.2-1.5-1.6-5.5,0.3-5.6c0.3-0.1,0.7-0.1,1-0.1c1.4,11.7,2.8,23.5,4.3,35.2c6.3-0.9,12.6-1.4,18.9-1.7c-0.8-9.7-1.5-19.3-2.3-29
		c-0.1-1.4,0.2-4.3-0.4-5.5c-1.1-1.9-6.1-1-8.7-1c-12.5,0-25,0.7-37.5,2.1C133.7,17.2,136.7,30.4,139.7,43.5z"/>
	<path d="M200.7,37.9c5.9,0.4,11.8,1.1,17.6,2.1c0.5-5.7,1-11.5,1.5-17.2c0.2-2.1,0.2-15.2,2.3-14.9c0.3,0,0.7,0.1,1,0.1
		c-0.6,6.3-1.1,12.6-1.7,18.9c-0.3,3.6-1.3,7.7-1,11.2c0,0.5-0.4,1.7-0.2,2.1c0.4,0.8,9,1.8,10.3,2.1c2.1,0.5,9.3,3.6,11,2.7
		c0.3-0.1,0.3-1.3,0.5-1.6c1.7-2.5,2.3-6.9,3.2-9.8c2-6.2,4.1-12.4,6.1-18.6c2.8,0,1.5,1.9,0.9,3.7c-1.1,3.4-2.3,6.9-3.4,10.3
		c-1.8,5.5-3.6,11-5.4,16.5c4.7,1.4,9.4,2.9,14,4.6c2.4,0.9,5.1,2.5,7.6,3c2.3,0.5,0.9,0.7,2.4-0.2c1.1-0.7,2.2-2.9,3-4
		c5-6.6,9.9-13.3,14.9-19.9c-26.4-14.3-55.9-22.3-85.7-25.4C200,15.1,200.3,26.5,200.7,37.9z"/>
	<path d="M181.5,37.4c5.7-0.1,11.4,0,17.1,0.3c-0.2-7.4-0.4-14.8-0.6-22.1c-0.1-2.8,0.9-8.5-0.3-11.1c-0.9-1.8-1.3-1.3-4.2-1.5
		c-4.9-0.4-9.8-0.7-14.8-0.9C179.7,14,180.6,25.7,181.5,37.4z"/>
	<path d="M102.5,59.1c3.3-1.9,6.6-3.7,10-5.3c1.2-0.6,6.3-2.2,6.5-3.1c0.2-0.8-1.4-3.3-1.7-4.1c-2.7-6.4-5.4-12.7-8-19.1
		c-2.3-5.4-4.1-11.9-7.1-17c-1.7-2.7-0.7-2.2-5-1.4c-7.1,1.3-14.1,2.9-21.1,4.6C84.9,28.8,93.7,43.9,102.5,59.1z"/>
	<path d="M88.8,67.9c2.1-1.5,11.8-6.4,11.7-8.3c-0.1-1.5-2.3-4-3.1-5.3c-3.8-6.5-7.6-13-11.4-19.6c-3.4-5.9-6.8-11.8-10.3-17.7
		c-0.3-0.5-1.1-2.6-1.7-2.9c-2.1-0.9-9.4,2.4-11.7,3c-3.5,1-7,2-10.5,3C64.2,36.1,76.5,52,88.8,67.9z"/>
	<path d="M120.9,50c3.1-1.3,6.2-2.5,9.3-3.5c1.3-0.5,7.2-1.5,7.6-2.4c0.3-0.6-0.7-2.9-0.8-3.4c-1.4-6-2.8-12-4.1-18
		c-1.2-5.1-1.6-11.4-3.7-16.2c-1.2-2.8-0.9-2-4.8-1.5c-7,0.9-14.1,1.9-21,3.2C109.1,22,115,36,120.9,50z"/>
	<path d="M74.5,79.2c4.1-3.6,8.3-7,12.6-10.2c-8.7-11.2-17.3-22.4-26-33.6c-2.4-3.1-4.8-6.2-7.2-9.3c-1-1.3-2.5-4.2-3.9-5
		c-2.5-1.4-13.4,3.9-16.4,5c-4.4,1.6-8.9,3.2-13.2,5C38.4,47.1,56.5,63.2,74.5,79.2z"/>
	
		<line fill="none" stroke="#000000" stroke-width="0" stroke-linecap="round" stroke-linejoin="round" x1="242.3" y1="46.1" x2="242.3" y2="46.1"/>
	
		<line fill="none" stroke="#000000" stroke-width="0" stroke-linecap="round" stroke-linejoin="round" x1="222.1" y1="7.9" x2="222.1" y2="7.9"/>
	
		<line fill="none" stroke="#000000" stroke-width="0" stroke-linecap="round" stroke-linejoin="round" x1="199.7" y1="38.1" x2="199.7" y2="38.1"/>
	
		<line fill="none" stroke="#000000" stroke-width="0" stroke-linecap="round" stroke-linejoin="round" x1="198.6" y1="2.5" x2="198.6" y2="2.5"/>
	
		<line fill="none" stroke="#000000" stroke-width="0" stroke-linecap="round" stroke-linejoin="round" x1="177.7" y1="1.2" x2="177.7" y2="1.2"/>
	
		<line fill="none" stroke="#000000" stroke-width="0" stroke-linecap="round" stroke-linejoin="round" x1="159.7" y1="40.3" x2="159.7" y2="40.3"/>
	
		<line fill="none" stroke="#000000" stroke-width="0" stroke-linecap="round" stroke-linejoin="round" x1="155.3" y1="4.1" x2="155.3" y2="4.1"/>
	
		<line fill="none" stroke="#000000" stroke-width="0" stroke-linecap="round" stroke-linejoin="round" x1="129.6" y1="4.1" x2="129.6" y2="4.1"/>
	
		<line fill="none" stroke="#000000" stroke-width="0" stroke-linecap="round" stroke-linejoin="round" x1="102.1" y1="7.9" x2="102.1" y2="7.9"/>
	
		<line fill="none" stroke="#000000" stroke-width="0" stroke-linecap="round" stroke-linejoin="round" x1="74.5" y1="13" x2="74.5" y2="13"/>
	
		<line fill="none" stroke="#000000" stroke-width="0" stroke-linecap="round" stroke-linejoin="round" x1="50.1" y1="19.6" x2="50.1" y2="19.6"/>
	<path d="M310.7,210.6C310.7,210.6,310.7,210.6,310.7,210.6L310.7,210.6z"/>
	<path d="M55.3,214.3c9.4,3.6,18.8,7.2,28.2,10.8c-4.9-3.3-9.8-6.5-14.8-9.8c-3.4-2.2-7.5-6.3-11.4-6.4c-2.8-0.1-6.4,1.2-9.2,1.8
		c-3.8,0.7-7.6,1.5-11.3,2.2c-0.8,0.2-5.1,0.4-5.5,1.1c-0.8,1.3,0.8,7.1,1,8.6C40,219.8,47.6,217.1,55.3,214.3z"/>
	<path class="st1" d="M99.8,233.5c-6.2-4.1-12.4-8.2-18.5-12.3c-4.7-3.1-9.4-6.2-14-9.3c-2.1-1.4-5.3-4.6-7.9-5.2
		c-1.9-0.4-4.6,0.6-6.5,1c-5.4,1-10.8,2.1-16.1,3.1c-1.8,0.3-6.8,0.6-7.6,1.9c-1.2,2.2,1.1,9.9,1.4,12.6c6.4-2.3,12.8-4.6,19.2-6.9
		c5.3-1.9,5.8-1.9,11,0.1C73.8,223.5,86.8,228.5,99.8,233.5z M58.6,208.6c8.3,5.5,16.6,11,24.9,16.5c-4-1.5-8-3.1-12.1-4.6
		c-4.6-1.8-10.5-5.4-15.4-5.9c-3-0.3-6.8,1.9-9.7,2.9c-4.7,1.7-9.4,3.4-14.1,5.1c-0.2-1.4-1.8-7.6-0.9-8.6c0.8-1,6.1-1.2,7.4-1.4
		C45.4,211.2,52,209.9,58.6,208.6z"/>
	<path d="M317.8,393.1c7.8,2.6,16.4,1.8,24.1-0.6c-0.7-0.8-10.2,1.8-11.6,1.9C326.1,394.6,321.8,394.3,317.8,393.1
		C318.1,393.2,320.8,394,317.8,393.1z"/>
	<path d="M263.8,322.7c2.8-2.6,4.1-4.1,3.1-7.6c-0.7-2.4-2.2-7.9-4-9.5c-4.4-4-11.7,0.5-14,4.6C254,313.8,259.8,317.9,263.8,322.7
		C266,320.7,260.7,319.1,263.8,322.7z"/>
	
		<line fill="none" stroke="#000000" stroke-width="0" stroke-linecap="round" stroke-linejoin="round" x1="316.8" y1="268.4" x2="313.6" y2="269.4"/>
	<path d="M305.3,271.8c-20.2,0-34.9,16-46.7,30.5c1.4,0.4,3.7,1.7,4.9,1.1c1-0.5,2.4-3,3.2-3.9c3.9-4.4,8.4-8.5,13.6-11.3
		c12.9-7.1,30.5-2.1,35.6,12.6c3.7,10.5-2.4,22.3-5.4,32.2c-4.8,16-3.9,33.6,14.4,39.6c-4.9-11.3-4.4-23.9-1-35.6
		c1.5-5.3,3.6-10.4,6.1-15.3c1.3-2.6,4-5.6,4.8-8.4c1.1-3.6-2-11.1-3.1-14.8c-1.4-4.6-3.1-9.1-5.5-13.3
		C321.5,277.1,315.3,271.8,305.3,271.8z"/>
	<path d="M326.1,375.1c-19.8-5.6-22.9-23.7-17.8-41.4c3.5-12.2,12.1-28.2,1.6-39.2c-9.6-10-22.7-9.4-33.4-1.4
		c-3.1,2.3-10,7.3-11.2,11.3c-1.3,4.4,6,10,3.8,14.8c5.9-3.5,13.1-7,20.2-5.9c0.3,2.5-1.2,1.6-2.9,1.8c-2.6,0.3-5,0.7-7.4,1.5
		c-4.2,1.5-8.2,3.7-11.8,6.2c-6.9,4.7-13.6,9-19.9,14.6c5.1-2,9.8-4.8,14.9-6.8c3.3-1.3,7.2-1.5,10.3-2.8c2.2-1,3.7-2.7,6.2-3.5
		c17-4.9,15.4,17.8,18.4,27.6c5.3,17.6,16,36,37.1,34.3C330.9,383,328.2,379.2,326.1,375.1C317.7,372.8,328,379,326.1,375.1z
		 M279.5,311c-0.4-0.4-0.7-1.2-1-1.7c6.6-3.8,13.1-7.5,19.7-11.3c-3.9-1.6-7.8-3.2-11.8-4.8c-1,2.6-2.1,5.2-3.1,7.8
		c-0.7,1.8-1.2,6.2-3.8,4.1c1.9-4.8,3.8-9.7,5.7-14.5c5.8,2.4,11.6,4.7,17.4,7.1C295,302.1,287.3,306.5,279.5,311z"/>
	<path d="M339.1,390.7c-1.5-1.2-2.2-2.2-3.8-2.5c-1.1-0.3-2.8,0.2-4,0.2c-2.4,0-4.8-0.2-7.1-0.8c-4.1-0.9-8-2.8-11.4-5.3
		c-6.1-4.7-10.4-11.4-13.5-18.4c-2.8-6.3-5.2-13.5-6.3-20.3c-0.7-4.3,0-9.8-2.5-13.5c-3.3-4.8-9.5-5.3-14.3-2.5
		c12.3,0.5,11.6,14.5,13.8,23.5c2.3,9.3,5.4,18.6,10.9,26.5C309.9,390.7,324,394.8,339.1,390.7C338,389.9,311.2,398.3,339.1,390.7z"
		/>
	<path class="st1" d="M343.4,391.5c-17.8-13.2-23.7-32.6-17.6-53.8c1.5-5.2,3.6-10.3,6-15.1c1.4-2.7,4.5-6.2,5.3-9
		c0.8-3.2-2.1-10.4-3-13.5c-1.6-5.5-3.5-11-6.4-16c-5-8.8-11.8-14.1-22.1-14.3c-10.8-0.1-20.1,4.4-28.5,10.9
		c-5,3.8-9.8,8.1-13.9,12.8c-2,2.4-3.8,5-5.9,7.2c-2.3,2.5-5.5,4-8.1,6.3c-1.2,1.2-2,2.7-3.2,3.5c-1.1,0.8-2.7,1.2-3.9,1.9
		c-4.3,2.7-7.6,6.8-8.6,11.9c-2.2,10.5,4.6,20.3,10.1,28.5c-0.8-4.4-2.9-10,1.5-12.4c5.9-3.3,12.8-6.2,19.2-8.5
		c6.7-2.4,17.1-5,20.4,3.5c1.8,4.7,2,10.4,3.1,15.4c1.2,4.9,2.6,9.8,4.5,14.6c1-0.5,1.4,0.2,1.7,1.4c-2,0.7,1.6,6.2,2.5,7.5
		c0.4,0.6,2.1,2.2,1.9,1.8c0.1,0.2,1,1,1.1,1.7c-0.2,0.1-0.5,0.2-0.7,0.4c2.2,3.3,5,7,8.3,9c0.3,0.2,3.2-0.6,1.6,1.5
		C319,396,331.7,395.2,343.4,391.5z M296.9,351.4c-1.9-6.3-1.5-13.1-3.4-19.2c-2-6.5-9.2-9.8-15.5-7.6c-2.1,0.7-3.6,2.4-5.5,3.2
		c-3.2,1.3-7,1.6-10.3,2.8c-5.1,2-9.9,4.7-14.9,6.8c6.3-5.6,13-9.9,19.9-14.6c3.5-2.4,7.2-4.5,11.2-6c2.4-0.9,4.9-1.6,7.4-1.7
		c1.8-0.1,4,0.9,3.6-1.9c-7-1-14.3,2.4-20.2,5.9c2-4.5-3.9-9.2-4-13.5c-0.1-2.5,4-6,5.9-7.8c7.9-7.8,19.3-14.7,30.5-9.3
		c8.8,4.2,14.3,11.7,13.3,21.8c-1.3,13.2-8.8,24.9-9,38.3c-0.1,7.8,2.3,15.4,8.4,20.5c3.1,2.6,6.7,3.4,10.1,5.4
		c3.9,2.2,6.4,8.2,9.8,11.7C312.8,388,302.2,369.2,296.9,351.4C296.7,350.7,299.7,360.7,296.9,351.4z M240.4,344.4
		c-6.4-10.9-8.4-25.2,5.1-31.5c-1.9,5.4-4.4,10.9-5.7,16.4c-0.5,2.2-0.6,2.4,0.2,4.8c0.4,1.4,1.2,3.1,1.4,4.6
		C241.6,340.8,240.4,342.1,240.4,344.4C235.4,335.8,240.4,342.7,240.4,344.4z M335,313.1c-11.3,16.8-18.5,40.1-10.1,59.6
		c-18.3-6-19.2-23.6-14.4-39.6c3-9.9,9.1-21.7,5.4-32.2c-5.2-14.7-22.7-19.7-35.6-12.6c-5.2,2.9-9.7,6.9-13.6,11.3
		c-0.8,0.9-2.1,3.4-3.2,3.9c-1.2,0.5-3.5-0.7-4.9-1.1c9.1-11.2,19.6-23.4,33.7-28.2c10.9-3.7,22.8-3.5,30.4,6
		C330,289.3,333,301.8,335,313.1C333.6,315.2,331.4,292.5,335,313.1z M248.7,312.7c4.6,3.4,9.8,6.9,13.6,11.3
		c-3,2.1-6.3,3.4-9.1,5.7c-3.3,2.7-6.8,5.6-9.8,8.7c-1.6-5.2-2.2-6.7-0.5-11.6c1.7-4.9,3.4-9.7,5.1-14.6
		C248.2,312.3,248.4,312.5,248.7,312.7C253.1,315.9,248.4,312.5,248.7,312.7z M257,303.9c4.5,1.4,5.8,1.5,7.7,6
		c2.4,5.8,4.3,8.1-0.9,12.9c-4-4.8-9.8-8.9-14.9-12.4C250.3,307.7,254.6,305.4,257,303.9z M287.2,337.2c-1.2-5.7-5.2-9.3-11.1-9.5
		c4.6-2.7,10.5-2.4,13.9,2c2.8,3.6,2.2,8.9,2.7,13.1c1,7.1,3.5,14.6,6.4,21.1c3,6.8,7.1,13.3,13,18c3.3,2.6,7.1,4.5,11.2,5.6
		c2.3,0.6,4.7,0.9,7,0.9c4.3,0.1,5-0.5,8.6,2.3c-12.3,3.3-24.8,1.6-33.9-7.8C293.6,371.1,289.6,353,287.2,337.2
		C286,331.2,293.7,380.2,287.2,337.2z"/>
	<path class="st1" d="M302.8,297.6c-5.8-2.4-11.6-4.7-17.4-7.1c-1.9,4.8-3.8,9.7-5.7,14.5c2.6,2.1,3-2.2,3.8-4.1
		c1-2.6,2.1-5.2,3.1-7.8c3.9,1.6,7.8,3.2,11.8,4.8c-6.6,3.8-13.1,7.5-19.7,11.3c0.8,3.8,9.2-3,11.2-4.1
		C294,302.6,298.4,300.1,302.8,297.6z"/>
	<path d="M241.8,340c-1.4-4.4-3.1-7.3-1.6-11.6c1.8-5.1,3.6-10.2,5.3-15.3c-13.5,6.2-11.5,20.5-5.1,31.5
		C240.4,343,240.6,341,241.8,340z"/>
	<path class="st1" d="M195.8,428.8c0.6,3.8,8-1.9,9.8-2.8c8.2-4.2,16.4-8.4,24.6-12.6c18.8-9.7,37.7-19.4,56.5-29
		c4.3-2.2,8.5-4.4,12.8-6.6c-0.5-2.4-1.7-1.3-3.1-0.6c-2.2,1-4.3,2.2-6.4,3.3c-7.9,4.1-15.9,8.2-23.8,12.2
		c-19,9.8-38,19.5-56.9,29.2C204.7,424.3,200.2,426.6,195.8,428.8z"/>
</g>
</svg>
