<!-- Generator: Adobe Illustrator 18.1.1, SVG Export Plug-In  -->
<svg version="1.1"
	 xmlns="http://www.w3.org/2000/svg" xmlns:xlink="http://www.w3.org/1999/xlink" xmlns:a="http://ns.adobe.com/AdobeSVGViewerExtensions/3.0/"
	 x="0px" y="0px" width="177.6px" height="111.5px" viewBox="0 0 177.6 111.5" enable-background="new 0 0 177.6 111.5"
	 xml:space="preserve">
<style>
path {
	fill:#000;
}
.st1 {
	fill:#F9F6EF;
}
</style>
<defs>
</defs>
<g>
	<path d="M173.4,36.9c5.6-9.8,1.8-23.1-8.5-28c-4.9-2.3-10.8-2-15.3,0.9c-4.6,2.9-7.7,8.2-6.8,13.7c0.8,5.2,5,9.9,10.4,10.3
		c5.1,0.4,10.5-3.6,10.4-9c-0.1-3-1.6-4.7-3.7-6.5c-0.5-0.4-1-1.4,0.2-1.5c1.1-0.1,2.6,1.7,3.2,2.5c3.6,4.6,1.9,10.9-2.7,14.1
		c-4.8,3.3-11.1,2.3-15.2-1.7c-1.8-1.8-3.1-4.1-3.8-6.6c-0.4-1.5-0.5-3-0.4-4.6c0.1-1.4-0.9-2.7-1.6-3.9c-5.9-9.8-16.9-14.9-28.1-15
		c-5.8-0.1-11.5,1.1-16.5,4.2c-4.9,3.1-8.7,7.7-10.9,13.1c-4.2,10.5-1.4,23,8.5,29.1c9.4,5.8,22.9,3.5,27.5-7.3
		c2.2-5,1.9-11.2-1.6-15.6c-3.4-4.2-9.5-6.3-14.7-4.4c-4.4,1.7-7,6-6.9,10.6c0,0.6,0,1.7-1,1.4c-1.1-0.4-0.6-3-0.5-3.8
		c0.4-2.7,1.7-5.2,3.7-7c4-3.8,10.2-4.3,15.1-2c4.9,2.3,8.2,7,8.7,12.3c0.6,5.6-1.5,11.2-5.5,15.1c-4,4-9.5,5.7-15.1,5.4
		C91.2,52,81.9,43.2,80.7,32.1c-0.3-3.1-0.2-6.2,0.5-9.2c0.3-1.4,0.7-2.7,1.2-4.1c0.2-0.5,0.9-1.5,0.9-2.1c0-0.6-1.1-1.3-1.6-1.8
		c-4.2-3.6-8.9-6.5-14-8.5c-10.1-4-21.4-4.7-31.9-1.9C25.5,7.3,15.9,13.3,9.5,21.8C3.8,29.5,1,39.1,1.6,48.6
		c0.6,9.6,4.8,18.9,11.7,25.7c7.8,7.7,19.3,10.9,30,8.3c10-2.4,19-9.8,21.6-19.9c2.5-9.4-0.7-20.1-8.4-26.1
		c-8.7-6.8-22.5-5.2-28.7,4.2c-5.8,9-0.8,23.6,11,23.7c5.1,0,10.3-3.2,11.6-8.4c1.2-4.8-1.6-10.7-6.8-11.5c-1.3-0.2-2.6-0.1-3.9,0.3
		c-0.5,0.2-1.1,0.4-1.5,0.7c-0.5,0.3-1.1,1.1-1.6,1.2c-0.5,0.1-0.9-0.1-1-0.6c-0.1-0.6,0.5-1,0.8-1.3c1-0.9,2.3-1.5,3.6-1.8
		c5.3-1.4,10.3,2.2,11.8,7.2c1.5,4.9-0.5,10-4.6,13c-4.2,3-9.9,3.5-14.6,1.1c-4.9-2.4-8.1-7.7-8.7-13c-0.7-5.7,1.6-11.3,5.8-15.1
		c8.3-7.5,21.3-7.4,29.4,0.3c2.1,1.9,3.8,4.2,5.1,6.7c0.7,1.2,1.2,2.5,1.7,3.8c0.3,1,0.3,1.1,1.3,1.3c0.8,0.2,1.6,0.3,2.4,0.5
		c5,1.2,10,3.1,14.3,6.1c4,2.8,7.5,6.7,9.3,11.3c0.4,1,0.7,2.1,0.9,3.2c0.5,2.5,1.3,5,2.4,7.3c4.6,10,14,17.4,24.8,19.5
		c11.1,2.1,22.9-1.4,29.7-10.7c6.5-8.9,7.4-22.2,0.2-31c-6.8-8.2-20.2-10.9-28.6-3.7c-7.7,6.5-8.6,20.2,0.9,25.6
		c4.3,2.4,10.1,2.5,14.1-0.7c1.8-1.5,3.1-3.5,3.6-5.8c0.3-1.1,0.3-2.2,0.3-3.2c0-0.6-0.6-2.1,0.4-2.3c1.8-0.4,1,4.9,0.8,5.8
		c-0.6,2.5-2,4.9-4,6.6c-3.7,3.2-9.1,3.7-13.6,2.1c-10.6-3.9-12.7-17.4-6.5-26c6.7-9.2,20.2-9.9,29.2-3.7c1,0.7,2.3,2.4,3.5,2.4
		c1.4,0.1,3-0.4,4.4-0.8c2.5-0.7,4.9-1.7,7.1-3C167,45.3,170.8,41.4,173.4,36.9C176.1,32.3,170,42.9,173.4,36.9z"/>
	<path class="st1" d="M166.7,8.1c-9.1-5.2-21.8-1-25.1,9.3c-4.3-8.1-11.9-13.7-20.7-16c-8.7-2.3-18.6-1.8-26.5,2.9
		c-4.4,2.6-8,6.4-10.4,10.8C71.4,3.4,53.4-1.3,36.6,2.7C20,6.7,5.2,19.1,1.1,36c-4,16.6,2.8,35.9,18,44.6c3.6,2.1,7.6,3.5,11.8,4.1
		c2.2,0.3,4.5,0.4,6.7,0.3c1.2-0.1,2.4-0.2,3.6-0.4c1.1-0.2,2.6-0.8,3.7-0.8c0.6,0,0.3-0.4,0.7,0.3c0.2,0.3,0.2,0.3,0.2,0.6
		c0.1,0.5-0.1,1.1-0.1,1.7c0,1.2,0.1,2.4,0.2,3.5c0.3,2.3,1,4.4,2,6.5c1.8,3.7,4.6,6.9,7.8,9.4c7.1,5.5,16.7,7.2,25.2,4.6
		c8.2-2.5,15-8.8,19-16.4c1-1.9,1.8-3.8,2.4-5.8c8.8,8.6,21.9,12.3,33.9,9.2c11.3-3,19.9-13,21.2-24.7c0.8-6.9-1-14.1-5.6-19.5
		c16.3-1.9,31.5-19.6,23.5-35.9C173.5,13.5,170.4,10.2,166.7,8.1C164.1,6.6,177.1,14,166.7,8.1z M150.5,51.8
		c-8-7.7-21.9-9.3-30.1-1.2c-7.6,7.4-7.9,21.3,1.8,27.1c4.2,2.5,9.8,2.9,14.2,0.5c4.2-2.3,6.7-7.1,6.2-11.9
		c-0.1-0.6-0.3-2.4-1.4-1.7c-0.7,0.5-0.1,1.9-0.1,2.6c0.1,2.3-0.6,4.7-2,6.6c-3,4.2-8.6,5.4-13.3,3.9c-10.3-3.2-12.1-16.3-6-24.1
		c7-9,20.7-8.5,28.8-1.4c8.7,7.6,9.4,21,3.9,30.7c-5.6,9.9-16.5,14.7-27.6,13.9c-11.2-0.8-21.5-7.3-27.1-17
		c-2.1-3.7-3.1-7.5-4.2-11.5c-1.2-4.5-4.1-8.5-7.6-11.5c-3.8-3.2-8.4-5.4-13.2-6.9c-1.3-0.4-2.5-0.7-3.8-1c-0.7-0.2-1.4-0.3-2.1-0.5
		c-0.6-0.1-0.5-0.1-0.9-0.6c-0.2-0.4-0.3-0.9-0.5-1.3c-1-2.6-2.4-5-4.1-7.2c-7-8.8-19.7-11.3-29.3-5c-4.7,3.1-8,8-8.5,13.7
		c-0.5,5.5,1.7,11.2,5.9,14.7c4,3.4,9.7,4.2,14.5,2.3c4.7-1.9,8.1-6.3,8-11.5c-0.1-5.1-3.8-10-9.1-10.5c-2.5-0.2-5.3,0.6-7.1,2.3
		c-0.8,0.8-0.4,2,0.8,1.4c0.5-0.2,0.9-0.8,1.4-1.1c0.7-0.4,1.4-0.7,2.2-0.9c5.4-1.4,10,3.2,10.3,8.4c0.4,5.3-3.7,9.7-8.7,11
		C30.4,67.1,22.5,54,26.2,44c4-10.7,17.9-14.3,27.5-9.1c8.8,4.7,13.2,15.4,11.8,25.1C64,70.2,56.2,78.2,46.7,81.7
		c-10.4,3.7-22.2,1.8-30.8-5.1C8.2,70.4,3.2,61.1,1.9,51.4c-1.3-9.3,0.8-19,5.8-27c5.6-8.9,14.9-15.6,24.8-19
		C42.8,2,54.1,1.9,64.4,5.3c5.2,1.7,10.1,4.3,14.5,7.5c1.1,0.8,2.2,1.7,3.2,2.6c0.2,0.2,0.5,0.4,0.7,0.6c0.5,0.5,0.4,0.3,0.3,0.9
		c-0.1,0.7-0.7,1.6-0.9,2.3c-1,2.8-1.6,5.8-1.6,8.8c-0.3,11.3,7,21.8,18.4,24.2c5.4,1.1,11.2,0.4,15.8-2.7c4.6-3.1,7.7-8.3,8.2-13.9
		c0.5-5.4-1.5-10.6-5.8-14c-4.2-3.3-10.5-4.3-15.3-1.7c-2.4,1.3-4.3,3.3-5.4,5.7c-0.4,0.9-2.4,7.3-0.2,7.1c1-0.1,0.6-1.4,0.6-2
		c0-1.1,0.2-2.3,0.5-3.3c0.7-2.2,2.1-4.1,3.9-5.4c4.3-3.1,10.5-2.4,14.7,0.7c4.5,3.4,6.2,9.1,5.2,14.5c-1,5.4-4.7,10.1-9.7,12.4
		c-4.9,2.2-10.8,2-15.7,0.1c-11-4.4-15.6-16.4-12.8-27.5c2.9-11.3,12.8-19.4,24.4-20.4c11.2-1,23,2.9,30.1,12
		c0.8,1.1,1.6,2.2,2.3,3.3c0.3,0.6,0.7,1.2,1,1.8c0.5,0.9,0.4,1.4,0.4,2.4c-0.1,2.9,0.7,5.7,2.3,8.1c3,4.7,8.9,7.4,14.4,5.4
		c5-1.8,8.6-7.1,7-12.4c-0.4-1.2-1-2.4-1.8-3.4c-0.6-0.6-2.4-2.7-3.3-2c-0.9,0.7,0.2,1.3,0.6,1.6c1,0.8,1.9,1.7,2.5,2.9
		c2.6,5.1-1.2,10.8-6.4,12.1c-5.3,1.3-10.5-2.1-12.6-6.9c-4.8-11.1,7.2-21.3,17.8-19c11.1,2.4,17.1,15.3,13.6,25.7
		C171.6,43.4,160.9,51.1,150.5,51.8C149.5,50.8,153,51.6,150.5,51.8z M102,86.8C102,86.8,102,86.8,102,86.8
		C102,86.8,102,86.8,102,86.8z M86.8,106c-9.5,5.9-22.1,5.1-30.8-2c-4.3-3.5-7.5-8.4-8.4-13.9c-0.2-1.4-0.3-2.8-0.3-4.3
		c0-0.6,0.1-1.3,0.2-1.9c0.1-1.1,0.5-1.1,1.4-1.5c2.6-1.1,5.1-2.6,7.4-4.3c2.3-1.8,4.3-3.8,6-6.1c0.8-1.1,1.4-2.2,2-3.4
		c0.3-0.6,0.5-1.4,0.9-1.9c0.4-0.5-0.1-0.3,0.7-0.4c0.5-0.1,1.1,0,1.6,0.1c5.3,0.5,10.1,3.6,12.8,8.2c2.3,4,2.2,9,0,13
		c-2.6,4.5-7.8,7.3-12.9,5.7c-5.7-1.7-9.3-8.6-5.3-13.8c1.9-2.4,5.1-3.5,8-2.2c0.6,0.3,1.2,0.7,1.7,1.1c0.4,0.4,0.7,1.1,1.1,1.4
		c0.5,0.3,0,0.3,0.6,0c0.3-0.1,0.6-0.4,0.9-0.5c-3.2-5.2-10.3-5.3-13.9-0.4c-3.2,4.5-1.8,10.5,2.4,13.8c4.8,3.8,11.5,3,15.9-1.1
		c4.5-4.2,5.9-11.1,3.3-16.7c-2.9-6.2-9.5-10.2-16.3-10.2c1.6-4.7,1.8-9.9,0.6-14.7c6.9,1.3,13.8,3.9,19.1,8.6
		c2.5,2.3,4.6,5.1,5.9,8.3c1,2.5,1.3,5.3,2.2,7.9c0.8,2.3,1.9,4.5,3.1,6.5c0.7,1.1,1.4,2.1,2.1,3.1c0.4,0.6,2,1.8,1.4,2.5
		c0.2,0.1,0.5,0.1,0.7,0.2C98.8,94.9,93.7,101.7,86.8,106C80.9,109.7,93.8,101.7,86.8,106z"/>
	<path d="M100.4,86.9c0.6-0.6-0.6-1.4-1-1.9c-0.7-0.9-1.3-1.7-1.9-2.7c-1.2-1.8-2.2-3.8-3.1-5.8c-1.2-2.8-1.6-5.7-2.5-8.5
		c-1.9-6-6.8-10.6-12.3-13.6c-4.1-2.2-8.5-3.6-13-4.4c1.2,4.9,0.9,10-0.6,14.7c6,0,11.8,3.1,15.1,8.2c3.5,5.3,3.2,12.4-0.7,17.3
		c-3.7,4.7-10.2,6.6-15.6,3.7c-4.8-2.5-7.4-8.3-5.1-13.4c2.8-6.2,11.1-7.2,14.8-1.2c-0.3,0.2-0.5,0.3-0.8,0.5
		c-0.5,0.3-0.3,0.3-0.7,0.1c-0.3-0.1-0.8-1.1-1-1.3c-0.5-0.5-1.2-1-1.9-1.3c-3-1.4-6.4,0-8.3,2.6c-3.9,5.4,0.3,12.3,6.3,13.6
		c6,1.3,11.6-3,13.3-8.6c1.6-5.4-0.5-11-4.7-14.6c-2.3-2-5.1-3.3-8.1-3.7c-0.8-0.1-1.9-0.4-2.7-0.2c-0.9,0.2-0.3-0.1-0.7,0.4
		c-0.3,0.3-0.4,0.9-0.6,1.3c-0.7,1.5-1.6,3-2.6,4.3c-1.9,2.6-4.4,4.9-7,6.7c-1.3,0.9-2.6,1.7-4,2.4c-0.7,0.4-1.4,0.7-2.1,1
		c-0.3,0.1-1.1,0.3-1.3,0.5c-0.2,0.3-0.2,1.1-0.2,1.4c-1.4,13.1,9.9,24,22.3,25.5c14.5,1.7,27.5-9.2,31.3-22.8
		C100.9,87,100.6,87,100.4,86.9z"/>
	<path d="M102,86.8C102,86.8,102,86.8,102,86.8L102,86.8z"/>
</g>
</svg>