<!-- Generator: Adobe Illustrator 18.1.1, SVG Export Plug-In  -->
<svg version="1.1"
	 xmlns="http://www.w3.org/2000/svg" xmlns:xlink="http://www.w3.org/1999/xlink" xmlns:a="http://ns.adobe.com/AdobeSVGViewerExtensions/3.0/"
	 x="0px" y="0px" width="611px" height="524.9px" viewBox="0 0 611 524.9" enable-background="new 0 0 611 524.9"
	 xml:space="preserve">
<style>

.st1 {
	fill:#F9F6EF;
}
</style>
<defs>
</defs>
<g>
	<path fill="none" d="M410.4,155v18.6c0,0.6-0.4,1-1,1h-4.7l-2.4,11.9v6.9c0,0.6-0.4,1-1,1h-3v202.8h3c0.6,0,1,0.4,1,1v6.9l2.5,12.1
		h4.6c0.6,0,1,0.4,1,1v18.9h54v-18.9c0-0.6,0.4-1,1-1h4.6l2.5-12.1v-6.9c0-0.6,0.4-1,1-1h3V194.4h-3c-0.6,0-1-0.4-1-1v-6.9
		l-2.4-11.9h-4.7c-0.6,0-1-0.4-1-1V155H410.4z"/>
	<path fill="none" d="M333.5,417.2h4.6l2.5-12.1v-6.9c0-0.6,0.4-1,1-1h3V194.4h-3c-0.6,0-1-0.4-1-1v-6.9l-2.4-11.9h-4.7
		c-0.6,0-1-0.4-1-1V155h-54v18.6c0,0.6-0.4,1-1,1h-4.7l-2.4,11.9v6.9c0,0.6-0.4,1-1,1h-3v202.8h3c0.6,0,1,0.4,1,1v6.9l2.5,12.1h4.6
		c0.6,0,1,0.4,1,1v18.9h54v-18.9C332.5,417.7,332.9,417.2,333.5,417.2z"/>
	<path fill="none" d="M200.6,437.1v-18.9c0-0.6,0.4-1,1-1h4.6l2.5-12.1v-6.9c0-0.6,0.4-1,1-1h3V194.4h-3c-0.6,0-1-0.4-1-1v-6.9
		l-2.4-11.9h-4.7c-0.6,0-1-0.4-1-1V155h-54v18.6c0,0.6-0.4,1-1,1H141l-2.4,11.9v6.9c0,0.6-0.4,1-1,1h-3v202.8h3c0.6,0,1,0.4,1,1v6.9
		l2.5,12.1h4.6c0.6,0,1,0.4,1,1v18.9H200.6z"/>
	<rect x="43.7" y="439.1" width="523.6" height="18.9"/>
	<rect x="24.2" y="460" width="562.6" height="26.4"/>
	<rect x="2" y="488.8" width="607" height="34.1"/>
	<path class="st1" d="M610,486.8h-21.2V459c0-0.6-0.4-1-1-1h-18.5v-19.9c0-0.6-0.4-1-1-1h-26v-18.9c0-0.6-0.4-1-1-1h-4.6
		l-2.5-12.1v-6.9c0-0.6-0.4-1-1-1h-3V194.4h3c0.6,0,1-0.4,1-1v-6.9l2.4-11.9h4.7c0.6,0,1-0.4,1-1V155h11.4c0.6,0,1-0.4,1-1v-47.1
		h8.1c0.6,0,1-0.4,1-1V85c0-0.6-0.4-1-1-1h-0.5c-0.1-0.1-0.2-0.1-0.2-0.1L305.3,0c-0.2-0.1-0.4-0.1-0.6,0L47.9,83.9
		c-0.4,0.1-0.6,0.4-0.7,0.8c0,0.1-0.1,0.2-0.1,0.3v20.9c0,0.6,0.4,1,1,1h8.1V154c0,0.6,0.4,1,1,1h11.4v18.6c0,0.6,0.4,1,1,1h4.7
		l2.4,11.9v6.9c0,0.6,0.4,1,1,1h3v202.8h-3c-0.6,0-1,0.4-1,1v6.9l-2.5,12.1h-4.6c-0.6,0-1,0.4-1,1v18.9h-26c-0.6,0-1,0.4-1,1V458
		H23.2c-0.6,0-1,0.4-1,1v27.8H1c-0.6,0-1,0.4-1,1v36.1c0,0.6,0.4,1,1,1h609c0.6,0,1-0.4,1-1v-36.1C611,487.3,610.6,486.8,610,486.8z
		 M609,522.9H2v-34.1h607V522.9z M78.9,399.2h3h51.8h3v5H78.9V399.2z M82.8,194.4h8v202.1c0,0.3,0.1,0.5,0.3,0.7h-8.2V194.4z
		 M114.4,83.8L301.9,23h0.1l187.6,60.8H114.4z M495.7,83.8c-0.1-0.1-0.2-0.2-0.4-0.2L302.5,21c-0.1,0-0.2,0-0.3,0h-0.4
		c-0.1,0-0.2,0-0.3,0L108.6,83.6c-0.2,0-0.3,0.1-0.4,0.2H54.5L305,2.1l250.5,81.8H495.7z M49.2,86h512.6v18.9h-8.1H57.3h-8.1V86z
		 M58.3,106.9h494.4V153h-11.4h-75.9h-56h-75.9h-56h-75.9h-56H69.7H58.3V106.9z M532.2,192.4h-57.7v-5h57.7V192.4z M145.7,417.2H141
		l-2.5-12.1v-6.9c0-0.6-0.4-1-1-1h-3V194.4h3c0.6,0,1-0.4,1-1v-6.9l2.4-11.9h4.7c0.6,0,1-0.4,1-1V155h54v18.6c0,0.6,0.4,1,1,1h4.7
		l2.4,11.9v6.9c0,0.6,0.4,1,1,1h3v202.8h-3c-0.6,0-1,0.4-1,1v6.9l-2.5,12.1h-4.6c-0.6,0-1,0.4-1,1v18.9h-54v-18.9
		C146.7,417.7,146.2,417.2,145.7,417.2z M92.8,396.6V194.4h8.6v202.1c0,0.3,0.1,0.5,0.3,0.7h-9.1C92.7,397,92.8,396.8,92.8,396.6z
		 M103.4,396.6V194.4h8.6v202.1c0,0.3,0.1,0.5,0.3,0.7h-9.1C103.3,397,103.4,396.8,103.4,396.6z M114,396.6V194.4h8.6v202.1
		c0,0.3,0.1,0.5,0.3,0.7h-9.1C113.9,397,114,396.8,114,396.6z M124.6,396.6V194.4h8v202.8h-8.2C124.5,397,124.6,396.8,124.6,396.6z
		 M465.4,174.6h4.7l2.4,11.9v6.9c0,0.6,0.4,1,1,1h3v202.8h-3c-0.6,0-1,0.4-1,1v6.9l-2.5,12.1h-4.6c-0.6,0-1,0.4-1,1v18.9h-54v-18.9
		c0-0.6-0.4-1-1-1h-4.6l-2.5-12.1v-6.9c0-0.6-0.4-1-1-1h-3V194.4h3c0.6,0,1-0.4,1-1v-6.9l2.4-11.9h4.7c0.6,0,1-0.4,1-1V155h54v18.6
		C464.4,174.2,464.8,174.6,465.4,174.6z M488.4,396.6V194.4h8.6v202.1c0,0.3,0.1,0.5,0.3,0.7h-9.1
		C488.3,397,488.4,396.8,488.4,396.6z M499,396.6V194.4h8.6v202.1c0,0.3,0.1,0.5,0.3,0.7h-9.1C498.9,397,499,396.8,499,396.6z
		 M486.4,194.4v202.1c0,0.3,0.1,0.5,0.3,0.7h-8.2V194.4H486.4z M509.4,397.2c0.2-0.2,0.3-0.4,0.3-0.7V194.4h8.6v202.1
		c0,0.3,0.1,0.5,0.3,0.7H509.4z M278.5,437.1v-18.9c0-0.6-0.4-1-1-1h-4.6l-2.5-12.1v-6.9c0-0.6-0.4-1-1-1h-3V194.4h3
		c0.6,0,1-0.4,1-1v-6.9l2.4-11.9h4.7c0.6,0,1-0.4,1-1V155h54v18.6c0,0.6,0.4,1,1,1h4.7l2.4,11.9v6.9c0,0.6,0.4,1,1,1h3v202.8h-3
		c-0.6,0-1,0.4-1,1v6.9l-2.5,12.1h-4.6c-0.6,0-1,0.4-1,1v18.9H278.5z M213.7,399.2h51.8h3v5h-57.7v-5H213.7z M214.7,194.4h8v202.1
		c0,0.3,0.1,0.5,0.3,0.7h-8.2V194.4z M210.7,192.4v-5h57.7v5H210.7z M270.8,174.6l-2.2,10.8h-58.1l-2.2-10.8H270.8z M224.7,396.6
		V194.4h8.6v202.1c0,0.3,0.1,0.5,0.3,0.7h-9.1C224.6,397,224.7,396.8,224.7,396.6z M235.3,396.6V194.4h8.6v202.1
		c0,0.3,0.1,0.5,0.3,0.7H235C235.2,397,235.3,396.8,235.3,396.6z M245.9,396.6V194.4h8.6v202.1c0,0.3,0.1,0.5,0.3,0.7h-9.1
		C245.8,397,245.9,396.8,245.9,396.6z M256.5,396.6V194.4h8v202.8h-8.2C256.4,397,256.5,396.8,256.5,396.6z M210.5,406.3h58.1
		l2.2,10.9h-62.5L210.5,406.3z M276.5,172.6h-73.9V155h73.9V172.6z M276.5,436.8h-73.9v-17.6h73.9V436.8z M408.4,436.8h-73.9v-17.6
		h73.9V436.8z M342.6,192.4v-5h57.7v5H342.6z M340.2,417.1l2.2-10.9h58.1l2.2,10.9H340.2z M400.3,404.3h-57.7v-5h3h51.8h3V404.3z
		 M346.6,194.4h8v202.1c0,0.3,0.1,0.5,0.3,0.7h-8.2V194.4z M356.5,396.6V194.4h8.6v202.1c0,0.3,0.1,0.5,0.3,0.7h-9.1
		C356.4,397,356.5,396.8,356.5,396.6z M367.1,396.6V194.4h8.6v202.1c0,0.3,0.1,0.5,0.3,0.7h-9.1C367,397,367.1,396.8,367.1,396.6z
		 M377.7,396.6V194.4h8.6v202.1c0,0.3,0.1,0.5,0.3,0.7h-9.1C377.6,397,377.7,396.8,377.7,396.6z M388.1,397.2
		c0.2-0.2,0.3-0.4,0.3-0.7V194.4h8v202.8H388.1z M400.5,185.4h-58.1l-2.2-10.8h62.5L400.5,185.4z M408.4,172.6h-73.9V155h73.9V172.6
		z M540.3,436.8h-73.9v-17.6h73.9V436.8z M472.1,417.1l2.2-10.9h58.1l2.2,10.9H472.1z M532.2,404.3h-57.7v-5h3h51.8h3V404.3z
		 M520,397.2c0.2-0.2,0.3-0.4,0.3-0.7V194.4h8v202.8H520z M532.3,185.4h-58.1l-2.2-10.8h62.5L532.3,185.4z M540.3,172.6h-73.9V155
		h73.9V172.6z M70.7,155h73.9v17.6H70.7V155z M138.9,174.6l-2.2,10.8H78.7l-2.2-10.8H138.9z M78.9,187.4h57.7v5H78.9V187.4z
		 M78.7,406.3h58.1l2.2,10.9H76.4L78.7,406.3z M70.7,419.2h73.9v17.6H70.7V419.2z M567.3,439.1V458H43.7v-18.9H567.3z M24.2,460
		h562.6v26.4H24.2V460z"/>
	<path d="M145.7,153h56h75.9h56h75.9h56h75.9h11.4v-46.1H58.3V153h11.4H145.7z M490.4,117.7c0-0.6,0.4-1,1-1h42.9c0.6,0,1,0.4,1,1
		v23.5c0,0.6-0.4,1-1,1h-42.9c-0.6,0-1-0.4-1-1V117.7z M431.2,117.7c0-0.6,0.4-1,1-1h42.9c0.6,0,1,0.4,1,1v23.5c0,0.6-0.4,1-1,1
		h-42.9c-0.6,0-1-0.4-1-1V117.7z M371.9,117.7c0-0.6,0.4-1,1-1h42.9c0.6,0,1,0.4,1,1v23.5c0,0.6-0.4,1-1,1h-42.9c-0.6,0-1-0.4-1-1
		V117.7z M312.7,117.7c0-0.6,0.4-1,1-1h42.9c0.6,0,1,0.4,1,1v23.5c0,0.6-0.4,1-1,1h-42.9c-0.6,0-1-0.4-1-1V117.7z M253.4,117.7
		c0-0.6,0.4-1,1-1h42.9c0.6,0,1,0.4,1,1v23.5c0,0.6-0.4,1-1,1h-42.9c-0.6,0-1-0.4-1-1V117.7z M194.2,117.7c0-0.6,0.4-1,1-1h42.9
		c0.6,0,1,0.4,1,1v23.5c0,0.6-0.4,1-1,1h-42.9c-0.6,0-1-0.4-1-1V117.7z M135,117.7c0-0.6,0.4-1,1-1h42.9c0.6,0,1,0.4,1,1v23.5
		c0,0.6-0.4,1-1,1H136c-0.6,0-1-0.4-1-1V117.7z M75.7,118.8c0-0.6,0.4-1,1-1h42.9c0.6,0,1,0.4,1,1v23.5c0,0.6-0.4,1-1,1H76.7
		c-0.6,0-1-0.4-1-1V118.8z"/>
	<rect x="77.7" y="119.8" width="40.9" height="21.5"/>
	<path class="st1" d="M76.7,143.3h42.9c0.6,0,1-0.4,1-1v-23.5c0-0.6-0.4-1-1-1H76.7c-0.6,0-1,0.4-1,1v23.5
		C75.7,142.8,76.2,143.3,76.7,143.3z M77.7,119.8h40.9v21.5H77.7V119.8z"/>
	<rect x="137" y="118.7" width="40.9" height="21.5"/>
	<path class="st1" d="M136,142.1h42.9c0.6,0,1-0.4,1-1v-23.5c0-0.6-0.4-1-1-1H136c-0.6,0-1,0.4-1,1v23.5
		C135,141.7,135.4,142.1,136,142.1z M137,118.7h40.9v21.5H137V118.7z"/>
	<rect x="196.2" y="118.7" width="40.9" height="21.5"/>
	<path class="st1" d="M195.2,142.1h42.9c0.6,0,1-0.4,1-1v-23.5c0-0.6-0.4-1-1-1h-42.9c-0.6,0-1,0.4-1,1v23.5
		C194.2,141.7,194.7,142.1,195.2,142.1z M196.2,118.7h40.9v21.5h-40.9V118.7z"/>
	<rect x="255.4" y="118.7" width="40.9" height="21.5"/>
	<path class="st1" d="M254.4,142.1h42.9c0.6,0,1-0.4,1-1v-23.5c0-0.6-0.4-1-1-1h-42.9c-0.6,0-1,0.4-1,1v23.5
		C253.4,141.7,253.9,142.1,254.4,142.1z M255.4,118.7h40.9v21.5h-40.9V118.7z"/>
	<rect x="314.7" y="118.7" width="40.9" height="21.5"/>
	<path class="st1" d="M313.7,142.1h42.9c0.6,0,1-0.4,1-1v-23.5c0-0.6-0.4-1-1-1h-42.9c-0.6,0-1,0.4-1,1v23.5
		C312.7,141.7,313.1,142.1,313.7,142.1z M314.7,118.7h40.9v21.5h-40.9V118.7z"/>
	<rect x="433.2" y="118.7" width="40.9" height="21.5"/>
	<path class="st1" d="M432.2,142.1h42.9c0.6,0,1-0.4,1-1v-23.5c0-0.6-0.4-1-1-1h-42.9c-0.6,0-1,0.4-1,1v23.5
		C431.2,141.7,431.6,142.1,432.2,142.1z M433.2,118.7h40.9v21.5h-40.9V118.7z"/>
	<rect x="373.9" y="118.7" width="40.9" height="21.5"/>
	<path class="st1" d="M372.9,142.1h42.9c0.6,0,1-0.4,1-1v-23.5c0-0.6-0.4-1-1-1h-42.9c-0.6,0-1,0.4-1,1v23.5
		C371.9,141.7,372.4,142.1,372.9,142.1z M373.9,118.7h40.9v21.5h-40.9V118.7z"/>
	<rect x="492.4" y="118.7" width="40.9" height="21.5"/>
	<path class="st1" d="M491.4,142.1h42.9c0.6,0,1-0.4,1-1v-23.5c0-0.6-0.4-1-1-1h-42.9c-0.6,0-1,0.4-1,1v23.5
		C490.4,141.7,490.9,142.1,491.4,142.1z M492.4,118.7h40.9v21.5h-40.9V118.7z"/>
	<path d="M54.5,83.8h53.7c0.1-0.1,0.2-0.2,0.4-0.2L301.5,21c0.1,0,0.2,0,0.3,0h0.4c0.1,0,0.2,0,0.3,0l192.8,62.5
		c0.2,0,0.3,0.1,0.4,0.2h59.8L305,2.1L54.5,83.8z"/>
	<polygon points="301.9,23 114.4,83.8 489.6,83.8 302,23 	"/>
	<polygon points="553.7,104.9 561.8,104.9 561.8,86 49.2,86 49.2,104.9 57.3,104.9 	"/>
	<polygon points="136.7,185.4 138.9,174.6 76.5,174.6 78.7,185.4 	"/>
	<path d="M122.6,396.6V194.4H114v202.1c0,0.3-0.1,0.5-0.3,0.7h9.1C122.7,397,122.6,396.8,122.6,396.6z"/>
	<path d="M90.8,396.6V194.4h-8v202.8h8.2C90.9,397,90.8,396.8,90.8,396.6z"/>
	<path d="M101.4,396.6V194.4h-8.6v202.1c0,0.3-0.1,0.5-0.3,0.7h9.1C101.5,397,101.4,396.8,101.4,396.6z"/>
	<path d="M132.6,194.4h-8v202.1c0,0.3-0.1,0.5-0.3,0.7h8.2V194.4z"/>
	<path d="M112,396.6V194.4h-8.6v202.1c0,0.3-0.1,0.5-0.3,0.7h9.1C112.1,397,112,396.8,112,396.6z"/>
	<rect x="78.9" y="187.4" width="57.7" height="5"/>
	<polygon points="136.7,406.3 78.7,406.3 76.4,417.1 138.9,417.1 	"/>
	<polygon points="136.5,399.2 133.6,399.2 81.8,399.2 78.9,399.2 78.9,404.3 136.5,404.3 	"/>
	<rect x="70.7" y="155" width="73.9" height="17.6"/>
	<rect x="70.7" y="419.2" width="73.9" height="17.6"/>
	<polygon points="268.6,185.4 270.8,174.6 208.3,174.6 210.5,185.4 	"/>
	<path d="M264.4,194.4h-8v202.1c0,0.3-0.1,0.5-0.3,0.7h8.2V194.4z"/>
	<path d="M254.5,396.6V194.4h-8.6v202.1c0,0.3-0.1,0.5-0.3,0.7h9.1C254.6,397,254.5,396.8,254.5,396.6z"/>
	<path d="M233.3,396.6V194.4h-8.6v202.1c0,0.3-0.1,0.5-0.3,0.7h9.1C233.4,397,233.3,396.8,233.3,396.6z"/>
	<path d="M222.7,396.6V194.4h-8v202.8h8.2C222.8,397,222.7,396.8,222.7,396.6z"/>
	<path d="M243.9,396.6V194.4h-8.6v202.1c0,0.3-0.1,0.5-0.3,0.7h9.1C244,397,243.9,396.8,243.9,396.6z"/>
	<rect x="210.7" y="187.4" width="57.7" height="5"/>
	<polygon points="270.8,417.1 268.6,406.3 210.5,406.3 208.3,417.1 	"/>
	<polygon points="210.7,404.3 268.4,404.3 268.4,399.2 265.4,399.2 213.7,399.2 210.7,399.2 	"/>
	<rect x="202.6" y="155" width="73.9" height="17.6"/>
	<rect x="202.6" y="419.2" width="73.9" height="17.6"/>
	<polygon points="340.2,174.6 342.4,185.4 400.5,185.4 402.7,174.6 	"/>
	<path d="M354.5,396.6V194.4h-8v202.8h8.2C354.6,397,354.5,396.8,354.5,396.6z"/>
	<path d="M388.3,194.4v202.1c0,0.3-0.1,0.5-0.3,0.7h8.2V194.4H388.3z"/>
	<path d="M365.1,396.6V194.4h-8.6v202.1c0,0.3-0.1,0.5-0.3,0.7h9.1C365.2,397,365.1,396.8,365.1,396.6z"/>
	<path d="M386.3,396.6V194.4h-8.6v202.1c0,0.3-0.1,0.5-0.3,0.7h9.1C386.4,397,386.3,396.8,386.3,396.6z"/>
	<path d="M375.7,396.6V194.4h-8.6v202.1c0,0.3-0.1,0.5-0.3,0.7h9.1C375.8,397,375.7,396.8,375.7,396.6z"/>
	<rect x="342.6" y="187.4" width="57.7" height="5"/>
	<polygon points="342.4,406.3 340.2,417.1 402.7,417.1 400.5,406.3 	"/>
	<polygon points="345.6,399.2 342.6,399.2 342.6,404.3 400.3,404.3 400.3,399.2 397.3,399.2 	"/>
	<rect x="334.5" y="155" width="73.9" height="17.6"/>
	<rect x="334.5" y="419.2" width="73.9" height="17.6"/>
	<polygon points="472.1,174.6 474.3,185.4 532.3,185.4 534.6,174.6 	"/>
	<path d="M486.7,397.2c-0.2-0.2-0.3-0.4-0.3-0.7V194.4h-8v202.8H486.7z"/>
	<path d="M518.2,194.4h-8.6v202.1c0,0.3-0.1,0.5-0.3,0.7h9.1c-0.2-0.2-0.3-0.4-0.3-0.7V194.4z"/>
	<path d="M520.2,194.4v202.1c0,0.3-0.1,0.5-0.3,0.7h8.2V194.4H520.2z"/>
	<path d="M507.6,396.6V194.4H499v202.1c0,0.3-0.1,0.5-0.3,0.7h9.1C507.7,397,507.6,396.8,507.6,396.6z"/>
	<path d="M497,396.6V194.4h-8.6v202.1c0,0.3-0.1,0.5-0.3,0.7h9.1C497.1,397,497,396.8,497,396.6z"/>
	<rect x="474.5" y="187.4" width="57.7" height="5"/>
	<polygon points="474.3,406.3 472.1,417.1 534.6,417.1 532.3,406.3 	"/>
	<polygon points="477.4,399.2 474.5,399.2 474.5,404.3 532.2,404.3 532.2,399.2 529.2,399.2 	"/>
	<rect x="466.4" y="155" width="73.9" height="17.6"/>
	<rect x="466.4" y="419.2" width="73.9" height="17.6"/>
</g>
</svg>
