<!-- Generator: Adobe Illustrator 18.1.1, SVG Export Plug-In  -->
<svg version="1.1"
	 xmlns="http://www.w3.org/2000/svg" xmlns:xlink="http://www.w3.org/1999/xlink" xmlns:a="http://ns.adobe.com/AdobeSVGViewerExtensions/3.0/"
	 x="0px" y="0px" width="597.9px" height="432.8px" viewBox="0 0 597.9 432.8" enable-background="new 0 0 597.9 432.8"
	 xml:space="preserve">
<style>

.st1 {
	fill:#F9F6EF;
}
</style>
<defs>
</defs>
<g id="XMLID_4_">
	<path d="M543.6,157.4c-1,3.5-2.9,6.8-5.4,9.5c-1.6,1.7-3.4,3-5.3,4.3c0,0,0,0,0,0c-5,2.9-11.3,3.2-16.7,1
		c-5.7-2.4-10.4-7.9-10.8-14.2c-0.1-1.2-0.4-3.2,0.9-3.8c1.6-0.7,3.1-1.5,4.6-2.5c2.8-1.9,5.3-4.5,6.7-7.6c0.1-0.3,0.3-1.1,0.6-1.3
		c0.4-0.3,1.4,0,1.8,0c1.5,0.2,2.9,0.6,4.2,1.3c2.6,1.4,4.8,3.9,5.5,6.9c1.4,5.9-3.8,12.9-10.2,10.9c-2.4-0.8-4.3-2.9-4.8-5.3
		c-0.4-2.7,1.2-5.5,3.9-6.2c1.4-0.4,3-0.1,4.1,0.9c0.3,0.3,0.7,1.1,1.1,1.2c0.1,0,0.2-0.1,0.3-0.1c0.1,0,0.3-0.2,0.4-0.3
		c0.2-0.3,0.1-0.1,0-0.5c-1.1-2.2-4.2-2.9-6.3-2.3c-2.6,0.7-4.4,3.2-4.5,5.9c-0.2,2.8,1.4,5.5,3.8,6.9c5.4,3.2,11.8-0.6,13.3-6.2
		c1.6-5.9-2.4-11.6-7.9-13.5c-1.4-0.5-2.8-0.7-4.2-0.7c1.1-3.4,1.3-7,0.4-10.5c6.2,1.2,12.6,3.8,16.3,9.3c2,2.9,2.2,6.4,3.5,9.6
		c0.7,1.6,1.5,3.1,2.5,4.6C541.6,154.9,543.4,157.4,543.6,157.4z"/>
	<path d="M578.7,132.3C578.7,132.4,578.7,132.4,578.7,132.3C578.7,132.4,578.7,132.4,578.7,132.3c-5.6-5.4-13.9-6.4-19.9-2.1
		c-5.3,3.8-7.3,11.7-3.6,17.3c2.1,3.2,6,5.1,9.9,4.7c4-0.4,7.4-3.4,8-7.4c0-0.3,0.2-4.5-1-3.3c-0.5,0.5,0,1.5,0,2.1
		c0,1.1-0.3,2.2-0.7,3.2c-1.7,3.6-5.9,5-9.6,4.1c-6.5-1.6-8.8-9.2-6.2-15c3-6.6,11-8.5,17.4-6c7,2.8,10.5,10.2,9.6,17.5
		c-1,7.8-6.7,14.1-14.2,16.2c-7.5,2.1-15.8,0.1-21.8-5c-3.2-2.7-5.7-6.2-7-10.1c-0.7-2.1-1.1-4.4-2-6.5c-0.9-1.9-2.1-3.6-3.6-5.1
		c-3.2-3.2-7.4-5.1-11.8-6.3c-0.6-0.2-1.2-0.3-1.7-0.4c-0.4-0.1-1.2-0.1-1.5-0.3c-0.6-0.4-0.7-1.6-1-2.2c-0.9-2-2.1-3.9-3.7-5.4
		c-5.3-5.4-14-6.4-20.1-1.9c-3.2,2.3-5.4,6-5.6,10c-0.1,4.1,1.8,8.3,5.3,10.6c3.4,2.2,7.9,2.2,11.2-0.1c3.1-2.1,4.6-6,3.4-9.6
		c-1.2-3.6-4.9-6-8.7-4.8c-0.8,0.3-1.9,0.7-2.4,1.5c-0.6,0.8,0.1,1.2,0.9,0.7c0.9-0.6,1.5-1.1,2.5-1.3c1-0.2,2-0.1,2.9,0.2
		c3.4,1.3,4.9,5.4,3.7,8.7c-1.3,3.4-5,5.4-8.5,5.2c-6.6-0.4-10.3-8-8.6-13.9c1.9-6.6,9.2-9.8,15.6-8.7c7.3,1.3,12.2,8.2,12.7,15.4
		c0.6,7.8-4.1,14.7-10.9,18.2c-7.3,3.8-16.5,3.1-23.3-1.5c-7-4.8-11.2-13.4-11.4-21.8c-0.3-8.9,3.6-17.2,10.3-23
		c6.8-5.8,15.7-8.8,24.6-8.5c4.7,0.2,9.3,1.3,13.6,3.2c2.1,1,4.1,2.1,5.9,3.5c0.9,0.7,1.8,1.4,2.7,2.1c0.2,0.2,0.8,0.5,0.9,0.8
		c0.1,0.3-0.2,1-0.3,1.2c-3.2,7.2-1.4,16.2,4.8,21.1c6.4,5.1,16.7,4.7,21.5-2.5c2.2-3.3,2.9-7.7,1.5-11.4c-1.4-3.8-5-6.5-9-6.9
		c-3.8-0.4-7.8,1.6-9.2,5.3c-0.4,1.1-0.7,2.3-0.8,3.5c0,0.3,0,0.9,0.2,1.2c0.5,0.5,1-0.1,1-0.6c0.1-2.1,0.3-3.8,1.7-5.5
		c1.2-1.5,3-2.4,4.9-2.7c4-0.5,8,1.7,9.7,5.2c1.8,3.6,1.3,7.9-0.8,11.2c-2.3,3.5-6.1,5.5-10.2,5.7c-7.9,0.2-14.4-5.7-15.6-13.4
		c-1.1-7.3,2.5-14.7,8.6-18.6c6.5-4.2,15.3-4.1,22.3-1c3.7,1.7,6.9,4.3,9.2,7.7c0.6,0.8,1.3,1.8,1.5,2.8c0.2,0.9,0,2,0.2,2.9
		c0.3,2.1,1.3,4.1,2.8,5.7c2.7,2.8,7.1,3.7,10.5,1.6c3.3-2,4.8-6.2,2.8-9.7c-0.2-0.4-2.9-3.6-3.2-2c-0.1,0.6,1.2,1.3,1.6,1.7
		c0.7,0.7,1.1,1.6,1.4,2.5c0.8,3.6-2.4,7.1-5.9,7.5c-3.9,0.5-7.4-2.5-8.5-6.1c-1-3.3,0.1-6.8,2.5-9.2c2.4-2.4,5.9-3.8,9.2-3.5
		c3.4,0.3,6.5,2.2,8.6,4.9c2,2.6,3.1,5.9,3.1,9.2c0,3.6-1.5,7-3.8,9.8c-2.4,2.9-5.5,5.1-9,6.4c-0.9,0.3-1.8,0.6-2.8,0.8
		C580.9,132.1,579.2,132.6,578.7,132.3"/>
	<path class="st1" d="M592.4,102.6C592.4,102.6,592.4,102.6,592.4,102.6C592.4,102.6,592.4,102.6,592.4,102.6z"/>
	<path class="st1" d="M592.4,102.6C592.4,102.6,592.4,102.6,592.4,102.6C592.4,102.5,592.4,102.5,592.4,102.6
		C592.4,102.5,592.4,102.6,592.4,102.6z"/>
	<path class="st1" d="M592.3,102.5C592.3,102.5,592.3,102.5,592.3,102.5C592.3,102.5,592.3,102.5,592.3,102.5
		C592.3,102.5,592.3,102.5,592.3,102.5z"/>
	<path class="st1" d="M591.8,102.2C591.8,102.2,591.8,102.2,591.8,102.2C591.8,102.2,591.8,102.2,591.8,102.2
		C591.8,102.2,591.8,102.2,591.8,102.2z"/>
	<path class="st1" d="M591.7,102.2c0,0,0.1,0,0.1,0.1c0,0,0,0,0,0C591.8,102.2,591.7,102.2,591.7,102.2L591.7,102.2z"/>
	<path class="st1" d="M591.6,102.1c0,0,0.1,0,0.1,0.1h0C591.6,102.1,591.6,102.1,591.6,102.1z"/>
	<path class="st1" d="M591.6,102.1c0,0,0.1,0,0.1,0.1C591.6,102.1,591.6,102.1,591.6,102.1z"/>
	<path class="st1" d="M591.4,102C591.4,102,591.4,102,591.4,102c0,0,0,0-0.1,0c0,0,0,0-0.1,0C591.2,101.9,591.3,101.9,591.4,102z
		"/>
	<path class="st1" d="M591.2,101.9C591.2,101.9,591.2,101.9,591.2,101.9c-0.1,0-0.2-0.1-0.4-0.2c0.1,0,0.1,0.1,0.2,0.1
		C591.1,101.8,591.1,101.8,591.2,101.9z"/>
	<path class="st1" d="M591,101.8c-0.1,0-0.1-0.1-0.2-0.1c0,0-0.1,0-0.1-0.1C590.8,101.6,590.9,101.7,591,101.8z"/>
	<path class="st1" d="M590.7,101.6c0,0,0.1,0,0.1,0.1C590.7,101.6,590.7,101.6,590.7,101.6C590.6,101.6,590.6,101.6,590.7,101.6z
		"/>
	<path class="st1" d="M590.4,101.5C590.5,101.5,590.5,101.5,590.4,101.5C590.5,101.5,590.5,101.5,590.4,101.5
		C590.5,101.5,590.5,101.5,590.4,101.5z"/>
	<path class="st1" d="M590.4,101.5c0.1,0,0.1,0.1,0.2,0.1C590.6,101.5,590.5,101.5,590.4,101.5
		C590.5,101.5,590.5,101.5,590.4,101.5L590.4,101.5z"/>
	<path class="st1" d="M590.3,101.3c0.1,0,0.1,0.1,0.2,0.1h0C590.4,101.4,590.3,101.4,590.3,101.3z"/>
	<path class="st1" d="M590.3,101.3c0.1,0,0.1,0.1,0.2,0.1C590.4,101.4,590.3,101.4,590.3,101.3
		C590.2,101.3,590.3,101.3,590.3,101.3z"/>
	<path class="st1" d="M590.2,101.3C590.1,101.3,590.1,101.3,590.2,101.3C590.1,101.3,590.1,101.3,590.2,101.3
		C590.1,101.3,590.2,101.3,590.2,101.3z"/>
	<path class="st1" d="M590,101.2C590,101.2,590,101.2,590,101.2C590,101.2,590,101.2,590,101.2z"/>
	<path class="st1" d="M589.4,100.9c-0.1,0-0.1-0.1-0.2-0.1C589.3,100.8,589.3,100.8,589.4,100.9z"/>
	<path class="st1" d="M533.3,171c0.1,0,0,0-0.2,0.1h0C533.2,171.1,533.2,171,533.3,171z"/>
	<path class="st1" d="M533.1,171.1L533.1,171.1l-0.2,0.1C533,171.2,533,171.2,533.1,171.1z"/>
	<path class="st1" d="M532.9,171.2c0.1,0,0.2-0.1,0.2-0.1C533,171.2,533,171.2,532.9,171.2L532.9,171.2c-0.2,0.1-0.3,0.2-0.4,0.3
		C532.6,171.4,532.7,171.3,532.9,171.2C532.9,171.2,532.9,171.2,532.9,171.2z"/>
	<path class="st1" d="M532.8,171.3c-0.1,0.1-0.2,0.1-0.3,0.2C532.6,171.4,532.7,171.4,532.8,171.3z"/>
	<path class="st1" d="M533.4,170.9c0.1,0,0.1-0.1,0.2-0.1C533.6,170.8,533.5,170.9,533.4,170.9
		C533.5,170.9,533.5,170.9,533.4,170.9z M534.2,170.4c0.1-0.1,0.2-0.1,0.3-0.2c-0.2,0.1-0.4,0.3-0.7,0.4
		C534,170.5,534.1,170.5,534.2,170.4C534.4,170.3,534.1,170.5,534.2,170.4z M506.3,154.2c-1,0.5-1,1.8-1,2.7
		c0.1,1.2,0.2,2.3,0.4,3.5c0.6,2.5,1.8,4.8,3.5,6.7c3.5,4.2,8.8,6.6,14.3,6.6c3.3,0,6.5-0.8,9.4-2.5c-0.1,0.1-0.3,0.2-0.4,0.3
		c0.3-0.2,0.5-0.3,0.8-0.5c-0.1,0.1-0.3,0.2-0.4,0.2c2.6-1.7,4.9-3.6,6.8-6c1.8-2.3,3.1-5,3.9-7.8c-0.2,0-1.2-1.7-1.4-2
		c-0.6-0.8-1.2-1.5-1.7-2.4c-1.5-2.6-2.3-5.3-3.1-8.1c-0.8-2.7-2-5-4-7.1c-1.7-1.8-3.9-3.1-6.1-4.2c-2.6-1.2-5.3-2-8.1-2.6
		c0.8,3.4,0.7,7.1-0.4,10.5c4.8,0,9.4,2.8,11.4,7.1c1.9,4,1,8.8-2.2,11.9c-3.1,2.9-7.9,3.6-11.4,0.8c-1.8-1.5-3-3.7-2.9-6.1
		c0.1-2.2,1.3-4.4,3.2-5.5c1.8-1,4.1-1,5.9,0c0.4,0.2,0.8,0.5,1.1,0.9c0.2,0.2,0.8,0.9,0.8,1.2c0,0.2-0.6,0.6-0.8,0.5
		c-0.4,0-0.7-0.7-0.9-1c-1.4-1.9-4.4-1.6-6.1-0.3c-1.7,1.3-2.5,3.6-2,5.7c1,4.3,6.2,6.5,10.1,4.6c3.5-1.8,5.6-6.1,4.9-10
		c-0.4-2.3-1.7-4.4-3.5-5.9c-2-1.7-4.3-2.5-6.8-2.9c-0.4-0.1-1-0.2-1.4,0c-0.4,0.2-0.4,0.9-0.6,1.2c-0.5,1.1-1.2,2.2-1.9,3.2
		c-1.6,2.1-3.6,3.8-5.8,5.2C508.8,153.1,507.5,153.7,506.3,154.2C505,154.8,507.9,153.5,506.3,154.2z M580.7,100.2
		c4-1.1,8.2-0.2,11.4,2.4c3.7,3,6,7.6,5.8,12.4c-0.2,4.4-2.3,8.4-5.3,11.6c-3.4,3.6-8,6.2-13,6.8c5.8,6.7,5.1,17.1-0.1,23.9
		c-5.2,6.9-14,9.4-22.2,7.7c-4.8-1-9.4-3.3-12.9-6.8c-1.9,6.1-6.2,11.6-12,14.5c-5.6,2.8-12.3,2.8-17.9,0c-6-3-10.4-9-10.3-15.9
		c0-0.6,0.2-1.5-0.5-1.8c-0.6-0.2-1.4,0.2-2,0.4c-1.5,0.4-3.1,0.6-4.6,0.6c-3.2,0-6.4-0.7-9.3-1.9c-11.2-4.8-17.2-17.2-16.1-29
		c1.1-11.9,9.8-21.6,20.6-26c11.6-4.7,25.2-3.1,35.4,4.1c1.3,0.9,2.5,1.9,3.6,2.9c3.4-6.1,9.7-10,16.6-10.7
		c6.1-0.6,12.5,1.1,17.5,4.7c2.8,2,5,3.6,6.8,7.7C574.1,103.7,576.9,101.3,580.7,100.2z M568.4,163.6c7-2,12.6-7.8,14-15.1
		c1.3-7.1-1.7-15-8.4-18.2c-6-2.9-14.2-1.6-17.8,4.5c-3.2,5.5-1.6,13.7,4.9,15.9c3.3,1.1,7.2,0.3,9.4-2.5c1.3-1.6,1.8-3.6,1.5-5.6
		c0-0.3-0.1-1.5,0.6-1.3c0.3,0.1,0.4,0.7,0.5,1c0.5,2.7-0.5,5.5-2.5,7.4c-2.7,2.6-6.7,3.2-10.1,1.9c-3.6-1.3-6.2-4.4-6.9-8.1
		c-0.7-3.4,0.2-7.1,2.1-10c4.3-6.4,13.1-7.6,19.5-3.9c0.8,0.5,1.7,1,2.4,1.7c0.6,0.5,1,1.1,1.8,1.1c1.7-0.2,3.6-0.8,5.2-1.4
		c3.9-1.6,7.4-4.4,9.7-7.9c2.4-3.6,3.2-8,2-12.2c-1.1-4-3.9-7.6-7.8-9.2c-3.8-1.6-8.2-0.8-11.4,1.7c-3.2,2.5-4.9,6.7-3.4,10.7
		c1.3,3.3,4.6,6,8.3,5.5c3.5-0.4,6.8-3.9,5.9-7.6c-0.2-0.9-0.7-1.9-1.4-2.5c-0.4-0.4-1.4-0.8-1.5-1.4c-0.2-1.4,1.7,0.1,2,0.4
		c2.2,2.2,2.8,5.3,1.3,8.1c-1.8,3.4-5.8,4.8-9.4,3.7c-3.9-1.2-6.8-5-6.7-9.1c0-1.2-0.1-2.1-0.7-3.2c-0.5-0.9-1.2-1.8-1.8-2.7
		c-1.3-1.6-2.8-3.1-4.5-4.3c-3.3-2.4-7.3-3.8-11.3-4.2c-8.1-1-16.3,2.1-20.7,9.2c-3.9,6.3-3.9,14.9,1.1,20.6
		c4.7,5.4,13.4,7.2,19.3,2.6c3.2-2.5,5-6.5,4.6-10.5c-0.4-3.9-2.9-7.3-6.7-8.5c-3.8-1.2-8.3,0.1-10,3.9c-0.4,0.9-0.6,1.8-0.6,2.8
		c0,0.5,0,1-0.1,1.4c-0.2,0.5-0.6,0.7-1,0.2c-0.5-0.7-0.1-2.2,0.1-2.9c0.2-1,0.6-2,1.1-2.9c1.9-3.1,5.8-4.6,9.3-4
		c3.6,0.6,6.8,3.1,8.3,6.5c1.6,3.9,0.9,8.5-1.4,11.9c-1.9,2.8-4.8,4.7-8,5.4c-6.8,1.6-13.9-1.7-17.3-7.6c-1.8-3.1-2.7-6.8-2.4-10.4
		c0.1-1.8,0.5-3.6,1.2-5.3c0.2-0.5,0.9-1.6,0.6-2.2c-0.2-0.3-0.6-0.5-0.8-0.7c-0.5-0.4-0.9-0.8-1.4-1.2c-7.3-5.7-16.6-8.4-25.8-7.5
		c-8.4,0.9-16.6,4.7-22.3,11c-5.4,5.9-8.2,14-7.5,22c0.7,7.8,4.7,15.5,11.2,20.1c6.7,4.7,15.8,5.4,23.1,1.8
		c6.7-3.3,11.6-10.2,11.2-17.9c-0.4-7.1-5.1-14.3-12.4-15.7c-6.5-1.3-14.3,2.1-16,9c-1.5,6.1,2.6,13.7,9.4,13.5
		c3.6-0.1,7.2-2.4,8.1-6.1c0.8-3.3-1-7.1-4.4-8c-1-0.3-2.2-0.3-3.2,0.2c-0.4,0.2-0.8,0.4-1.2,0.7c-0.3,0.2-0.8,0.7-1.3,0.6
		c-1.1-0.2,0.4-1.5,0.7-1.8c0.8-0.5,1.7-0.8,2.6-0.9c3.7-0.5,7,2.3,7.8,5.8c0.9,3.9-1.3,7.8-4.7,9.5c-3.6,1.8-8,1.3-11.1-1.3
		c-3-2.5-4.5-6.5-4.2-10.4c0.3-3.9,2.6-7.4,5.8-9.6c6.3-4.3,15.1-3,20.2,2.5c1.4,1.5,2.8,3.4,3.5,5.4c0.2,0.6,0.3,1.6,1,1.9
		c0.3,0.2,0.8,0.2,1.1,0.2c0.5,0.1,1.1,0.2,1.6,0.4c4.2,1.1,8.2,2.8,11.4,5.7c1.6,1.4,3,3.2,4,5.1c1.1,2.1,1.4,4.4,2.1,6.6
		c1.3,4,3.7,7.6,6.9,10.4C552.2,163.6,560.7,165.8,568.4,163.6C575.9,161.5,560.8,165.7,568.4,163.6z"/>
</g>
<g id="XMLID_3_">
	<path d="M101.1,247.8c-1.4,5-4.1,9.6-7.7,13.4c-2.2,2.4-4.7,4.2-7.4,6c0,0,0,0,0,0c-7.1,4.1-15.9,4.6-23.4,1.5
		c-8.1-3.4-14.6-11-15.2-20c-0.1-1.7-0.5-4.6,1.2-5.4c2.3-1.1,4.4-2.1,6.5-3.6c3.9-2.7,7.5-6.4,9.4-10.8c0.2-0.5,0.5-1.6,0.9-1.9
		c0.6-0.4,1.9,0,2.6,0.1c2.1,0.3,4.1,0.9,5.9,1.9c3.7,2,6.8,5.5,7.8,9.6c2,8.3-5.4,18.2-14.4,15.3c-3.3-1.1-6.1-4-6.7-7.5
		c-0.6-3.8,1.7-7.8,5.5-8.8c2-0.5,4.2-0.1,5.7,1.3c0.4,0.4,0.9,1.6,1.5,1.7c0.1,0,0.3-0.1,0.4-0.1c0.1,0,0.5-0.2,0.6-0.4
		c0.3-0.4,0.2-0.2,0-0.7c-1.5-3-5.9-4.1-8.9-3.2c-3.6,1.1-6.1,4.5-6.4,8.3c-0.2,4,2,7.7,5.4,9.7c7.5,4.5,16.7-0.9,18.8-8.8
		c2.2-8.3-3.3-16.3-11.1-19c-1.9-0.7-3.9-1-6-1c1.6-4.7,1.8-9.9,0.6-14.7c8.7,1.7,17.8,5.4,22.9,13c2.8,4.1,3.1,9,4.9,13.4
		c0.9,2.2,2.1,4.4,3.5,6.4C98.3,244.2,100.9,247.7,101.1,247.8z"/>
	<path d="M150.5,212.4C150.5,212.5,150.5,212.5,150.5,212.4C150.6,212.5,150.5,212.5,150.5,212.4c-7.9-7.7-19.5-9-28-2.9
		c-7.4,5.3-10.3,16.5-5.1,24.3c3,4.5,8.5,7.1,13.9,6.6c5.7-0.5,10.4-4.7,11.3-10.4c0.1-0.5,0.3-6.3-1.4-4.7c-0.6,0.7,0,2.1,0,2.9
		c0,1.5-0.4,3.1-1.1,4.5c-2.4,5-8.3,7.1-13.5,5.8c-9.2-2.3-12.4-13-8.7-21.1c4.2-9.3,15.5-12,24.5-8.4c9.9,3.9,14.8,14.3,13.4,24.6
		c-1.4,10.9-9.4,19.8-19.9,22.8c-10.6,3-22.3,0.1-30.7-7c-4.5-3.8-8-8.7-9.9-14.2c-1-3-1.5-6.2-2.8-9.1c-1.2-2.7-3-5.1-5.1-7.2
		c-4.5-4.5-10.5-7.2-16.6-8.8c-0.8-0.2-1.6-0.4-2.5-0.6c-0.5-0.1-1.6-0.1-2.1-0.4c-0.8-0.6-1-2.3-1.4-3.1c-1.3-2.8-3-5.4-5.2-7.6
		c-7.4-7.5-19.7-9-28.3-2.7c-4.5,3.3-7.6,8.4-7.8,14c-0.2,5.7,2.5,11.7,7.4,14.9c4.7,3.1,11.1,3,15.7-0.2c4.3-3,6.5-8.4,4.8-13.5
		c-1.7-5.1-7-8.4-12.3-6.8c-1.1,0.4-2.7,1-3.4,2.1c-0.8,1.2,0.2,1.7,1.2,1c1.2-0.8,2.1-1.5,3.6-1.8c1.4-0.3,2.8-0.2,4.1,0.3
		c4.8,1.8,6.9,7.7,5.2,12.3c-1.8,4.7-7,7.5-12,7.3c-9.2-0.5-14.5-11.3-12.2-19.5c2.6-9.2,13-13.8,22-12.3
		c10.3,1.8,17.1,11.6,17.8,21.6c0.8,10.9-5.8,20.7-15.3,25.6c-10.3,5.3-23.2,4.4-32.7-2.2c-9.9-6.8-15.7-18.9-16.1-30.7
		c-0.4-12.5,5.1-24.2,14.5-32.3c9.5-8.2,22.1-12.4,34.7-12c6.6,0.2,13.1,1.8,19.1,4.5c2.9,1.3,5.7,3,8.3,4.9c1.3,0.9,2.6,1.9,3.8,3
		c0.3,0.3,1.1,0.7,1.2,1.1c0.2,0.5-0.3,1.3-0.5,1.8c-4.5,10.1-1.9,22.8,6.8,29.7c9.1,7.2,23.5,6.7,30.3-3.4
		c3.1-4.7,4.1-10.8,2.1-16.1c-2-5.4-7-9.2-12.7-9.7c-5.3-0.5-11,2.2-13,7.4c-0.6,1.5-1,3.2-1.1,4.9c0,0.5-0.1,1.3,0.3,1.7
		c0.7,0.7,1.3-0.1,1.4-0.8c0.1-2.9,0.5-5.4,2.4-7.8c1.7-2.1,4.2-3.4,6.9-3.8c5.6-0.7,11.2,2.3,13.7,7.3c2.5,5,1.8,11.1-1.2,15.8
		c-3.2,4.9-8.6,7.8-14.4,7.9c-11.1,0.3-20.2-8-21.9-18.8c-1.6-10.3,3.5-20.6,12.1-26.2c9.2-5.9,21.6-5.8,31.3-1.4
		c5.2,2.3,9.7,6,12.9,10.8c0.8,1.2,1.8,2.6,2.2,4c0.3,1.3,0,2.8,0.2,4.1c0.4,3,1.8,5.8,3.9,8c3.9,3.9,9.9,5.1,14.7,2.2
		c4.6-2.8,6.8-8.8,3.9-13.6c-0.3-0.6-4-5-4.5-2.8c-0.2,0.8,1.7,1.8,2.2,2.3c0.9,1,1.6,2.2,1.9,3.6c1.2,5.1-3.3,9.9-8.3,10.5
		c-5.5,0.6-10.4-3.5-11.9-8.6c-1.4-4.7,0.2-9.5,3.5-12.9c3.4-3.4,8.2-5.3,13-4.9c4.8,0.4,9.1,3.1,12,6.9c2.8,3.7,4.4,8.3,4.4,13
		c0,5.1-2.2,9.9-5.4,13.8c-3.3,4-7.8,7.2-12.6,9c-1.3,0.5-2.6,0.9-3.9,1.2C153.6,212.1,151.1,212.8,150.5,212.4"/>
	<path class="st1" d="M169.8,170.6C169.8,170.6,169.8,170.6,169.8,170.6C169.8,170.6,169.8,170.6,169.8,170.6z"/>
	<path class="st1" d="M169.7,170.5C169.7,170.5,169.7,170.5,169.7,170.5C169.7,170.5,169.7,170.5,169.7,170.5
		C169.7,170.5,169.7,170.5,169.7,170.5z"/>
	<path class="st1" d="M169.6,170.5C169.6,170.5,169.7,170.5,169.6,170.5C169.6,170.5,169.6,170.5,169.6,170.5
		C169.6,170.5,169.6,170.5,169.6,170.5z"/>
	<path class="st1" d="M169,170.1C169,170.1,168.9,170.1,169,170.1C168.9,170.1,168.9,170.1,169,170.1
		C168.9,170.1,169,170.1,169,170.1z"/>
	<path class="st1" d="M168.8,170c0.1,0,0.1,0.1,0.2,0.1c0,0,0,0,0,0C168.9,170.1,168.8,170,168.8,170L168.8,170z"/>
	<path class="st1" d="M168.6,169.9c0.1,0,0.1,0.1,0.2,0.1h0C168.7,169.9,168.6,169.9,168.6,169.9z"/>
	<path class="st1" d="M168.6,169.9c0.1,0,0.1,0.1,0.2,0.1C168.7,169.9,168.6,169.9,168.6,169.9z"/>
	<path class="st1" d="M168.3,169.7c0,0,0.1,0.1,0.1,0.1c-0.1,0-0.2-0.1-0.3-0.2c0,0-0.1-0.1-0.1-0.1
		C168.1,169.6,168.2,169.7,168.3,169.7z"/>
	<path class="st1" d="M168.1,169.6c0,0,0.1,0,0.1,0.1c-0.2-0.1-0.4-0.2-0.7-0.4c0.1,0.1,0.2,0.1,0.3,0.2
		C167.9,169.5,168,169.5,168.1,169.6z"/>
	<path class="st1" d="M167.8,169.4c-0.1-0.1-0.2-0.1-0.3-0.2c-0.1,0-0.1-0.1-0.2-0.1C167.5,169.3,167.7,169.4,167.8,169.4z"/>
	<path class="st1" d="M167.3,169.2c0.1,0,0.1,0.1,0.2,0.1C167.4,169.2,167.4,169.2,167.3,169.2
		C167.3,169.2,167.3,169.2,167.3,169.2z"/>
	<path class="st1" d="M167,169C167.1,169,167.1,169,167,169C167.1,169.1,167.1,169,167,169C167.1,169,167.1,169,167,169z"/>
	<path class="st1" d="M167,169c0.1,0.1,0.2,0.1,0.2,0.1C167.2,169.1,167.2,169.1,167,169C167.1,169,167.1,169,167,169L167,169z"
		/>
	<path class="st1" d="M166.8,168.8c0.1,0,0.2,0.1,0.2,0.1h0C166.9,168.9,166.9,168.9,166.8,168.8z"/>
	<path class="st1" d="M166.8,168.8c0.1,0,0.2,0.1,0.2,0.1C166.9,168.9,166.8,168.9,166.8,168.8
		C166.7,168.8,166.8,168.8,166.8,168.8z"/>
	<path class="st1" d="M166.6,168.8c0,0-0.1-0.1-0.1-0.1C166.5,168.7,166.6,168.7,166.6,168.8
		C166.6,168.8,166.6,168.8,166.6,168.8z"/>
	<path class="st1" d="M166.4,168.6C166.4,168.6,166.4,168.7,166.4,168.6C166.4,168.7,166.4,168.6,166.4,168.6z"/>
	<path class="st1" d="M165.6,168.2c-0.1-0.1-0.2-0.1-0.2-0.1C165.4,168.1,165.5,168.1,165.6,168.2z"/>
	<path class="st1" d="M86.6,266.8c0.1-0.1,0,0-0.2,0.1h0C86.4,266.9,86.5,266.9,86.6,266.8z"/>
	<path class="st1" d="M86.4,267L86.4,267l-0.3,0.2C86.2,267.1,86.3,267.1,86.4,267z"/>
	<path class="st1" d="M86,267.2c0.1-0.1,0.2-0.1,0.3-0.2C86.3,267.1,86.2,267.1,86,267.2l-0.1,0.1c-0.2,0.1-0.3,0.2-0.4,0.3
		C85.7,267.4,85.8,267.3,86,267.2C86,267.2,86,267.2,86,267.2z"/>
	<path class="st1" d="M85.9,267.3c-0.2,0.1-0.3,0.2-0.4,0.3C85.6,267.5,85.8,267.4,85.9,267.3z"/>
	<path class="st1" d="M86.8,266.7c0.1,0,0.2-0.1,0.3-0.2C87,266.6,86.9,266.6,86.8,266.7C86.9,266.7,86.9,266.6,86.8,266.7z
		 M87.9,266c0.2-0.1,0.3-0.2,0.4-0.3c-0.3,0.2-0.6,0.4-0.9,0.6C87.6,266.2,87.8,266.1,87.9,266C88.1,265.9,87.8,266.1,87.9,266z
		 M48.6,243.3c-1.4,0.7-1.4,2.5-1.4,3.8c0.1,1.6,0.2,3.3,0.6,4.9c0.8,3.5,2.6,6.7,4.9,9.4c5,5.9,12.4,9.2,20.1,9.2
		c4.6,0,9.2-1.2,13.2-3.5c-0.2,0.1-0.4,0.2-0.6,0.4c0.4-0.2,0.8-0.5,1.1-0.7c-0.2,0.1-0.4,0.2-0.6,0.3c3.6-2.3,6.9-5,9.5-8.4
		c2.5-3.3,4.4-7,5.5-11c-0.2-0.1-1.7-2.4-2-2.8c-0.9-1.1-1.7-2.1-2.4-3.4c-2.1-3.6-3.2-7.4-4.4-11.4c-1.1-3.8-2.8-7.1-5.6-9.9
		c-2.5-2.5-5.4-4.4-8.6-5.9c-3.6-1.7-7.5-2.9-11.4-3.6c1.1,4.8,0.9,10-0.6,14.7c6.7,0,13.2,3.9,16.1,10.1c2.7,5.7,1.5,12.5-3.1,16.7
		c-4.4,4.1-11.2,5.1-16,1.1c-2.5-2.1-4.2-5.2-4.1-8.5c0.1-3.1,1.8-6.2,4.5-7.8c2.5-1.5,5.8-1.4,8.3,0c0.6,0.3,1.1,0.7,1.6,1.2
		c0.3,0.3,1.1,1.2,1.1,1.6c0,0.3-0.9,0.8-1.2,0.8c-0.6-0.1-0.9-1-1.2-1.3c-2-2.6-6.2-2.3-8.6-0.4c-2.4,1.9-3.5,5.1-2.8,8.1
		c1.4,6.1,8.7,9.1,14.2,6.4c5-2.5,7.9-8.6,6.9-14c-0.6-3.3-2.5-6.2-4.9-8.3c-2.7-2.4-6-3.5-9.5-4.1c-0.6-0.1-1.4-0.3-1.9,0.1
		c-0.5,0.3-0.6,1.2-0.8,1.7c-0.6,1.6-1.6,3.1-2.7,4.5c-2.2,2.9-5,5.4-8.1,7.3C52.1,241.6,50.3,242.4,48.6,243.3
		C46.8,244.1,50.9,242.2,48.6,243.3z M153.4,167.3c5.7-1.6,11.5-0.2,16.1,3.4c5.2,4.2,8.4,10.7,8.1,17.4c-0.3,6.1-3.2,11.9-7.4,16.3
		c-4.8,5.1-11.3,8.7-18.3,9.5c8.2,9.4,7.2,24-0.1,33.6c-7.3,9.6-19.6,13.3-31.3,10.9c-6.8-1.4-13.2-4.7-18.1-9.5
		c-2.7,8.6-8.8,16.3-16.9,20.3c-7.9,4-17.3,4-25.2,0c-8.4-4.2-14.6-12.7-14.5-22.3c0-0.8,0.3-2.1-0.6-2.5c-0.8-0.3-2,0.3-2.8,0.6
		c-2.1,0.6-4.3,0.9-6.5,0.9c-4.5,0-8.9-1-13-2.7C7.1,236.5-1.4,219,0.2,202.4c1.6-16.7,13.8-30.4,29-36.6
		c16.3-6.7,35.4-4.3,49.8,5.8c1.8,1.3,3.5,2.7,5.1,4.1c4.8-8.6,13.6-14,23.3-15c8.6-0.9,17.6,1.5,24.7,6.6c4,2.8,7,5.1,9.6,10.8
		C144,172.2,148,168.7,153.4,167.3z M135.9,256.4c9.9-2.8,17.7-11,19.7-21.2c1.9-10-2.4-21-11.9-25.6c-8.5-4.1-20-2.2-25,6.3
		c-4.5,7.7-2.2,19.3,6.9,22.4c4.6,1.5,10.2,0.5,13.3-3.5c1.8-2.3,2.5-5,2.1-7.9c-0.1-0.5-0.1-2.1,0.9-1.8c0.5,0.1,0.6,1,0.7,1.4
		c0.6,3.8-0.7,7.7-3.5,10.4c-3.8,3.7-9.4,4.5-14.2,2.7c-5-1.8-8.7-6.2-9.7-11.4c-1-4.8,0.2-10,2.9-14.1c6-9,18.4-10.6,27.5-5.5
		c1.2,0.7,2.3,1.5,3.4,2.3c0.9,0.7,1.4,1.6,2.5,1.5c2.5-0.3,5-1.1,7.3-2c5.5-2.2,10.4-6.1,13.6-11.1c3.3-5.1,4.5-11.2,2.9-17.1
		c-1.6-5.7-5.5-10.7-11-13c-5.4-2.2-11.5-1.2-16.1,2.3c-4.5,3.5-6.9,9.5-4.8,15c1.8,4.7,6.5,8.4,11.7,7.8c5-0.6,9.5-5.5,8.2-10.7
		c-0.3-1.3-1-2.6-2-3.5c-0.6-0.5-1.9-1.1-2.1-2c-0.3-2,2.4,0.2,2.8,0.6c3.1,3.1,3.9,7.5,1.8,11.4c-2.5,4.7-8.1,6.8-13.2,5.3
		c-5.5-1.6-9.5-7.1-9.4-12.8c0-1.7-0.2-3-1-4.4c-0.7-1.3-1.6-2.6-2.6-3.8c-1.8-2.3-4-4.4-6.4-6.1c-4.7-3.3-10.3-5.3-15.9-6
		c-11.4-1.4-23,3-29.1,13c-5.5,8.9-5.5,20.9,1.5,29c6.6,7.6,18.8,10.2,27.1,3.7c4.5-3.5,7-9.2,6.5-14.8c-0.5-5.5-4.1-10.2-9.4-12
		c-5.3-1.7-11.7,0.1-14.1,5.5c-0.5,1.2-0.8,2.6-0.9,3.9c-0.1,0.6,0,1.4-0.2,2c-0.2,0.6-0.9,0.9-1.4,0.3c-0.7-0.9-0.1-3.1,0.1-4.1
		c0.3-1.4,0.8-2.8,1.5-4c2.6-4.4,8.1-6.4,13-5.7c5.1,0.8,9.6,4.3,11.6,9.1c2.3,5.5,1.3,11.9-2,16.8c-2.6,3.9-6.7,6.6-11.3,7.6
		c-9.5,2.2-19.5-2.4-24.4-10.7c-2.6-4.4-3.7-9.6-3.4-14.7c0.2-2.5,0.7-5.1,1.6-7.4c0.3-0.8,1.3-2.3,0.9-3.1c-0.2-0.4-0.8-0.7-1.2-1
		c-0.7-0.5-1.3-1.1-2-1.7c-10.2-8.1-23.4-11.9-36.3-10.5c-11.8,1.2-23.3,6.6-31.3,15.4c-7.6,8.3-11.6,19.6-10.6,30.9
		c1,11,6.6,21.9,15.7,28.3c9.4,6.6,22.2,7.6,32.5,2.6c9.5-4.7,16.3-14.4,15.8-25.2c-0.5-10-7.2-20.1-17.5-22.2
		c-9.2-1.8-20.1,3-22.5,12.6c-2.1,8.5,3.7,19.3,13.3,19.1c5-0.1,10.2-3.4,11.3-8.5c1.1-4.6-1.5-10-6.2-11.3
		c-1.5-0.4-3.1-0.4-4.6,0.2c-0.6,0.2-1.2,0.6-1.7,1c-0.5,0.3-1.1,0.9-1.8,0.8c-1.6-0.3,0.5-2.1,1-2.5c1.1-0.7,2.4-1.1,3.7-1.3
		c5.2-0.7,9.9,3.2,11,8.1c1.3,5.4-1.8,10.9-6.7,13.4c-5,2.5-11.3,1.8-15.6-1.8c-4.2-3.5-6.3-9.2-5.9-14.6c0.4-5.5,3.6-10.4,8.1-13.5
		c8.8-6.1,21.2-4.3,28.5,3.5c2,2.1,3.9,4.8,4.9,7.6c0.3,0.9,0.4,2.2,1.4,2.7c0.5,0.2,1.1,0.2,1.6,0.3c0.8,0.1,1.5,0.3,2.3,0.5
		c5.8,1.5,11.6,4,16.1,8c2.3,2,4.3,4.4,5.6,7.2c1.5,2.9,2,6.2,3,9.3c1.8,5.7,5.2,10.7,9.7,14.6C113.3,256.4,125.2,259.5,135.9,256.4
		C146.5,253.5,125.3,259.4,135.9,256.4z"/>
</g>
<path fill="none" d="M385.3,128.1v15.1c0,0.6-0.4,1-1,1h-3.7l-2,9.7v5.7c0,0.6-0.4,1-1,1h-2.3v166.7h2.3c0.6,0,1,0.4,1,1v5.7l2,9.8
	h3.7c0.6,0,1,0.4,1,1v15.4h44.1v-15.4c0-0.6,0.4-1,1-1h3.7l2-9.8v-5.7c0-0.6,0.4-1,1-1h2.3V160.6h-2.3c-0.6,0-1-0.4-1-1v-5.7l-2-9.7
	h-3.7c-0.6,0-1-0.4-1-1v-15.1H385.3z"/>
<path fill="none" d="M321.8,343.8h3.7l2-9.8v-5.7c0-0.6,0.4-1,1-1h2.3V160.6h-2.3c-0.6,0-1-0.4-1-1v-5.7l-2-9.7h-3.7
	c-0.6,0-1-0.4-1-1v-15.1h-44.1v15.1c0,0.6-0.4,1-1,1H272l-2,9.7v5.7c0,0.6-0.4,1-1,1h-2.3v166.7h2.3c0.6,0,1,0.4,1,1v5.7l2,9.8h3.7
	c0.6,0,1,0.4,1,1v15.4h44.1v-15.4C320.8,344.2,321.2,343.8,321.8,343.8z"/>
<path fill="none" d="M212.1,360.1v-15.4c0-0.6,0.4-1,1-1h3.7l2-9.8v-5.7c0-0.6,0.4-1,1-1h2.3V160.6h-2.3c-0.6,0-1-0.4-1-1v-5.7
	l-2-9.7h-3.7c-0.6,0-1-0.4-1-1v-15.1H168v15.1c0,0.6-0.4,1-1,1h-3.7l-2,9.7v5.7c0,0.6-0.4,1-1,1h-2.3v166.7h2.3c0.6,0,1,0.4,1,1v5.7
	l2,9.8h3.7c0.6,0,1,0.4,1,1v15.4H212.1z"/>
<rect x="83.2" y="362.1" width="431" height="15.2"/>
<rect x="67.1" y="379.3" width="463.2" height="21.4"/>
<rect x="48.9" y="403.1" width="499.8" height="27.7"/>
<path class="st1" d="M549.6,401.1h-17.3v-22.7c0-0.6-0.4-1-1-1h-15.1v-16.2c0-0.6-0.4-1-1-1H494v-15.4c0-0.6-0.4-1-1-1h-3.7
	l-2-9.8v-5.7c0-0.6-0.4-1-1-1H484V160.6h2.3c0.6,0,1-0.4,1-1v-5.7l2-9.7h3.7c0.6,0,1-0.4,1-1v-15.1h9.3c0.6,0,1-0.4,1-1V88.4h6.5
	c0.6,0,1-0.4,1-1V70.2c0-0.6-0.4-1-1-1h-0.3c-0.1,0-0.1-0.1-0.2-0.1L298.7,0C298.5,0,298.2,0,298,0L86.5,69.1
	c-0.4,0.1-0.6,0.4-0.7,0.8c0,0.1-0.1,0.2-0.1,0.3v17.2c0,0.6,0.4,1,1,1h6.5v38.7c0,0.6,0.4,1,1,1h9.3v15.1c0,0.6,0.4,1,1,1h3.7
	l2,9.7v5.7c0,0.6,0.4,1,1,1h2.3v166.7h-2.3c-0.6,0-1,0.4-1,1v5.7l-2,9.8h-3.7c-0.6,0-1,0.4-1,1v15.4H82.2c-0.6,0-1,0.4-1,1v16.2
	H66.1c-0.6,0-1,0.4-1,1v22.7H47.9c-0.6,0-1,0.4-1,1v29.7c0,0.6,0.4,1,1,1h501.8c0.6,0,1-0.4,1-1v-29.7
	C550.6,401.5,550.2,401.1,549.6,401.1z M548.6,430.8H48.9v-27.7h499.8V430.8z M115.4,160.6h6.2v166.4c0,0.1,0,0.3,0.1,0.4h-6.3
	V160.6z M503.6,69.1h-48.1c-0.1-0.1-0.2-0.1-0.3-0.2L296.3,17.4c-0.1,0-0.2,0-0.3,0h-0.4c-0.1,0-0.2,0-0.3,0L136.5,68.9
	c-0.1,0-0.2,0.1-0.3,0.2H93.1l205.3-67L503.6,69.1z M140,69.8l155.8-50.5h0l155.8,50.5H140z M87.7,71.2h422v15.2h-6.5h-409h-6.5
	V71.2z M95.2,88.4h407v37.7H493h-62.5h-46.1h-62.5h-46.1h-62.5H167h-62.5h-9.3V88.4z M485.3,158.6h-47.2v-3.8h47.2V158.6z
	 M167,343.8h-3.7l-2-9.8v-5.7c0-0.6-0.4-1-1-1h-2.3V160.6h2.3c0.6,0,1-0.4,1-1v-5.7l2-9.7h3.7c0.6,0,1-0.4,1-1v-15.1h44.1v15.1
	c0,0.6,0.4,1,1,1h3.7l2,9.7v5.7c0,0.6,0.4,1,1,1h2.3v166.7h-2.3c-0.6,0-1,0.4-1,1v5.7l-2,9.8h-3.7c-0.6,0-1,0.4-1,1v15.4H168v-15.4
	C168,344.2,167.6,343.8,167,343.8z M159.3,329.3v3.8h-47.2v-3.8h2.3h42.6H159.3z M123.7,326.9V160.6h6.7v166.4c0,0.1,0,0.3,0.1,0.4
	h-6.9C123.6,327.2,123.7,327,123.7,326.9z M132.4,326.9V160.6h6.7v166.4c0,0.1,0,0.3,0.1,0.4h-6.9
	C132.4,327.2,132.4,327,132.4,326.9z M141.1,326.9V160.6h6.7v166.4c0,0.1,0,0.3,0.1,0.4h-6.9C141.1,327.2,141.1,327,141.1,326.9z
	 M149.9,326.9V160.6h6.2v166.7h-6.3C149.8,327.2,149.9,327,149.9,326.9z M430.4,144.2h3.7l2,9.7v5.7c0,0.6,0.4,1,1,1h2.3v166.7h-2.3
	c-0.6,0-1,0.4-1,1v5.7l-2,9.8h-3.7c-0.6,0-1,0.4-1,1v15.4h-44.1v-15.4c0-0.6-0.4-1-1-1h-3.7l-2-9.8v-5.7c0-0.6-0.4-1-1-1h-2.3V160.6
	h2.3c0.6,0,1-0.4,1-1v-5.7l2-9.7h3.7c0.6,0,1-0.4,1-1v-15.1h44.1v15.1C429.4,143.8,429.9,144.2,430.4,144.2z M449.6,326.9V160.6h6.7
	v166.4c0,0.1,0,0.3,0.1,0.4h-6.9C449.6,327.2,449.6,327,449.6,326.9z M458.3,326.9V160.6h6.7v166.4c0,0.1,0,0.3,0.1,0.4h-6.9
	C458.3,327.2,458.3,327,458.3,326.9z M447.6,160.6v166.4c0,0.1,0,0.3,0.1,0.4h-6.3V160.6H447.6z M467,327.3c0-0.1,0.1-0.2,0.1-0.4
	V160.6h6.7v166.4c0,0.1,0,0.3,0.1,0.4H467z M276.7,360.1v-15.4c0-0.6-0.4-1-1-1H272l-2-9.8v-5.7c0-0.6-0.4-1-1-1h-2.3V160.6h2.3
	c0.6,0,1-0.4,1-1v-5.7l2-9.7h3.7c0.6,0,1-0.4,1-1v-15.1h44.1v15.1c0,0.6,0.4,1,1,1h3.7l2,9.7v5.7c0,0.6,0.4,1,1,1h2.3v166.7h-2.3
	c-0.6,0-1,0.4-1,1v5.7l-2,9.8h-3.7c-0.6,0-1,0.4-1,1v15.4H276.7z M223.1,329.3h42.6h2.3v3.8h-47.2v-3.8H223.1z M224.1,160.6h6.2
	v166.4c0,0.1,0,0.3,0.1,0.4h-6.3V160.6z M220.8,158.6v-3.8H268v3.8H220.8z M269.9,144.2l-1.8,8.6h-47.5l-1.8-8.6H269.9z
	 M232.3,326.9V160.6h6.7v166.4c0,0.1,0,0.3,0.1,0.4h-6.9C232.3,327.2,232.3,327,232.3,326.9z M241,326.9V160.6h6.7v166.4
	c0,0.1,0,0.3,0.1,0.4H241C241,327.2,241,327,241,326.9z M249.8,326.9V160.6h6.7v166.4c0,0.1,0,0.3,0.1,0.4h-6.9
	C249.8,327.2,249.8,327,249.8,326.9z M258.5,326.9V160.6h6.2v166.7h-6.3C258.5,327.2,258.5,327,258.5,326.9z M220.6,335.1h47.5
	l1.8,8.6h-51.1L220.6,335.1z M274.7,142.2h-60.5v-14.1h60.5V142.2z M274.7,359.9h-60.5v-14.1h60.5V359.9z M383.3,359.9h-60.5v-14.1
	h60.5V359.9z M329.5,158.6v-3.8h47.2v3.8H329.5z M332.7,160.6h6.2v166.4c0,0.1,0,0.3,0.1,0.4h-6.3V160.6z M341,326.9V160.6h6.7
	v166.4c0,0.1,0,0.3,0.1,0.4h-6.9C340.9,327.2,341,327,341,326.9z M349.7,326.9V160.6h6.7v166.4c0,0.1,0,0.3,0.1,0.4h-6.9
	C349.7,327.2,349.7,327,349.7,326.9z M358.4,326.9V160.6h6.7v166.4c0,0.1,0,0.3,0.1,0.4h-6.9C358.4,327.2,358.4,327,358.4,326.9z
	 M367.1,327.3c0-0.1,0.1-0.2,0.1-0.4V160.6h6.2v166.7H367.1z M376.8,152.8h-47.5l-1.8-8.6h51L376.8,152.8z M376.7,329.3v3.8h-47.2
	v-3.8h2.3h42.6H376.7z M327.5,343.7l1.8-8.6h47.5l1.8,8.6H327.5z M383.3,142.2h-60.5v-14.1h60.5V142.2z M492,359.9h-60.5v-14.1H492
	V359.9z M436.2,343.7l1.8-8.6h47.5l1.8,8.6H436.2z M485.3,333.1h-47.2v-3.8h2.3H483h2.3V333.1z M475.7,327.3c0-0.1,0.1-0.2,0.1-0.4
	V160.6h6.2v166.7H475.7z M485.5,152.8h-47.5l-1.8-8.6h51L485.5,152.8z M492,142.2h-60.5v-14.1H492V142.2z M105.5,128.1H166v14.1
	h-60.5V128.1z M161.3,144.2l-1.8,8.6H112l-1.8-8.6H161.3z M112.2,154.8h47.2v3.8h-47.2V154.8z M112,335.1h47.5l1.8,8.6h-51.1
	L112,335.1z M105.5,345.8H166v14.1h-60.5V345.8z M514.3,362.1v15.2h-431v-15.2H514.3z M67.1,379.3h463.2v21.4H67.1V379.3z"/>
<path d="M167,126.1h46.1h62.5h46.1h62.5h46.1H493h9.3V88.4h-407v37.7h9.3H167z M450.9,97.1c0-0.6,0.4-1,1-1h35.3c0.6,0,1,0.4,1,1
	v19.3c0,0.6-0.4,1-1,1h-35.3c-0.6,0-1-0.4-1-1V97.1z M402.1,97.1c0-0.6,0.4-1,1-1h35.3c0.6,0,1,0.4,1,1v19.3c0,0.6-0.4,1-1,1h-35.3
	c-0.6,0-1-0.4-1-1V97.1z M353.3,97.1c0-0.6,0.4-1,1-1h35.3c0.6,0,1,0.4,1,1v19.3c0,0.6-0.4,1-1,1h-35.3c-0.6,0-1-0.4-1-1V97.1z
	 M304.5,97.1c0-0.6,0.4-1,1-1h35.3c0.6,0,1,0.4,1,1v19.3c0,0.6-0.4,1-1,1h-35.3c-0.6,0-1-0.4-1-1V97.1z M255.7,97.1c0-0.6,0.4-1,1-1
	H292c0.6,0,1,0.4,1,1v19.3c0,0.6-0.4,1-1,1h-35.3c-0.6,0-1-0.4-1-1V97.1z M206.9,97.1c0-0.6,0.4-1,1-1h35.3c0.6,0,1,0.4,1,1v19.3
	c0,0.6-0.4,1-1,1h-35.3c-0.6,0-1-0.4-1-1V97.1z M158,97.1c0-0.6,0.4-1,1-1h35.3c0.6,0,1,0.4,1,1v19.3c0,0.6-0.4,1-1,1H159
	c-0.6,0-1-0.4-1-1V97.1z M109.2,98.1c0-0.6,0.4-1,1-1h35.3c0.6,0,1,0.4,1,1v19.3c0,0.6-0.4,1-1,1h-35.3c-0.6,0-1-0.4-1-1V98.1z"/>
<rect x="111.2" y="99.1" width="33.3" height="17.3"/>
<path class="st1" d="M110.2,118.4h35.3c0.6,0,1-0.4,1-1V98.1c0-0.6-0.4-1-1-1h-35.3c-0.6,0-1,0.4-1,1v19.3
	C109.2,117.9,109.7,118.4,110.2,118.4z M111.2,99.1h33.3v17.3h-33.3V99.1z"/>
<rect x="160" y="98.1" width="33.3" height="17.3"/>
<path class="st1" d="M159,117.5h35.3c0.6,0,1-0.4,1-1V97.1c0-0.6-0.4-1-1-1H159c-0.6,0-1,0.4-1,1v19.3
	C158,117,158.5,117.5,159,117.5z M160,98.1h33.3v17.3H160V98.1z"/>
<rect x="208.9" y="98.1" width="33.3" height="17.3"/>
<path class="st1" d="M207.9,117.5h35.3c0.6,0,1-0.4,1-1V97.1c0-0.6-0.4-1-1-1h-35.3c-0.6,0-1,0.4-1,1v19.3
	C206.9,117,207.3,117.5,207.9,117.5z M208.9,98.1h33.3v17.3h-33.3V98.1z"/>
<rect x="257.7" y="98.1" width="33.3" height="17.3"/>
<path class="st1" d="M256.7,117.5H292c0.6,0,1-0.4,1-1V97.1c0-0.6-0.4-1-1-1h-35.3c-0.6,0-1,0.4-1,1v19.3
	C255.7,117,256.1,117.5,256.7,117.5z M257.7,98.1H291v17.3h-33.3V98.1z"/>
<rect x="306.5" y="98.1" width="33.3" height="17.3"/>
<path class="st1" d="M305.5,117.5h35.3c0.6,0,1-0.4,1-1V97.1c0-0.6-0.4-1-1-1h-35.3c-0.6,0-1,0.4-1,1v19.3
	C304.5,117,304.9,117.5,305.5,117.5z M306.5,98.1h33.3v17.3h-33.3V98.1z"/>
<rect x="404.1" y="98.1" width="33.3" height="17.3"/>
<path class="st1" d="M403.1,117.5h35.3c0.6,0,1-0.4,1-1V97.1c0-0.6-0.4-1-1-1h-35.3c-0.6,0-1,0.4-1,1v19.3
	C402.1,117,402.5,117.5,403.1,117.5z M404.1,98.1h33.3v17.3h-33.3V98.1z"/>
<rect x="355.3" y="98.1" width="33.3" height="17.3"/>
<path class="st1" d="M354.3,117.5h35.3c0.6,0,1-0.4,1-1V97.1c0-0.6-0.4-1-1-1h-35.3c-0.6,0-1,0.4-1,1v19.3
	C353.3,117,353.7,117.5,354.3,117.5z M355.3,98.1h33.3v17.3h-33.3V98.1z"/>
<rect x="452.9" y="98.1" width="33.3" height="17.3"/>
<path class="st1" d="M451.9,117.5h35.3c0.6,0,1-0.4,1-1V97.1c0-0.6-0.4-1-1-1h-35.3c-0.6,0-1,0.4-1,1v19.3
	C450.9,117,451.4,117.5,451.9,117.5z M452.9,98.1h33.3v17.3h-33.3V98.1z"/>
<path d="M136.1,69.1c0.1-0.1,0.2-0.1,0.3-0.2l158.9-51.5c0.1,0,0.2,0,0.3,0h0.4c0.1,0,0.2,0,0.3,0l158.9,51.5c0.1,0,0.2,0.1,0.3,0.2
	h48.1l-205.3-67l-205.3,67H136.1z"/>
<polygon points="503.2,86.4 509.7,86.4 509.7,71.2 87.7,71.2 87.7,86.4 94.2,86.4 "/>
<polygon points="159.5,152.8 161.3,144.2 110.2,144.2 112,152.8 "/>
<path d="M147.9,326.9V160.6h-6.7v166.4c0,0.1,0,0.3-0.1,0.4h6.9C147.9,327.2,147.9,327,147.9,326.9z"/>
<path d="M139.1,326.9V160.6h-6.7v166.4c0,0.1,0,0.3-0.1,0.4h6.9C139.2,327.2,139.1,327,139.1,326.9z"/>
<path d="M156.1,160.6h-6.2v166.4c0,0.1,0,0.3-0.1,0.4h6.3V160.6z"/>
<path d="M130.4,326.9V160.6h-6.7v166.4c0,0.1,0,0.3-0.1,0.4h6.9C130.4,327.2,130.4,327,130.4,326.9z"/>
<path d="M121.7,326.9V160.6h-6.2v166.7h6.3C121.7,327.2,121.7,327,121.7,326.9z"/>
<rect x="112.2" y="154.8" width="47.2" height="3.8"/>
<polygon points="159.5,335.1 112,335.1 110.2,343.7 161.3,343.7 "/>
<polygon points="112.2,329.3 112.2,333.1 159.3,333.1 159.3,329.3 157.1,329.3 114.4,329.3 "/>
<rect x="105.5" y="128.1" width="60.5" height="14.1"/>
<rect x="105.5" y="345.8" width="60.5" height="14.1"/>
<polygon points="268.2,152.8 269.9,144.2 218.9,144.2 220.6,152.8 "/>
<path d="M239,326.9V160.6h-6.7v166.4c0,0.1,0,0.3-0.1,0.4h6.9C239.1,327.2,239,327,239,326.9z"/>
<path d="M247.8,326.9V160.6H241v166.4c0,0.1,0,0.3-0.1,0.4h6.9C247.8,327.2,247.8,327,247.8,326.9z"/>
<path d="M256.5,326.9V160.6h-6.7v166.4c0,0.1,0,0.3-0.1,0.4h6.9C256.5,327.2,256.5,327,256.5,326.9z"/>
<path d="M230.3,326.9V160.6h-6.2v166.7h6.3C230.3,327.2,230.3,327,230.3,326.9z"/>
<path d="M264.7,160.6h-6.2v166.4c0,0.1,0,0.3-0.1,0.4h6.3V160.6z"/>
<rect x="220.8" y="154.8" width="47.2" height="3.8"/>
<polygon points="269.9,343.7 268.2,335.1 220.6,335.1 218.9,343.7 "/>
<polygon points="220.8,333.1 268,333.1 268,329.3 265.7,329.3 223.1,329.3 220.8,329.3 "/>
<rect x="214.1" y="128.1" width="60.5" height="14.1"/>
<rect x="214.1" y="345.8" width="60.5" height="14.1"/>
<polygon points="327.5,144.2 329.3,152.8 376.8,152.8 378.6,144.2 "/>
<path d="M356.4,326.9V160.6h-6.7v166.4c0,0.1,0,0.3-0.1,0.4h6.9C356.5,327.2,356.4,327,356.4,326.9z"/>
<path d="M339,326.9V160.6h-6.2v166.7h6.3C339,327.2,339,327,339,326.9z"/>
<path d="M365.2,326.9V160.6h-6.7v166.4c0,0.1,0,0.3-0.1,0.4h6.9C365.2,327.2,365.2,327,365.2,326.9z"/>
<path d="M367.2,160.6v166.4c0,0.1,0,0.3-0.1,0.4h6.3V160.6H367.2z"/>
<path d="M347.7,326.9V160.6H341v166.4c0,0.1,0,0.3-0.1,0.4h6.9C347.7,327.2,347.7,327,347.7,326.9z"/>
<rect x="329.5" y="154.8" width="47.2" height="3.8"/>
<polygon points="329.3,335.1 327.5,343.7 378.6,343.7 376.8,335.1 "/>
<polygon points="329.5,329.3 329.5,333.1 376.7,333.1 376.7,329.3 374.4,329.3 331.7,329.3 "/>
<rect x="322.8" y="128.1" width="60.5" height="14.1"/>
<rect x="322.8" y="345.8" width="60.5" height="14.1"/>
<polygon points="436.2,144.2 437.9,152.8 485.5,152.8 487.2,144.2 "/>
<path d="M473.8,160.6h-6.7v166.4c0,0.1,0,0.3-0.1,0.4h6.9c0-0.1-0.1-0.2-0.1-0.4V160.6z"/>
<path d="M447.7,327.3c0-0.1-0.1-0.2-0.1-0.4V160.6h-6.2v166.7H447.7z"/>
<path d="M465.1,326.9V160.6h-6.7v166.4c0,0.1,0,0.3-0.1,0.4h6.9C465.1,327.2,465.1,327,465.1,326.9z"/>
<path d="M475.8,160.6v166.4c0,0.1,0,0.3-0.1,0.4h6.3V160.6H475.8z"/>
<path d="M456.3,326.9V160.6h-6.7v166.4c0,0.1,0,0.3-0.1,0.4h6.9C456.4,327.2,456.3,327,456.3,326.9z"/>
<rect x="438.1" y="154.8" width="47.2" height="3.8"/>
<polygon points="437.9,335.1 436.2,343.7 487.2,343.7 485.5,335.1 "/>
<polygon points="440.4,329.3 438.1,329.3 438.1,333.1 485.3,333.1 485.3,329.3 483,329.3 "/>
<rect x="431.4" y="128.1" width="60.5" height="14.1"/>
<rect x="431.4" y="345.8" width="60.5" height="14.1"/>
<polygon points="295.8,19.3 295.8,19.3 140,69.8 451.6,69.8 "/>
</svg>
