<!-- Generator: Adobe Illustrator 18.1.1, SVG Export Plug-In  -->
<svg version="1.1"
	 xmlns="http://www.w3.org/2000/svg" xmlns:xlink="http://www.w3.org/1999/xlink" xmlns:a="http://ns.adobe.com/AdobeSVGViewerExtensions/3.0/"
	 x="0px" y="0px" width="459.4px" height="473.4px" viewBox="0 0 416.5 472.8" enable-background="new 0 0 416.5 472.8"
	 xml:space="preserve">
	 <style>
path {
	fill:#000;
}
.st1 {
	fill:#7ba4a8;
}
</style>
<defs>
</defs>
<g>
	<path d="M38.4,253.8c-0.8,0.6-1.7,1.2-2.7,1.7c1.4,0.2,2.7,0.6,3.9,1.2C39.2,255.7,38.8,254.7,38.4,253.8z"/>
	<path d="M107.7,41.1c5.2,9.4,16.9,13.6,27.4,10c0.6-0.2,1.2-0.5,1.8-0.7c0.2-0.1,0.3-0.1,0.5-0.2c0,0,0.1,0,0.1,0
		c4.6-1.7,9.3-3.3,14.1-4.6c-7-2.5-12.2-8.1-14.3-14.7c-0.1,0.9-0.2,1.7-0.5,2.5c-1,3.1-3.4,5.7-6.6,7.1c-5.2,2.3-11.5,0.3-14.2-4.4
		c-1-1.9-1.2-4-0.6-6c0.7-2.1,2.3-3.8,4.4-4.7c3.5-1.6,7.7-0.2,9.5,3c0.7,1.3,0.9,2.8,0.4,4.1c-0.5,1.4-1.5,2.6-3,3.3
		c-2.4,1.1-5.3,0.1-6.6-2.1c-0.5-0.9-0.6-2-0.3-2.9c0.3-1,1.1-1.8,2.1-2.3c0.5-0.2,1.1,0,1.3,0.5c0.2,0.5,0,1.1-0.5,1.3
		c-0.5,0.2-0.9,0.6-1,1.1c-0.1,0.4-0.1,0.9,0.1,1.3c0.7,1.3,2.5,1.9,4,1.2c0.9-0.4,1.6-1.2,1.9-2.1c0.3-0.8,0.2-1.7-0.3-2.6
		c-1.3-2.3-4.4-3.3-7-2.1c-1.6,0.7-2.8,2-3.3,3.6c-0.5,1.5-0.3,3,0.4,4.4c2.2,3.9,7.4,5.5,11.6,3.6c2.7-1.2,4.6-3.3,5.5-5.9
		c0.8-2.4,0.6-5.1-0.7-7.4c-3.5-6.3-12-9-18.9-5.9c-4.3,2-7.5,5.3-8.9,9.6C105.2,33.1,105.7,37.3,107.7,41.1z"/>
	<path d="M19.7,237.9c-2.1,1.9-3.4,4.4-3.4,7c-0.1,2.5,0.9,4.8,2.8,6.6c5,4.8,13,4.8,18.6,0.2c-1-2.6-1.9-5.2-2.8-7.9
		c-0.4,1.4-1.2,2.7-2.4,3.7c-2.8,2.5-7.2,2.4-9.8-0.1c-1-1-1.6-2.3-1.6-3.7c0-1.5,0.7-2.9,1.9-3.9c1.9-1.7,4.9-1.7,6.7,0
		c0.7,0.7,1.1,1.7,1.1,2.7c0,1-0.5,2-1.3,2.8c-1.4,1.2-3.5,1.2-4.8,0c-0.5-0.5-0.8-1.2-0.8-2c0-0.8,0.4-1.5,1-2
		c0.4-0.4,1-0.3,1.4,0.1c0.4,0.4,0.3,1-0.1,1.4c-0.2,0.2-0.3,0.4-0.3,0.6c0,0.1,0,0.3,0.2,0.5c0.5,0.5,1.5,0.5,2.1,0
		c0.4-0.4,0.6-0.8,0.6-1.3c0-0.4-0.2-0.9-0.5-1.2c-1.1-1-2.9-1-4,0c-0.8,0.7-1.2,1.5-1.2,2.5c0,0.9,0.3,1.7,1,2.3
		c1.9,1.8,5,1.8,7.1,0c1.3-1.1,2-2.6,2.1-4.2c0-1.5-0.6-2.9-1.7-4C28.4,235,23.1,235,19.7,237.9z"/>
	<path d="M31.6,231.7c-1.1,0.9-2.3,1.7-3.6,2.3c1.7,0.4,3.4,1.1,4.7,2.4C32.3,234.8,31.9,233.2,31.6,231.7z"/>
	<path d="M258.1,21.5c1-0.2,2-0.2,3-0.1c-4.3-1.9-8.6-3.6-13-5.1c2.2,2.5,3.3,5.8,3.3,9C253.2,23.3,255.5,22,258.1,21.5z"/>
	<path d="M45.1,128.6c0.2-0.2,0.4-0.2,0.7-0.2c3.8-7.2,8.3-14,13.2-20.5c-3.6,1.9-7.6,2.8-11.6,2.8c-3.6,0-7.1-0.8-10.2-2.3
		c0.3,0.3,0.7,0.5,1,0.8c1.9,1.8,2.9,4.2,2.9,6.8c-0.1,2.7-1.3,5.3-3.4,7.1c-3.5,3.1-9,3.1-12.2-0.1c-1.3-1.2-2-2.9-1.9-4.6
		c0-1.8,0.9-3.6,2.3-4.8c2.4-2.1,6.1-2.1,8.3,0.1c0.9,0.9,1.4,2,1.3,3.2c0,1.3-0.6,2.5-1.6,3.4c-1.7,1.5-4.3,1.4-5.8,0
		c-0.6-0.6-1-1.4-1-2.3c0-0.9,0.4-1.8,1.2-2.4c0.4-0.4,1-0.3,1.4,0.1c0.4,0.4,0.3,1-0.1,1.4c-0.3,0.3-0.5,0.6-0.5,1
		c0,0.3,0.1,0.6,0.4,0.9c0.8,0.8,2.2,0.8,3.1,0c0.6-0.5,0.9-1.2,0.9-1.9c0-0.7-0.2-1.3-0.7-1.8c-1.5-1.4-4-1.4-5.6,0
		c-1,0.9-1.6,2.1-1.7,3.4c0,1.2,0.4,2.3,1.3,3.2c2.5,2.4,6.8,2.4,9.6,0c1.7-1.5,2.7-3.6,2.8-5.7c0-2-0.8-3.9-2.2-5.3
		c-4.1-4-11.2-4-15.7,0c-2.8,2.5-4.4,5.8-4.5,9.3c-0.1,3.3,1.2,6.4,3.7,8.8C26.9,135,37.8,135,45.1,128.6z"/>
	<path d="M108.1,64c0.2-0.1,0.3-0.1,0.5-0.1c6-3.5,12.3-6.8,18.8-9.6c-7.6-0.1-14.8-3.4-19.4-9.3c0,1-0.2,2-0.5,3
		c-1,3-3.4,5.5-6.6,6.8c-5.1,2.2-11.4,0.3-14.1-4.3c-1-1.8-1.3-3.8-0.6-5.7c0.7-2,2.3-3.7,4.4-4.6c3.4-1.5,7.7-0.2,9.5,2.9
		c0.7,1.2,0.9,2.6,0.4,3.9c-0.5,1.4-1.6,2.5-3,3.2c-2.4,1-5.3,0.1-6.5-2c-0.5-0.9-0.6-1.9-0.3-2.8c0.3-1,1.1-1.8,2.1-2.2
		c0.5-0.2,1.1,0,1.3,0.5c0.2,0.5,0,1.1-0.5,1.3c-0.5,0.2-0.9,0.6-1,1c-0.1,0.4-0.1,0.8,0.1,1.2c0.7,1.3,2.6,1.8,4,1.2
		c0.9-0.4,1.6-1.1,1.9-2c0.3-0.8,0.2-1.6-0.3-2.3c-1.3-2.2-4.4-3.2-7-2.1c-1.6,0.7-2.8,1.9-3.3,3.4c-0.4,1.3-0.3,2.8,0.5,4.1
		c2.2,3.7,7.4,5.3,11.6,3.5c2.7-1.1,4.6-3.2,5.4-5.6c0.7-2.3,0.5-4.7-0.8-6.8c-3.5-6-12-8.6-18.8-5.6c-4.3,1.9-7.5,5.1-8.8,9.2
		c-1.2,3.7-0.8,7.6,1.3,11.1C84,64.9,97,68.7,108.1,64z"/>
	<path d="M155.2,22.7c-0.5-0.1-0.9,0-1.3,0.2c-0.3,0.2-0.5,0.6-0.6,1c-0.2,1.3,0.7,2.6,2.1,2.9c0.9,0.2,1.7,0.1,2.4-0.4
		c0.6-0.4,1-1.1,1.1-1.9c0.3-2.3-1.3-4.6-3.7-5.2c-1.5-0.4-3-0.1-4.2,0.7c-1.1,0.8-1.8,1.9-2,3.3c-0.6,3.9,2.2,7.8,6.2,8.7
		c2.5,0.6,5,0.2,7-1.2c1.9-1.3,3.1-3.2,3.4-5.5c0.9-6.3-3.6-12.7-10.1-14.2c-4.1-0.9-8.1-0.2-11.3,2c-3,2.1-5,5.3-5.6,9
		c-1.5,10.1,5.6,19.9,16,22.4c0.2,0,0.3,0.1,0.5,0.3c7.9-2.1,16-3.6,24.2-4.7c-5.7-2.7-10-7.5-12-13.2c-0.6,2.3-2,4.3-4,5.6
		c-2.4,1.7-5.5,2.2-8.5,1.5c-5-1.1-8.4-6-7.7-10.9c0.3-1.9,1.3-3.6,2.9-4.6c1.7-1.1,3.7-1.5,5.8-1c3.4,0.8,5.7,4.1,5.2,7.4
		c-0.2,1.3-0.9,2.5-2,3.2c-1.1,0.8-2.5,1-4,0.7c-2.3-0.5-3.9-2.8-3.6-5.1c0.1-1,0.6-1.8,1.4-2.3c0.8-0.5,1.8-0.7,2.8-0.5
		c0.5,0.1,0.9,0.7,0.7,1.2C156.3,22.4,155.7,22.8,155.2,22.7z"/>
	<path d="M228.7,18.7c-4.5,7.1-2.6,16.7,4.3,22.2c6.2,1,12.3,2.3,18.3,3.8c-2.7-3.2-4-7.3-3.5-11.3c-1.1,0.9-2.5,1.6-3.9,1.8
		c-2.5,0.4-5-0.2-7.2-1.8c-3.5-2.6-4.4-7.6-2.2-11.2c0.9-1.4,2.3-2.3,3.9-2.6c1.7-0.3,3.4,0.1,4.9,1.2c2.4,1.8,3,5.2,1.5,7.6
		c-0.6,1-1.6,1.6-2.7,1.8c-1.2,0.2-2.4-0.1-3.4-0.9c-1.7-1.3-2.1-3.7-1-5.4c0.5-0.7,1.2-1.2,2-1.3c0.8-0.2,1.7,0.1,2.4,0.6
		c0.4,0.3,0.5,1,0.2,1.4c-0.3,0.4-1,0.5-1.4,0.2c-0.3-0.2-0.6-0.3-0.9-0.2c-0.2,0-0.5,0.1-0.7,0.5c-0.5,0.8-0.3,2.1,0.6,2.7
		c0.6,0.4,1.2,0.6,1.8,0.5c0.6-0.1,1.1-0.4,1.4-1c1-1.6,0.6-3.8-1-5c-1-0.8-2.2-1.1-3.3-0.9c-1.1,0.2-2,0.8-2.6,1.7
		c-1.7,2.7-1,6.5,1.7,8.5c1.7,1.3,3.7,1.8,5.6,1.4c1.8-0.3,3.4-1.4,4.4-3c2.8-4.4,1.6-10.7-2.8-14.1c-2.7-2.1-6-2.9-9.2-2.4
		C232.9,14.3,230.4,16.1,228.7,18.7z"/>
	<path d="M34.6,106.8c-0.7-0.5-1.4-1-2-1.6c-3.1-2.8-4.8-6.6-4.7-10.6c0-0.6,0.1-1.1,0.1-1.7c-3.5,5.6-6.6,11.4-9.4,17.4
		c0.4-0.4,0.8-0.9,1.3-1.2C23.9,105.4,29.9,104.7,34.6,106.8z"/>
	<path d="M258.5,23.3c-2.7,0.5-5.1,2-6.7,4.2c-4.1,5.9-2.7,14,3.1,18.2c4.2,1.2,8.4,2.6,12.5,4c14.8-2.6,26.8-1.8,31.6-1.2
		c1,0.1,1.8,0.2,2.3,0.3c1.1-0.5,2.3-0.9,3.5-1.3c-11-8.8-23.1-16.4-36-22.6c3.1,3.3,3.6,8.5,0.9,12.3c-1.2,1.8-3.1,2.9-5.2,3.3
		c-2.1,0.4-4.2-0.1-6-1.3c-1.4-1-2.4-2.5-2.7-4.3c-0.3-1.7,0.1-3.5,1.1-4.9c1.7-2.5,5.1-3.1,7.6-1.3c1,0.7,1.7,1.7,1.9,2.9
		c0.2,1.2-0.1,2.4-0.7,3.4c-1.2,1.7-3.6,2.1-5.3,0.9c-1.5-1-1.8-3-0.8-4.5c0.4-0.6,1-1,1.8-1.1c0.7-0.1,1.5,0,2.1,0.5
		c0.4,0.3,0.5,0.8,0.2,1.2c-0.3,0.4-0.8,0.5-1.2,0.2c-0.2-0.2-0.5-0.2-0.8-0.2c-0.3,0-0.5,0.2-0.7,0.4c-0.5,0.7-0.3,1.6,0.4,2.1
		c0.9,0.7,2.2,0.4,2.9-0.5c0.4-0.6,0.6-1.4,0.5-2.1c-0.1-0.7-0.5-1.4-1.2-1.8c-1.7-1.2-4-0.8-5.2,0.9c-0.7,1.1-1,2.4-0.8,3.6
		c0.2,1.3,0.9,2.4,2,3.1c1.4,1,3,1.3,4.7,1c1.7-0.3,3.1-1.2,4.1-2.6c1.2-1.8,1.7-3.9,1.3-6c-0.4-2.1-1.6-4-3.3-5.2
		C263.9,23.4,261.2,22.8,258.5,23.3z"/>
	<path d="M30.8,229.8c0.1-0.1,0.2-0.2,0.4-0.2c-1.4-6.9-2.4-13.9-2.9-21c-2.2,1.6-4.6,2.7-7.2,3.2c1.6,0.4,3.1,1.3,4.4,2.5
		c1.6,1.5,2.4,3.5,2.3,5.6c0,2.2-1.1,4.3-2.8,5.9c-2.9,2.5-7.4,2.5-10-0.1c-1.1-1-1.6-2.4-1.6-3.8c0-1.5,0.7-2.9,1.9-4
		c2-1.7,5.1-1.7,6.9,0c0.8,0.7,1.2,1.7,1.1,2.7c0,1.1-0.5,2.1-1.4,2.8c-1.4,1.2-3.6,1.2-4.9,0c-0.6-0.5-0.9-1.2-0.8-2
		c0-0.8,0.4-1.5,1-2.1c0.4-0.4,1-0.3,1.4,0.1c0.4,0.4,0.3,1-0.1,1.4c-0.2,0.2-0.3,0.4-0.3,0.6c0,0.1,0,0.3,0.2,0.5
		c0.6,0.5,1.6,0.5,2.2,0c0.4-0.4,0.7-0.9,0.7-1.4c0-0.5-0.2-0.9-0.5-1.3c-1.1-1.1-3-1.1-4.2,0c-0.8,0.7-1.2,1.6-1.3,2.6
		c0,0.9,0.3,1.7,1,2.4c1.9,1.9,5.2,1.9,7.4,0c1.3-1.2,2.1-2.7,2.1-4.4c0-1.5-0.6-3-1.7-4.1c-3.2-3.1-8.7-3.1-12.3,0
		c-2.2,2-3.5,4.5-3.5,7.3c-0.1,2.6,1,5,2.9,6.8C16.4,234.9,25,234.9,30.8,229.8z"/>
	<path d="M104.1,36.5c-0.4-2.7-0.3-5.4,0.6-8c0.8-2.4,2.1-4.6,3.9-6.5c-6.3,2.9-12.5,6.2-18.6,9.8C95.2,31.3,100.5,33,104.1,36.5z"
		/>
	<path d="M136,24.5c0.2,0.3,0.3,0.6,0.5,0.9c0-1.2,0-2.4,0.2-3.7c0.6-4.3,2.9-8,6.4-10.4c3.7-2.5,8.3-3.3,12.9-2.3
		c4.7,1.1,8.5,4.4,10.4,8.5c0-0.2,0-0.4,0.1-0.5c0.6-4.3,2.9-8,6.4-10.4c0.7-0.5,1.4-0.9,2.2-1.2c-18,1-35.7,4.7-52.6,10.9
		C128,16.6,133.3,19.6,136,24.5z"/>
	<path d="M28.1,206.1c-0.1-2.3-0.2-4.7-0.2-7.1c0-5.4,0.3-10.8,0.9-16.2c-3.1,2.3-6.8,3.6-10.5,3.7c1.4,0.5,2.8,1.3,3.9,2.4
		c1.7,1.6,2.6,3.8,2.5,6.1c-0.1,2.4-1.1,4.7-3.1,6.4c-3.1,2.7-8,2.7-10.9-0.1c-1.2-1.1-1.8-2.6-1.7-4.1c0-1.6,0.8-3.2,2.1-4.3
		c2.1-1.9,5.5-1.9,7.5,0.1c0.8,0.8,1.2,1.8,1.2,2.9c0,1.2-0.5,2.2-1.5,3c-1.5,1.3-3.9,1.3-5.3,0c-0.6-0.6-0.9-1.3-0.9-2.1
		c0-0.8,0.4-1.6,1.1-2.2c0.4-0.4,1-0.3,1.4,0.1c0.4,0.4,0.3,1-0.1,1.4c-0.2,0.2-0.4,0.5-0.4,0.8c0,0.2,0,0.4,0.3,0.7
		c0.7,0.6,1.8,0.6,2.6,0c0.5-0.4,0.8-1,0.8-1.6c0-0.5-0.2-1.1-0.6-1.4c-1.3-1.2-3.4-1.2-4.8,0c-0.9,0.8-1.4,1.8-1.4,2.9
		c0,1,0.4,2,1.1,2.7c2.2,2.1,5.8,2.1,8.2,0c1.5-1.3,2.3-3.1,2.4-4.9c0-1.7-0.6-3.4-1.9-4.6c-3.6-3.4-9.7-3.5-13.6,0
		c-2.5,2.2-3.9,5-3.9,8.1c-0.1,2.9,1.1,5.6,3.2,7.6C12.3,211.7,21.8,211.7,28.1,206.1z"/>
	<path d="M10.5,214.2c1.1-1,2.4-1.7,3.8-2.2c-3.4-0.5-6.6-2-9.2-4.5c-0.7-0.6-1.2-1.3-1.7-2c0.7,5.4,1.7,10.8,3,16.1
		C6.8,218.8,8.3,216.2,10.5,214.2z"/>
	<path d="M202.3,14.2c-4.8,7.6-2.7,17.9,4.8,23.6c0.2,0.2,0.4,0.4,0.4,0.7c7.5,0.2,14.8,0.8,22.1,1.8c-3.3-3.6-5.1-8.1-5.2-12.7
		c-1.4,2.1-3.5,3.5-5.9,3.9c-2.6,0.5-5.3-0.2-7.5-1.9c-3.6-2.8-4.6-8-2.3-11.7c0.9-1.5,2.4-2.4,4.1-2.7c1.8-0.3,3.6,0.1,5.1,1.3
		c2.5,1.9,3.2,5.5,1.5,8c-0.7,1-1.7,1.7-2.8,1.9c-1.2,0.2-2.5-0.1-3.5-0.9c-1.7-1.3-2.2-3.8-1.1-5.6c0.5-0.7,1.2-1.2,2.1-1.4
		c0.9-0.2,1.8,0.1,2.5,0.6c0.4,0.3,0.5,1,0.2,1.4c-0.3,0.4-1,0.5-1.4,0.2c-0.3-0.2-0.7-0.3-1-0.3c-0.2,0-0.5,0.2-0.7,0.5
		c-0.6,0.9-0.3,2.2,0.6,2.9c0.6,0.5,1.3,0.6,2,0.5c0.6-0.1,1.2-0.5,1.5-1c1.1-1.7,0.6-4.1-1.1-5.3c-1.1-0.8-2.3-1.1-3.5-0.9
		c-1.1,0.2-2.1,0.9-2.7,1.9c-1.8,2.9-1,6.9,1.8,9.1c1.8,1.4,3.9,1.9,6,1.5c1.9-0.3,3.6-1.5,4.7-3.2c3-4.7,1.7-11.4-3-14.9
		c-2.9-2.2-6.4-3.1-9.7-2.5C206.8,9.6,204.1,11.4,202.3,14.2z"/>
	<path d="M18.4,236.4c0.4-0.3,0.8-0.6,1.2-0.9c-3.6-0.2-7.1-1.7-9.9-4.3c-0.5-0.4-0.9-0.9-1.3-1.4c1.7,5.9,3.7,11.7,6,17.4
		c-0.2-0.8-0.2-1.5-0.2-2.3C14.4,241.7,15.9,238.7,18.4,236.4z"/>
	<path d="M168.4,17.3c-1.5,9.9,5.3,19.5,15.4,22.2c6.4-0.6,12.8-1,19.3-1c0.6,0,1.1,0,1.7,0c-7.4-6.5-9.3-17.4-4.2-25.4
		c2.1-3.3,5.3-5.4,9-6.1c0.3-0.1,0.6-0.1,0.9-0.1c-7.4-1.1-14.9-1.6-22.3-1.8c6.2,2.6,10.2,9.1,9.2,15.6c-0.4,2.8-1.9,5.3-4.3,6.9
		c-2.4,1.7-5.5,2.2-8.5,1.5c-5-1.1-8.4-6-7.7-10.9c0.3-1.9,1.3-3.6,2.9-4.6c1.7-1.1,3.7-1.5,5.7-1c3.4,0.8,5.7,4.1,5.2,7.4
		c-0.2,1.3-0.9,2.5-2,3.2c-1.1,0.8-2.5,1-4,0.7c-2.3-0.5-3.9-2.8-3.6-5.1c0.1-1,0.6-1.8,1.4-2.3c0.8-0.5,1.8-0.7,2.8-0.5
		c0.5,0.1,0.9,0.7,0.7,1.2c-0.1,0.5-0.7,0.9-1.2,0.7c-0.5-0.1-0.9,0-1.3,0.2c-0.3,0.2-0.5,0.6-0.6,1c-0.2,1.3,0.7,2.6,2.1,2.9
		c0.9,0.2,1.7,0.1,2.4-0.4c0.6-0.4,1-1.1,1.1-1.9c0.3-2.3-1.3-4.6-3.7-5.2c-1.5-0.3-3-0.1-4.2,0.7c-1.1,0.8-1.8,1.9-2,3.3
		c-0.6,3.9,2.2,7.8,6.2,8.7c2.5,0.6,5,0.2,7-1.2c1.9-1.3,3.1-3.2,3.4-5.5c0.9-6.3-3.6-12.7-10.1-14.2c-4.1-0.9-8.1-0.2-11.3,2
		C170.9,10.4,169,13.6,168.4,17.3z"/>
	<path d="M14.7,171.2c0,0.2,0,0.4,0.3,0.7c0.7,0.6,1.8,0.6,2.6,0c0.5-0.4,0.8-1,0.8-1.6c0-0.5-0.2-1.1-0.6-1.4
		c-1.3-1.2-3.4-1.2-4.8,0c-0.9,0.8-1.4,1.8-1.4,2.9c0,1,0.4,2,1.1,2.7c2.2,2.1,5.8,2.1,8.2,0c1.5-1.3,2.3-3.1,2.4-4.9
		c0-1.7-0.6-3.4-1.9-4.6c-3.6-3.4-9.7-3.5-13.6,0c-2.5,2.2-3.9,5-3.9,8.1c-0.1,2.9,1.1,5.6,3.2,7.6c5.8,5.6,15.3,5.5,21.6,0
		c0.1-0.1,0.3-0.2,0.5-0.2c0.1-0.6,0.1-1.1,0.2-1.7c1-7,2.5-13.9,4.4-20.6c-3.4,2.3-7.4,3.4-11.3,3.4c-1,0-2.1-0.1-3.1-0.3
		c1.3,0.5,2.4,1.3,3.4,2.2c1.7,1.6,2.6,3.8,2.5,6.1c-0.1,2.4-1.1,4.7-3.1,6.4c-3.1,2.7-8,2.7-10.9-0.1c-1.2-1.1-1.8-2.6-1.7-4.1
		c0-1.6,0.8-3.2,2.1-4.3c2.1-1.9,5.5-1.9,7.5,0c0.8,0.8,1.2,1.8,1.2,2.9c0,1.2-0.5,2.2-1.5,3c-1.5,1.3-3.9,1.3-5.3,0
		c-0.6-0.6-0.9-1.3-0.9-2.1c0-0.8,0.4-1.6,1.1-2.2c0.4-0.4,1-0.3,1.4,0.1c0.4,0.4,0.3,1-0.1,1.4C14.9,170.6,14.7,170.9,14.7,171.2z"
		/>
	<path d="M27.2,258c0.4-0.3,0.7-0.6,1.1-0.8c-3.9,0-7.7-1.4-10.6-4.2c-0.6-0.6-1.1-1.2-1.6-1.9c2.1,4.9,4.5,9.8,7.1,14.7
		C23.5,262.8,24.8,260.1,27.2,258z"/>
	<path d="M19.1,144.6c0,0.2,0.1,0.5,0.3,0.8c0.8,0.7,2.1,0.7,3,0c0.6-0.5,0.9-1.1,0.9-1.8c0-0.6-0.2-1.2-0.7-1.7
		c-1.4-1.4-3.8-1.4-5.4,0c-1,0.9-1.6,2-1.6,3.2c0,1.1,0.4,2.2,1.3,3c2.4,2.3,6.5,2.3,9.2,0c1.7-1.5,2.6-3.4,2.7-5.5
		c0-1.9-0.7-3.7-2.2-5.1c-4-3.8-10.7-3.8-15.1,0c-2.7,2.4-4.3,5.6-4.3,9c-0.1,3.2,1.2,6.2,3.5,8.4c6.4,6.1,16.9,6.1,23.9,0
		c0,0,0,0,0,0c2.5-7.9,5.6-15.6,9.3-22.9c-3.5,2.3-7.5,3.4-11.5,3.4c-5,0-9.8-1.8-13.5-5.3c-2.8-2.7-4.4-6.4-4.3-10.2
		c0-0.2,0-0.4,0-0.6c-2.5,6.2-4.6,12.5-6.4,18.9c0.6-0.7,1.2-1.4,2-2.1c5.1-4.5,13.1-4.4,17.8,0.1c1.8,1.8,2.8,4.1,2.8,6.6
		c-0.1,2.6-1.2,5.1-3.3,6.9c-3.4,3-8.7,3-11.8-0.1c-1.2-1.2-1.9-2.8-1.9-4.5c0-1.8,0.8-3.4,2.3-4.7c2.3-2,5.9-2,8.1,0.1
		c0.9,0.8,1.3,2,1.3,3.1c0,1.2-0.6,2.4-1.6,3.3c-1.6,1.4-4.1,1.4-5.6,0c-0.6-0.6-1-1.4-0.9-2.3c0-0.9,0.4-1.7,1.1-2.3
		c0.4-0.4,1-0.3,1.4,0.1c0.4,0.4,0.3,1-0.1,1.4C19.3,143.9,19.1,144.2,19.1,144.6z"/>
	<path d="M46.8,273.1c0.2-0.2,0.6-0.3,0.9-0.2c-1.4-2.5-2.8-5.1-4.1-7.8c-0.4,1.4-1.2,2.8-2.4,3.8c-2.7,2.4-7.1,2.4-9.6-0.1
		c-1-1-1.6-2.3-1.5-3.7c0-1.4,0.7-2.8,1.8-3.8c1.9-1.6,4.8-1.6,6.6,0c0.7,0.7,1.1,1.6,1.1,2.6c0,1-0.5,2-1.3,2.7
		c-1.3,1.2-3.4,1.1-4.6,0c-0.5-0.5-0.8-1.2-0.8-1.9c0-0.7,0.4-1.4,0.9-1.9c0.4-0.3,0.9-0.3,1.2,0.1c0.3,0.4,0.3,0.9-0.1,1.2
		c-0.2,0.2-0.3,0.4-0.3,0.7c0,0.2,0,0.4,0.2,0.6c0.6,0.6,1.6,0.6,2.3,0c0.4-0.4,0.7-0.9,0.7-1.4c0-0.5-0.2-0.9-0.5-1.3
		c-1.1-1.1-3-1.1-4.2,0c-0.8,0.7-1.2,1.6-1.2,2.5c0,0.9,0.3,1.7,1,2.4c1.9,1.8,5.2,1.8,7.2,0c1.3-1.2,2.1-2.7,2.1-4.3
		c0-0.6-0.1-1.2-0.3-1.8c-0.1-0.3-0.3-0.6-0.4-1c-0.3-0.5-0.6-0.9-1-1.3c-3.2-3-8.5-3-12,0c-2.2,1.9-3.4,4.4-3.5,7.1
		c0,1.2,0.2,2.4,0.6,3.5c0.4,0.7,0.9,1.5,1.3,2.2c0.3,0.3,0.6,0.7,0.9,1C32.8,278,41.2,278,46.8,273.1z"/>
	<path d="M83.6,81.7c6-5.1,12.3-9.8,19-14.1c-1.4,0.2-2.9,0.3-4.3,0.3c-8.8,0-17.2-4.3-21.6-11.8c-2.3-4-2.8-8.5-1.4-12.8
		c0.3-0.9,0.7-1.8,1.2-2.6c-5.7,4.2-11.2,8.6-16.3,13.3c5.5-1.5,11.5-0.3,15.6,3.5c2.3,2.1,3.5,5,3.4,8c-0.1,3.2-1.6,6.3-4.2,8.5
		c-4.2,3.7-10.8,3.6-14.7,0c-1.5-1.4-2.3-3.3-2.3-5.4c0-2.2,1-4.2,2.8-5.7c2.8-2.5,7.3-2.4,9.9,0c1.1,1,1.6,2.3,1.6,3.7
		c0,1.5-0.7,2.9-1.9,3.9c-2,1.7-5,1.7-6.8,0c-0.7-0.7-1.1-1.6-1.1-2.6c0-1,0.5-2.1,1.4-2.8c0.4-0.4,1-0.3,1.4,0.1
		c0.4,0.4,0.3,1-0.1,1.4c-0.4,0.4-0.7,0.8-0.7,1.3c0,0.4,0.2,0.8,0.5,1.2c1.1,1,3,1,4.2,0c0.8-0.7,1.2-1.5,1.2-2.5
		c0-0.8-0.3-1.6-1-2.2c-1.9-1.8-5.2-1.8-7.3,0c-1.3,1.2-2.1,2.7-2.1,4.3c0,1.5,0.6,2.9,1.7,3.9c3.2,3,8.6,3,12.1,0
		c2.2-1.9,3.5-4.4,3.5-7.1c0.1-2.5-0.9-4.8-2.8-6.5c-5-4.7-13.5-4.8-19.2-0.3c-1,0.9-1.9,1.9-2.9,2.9c-2.1,2.6-3.2,5.7-3.3,9
		c-0.1,4,1.5,7.8,4.5,10.6C61.5,88.8,74.6,88.9,83.6,81.7z"/>
	<path d="M57.7,290.1c0.2-0.3,0.6-0.4,1-0.3c-1.8-2.4-3.6-4.9-5.2-7.4c0,0.1,0,0.1,0.1,0.2c0.4,1.8,0,3.7-1.2,5.3
		c-1.9,2.6-5.5,3.4-8.2,1.9c-1.1-0.6-1.8-1.6-2-2.8c-0.3-1.3,0-2.5,0.8-3.6c1.3-1.8,3.8-2.4,5.7-1.3c0.8,0.5,1.3,1.2,1.5,2
		c0.2,0.9,0,1.8-0.6,2.6c-0.9,1.3-2.7,1.7-4,0.9c-0.6-0.3-0.9-0.9-1.1-1.5c-0.1-0.6,0-1.3,0.4-1.9c0.3-0.4,0.8-0.5,1.2-0.2
		c0.4,0.3,0.5,0.8,0.2,1.2c-0.1,0.2-0.2,0.4-0.1,0.5c0,0.1,0.1,0.3,0.3,0.4c0.5,0.3,1.3,0.1,1.7-0.4c0.3-0.4,0.4-0.8,0.3-1.2
		c-0.1-0.4-0.3-0.7-0.6-0.9c-1.1-0.6-2.6-0.3-3.4,0.8c-0.5,0.7-0.7,1.5-0.5,2.3c0.2,0.7,0.6,1.3,1.2,1.7c1.9,1.1,4.5,0.5,5.9-1.4
		c0.9-1.2,1.2-2.6,0.9-3.9c-0.3-1.2-1-2.3-2.2-3c-3.2-1.9-7.6-0.9-9.9,2.3c-1.4,2-1.9,4.3-1.5,6.5c0.1,0.4,0.2,0.7,0.3,1.1
		c0.9,1.2,1.7,2.3,2.6,3.5c0.2,0.1,0.4,0.3,0.6,0.4C47.1,296.9,54,295.2,57.7,290.1z"/>
	<path d="M33.9,103.7c7.5,6.8,20,6.6,28.5-0.4c0.1-0.1,0.2-0.2,0.4-0.2c4.5-5.5,9.3-10.7,14.5-15.6c-2.8,1-5.8,1.5-8.7,1.5
		c-4,0-8-1-11.5-2.9c0.4,1.1,0.7,2.3,0.7,3.5c-0.1,2.9-1.5,5.7-4,7.8c-4,3.3-10.1,3.3-13.7,0.1c-1.4-1.3-2.2-3-2.1-4.8
		c0-2,1-3.9,2.7-5.3c2.7-2.2,6.8-2.2,9.2-0.1c1,0.9,1.5,2.1,1.5,3.3c0,1.4-0.7,2.7-1.8,3.6c-1.9,1.5-4.7,1.6-6.4,0
		c-0.7-0.6-1.1-1.5-1.1-2.4c0-1,0.5-1.9,1.3-2.6c0.4-0.3,1-0.3,1.4,0.1c0.3,0.4,0.3,1-0.1,1.4c-0.4,0.3-0.6,0.7-0.6,1.1
		c0,0.3,0.1,0.6,0.4,0.9c1,0.9,2.7,0.8,3.8-0.1c0.7-0.6,1.1-1.4,1.1-2.1c0-0.7-0.3-1.3-0.8-1.8c-1.7-1.5-4.7-1.5-6.6,0.1
		c-1.2,1-1.9,2.4-2,3.8c0,1.2,0.5,2.4,1.5,3.3c2.9,2.6,7.9,2.5,11.1-0.2c2-1.7,3.2-4,3.3-6.3c0-2.1-0.8-4.1-2.5-5.5
		c-4.7-4.2-12.8-4.1-18.1,0.2c-3.3,2.7-5.2,6.5-5.3,10.3C29.7,98.1,31.2,101.3,33.9,103.7z"/>
	<path d="M50.5,278.5c0.3,0.2,0.5,0.3,0.7,0.5c-1.1-1.7-2.1-3.4-3-5.1c0,0.2-0.1,0.4-0.3,0.5c-3.1,2.7-7,4.1-10.9,4.1
		c-2.6,0-5.2-0.7-7.5-1.9c1.9,3.1,3.9,6.1,6,9.1c0.3,0.4,0.6,0.8,0.9,1.2c0.1-2,0.7-3.9,1.9-5.6C41.1,277.4,46.6,276.2,50.5,278.5z"
		/>
	<path d="M49.8,79.9C47.9,77.2,47,74,47,70.6c0-1.3,0.2-2.7,0.6-3.9c-4.3,4.8-8.4,9.8-12.1,14.9C39.8,78.9,45.2,78.3,49.8,79.9z"/>
	<path d="M6.5,163.4c2.7-2.3,6.2-3.3,9.5-3c-2.4-0.9-4.7-2.2-6.7-4.1c-2-1.9-3.3-4.3-3.8-6.9c-0.2,1.1-0.5,2.2-0.7,3.3
		c-1,5.4-1.7,10.8-2.2,16.2C3.4,166.8,4.7,164.9,6.5,163.4z"/>
	<path d="M226.1,19.2c0.3-0.5,0.6-1,0.9-1.6c1.8-2.8,4.5-4.8,7.7-5.6c-5.5-1.5-11.1-2.8-16.8-3.9c1,0.5,2,1.1,2.9,1.8
		C223.9,12.2,225.7,15.7,226.1,19.2z"/>
	<path d="M151.1,352.5C151.1,352.4,151.1,352.4,151.1,352.5c-37.6-10.8-69.8-32.9-91.9-61.9c0,0.2,0,0.4-0.1,0.5
		c-2.8,3.9-7.1,6-11.5,6c-1.3,0-2.6-0.2-3.9-0.6c25.6,31.5,61.4,55.9,100.6,68.5C145.9,360.8,148.4,356.6,151.1,352.5z"/>
	<path d="M6,189c1.9-1.7,4.3-2.7,6.8-3c-2.6-0.7-5.1-2.1-7.1-4c-1.8-1.7-3-3.9-3.5-6.2C1.9,181.9,2,188,2.3,194
		C3.1,192.1,4.3,190.4,6,189z"/>
	<path d="M315.9,319.3c5.4-4.2,10.5-8.8,15.3-13.6c-8.1,3.5-14.5,5.5-17,6.3C315.1,314,315.7,316.4,315.9,319.3z"/>
	<path d="M157.7,320.8c-2.5-8-2.6-18.4,0.2-33.2c-0.4-3.3,0.1-7.3,2.6-14.5c-1.6-5.6-1.2-12,1-18.7c1.5-4.7,3.5-8.2,4.3-9.5
		l-11.3-16.4l12.9-33.7l-5.8-13l11-37.7c0.6-4.5,1.4-8.4,2.3-11.8c-3-6.9-3.3-13.6-0.9-20.2c2.4-6.5,7.2-11.9,11.9-15.8l0,0l0.1,0
		c1.4-1.2,2.8-2.2,4.1-3.2c0.8-0.5,1.5-1.1,2.2-1.5c1.3-2.7,12-23.5,41.1-29.4L233,62c10.5-5.9,21.1-9.5,30.6-11.5
		c-18.8-6.4-39.2-10-60.5-10c-6.2,0-12.2,0.3-18.2,0.9c-0.2,0.2-0.4,0.3-0.7,0.3c-0.1,0-0.1,0-0.2,0c-0.1,0-0.3-0.1-0.4-0.1
		c-15.9,1.7-31.3,5.3-45.7,10.7c-0.8,0.3-1.5,0.6-2.3,0.9c-18.4,7.1-35.2,17.1-49.8,29.4c0,0.1-0.1,0.1-0.1,0.2
		c-0.3,0.2-0.6,0.4-0.8,0.7c-28.6,24.5-48.3,57.8-53.6,95.6c-0.9,6.7-1.4,13.5-1.4,20.2c0,70.7,50.8,130.8,120.8,151.1
		c-0.6-4.3-0.8-13.2,4.9-24.8C156.4,323.8,157.1,322.3,157.7,320.8z M109.7,96.8c19.5,20,37.2,34.2,52.5,44.3l-0.7,1.9l-3.6,9.7
		l-0.7,1.9c-14-10.3-25.2-19.9-28.4-22.6l-6.1,10.5l-15.9-48.8L109.7,96.8z M52.8,194.2l-4.1-1.1L99,183l-6.1,10.5
		c5.7,2,31.8,11.6,55.2,24.1l-0.7,1.9l-3.2,8.4l3.1,6.5l1.9,4C132.3,224.9,102.6,207.5,52.8,194.2z M92.4,162.4
		c-0.4,0-0.7,0.1-0.8,0.2l-5.6,9.6L59.9,133l47,3.5l-5.6,9.6c0,0.1,0,0.2,0,0.4c1.5,4.7,23.9,16.8,49,28.9l0.7,2.6l5.3,18.4
		l-0.9,2.3l-0.7,1.9C128.2,181.6,99.5,162.4,92.4,162.4z"/>
	<polygon points="243.6,60.9 243.6,60.9 243.7,60.9 	"/>
	<path fill="#050505" d="M123.2,137.7l5.1-8.8l0.9,0.8c0.2,0.2,12.5,11,28.7,23l3.6-9.7c-14.7-9.7-31.6-23.2-50.2-41.9L123.2,137.7z
		"/>
	<path fill="#050505" d="M89.9,194.6l5.1-8.8l-37.7,7.6c44.8,12.5,72.8,28.2,89.9,41.1l-3.1-6.5l3.2-8.4
		c-26.1-14-55.9-24.4-56.3-24.5L89.9,194.6z"/>
	<path fill="#050505" d="M99.4,147.1c-0.3-0.9-0.1-1.6,0.2-2l4-6.9l-39.8-2.9l22.1,33.3l4-6.9c0.3-0.5,1-1.2,2.5-1.2
		c8.1,0,38.8,20.8,63,38.2l0.9-2.3l-5.3-18.4C126.4,166.1,101.3,152.8,99.4,147.1z"/>
	<path class="st1" d="M128.8,132c3.2,2.8,14.4,12.3,28.4,22.6l0.7-1.9c-16.2-12-28.5-22.8-28.7-23l-0.9-0.8l-5.1,8.8l-11.9-36.6
		c18.6,18.7,35.5,32.1,50.2,41.9l0.7-1.9c-15.3-10.1-32.9-24.4-52.5-44.3l-3-3l15.9,48.8L128.8,132z"/>
	<path class="st1" d="M57.4,193.4l37.7-7.6l-5.1,8.8l1.1,0.4c0.4,0.1,30.2,10.5,56.3,24.5l0.7-1.9
		c-23.4-12.5-49.5-22.1-55.2-24.1L99,183l-50.3,10.1l4.1,1.1c49.8,13.3,79.5,30.7,96.4,44.3l-1.9-4
		C130.2,221.5,102.1,205.9,57.4,193.4z"/>
	<path class="st1" d="M155.4,198.6c-24.2-17.4-54.9-38.2-63-38.2c-1.5,0-2.2,0.6-2.5,1.2l-4,6.9l-22.1-33.3l39.8,2.9l-4,6.9
		c-0.2,0.4-0.5,1.1-0.2,2c1.9,5.7,27,19,51.6,30.8l-0.7-2.6c-25.1-12.1-47.4-24.1-49-28.9c-0.1-0.2-0.1-0.3,0-0.4l5.6-9.6l-47-3.5
		L86,172.3l5.6-9.6c0.1-0.1,0.4-0.2,0.8-0.2c7.1,0,35.8,19.2,62.3,38.1L155.4,198.6z"/>
	<path d="M352.9,269.3L352.9,269.3c2.6,0.5,17.4,1.4,32.8-37.8c-0.6-0.3-1.2-0.8-1.7-1.8c-1.5-2.8-2.6-5.1-3.5-7
		c-0.2-0.4-0.4-0.8-0.6-1.2c-2.7,2.5-11.8,12.3-24.9,43.4C354.3,266.5,353.6,267.9,352.9,269.3z"/>
	<path d="M387.8,231.5c-13.8,35.8-27.6,40-33.3,40c-1.4,0-2.3-0.2-2.6-0.4c-5.2,9.1-12.2,15.2-19.6,19.2l-14.6,4.5
		c6.8,0.1,26.3-1.3,53.1-17.6l0,0c14.5-14.7,21.7-31.8,21.4-51.2C390.8,228.7,389.3,230.8,387.8,231.5z"/>
	<path d="M314.8,296.8L314.8,296.8c-6.2,1.3-11.9,1.6-15.9,1.6c-0.8,0-1.5,0-2.1,0c1.2,0.7,2.3,1.4,3.3,2c5.8,3.4,10.2,6,12.9,9.9
		c3.8-1.1,22.8-6.9,41-19.2c3.7-2.5,7.1-5,10.2-7.7c-22.4,12-38.7,13.6-45.7,13.6C316.3,296.9,315.1,296.8,314.8,296.8z"/>
	<path d="M364.7,213c-11.4-0.1-31.2,0.7-37,8.2c-0.9,1.2-1.2,2.2-1.3,3c1-0.5,2.1-1.1,3.4-1.9c1.2-0.7,2.7-1.6,4.3-2.4
		c2.1-1.1,4.9-1.7,7.8-1.7c5.5,0,12.5,2.2,15.6,8.4c2.5,4.9,3,14-8.2,29C334.4,275.5,316.7,286,298,286c-2.6,0-5.2-0.2-8-0.6
		c-2.4-0.4-4.2-1.4-5.4-3c-0.6,4.8,0.6,8.7,8.6,13.8c3.3,0.4,44.7,3.9,59.8-32c13.9-32.9,23.2-42.3,25.8-44.4
		C376.7,215.5,374.7,214.5,364.7,213z"/>
	<path d="M387.1,159.7c-1.4,5.1-3.5,9.8-6.7,13.6c-5,5.8-12.2,9.2-21.6,9.9c-4,0.3-7.9,0.7-11.7,1c-1.5,2.4-9.3,14.1-24.9,21.4
		c0.8,0,1.6-0.1,2.3-0.1c20.7-0.9,35.5-4.4,42.7-10c16.2-12.6,24.4-29.3,27.9-36.5c0.5-1.1,0.9-1.9,1.3-2.5
		c-1.6-4.6-3.9-8.9-7.2-12.1C389,149.8,388.4,155,387.1,159.7C387.1,159.7,387.1,159.7,387.1,159.7z"/>
	<path d="M368.5,197.1c-7.6,6-22.4,9.5-43.8,10.4c-4.1,0.2-8.2,0.3-12,0.3c-10.5,0-19.5-0.5-24.1-0.9c4.8,3.7,12.4,8.6,24.4,15.7
		c3.8,1.9,6.6,2.7,8.9,2.7c0.9,0,1.8-0.1,2.6-0.4c0-1.1,0.2-3,1.8-5c3.3-4.3,12.7-9.3,38.7-9l0.1,0c3.4,0.5,5.9,1,7.9,1.6l-0.1-0.3
		c0.2,0,19.4-3.5,26.2-23.1c0.4-5.1,0.6-10.1,0.4-14.7c-0.2-4.7-0.8-10-2.2-15.2c-0.1,0.2-0.2,0.4-0.3,0.6
		C393.4,167.2,385,184.2,368.5,197.1z"/>
	<path d="M316.9,205.8c15.7-5.9,24.7-17.1,27.7-21.3c-16.4,1.7-31.1,3.9-42.5,5.6c-9.2,1.4-16.4,2.4-21.6,2.9c0,0.5,0,0.9,0,1.4
		c0,0.7,0,1.3,0,2c0.5,2.2,1.4,4.1,2.8,6c0.7,0.7,1.5,1.6,2.5,2.4C287.9,204.9,301.3,206,316.9,205.8z"/>
	<path d="M375.7,213.6c3.3,1.6,4.5,3.9,6.6,8.4c0.9,1.8,1.9,4.1,3.4,6.8c0.3,0.5,0.6,1,1.1,1c1.4-0.2,4.8-4.7,8.1-16.5
		c1.6-5.6,2.8-11.6,3.6-17.6C391.8,207.6,380.6,212.1,375.7,213.6z"/>
	<polygon points="397.5,156.7 397.5,156.7 397.5,156.7 	"/>
	<polygon points="400,189.3 400,189.3 400,189.3 	"/>
	<path d="M197,90.8c11.9-14.9,30.6-23.2,47.2-28c-18.7,1.1-30.9,8.1-38.1,14.3c-8.9,7.6-12.3,15.5-12.3,15.5l-0.1,0.3l-6.5,4.8
		c-4.7,3.9-9.3,9-11.5,15.1c-1.9,5.3-1.9,10.7,0,16.3c0.6-1.8,1.2-3.5,1.8-5c-2.7-11.3,8-20.1,13.3-23.6
		C192.1,97.7,194.2,94.3,197,90.8z"/>
	<path d="M187.1,111.6c0.1-0.9,0.6-3.7,2-7.5c-4.6,3.5-10.4,9.5-10.2,16.8C181.5,116.4,184.3,113.4,187.1,111.6z"/>
	<path d="M180.5,270.2c-1.6,1.2-3.8,2.4-6.2,2.4c-0.1,0-0.1,0-0.2,0c-1.9,0-3.7-0.8-5.5-2.2c-0.1,2-0.1,4.2,0,6.5
		c6.1,1.9,10.7,0.7,13.8-1C181.6,274,180.9,272.1,180.5,270.2z"/>
	<path d="M168.8,267.7c1.7,1.9,3.5,2.8,5.4,2.9c0.1,0,0.1,0,0.2,0c2.2,0,4.2-1.2,5.6-2.4c-3.3-0.9-5.4-2.9-6.4-4.1
		c-1.1,0.9-2.9,2.3-4.7,3.4C168.8,267.6,168.8,267.7,168.8,267.7z"/>
	<polygon points="188,149.8 181.7,164.5 220.9,151.8 256.3,163.8 227.2,142.1 	"/>
	<path d="M170.5,239.9l4.7-1c0,0,0,0,0-0.1l0,0l3-0.7l-6.4-3.7L170.5,239.9z"/>
	<path d="M161.7,269.6C161.7,269.6,161.7,269.6,161.7,269.6c0.4-1,0.7-1.9,1.1-2.8c0-0.2,0-0.3,0-0.5c0.1-0.5,0.2-1,0.3-1.6
		c0.8-4.7,2.5-12.4,3.7-17.7C164.8,250.5,160.3,259.9,161.7,269.6z"/>
	<path d="M305.5,220.8l-2.2-1.3c-14.9-8.9-25.2-15-25.2-26.4c-0.6,0-1.1,0-1.6,0c-3.1,0-4.6-0.5-5.2-1.6c-0.4-0.8-0.2-1.7,0.5-2.8
		c1.7-2.3,2.7-4.8,3.1-7.4l0-0.1c0,0,0,0,0,0c0.7-4.4-0.5-9.1-3.4-14.1c-3.2-5.5-7.6-9.4-8.5-10.2c-2.1-0.5-16.2-4.7-16.6-16.6
		c0-1.2-1.2-1.7-4.8-2.9c-1.9-0.6-4.4-1.4-7.2-2.7c0,0,0,0,0,0l0,0c-4.6-2.1-10.4-5.5-17-11.7l-0.3-0.3
		c-7.2-6.7-11.9-11.1-20.1-11.1c-2.5,0-5.2,0.4-8.2,1.2c-5.7,3.4-11.9,11.8-14.4,31.6l0,0.1l-10.8,37.1l5.9,13.1l-12.9,33.5
		l10.9,15.8c0.4-1.9,0.7-3,0.7-3.1l0.1-0.6l0,0l2.4-8.8l10.4,6l0.6-0.1l0.1,0l0.5-0.1l0,0l0.2,0l0.1,0.1l11.4-1.1l-9.4-19.9l1.8-0.8
		l10.6,22.5l-12.3,1.2c5.8,4.7,22.5,18.5,26.6,26.7c0.2,0,0.4,0,0.5,0.2c1.1-0.2,3-0.4,5.7-0.4c4.4,0,9.5,0.5,15,1.5
		c1.3-4.8,9.5-5.3,19-5.8c11.9-0.7,25.4-1.5,29.3-10.2l0.9-1.9l0.9,1.9c3.5,7.2,4.4,12.9,4.2,17.7l0,0.1l-0.1,0.1
		c-0.1,3.4-0.8,6.4-1.3,9.1c-0.1,0.3-0.1,0.5-0.2,0.8c0.1,0.7,0.4,1.3,0.7,1.9c0.8,1.5,2.3,2.3,4.3,2.7c2.6,0.4,5.2,0.6,7.7,0.6
		c18,0,35.2-10.2,49.7-29.6c10.7-14.3,10.3-22.5,8.1-26.9c-2.7-5.4-8.9-7.3-13.9-7.3c-2.6,0-5,0.5-6.9,1.5c-1.6,0.8-3,1.6-4.2,2.4
		c-3.2,1.9-5.7,3.3-9,3.3C318.1,227.4,313.3,225.5,305.5,220.8z M183.7,200.3l4.8-30.6l28.4,14.4l-0.9,1.8L190,172.7l-3.9,25.1
		l52.8-11.7l0.4,1.9L183.7,200.3z M220.9,153.9l-42.8,13.8l8.2-19l-0.1-0.6l0.4-0.1l3.4-8l1.8,0.8l-2.9,6.7l38.7-7.6l39.8,29.6
		L220.9,153.9z M341.7,248.5c-9.7,20.6-22.6,21.5-31.1,22.1c-2.3,0.2-4.3,0.3-5.8,0.8c-2.3,0.7-3.6,1.7-4.1,3
		c-0.6,1.7,0.5,3.5,0.6,3.5l-1.7,1.1c-0.1-0.1-1.7-2.6-0.8-5.3c0.7-1.9,2.5-3.3,5.4-4.2c1.8-0.5,3.9-0.7,6.3-0.8
		c8.6-0.6,20.3-1.4,29.5-21L341.7,248.5z M337.8,238c0.6,0.8,1.3,2.6-1.9,5.4c-2.8,2.5-4.4,5.2-5.9,7.8c-2.2,4-4.5,8-11.1,10.7
		c-2.1,0.9-4.2,1.2-6.2,1.2c-8.1,0-14.1-6.1-14.4-6.4l1.4-1.4c0.1,0.1,8.7,8.7,18.4,4.7c5.9-2.4,7.9-5.9,10.1-9.9
		c1.6-2.8,3.2-5.7,6.3-8.4c1.5-1.3,1.9-2.3,1.6-2.6c-1.2-1.5-9.7-1.1-17.5,4.5l-1.2-1.6C325.6,236.4,335.5,235.1,337.8,238z"/>
	<polygon points="387,230.7 387,230.7 387,230.7 	"/>
	<polygon points="371.3,278.2 371.3,278.2 371.3,278.2 	"/>
	<path d="M279.1,428.5C279.2,428.5,279.2,428.4,279.1,428.5c3.7-8.2,5.7-17.2,4.2-20.1c-0.3-0.5-0.6-0.7-1.1-0.7c-0.3,0-0.6,0-0.8,0
		c-14.8,0-36-5.1-54.1-13l1,3.8c1.8,0.8,8.4,4,15.5,9.2c10.1,6.1,18.5,6.7,22.8,6.9c1.2,0.1,2,0.1,2.6,0.3c2.8,0.7,5.7,9.4,7,13.9
		C277.2,428.6,278.2,428.5,279.1,428.5z"/>
	<path d="M242.4,409.1c-1.3-0.8-2.6-1.7-4-2.7c-4-2.5-7.4-4.4-9.5-5.4l0.6,2.1c0.2,0.8,0.4,1.6,0.6,2.4c5,5.8,17.1,18.4,30.1,22.4
		c-0.3-0.9-1.6-3.3-6.8-9.2C250.1,415,246.2,411.8,242.4,409.1z"/>
	<path d="M268.2,429.2c0.4,0,0.9,0,1.3,0c1.6-0.1,3.1-0.2,4.7-0.3c-1.9-6.3-4.4-11.8-5.5-12.1c-0.4-0.1-1.2-0.2-2.3-0.2
		c-3.3-0.2-8.8-0.6-15.7-3.2c1.4,1.3,2.8,2.7,4.1,4.1c6.1,6.8,7.5,9.6,7.4,11.1C264.3,428.9,266.3,429.2,268.2,429.2z"/>
	<path d="M199.6,376.9c-2,9-2.9,18.1-0.2,22.2c0.3,0.4,0.6,0.7,0.9,1.1c0.8,0.6,1.8,1,3,1c3.9,0,9.7-3.2,17.5-9.6
		C213.9,388.1,205.3,383,199.6,376.9z"/>
	<path d="M186.4,449.7c7.1,7.3,16.1,12.6,27,15.8c-4.6-3.4-17.8-12.8-26.8-15.7C186.4,449.7,186.4,449.7,186.4,449.7z"/>
	<path d="M209.7,440.3c-1.1,0-2.3-0.1-3.5-0.2c2.5,3.8,4.6,7.2,5.8,9.6c4.3,8.9,4.6,15.9,4.6,16.2l0,0.5c0.8,0.2,1.6,0.4,2.5,0.6
		c3.6,0.8,6.9,1.4,10,2c2.1-6.6-10.9-22.5-16.7-28.8C211.5,440.2,210.6,440.3,209.7,440.3z"/>
	<path d="M221.6,437.9c-2,1-4.3,1.6-6.8,2c4.8,5.3,18.3,21.3,16.2,29.3c6.2,1,11.3,1.5,15.5,1.5c0,0,0,0,0,0c9,0,12.2-2.3,15.6-4.6
		c1.1-0.7,2.1-1.5,3.4-2.2C247.2,461,226.7,454.1,221.6,437.9z"/>
	<path d="M313.4,327.2c0.1-0.3,0.1-0.5,0.2-0.8c1.9-14.8-3.6-18-14.4-24.4c-2-1.2-4.3-2.6-6.8-4.1c-11.6-7.4-10.4-13.1-8.8-20.3
		c1.3-5.9,2.8-13.1-1.9-23.9c-1.8,2.8-4.6,4.7-7.9,6l0.2,0.1c-0.3,0.7,0.1,1.3,1.4,2.8c2.5,3,6.6,8,4.7,20.5
		c-1.1,7.2,5.2,15.6,6.4,17.2c11.3,4.3,16.4,10.8,18.7,15.6c2.6,5.6,2.2,10.2,2.2,10.3l-1-0.1l-1-0.1c0,0,0,0,0,0
		c0.1-0.7,1.5-16.9-21.7-24.7l-6.8-2.5c2.3,9.4,8.9,15.7,10.5,17.2c6.5,5,12.8,9.1,15.6,10.5C305.9,326.7,309.5,326.9,313.4,327.2z"
		/>
	<path d="M273.7,263.9c-1-1.2-1.8-2.2-1.9-3.5c-6.1,2-13.6,2.5-20.2,2.8c-0.3,0-0.6,0-0.9,0.1c2.7,1.4,6.9,3.8,11.2,6.9
		c9.5,7,14.2,14.1,14,21c-0.1,1.9,0.1,3.6,0.3,5.3l6.8,2.5c-2.4-3.6-6-10.2-5.1-16.3C279.7,271.2,276.1,266.8,273.7,263.9z"/>
	<path d="M234.5,267.6c6.3,2.4,36.9,15,33.6,25c-1.3,3.8,4,10.2,10.9,16.5c-2.8-4.5-5.2-10.6-5-18c0.5-15-26.7-27.3-27-27.5l0-0.1
		C240.6,264,235.3,264.9,234.5,267.6z"/>
	<path d="M323.3,391.9c-4.3,2.6-9.2,5.4-14.9,8.5c2.2,3.1,2.5,6.8,2.1,9.9c-0.8,7.1-5.5,14.7-8.9,18c4.2,0.8,7.8,2.7,9.3,6.6
		c0.4-0.1,0.8-0.3,1.2-0.4c11.6-4.3,11.4-5.8,10.4-13.4c-0.5-3.7-1.1-8.7-0.6-15.8C322.4,399.8,322.9,395.4,323.3,391.9z"/>
	<path d="M334.2,378.1c-0.2,0.1-0.4,0.1-0.5,0.1h0c-1.1,0-1.8-1-3-2.6c-2.2-3-5.5-7.5-12.3-7.5c-5.2,0-11.5,2.7-18.9,8
		c-0.1,0-0.1,0.1-0.2,0.1c-6.1,4.8-12.6,7.4-19.4,7.5c-0.3,0-0.6,0-0.9,0c-1.7,0-3.4-0.1-5-0.3c4.9,3.1,9.3,5.6,13.1,7.6
		c3.2,0.9,6.3,1.7,9.5,2.4c5,1.1,8.4,3,10.5,5.3c12.8-6.9,22.1-12.6,27.7-17c4.7-3.8,5.4-5.6,5.5-6.3c-1.5,1.4-3.4,1.9-4.8,2.3
		C335,377.9,334.6,378,334.2,378.1z"/>
	<path d="M289,326.5c-0.2,0-0.3-0.1-0.5-0.1c0.1,0,0.1,0.1,0.2,0.1C288.7,326.5,288.8,326.5,289,326.5z"/>
	<path d="M217.6,267.6c-2.3,0-4,0.1-5,0.3c0,0.3,0,0.7-0.1,1.2c0.9,3.4,0.8,7,0.8,10.5c0,5.6-0.1,10.9,3.7,14.3c3,2.6,6,3.2,9.5,3.9
		c4.5,0.9,9.6,1.9,15.4,7.4c4.5,4.2,6.8,7.9,8.8,11.1c2.6,4.1,4.5,7.1,9.8,9.5c1.6,0.7,3.3,1.1,5.2,1.1c2.6,0,5.4-0.7,8-1.3
		c2.4-0.6,4.8-1.2,7.2-1.3c-17.6-5.7-24.1-14.6-30.4-23.3c-3.7-5.1-15.4-11.6-22.7-11.5c-1.4,0-2.5-0.5-3.3-1.5
		c-3.3-4.2-1.1-16.1-0.2-20.1C221.9,267.7,219.7,267.6,217.6,267.6z"/>
	<path d="M286.4,318L286.4,318c-0.1,0-0.3-0.2-0.6-0.4c-10.7-8.3-21.9-19.1-19.7-25.5c2.2-6.5-19.1-17.4-33.1-22.8
		c-2.4-0.4-4.6-0.8-6.8-1.1c-1.1,4.8-2.8,15.5-0.2,18.6c0.4,0.6,1,0.8,1.7,0.8c8-0.2,20.3,6.7,24.4,12.3
		c7.8,10.7,15.8,21.8,46.1,26.3C295.1,324.2,290.8,321.3,286.4,318z"/>
	<path d="M235.7,342.3c4.4,7.6,11.7,20.4,45.6,19.9c11.7-0.2,23.6-8.6,31.4-15.5c-3.1-3.2-7.6-4.8-13.8-4.8c-3.2,0-6.5,0.4-9.4,0.7
		c-4.3,0.5-6.2,1.5-8.4,2.7c-3.1,1.6-6.6,3.5-17.4,4.2c-0.8,0.1-1.6,0.1-2.3,0.1c-10.6,0-16.5-5.7-22.6-11.7
		c-3.5-3.4-7.1-6.9-11.8-9.7c3,4.6,5.7,8.9,7.9,12.6C235.2,341.4,235.4,341.8,235.7,342.3z"/>
	<path d="M317,353.6c-1.2,2.4-2.7,4.9-4.3,7.4c-2.1,3.3-4.3,6.2-6.5,8.7c4.5-2.3,8.7-3.5,12.3-3.5c7.8,0,11.6,5.2,13.9,8.3
		c0.5,0.7,1.1,1.5,1.4,1.7c0.4-0.1,0.8-0.2,1.2-0.4c2.9-0.8,6.2-1.8,5.5-8.3C337.1,366.8,322.7,362.9,317,353.6z"/>
	<path d="M172.6,279.7c0.9,2.6,3.4,10,10.3,30.6c5.1,15.3,12.7,17.8,22.3,20.9c3.7,1.2,7.6,2.5,11.7,4.5
		c-4.2-4.8-10.5-11.9-12.4-14.3c-1-1.3-3.1-2.5-5.6-3.9c-4.1-2.4-9.3-5.4-11.9-10.3c-1.9-3.5-2.4-6.2-2.8-8.6
		c-0.5-2.8-0.9-5.1-3.6-8.1c-4-4.4-5.1-8.7-5.4-10.7C174.4,279.8,173.5,279.7,172.6,279.7z"/>
	<path d="M216.3,319.3c-1.5-2.3-3-4.7-12.2-10c-12.2-7-12.2-13-12.2-17.5c0-2.4-0.1-3.8-1.4-4.9c-2.7-2.2-5.2-5.6-7.1-9.3
		c-1.7,0.9-3.7,1.6-6.1,1.9c0,0.2,0.1,0.4,0.1,0.6l37.4,50.1c3.6,4.1,7,7.9,7.6,8.6c4,2.6,8.1,6.1,12.4,11.1
		c11.9,13.6,24.4,23.8,35.2,31.1c3.1,0.6,6.4,0.9,9.9,0.9c17.4-0.3,29.4-17.7,35.9-30.4c-0.5-1.1-1.1-2.2-1.8-3.1
		c-8,7.1-20.3,15.7-32.7,15.9c-0.6,0-1.2,0-1.8,0c-33.6,0-41-13.1-45.5-20.9c-0.3-0.5-0.5-0.9-0.8-1.3c-2.7-4.6-6.2-10.1-10.1-16.1
		C218.7,323,217.5,321.2,216.3,319.3z"/>
	<path d="M159,292.3c-1.7,10.5-1.6,18.6-0.1,25c3.6-11,2.3-18.2,2.3-18.2c-0.6-2.2-1.2-4-1.7-5.6C159.3,293.1,159.1,292.7,159,292.3
		z"/>
	<path d="M170.8,303.9c0.7,8.6,2.3,20.4,5.5,22.6c2.1,1.5,9.4,4.7,17.1,8c11.8,5.1,25.3,11,28.4,14.3c2.9,3.1,17.6,12.6,29.7,20.3
		c-6-5.2-12.2-11.2-18.2-18c-10.7-12.2-20.3-15.4-28.7-18.1c-9.8-3.2-18.2-6-23.6-22.2c-7.7-23.2-10-29.6-10.5-31.3l-1.8-0.3
		c0.2,3.8,0.5,7.7,1.1,11.8C170.4,295.9,170.7,300.1,170.8,303.9z"/>
	<path d="M267.8,381.9c-0.5-0.4-2.5-1.6-5.2-3.3c-12.4-7.7-38.1-23.9-42.3-28.3c-2.9-3.1-16.7-9.1-27.8-13.9
		c-8.1-3.5-15.1-6.6-17.4-8.2c-2.1-1.5-3.6-5.8-4.6-10.8c-0.2,3.8-0.3,7.8-0.3,12.2c0,1.1,0,2.2,0,3.3c0,0.5,0,1.1,0,1.7
		c1.1-0.3,2.2-0.4,3.5-0.4c8.1,0,18.7,5.8,31.5,17.2c0.3,0.3,0.6,0.5,0.8,0.7c6.3,1.1,14.4,3.8,21.4,10.2c9.9,9.1,29.8,19.2,50.7,26
		C274.9,386.5,271.4,384.3,267.8,381.9L267.8,381.9z"/>
	<path class="st1" d="M188.9,147.6l2.9-6.7l-1.8-0.8l-3.4,8l-0.4,0.1l0.1,0.6l-8.2,19l42.8-13.8l46.6,15.7L227.7,140L188.9,147.6
		z M220.9,151.8l-39.3,12.7l6.3-14.7l39.2-7.7l29.1,21.7L220.9,151.8z"/>
	<polygon class="st1" points="186.1,197.7 190,172.7 216,185.8 216.9,184 188.5,169.6 183.7,200.3 239.4,187.9 238.9,186 	"/>
	<path class="st1" d="M318.8,243.7c7.8-5.6,16.3-6,17.5-4.5c0.3,0.4-0.1,1.3-1.6,2.6c-3.1,2.7-4.7,5.6-6.3,8.4
		c-2.2,4-4.2,7.4-10.1,9.9c-9.7,4-18.3-4.6-18.4-4.7l-1.4,1.4c0.3,0.3,6.4,6.4,14.4,6.4c2,0,4-0.4,6.2-1.2
		c6.6-2.7,8.9-6.8,11.1-10.7c1.5-2.6,3-5.4,5.9-7.8c3.1-2.8,2.5-4.5,1.9-5.4c-2.3-2.9-12.3-1.6-20.2,4.1L318.8,243.7z"/>
	<path class="st1" d="M310.5,268.6c-2.4,0.2-4.5,0.3-6.3,0.8c-2.9,0.9-4.7,2.3-5.4,4.2c-1,2.7,0.7,5.2,0.8,5.3l1.7-1.1
		c0,0-1.2-1.8-0.6-3.5c0.5-1.3,1.9-2.3,4.1-3c1.6-0.5,3.5-0.6,5.8-0.8c8.5-0.6,21.4-1.5,31.1-22.1l-1.8-0.8
		C330.7,267.2,319,268,310.5,268.6z"/>
	<path d="M294.7,406.6c-4.4-7.6-17.3-8.8-29.7-10.1c-2.1-0.2-4.1-0.4-6.1-0.6c-9.3-1.1-21.8-6.7-37.1-16.8c-9.1-6-16.5-11.9-19.1-14
		c-0.9,2.9-1.8,6.1-2.5,9.4c4.8,5.6,12.8,10.9,22.3,15.6c0.6-0.5,1.2-1,1.8-1.6l1.4-1.2l0.3,1.7c0,0,0,0.1,0,0.2l0.8,2.8
		c17.9,8.1,39.8,13.6,54.8,13.6c0.3,0,0.5,0,0.8,0c0,0,0,0,0,0c1.3,0,2.2,0.6,2.9,1.7c1.9,3.6-0.1,12.6-3.6,20.9
		c4-0.3,7.9-0.6,11.4-0.6C296.9,418.2,297.5,411.3,294.7,406.6z"/>
	<path d="M296.2,395.4c-27.4-6.1-56.9-19.4-70.1-31.7c-6.4-5.9-13.9-8.5-19.8-9.6c-0.5,1.4-1.6,4.7-2.9,8.8
		c3.7,3,35.4,28.5,55.8,30.9c2,0.2,4.1,0.4,6.1,0.6c12.9,1.3,26.3,2.6,31.2,11c3,5.2,2.6,12.4-1.4,22c1.3,0,2.6,0.1,3.9,0.2
		c1.7-0.4,9.6-10.2,9.7-19.4C308.7,401.6,304.5,397.3,296.2,395.4z"/>
	<path d="M182.1,289.2c3,3.4,3.5,6.1,4.1,9c0.4,2.3,0.9,4.7,2.6,8c2.4,4.4,7,7.1,11.2,9.6c2.6,1.5,4.9,2.9,6.1,4.4
		c1.4,1.7,5.1,6,8.7,10.1l-37.4-50.1C177.8,282.2,178.9,285.6,182.1,289.2z"/>
	<polygon points="221.7,339.6 221.7,339.6 221.7,339.6 	"/>
	<path d="M259.5,449.6c-7.3,0.1-13.6,0.1-17.9-0.4c-6.3-0.8-10.6-8-13.6-16.5c-0.7,0.9-1.4,1.8-2.3,2.6c-0.7,0.6-1.5,1.2-2.3,1.7
		c2.9,9.5,11.7,16.7,26.4,21.4c15.6,5,33.5,5.7,42.8,5.7c10,0,17-0.8,19.8-1.5c-1.4-0.9-2.1-2.1-2.6-3.6
		C301.5,449.1,277.2,449.4,259.5,449.6z"/>
	<path d="M309.8,442.4L309.8,442.4c0-0.6-0.2-1.1-0.6-1.5c-2.6-2.6-13.4-2.3-27-1.8c-7.5,0.2-16,0.5-25.5,0.4c-5.2,0-9.9-1-14.1-2.8
		c-5.2-2.3-9.1-5.7-12-9.6c-0.4,1.2-0.8,2.3-1.4,3.4c2.8,8.5,6.8,15.9,12.6,16.7c4.2,0.6,10.4,0.5,17.6,0.4
		c17.9-0.2,39.8-0.4,49.8,8.2c-0.1-1.6,0.1-3.4,0.2-5.6C309.6,448,309.8,445.4,309.8,442.4z"/>
	<path d="M293.9,429.6c-4.4,0-9.4,0.4-14.6,0.9c-3.1,0.3-6.4,0.5-9.6,0.7c-0.5,0-1,0-1.4,0c-2.5,0-5.1-0.4-7.7-1.1
		c-0.1,0-0.2,0-0.3,0l0,0c-6.6-1.9-13.7-6.1-21.1-12.6c-3.3-2.8-6.1-5.7-8.2-8.1c1,5.9,1.2,10.9,0.4,15.2c2.8,4.2,6.8,8,12.2,10.3
		c3.9,1.7,8.4,2.6,13.3,2.6c9.4,0.1,17.9-0.2,25.4-0.4c14.5-0.5,23.7-0.7,27.6,1.7C309.4,432.3,304.8,429.6,293.9,429.6z"/>
	<path d="M203.9,352.9c-12.5-11.1-22.7-16.7-30.2-16.7c-0.3,0-0.5,0-0.7,0c16.4,4.5,22.6,14.5,23.2,15.7c0.8,1,5.1,7.5-7.5,23.9
		c-0.4,0.8-0.8,1.6-1.2,2.4c0,0,0,0.1-0.1,0.1c-0.4,0.7-0.7,1.4-1,2.1c0,0.1-0.1,0.2-0.2,0.3c-0.3,0.7-0.6,1.5-0.9,2.2
		c0,0.1-0.1,0.1-0.1,0.2c-0.2,0.6-0.5,1.3-0.7,1.9c-0.1,0.2-0.1,0.3-0.2,0.5c-0.2,0.5-0.3,1-0.5,1.6c-0.1,0.2-0.1,0.5-0.2,0.7
		c-0.1,0.4-0.2,0.8-0.3,1.2c-0.1,0.3-0.2,0.6-0.2,0.9c-0.1,0.4-0.1,0.7-0.2,1.1c-0.1,0.3-0.1,0.7-0.2,1c0,0.3-0.1,0.6-0.1,0.9
		c0,0.4-0.1,0.7-0.1,1.1c0,0.2,0,0.5,0,0.7c0,0.4,0,0.8,0,1.3c0,0.1,0,0.3,0,0.4c0,0.5,0,1,0.1,1.4c0,0.1,0,0.1,0,0.2
		c0.1,0.6,0.1,1.1,0.2,1.6c0,0,0,0.1,0,0.1c0.1,0.5,0.2,1.1,0.4,1.6c0,0,0,0,0,0.1c0.7,2.2,1.7,4.1,3.2,5.8
		c7.3,8.2,22.1,8.6,29.6,5.7c7.3-2.8,8.8-10,8.8-15.6c-0.2-1.9-0.4-3.9-0.7-6.1c-9.3,8-16.1,11.9-20.9,11.9c-2.4,0-4.2-0.9-5.5-2.8
		c-3-4.3-2.7-13.7,0.8-27.8c2.2-8.8,5-16.9,5.8-19.2C204.3,353.2,204.1,353.1,203.9,352.9z"/>
	<path d="M203.6,439.8c-6.8-0.9-12.1-2.8-12.4-2.9c-7.1-2.5-12.3-7.2-15.6-14.1c-4-8.4-4.4-18.9-3-28.6c0.8-6.7,2.4-13.1,4.3-18.3
		l0.1,0c0.7-3.2,1.5-6.1,2.4-8.5c2.4-6.3-4.6-17.5-8.8-23.4c1.3,4.8,4.1,17.2,1.7,25.1c-1.1,3.6-3.5,5.7-6.1,7.9
		c-4.7,4-10,8.5-8.1,23.6c3.2,26.3,16.5,33.8,30.5,41.8c8.8,5,17.8,10.1,25.4,19.9c-0.5-2.8-1.6-7-3.9-11.7
		C208.9,448,206.6,444.2,203.6,439.8z"/>
	<path d="M210.6,461.1c-6.9-7.9-15-12.5-22.9-17c-14.5-8.2-28.2-16-31.5-43.3c-2-16.2,4-21.3,8.8-25.4c2.5-2.1,4.6-3.9,5.5-6.9
		c1.6-5.2,0.6-12.9-0.5-18.5c0,1-0.1,2.1-0.2,3.1l0,0c0,0,0,0.1,0,0.1c0,0.4,0,0.8-0.1,1.2c-0.2,2-0.3,3.9-0.6,5.6
		c-0.2,1.3-0.4,2.5-0.6,3.7c-0.5,2.7-1.2,5.1-1.9,7.1c-1,2.6-2.3,4.7-3.8,6.1c-1.6,1.5-3.4,2.9-5.1,4.3c-5.8,4.5-11.7,9.2-14.3,19.5
		c0.5,4.1,1.4,8.5,2.7,12.7c3,9.7,7.2,16.4,11.5,18.4c6.5,2.9,11.1,5.9,15,8.6c4.6,3,8.5,5.6,14.4,7.6
		C194.6,450.3,204.5,456.8,210.6,461.1z"/>
	<path d="M291.1,61.5c1.8-1.2,8.7-5.4,20.9-5.9c2.5-0.1,4.8,0.2,7,0.6l0-0.1c0.2,0,3.7,0.2,7,2.3c2.1,0.9,3.9,1.8,5.5,2.6
		c2,1,3.8,1.9,4.7,1.9c0,0,0,0,0.1,0c-0.6-0.8-1-1.6-1.3-2.6c-0.5-0.8-1.1-1.6-1.6-2.3c-2-2.9-4.6-6.7-6.4-10.6
		c-2.1-0.3-4.2-0.5-6.2-0.5c-17.6,0-31,10.7-34.3,13.5C288.7,60.8,290.3,61.2,291.1,61.5z"/>
	<path d="M385.7,113.2c-0.9,5-2.3,10.2-4.6,13.4c-0.9,4.7-2.8,7.6-4.1,9.2c0.1,0,0.1,0,0.2,0c5.4,1.8,8.4,6.5,10,10.1
		c0.5-9.2-0.3-19.1-1.1-28.4C385.9,116.1,385.8,114.6,385.7,113.2z"/>
	<path d="M393.6,63.7c-0.4,0.3-0.9,0.5-1.3,0.8c0.4,1.5,1.8,8.1-2.9,12.2c-4.5,3.9-8.6,13-8.8,13.4c0.1,4.4-0.4,9.7-2,16.3
		c2.1,6.1,2.9,11.1,2.9,15.2c3.3-8.5,3.5-22.5,3.5-22.7l0,0c0.1-7.9,1.4-13.8,5.5-16.3c9.1-5.4,6.9-10.2,4.7-14.8
		C394.5,66.4,393.8,65,393.6,63.7z"/>
	<path d="M361.2,37.8c0.2,0,0.3,0,0.5,0c1.1-3.4,2.8-8.2,5.2-13.2c5.2-10.9,11.3-18.5,18.2-22.5c-1.1,0-2.2,0-3.2,0
		c-3.1,0-6.1,0.1-8.8,0.4C358.2,7.6,359.7,28.3,361.2,37.8z"/>
	<path d="M368.8,45.6l25,15.6c0.5-1.3,1.7-2.3,3.7-3.1c1.5-0.6,3.1-1.8,4.7-3.5c-0.6,0.1-1.1,0.1-1.8,0.1
		C391.3,54.7,375.2,48.3,368.8,45.6z"/>
	<path d="M345.1,51.3c-1.9,3.7-1.3,8.7,1.8,14.7c2.7,0.6,5.5,0.9,7.7,1c-7.7-7.4-4-16.9-1.3-21.8C350.8,46,347,47.7,345.1,51.3z"/>
	<path d="M362.8,47.9c-0.2,0.1-0.5,0.1-0.7,0.1c-0.2,0-0.4,0-0.6,0c-0.7,7.1-0.9,19.6,6,22.7c0.4,0.1,0.8,0.3,1.1,0.4
		c2.7,0.8,4.9,1,6.8,0.6c0.5-2.7-8.2-16.8-11.5-22.2C363.5,48.9,363.1,48.4,362.8,47.9z"/>
	<path d="M366,38.4c11.1-8.4,35.1-24.8,48-19.9c-0.6-3.3-1.9-6.1-3.8-8.4C394.9,4.1,374.8,27.1,366,38.4z"/>
	<path d="M367.7,41.7c0,0.1,0.1,0.2,0.1,0.3c0,0,0,0.1,0,0.1c5.5-1.7,24.5-7.3,36.2-7.3c3.9,0,6.6,0.6,8.3,1.9
		c0.7-2.1,1.3-4.3,1.7-6.5C401.3,28,378.6,36.9,367.7,41.7z"/>
	<path d="M376.7,107l-0.3-0.1c0-0.1,0.1-0.3,0.1-0.4c-1.3-3.8-3.2-8-5.7-12.6c-4.4-8.2-8.1-15-10.6-19.5c0.2,0.9,0.4,1.7,0.6,2.5
		l2.9,19.8c1.1,7.3-0.6,17.2-5.1,29.6l0.2,0.1c-0.2,0.3-0.3,0.5-0.5,0.8c-0.5,1.5-1.1,2.9-1.7,4.5c-2.6,6.5-5.3,12.2-7.2,15.8
		c0.5-0.5,1.1-0.9,1.6-1.4c9.1-8.1,17-11.7,23.6-10.8C376.2,133.8,383.2,125.9,376.7,107z"/>
	<path d="M388.1,75.2c3.4-3,2.8-7.8,2.4-9.7c-4,2.3-6.8,3.5-8.3,3.5c0,0,0,0,0,0c-0.1,0-0.2,0-0.3,0c-0.5,1.1-1.3,2.4-2.9,3.5
		c-0.8,0.5-1.7,0.9-2.6,1.1c-0.2,0.1-0.5,0.2-0.9,0.3l0-0.1c-0.2,0-0.5,0.1-0.7,0.1c2,2,4.6,5.7,5.5,12.4
		C382,82.9,384.9,78,388.1,75.2z"/>
	<path d="M369.4,43.7c6.1,2.6,22.3,9.1,30.9,9.1c2,0,3.4-0.3,4.2-1c0.2-0.3,0.4-0.6,0.7-0.9l6.3-12.1c-1-1.3-3.6-1.9-7.5-1.9
		C393.3,36.8,375.9,41.7,369.4,43.7z"/>
	<path d="M376.5,79.8c-2-4.4-4.7-5.9-5.1-6.1c-1.1-0.1-2.2-0.4-3.5-0.7c-0.5-0.1-0.9-0.3-1.3-0.5c-0.8-0.3-1.7-0.6-2.6-0.9
		c-1.5-0.5-2.8-0.9-3.9-1.3c2,3.3,5.5,9.8,12.4,22.6c2,3.6,3.5,6.9,4.7,10C379.8,91,378.3,83.8,376.5,79.8z"/>
	<path d="M359,38.3c0.1,0,0.1-0.1,0.2-0.1c-0.6-3.4-1.1-8.3-0.9-13.5c0.4-10.2,3.6-17.6,9.3-21.7c-3.3,0.5-6.4,1.2-9.1,2
		c-3.9,2.7-6.2,6.3-6.9,10.6C350.4,23.8,355.6,33.1,359,38.3z"/>
	<path d="M355.1,42.3c0,0,0-0.1,0-0.1c-6-5.2-17.1-15.8-18.6-22.7c-3.8,5.4-4.5,10-4.5,10.1L332,30l-0.1,0c-0.1,0.4,0,0.9,0.2,1.4
		C334.4,35.5,347,39.9,355.1,42.3z"/>
	<path d="M363.7,38C363.8,38,363.8,38,363.7,38c3.2-4.1,8-10,13.6-15.5c11.6-11.4,21.6-16.5,30-15.3c-3.4-2.6-8-4.2-13.6-4.7
		c-1.5-0.1-3-0.2-4.5-0.3C375,8.1,366.9,28.4,363.7,38z"/>
	<path d="M377.9,70.7c1.4-0.9,2-2.1,2.3-2.9c-3.8-4-7.1-7.9-9.9-11.3c4.2,7.1,6.6,11.9,6.9,14.7C377.5,71,377.7,70.9,377.9,70.7z"/>
	<path d="M382.9,29.4c-5.6,3.4-10.8,7-14.6,9.9c11.6-5,33.2-13.3,45.9-11.1c0.3-2.5,0.4-5,0.2-7.4C408.3,17.7,397.5,20.6,382.9,29.4
		z"/>
	<path d="M366.1,46.2c-0.2,0.2-0.3,0.3-0.5,0.4c2.4,3.8,7.3,10.3,16.6,20.2l0.1,0.1c0.7,0,3-0.5,9.7-4.6L366.1,46.2z"/>
	<path d="M356.1,40.4c0.1-0.2,0.3-0.3,0.4-0.5c0.2-0.2,0.5-0.5,0.8-0.7c-3.6-5.4-8.9-15-7.6-23.9c0.5-3.3,1.8-6.1,3.9-8.6
		c-6.6,2.7-11.1,6.1-14.1,9.2c-0.3,0.3-0.6,0.7-0.9,1c-0.1,0.3-0.2,0.7-0.2,1.2C338.4,23.6,348.9,34.1,356.1,40.4z"/>
	<path d="M355.6,45.3c-3,4.9-7.3,14.9,2.4,22c0.7,0.5,2.7,1.2,4.7,1.9c-3.9-5.6-3.7-15.2-3.1-21.2C357.7,47.6,356.3,46.6,355.6,45.3
		z"/>
	<path d="M361.8,97l-1.4-9.7c-10.2,33-28.9,49.6-46.9,57.8l0,0c0,0-0.1,0-0.1,0c-5.6,2.5-11.1,4.3-16.3,5.4
		c-7.8,1.8-15.4,2.4-22,2.4c-8.7,0-15.8-1-20-1.8c4.1,2.8,8.6,4,8.7,4l0.2,0.1l0.2,0.2c0.2,0.2,5.3,4.5,9.1,10.9
		c1.7,2.9,2.8,5.7,3.4,8.4c0.9-0.1,19.5-1.4,40.2-8.9c-4.8,1.1-9.9,1.8-15.1,1.8c-5.1,0-10.2-0.7-15.3-2.2
		c-11-3.4-16.4-9.4-16.6-9.7l-1.7-1.9l2.5,0.3c0.6,0.1,62.4,6.3,85.8-27.6C360.1,116.4,363,105.3,361.8,97z"/>
	<path d="M317.1,130c10.4-6,19.1-18.4,25.4-36.1c-1.3,2.2-2.7,4.5-4.2,6.8c-10.1,14.9-23.2,26.9-36.4,33.4
		C305.2,134.1,310.8,133.6,317.1,130z"/>
	<path d="M305.2,76.3c-1.9,0.3-4.3,0.3-7.3,0.3c-6.2,0.1-15.6,0.1-29.5,2.2c-15.8,2.3-21,6.8-22.6,10.1c-1.1,2.3-0.6,4.4-0.2,5.5
		c6.6-3.4,14.6-6,24.2-6.6C286.8,86.6,298.8,82.7,305.2,76.3z"/>
	<path d="M357.3,71.6c-0.4-1.1-0.6-2-0.7-2.6c-1.1,0-3.2-0.1-5.8-0.4c0.5,3.3-0.5,8-2.6,13.6l0,0c-6.7,25.2-16.8,41.9-30.2,49.5
		c-6.1,3.5-11.6,4.3-15.3,4.3c-2.2,0-3.8-0.3-4.4-0.4c-8,3.3-15.9,5-23.4,5.5c10.5,1.8,27.9,4.2,38,2l0,0
		c22.8-10.3,38.4-30.6,46.6-60.6l-0.8-5.2C358.5,75.5,357.9,73.3,357.3,71.6z"/>
	<path d="M273.4,156.1c6.2,5.1,26.7,17.8,62.6,0.7c3.3-1.9,6.5-4,9.6-6.3l0,0c0.1-0.2,4.3-7.8,8.4-17.8
		C331.2,157.9,285.3,156.8,273.4,156.1z"/>
	<path d="M385.9,156.4c0.4-1.8,0.6-3.6,0.9-5.5c-0.2-1-2.7-10.7-10.3-13.2c-6.3-2.1-14.4,1.3-24.1,9.9c-4.8,4.2-10,7.8-15.3,10.9
		l0,0c-0.1,0-0.1,0.1-0.2,0.1c-26.5,15.2-56.9,17.8-60,18c0.2,1.6,0.2,3.1,0,4.6c10.5-0.8,59.3-5.2,67.3-14.3
		c7.9-9,34.6-14.8,41.4-10.7C385.7,156.2,385.8,156.3,385.9,156.4z"/>
	<path d="M224.8,115c-0.1,0.1-2.2,4.5-5.2,7.3c2.2,2,4.3,3.7,6.3,5.1c3.4-11.9,24.1-15.8,46-20c18.2-3.5,36.9-7,47.2-15.1L289,100
		c-6.8,1.7-12.7,2.6-17.6,2.6c-5.8,0-10.2-1.2-13.2-3.7c-2.5-2.1-3.3-4.7-3.5-6.2C234.5,99.4,224.9,114.8,224.8,115z"/>
	<path d="M384.5,157.9c-5.5-3.4-31.3,1.7-38.8,10.3c-8.7,9.9-59.5,14.2-69.1,15c-0.6,2.3-1.6,4.6-3.1,6.7c-0.4,0.5-0.4,0.8-0.4,0.8
		c0,0,0.4,0.5,3.4,0.5c4.8,0,13.9-1.3,25.3-3c14.6-2.2,34.7-5.1,56.9-6.9c9-0.7,15.6-3.7,20.3-9.2c2.9-3.5,4.9-7.7,6.2-12.4l0,0
		C385.4,158.8,385.3,158.3,384.5,157.9z"/>
	<path d="M297.9,133.6c6.2-2.6,12-6.3,17.3-10.5c-6.5,2.6-12.9,3.6-19,3.6c-21.3,0-38.5-12.5-40.4-14c-14.7,3.4-26.4,7.7-28.2,15.9
		c2.9,1.9,5.4,3.3,7.8,4.3C237.8,134,267.5,146.5,297.9,133.6z"/>
	<path d="M251.9,148.4c2.7,0.7,22.6,5.2,44.8,0.2c3.2-0.7,6.4-1.6,9.4-2.7c-1,0-2.1,0.1-3.2,0.1c-16,0-36.2-4.4-37.2-4.6l0,0
		c-6.7-0.2-12.6-1.2-17.6-2.3c0.2,0.4,0.3,0.8,0.3,1.3C248.5,143.7,250,146.3,251.9,148.4z"/>
	<path d="M208.9,113.3c1-5.7,8.3-36.6,48-51.5c-0.1,0-0.2,0-0.3,0c-18.4,3.7-43.4,12-58,30.1c-6.7,8.3-8.7,15.8-9.3,18.8
		c2.9-0.7,5.4-1,7.8-1C201.8,109.7,205.5,111,208.9,113.3z"/>
	<path d="M323.4,91.2L323.4,91.2l-0.1,0.1c-9.9,10.2-30.7,14.2-51,18.1c-4.8,0.9-9.4,1.8-13.9,2.8c6.8,4.7,34.7,21.8,62.4,6.1
		c18.7-17.6,29.9-41.7,27.9-49.8c-3.9-0.6-8.3-1.8-11.1-4.1c-0.3,0.3-0.8,0.5-1.5,0.5c-1.4,0-3.1-0.9-5.6-2.1
		c-0.3-0.1-0.5-0.3-0.8-0.4c3.1,5.2,2.3,13-2.3,23.1C326.4,87.5,325.1,89.4,323.4,91.2z"/>
	<path d="M336.6,50.5c3.4-4.5,10.2-6.5,14.6-7.3c-7.7-2.4-18.4-6.5-20.8-10.9c-0.1-0.2-0.2-0.5-0.3-0.7c-7.2,7.4-0.5,17.5,4.4,24.5
		C334.7,54.1,335.4,52.2,336.6,50.5z"/>
	<path d="M338.2,51.7c-1.6,2.1-2.1,4.7-1.5,7.7c0.7,1,1.2,1.9,1.4,2.6c1.4,1.5,3.7,2.6,6.2,3.3c-2.7-6-3.1-11-1-15
		c0.8-1.6,2-2.9,3.2-3.9C343.4,47.5,340.2,49.1,338.2,51.7z"/>
	<path d="M308.9,75c-5.9,8.5-19,13.4-38.9,14.8c-4.8,0.3-9.2,1.2-13.2,2.3c0.1,1.1,0.6,3.4,2.9,5.3c3.4,2.8,11.1,5.2,28.9,0.7
		l33.7-8.6c1.4-1.5,2.5-3.2,3.3-5c4.4-9.7,5.2-16.9,2.3-21.5c-0.8-1.3-1.8-2.3-2.9-3c-3.7-1.5-8-2.7-12.9-2.5c-0.3,0-0.6,0-0.9,0.1
		c1.1,3.1,2.1,8.7-0.5,14.5C310.3,73.4,309.7,74.3,308.9,75z"/>
	<path d="M291.9,63.3l-0.4,0.3l-0.2-0.1c-20.5,4.7-47.5,14.2-60.8,32.9c-4.9,6.9-6.4,13-6.9,16.8c1.8-2.6,8.4-11.4,20.3-18
		c-0.6-1.4-1.3-4.1,0.2-7.2c2.6-5.5,10.7-9.3,24.2-11.3c14-2,23.5-2.1,29.7-2.2c5.5,0,8.2-0.1,9.6-1.1c0.1-0.2,0.3-0.4,0.4-0.6
		c3.8-6.1,2.3-12.3,1.2-15.3C297.8,58.8,291.9,63.3,291.9,63.3z"/>
	<path d="M265.8,61c-26.2,7.5-39.7,21.6-46.5,32.1c-7.4,11.4-8.5,21.3-8.5,21.4l-0.2,0c2.4,1.8,4.9,4,7.5,6.5c1.2-1.1,2.4-2.7,3.2-4
		c-0.1-1.9-0.1-10.8,7.4-21.5c12.8-18.3,38.1-28,58.4-33c-3.5-0.8-9.2-1.7-16.6-1.7C269,60.8,267.4,60.9,265.8,61z"/>
	<path class="st1" d="M416.2,19.2c-1.2-7.7-6-17.2-22.3-18.6c-4.2-0.4-8.2-0.6-12-0.6c-3.3,0-6.3,0.1-9.2,0.4l0,0
		c0,0-0.1,0-0.1,0C367,0.9,362.2,1.9,358,3.1L357.9,3c-0.1,0.1-0.2,0.1-0.3,0.2c-9.5,2.9-15.6,7.2-19.4,11.2l-0.1-0.1
		c-0.5,0.4-0.9,0.9-1.2,1.4c-5.2,5.9-6.5,11.6-6.8,13.1c-5.9,4.8-6,10.6-4.1,16.2c-1.8-0.2-3.6-0.3-5.4-0.3c-4.9,0-9.5,0.8-13.7,2
		C281.5,26.3,250.4,12,217.2,6c-10.6-1.9-21.4-2.9-32.1-2.9c-36.8,0-72.8,11.1-104.1,32c-9.9,6.6-19,14.1-27.2,22.2
		c-0.1,0.1-0.3,0.2-0.4,0.3c-1,0.8-1.8,1.7-2.6,2.7c-24.7,25.4-41.3,57-47.9,92c-8.7,46.1,2.3,93.8,31,134.5c1.2,1.7,2.4,3.4,3.7,5
		c0.4,0.7,0.8,1.3,1.4,1.8c26,33.8,63.5,59.9,104.7,73.2c-0.9,2.7-1.4,5.5-1.3,8.1c-3.5,1.8-4.4,9.8-4.5,11.4
		c-1.6,10.3,2.3,21,2.5,21.4l1.5,4.2l0.4-4.4c0-0.3,0.1-0.7,0.1-1c0.5,2.5,1.1,5.1,1.9,7.4c3.1,10.3,7.7,17.4,12.6,19.6
		c6.4,2.9,10.8,5.8,14.8,8.4c3.4,2.2,6.7,4.4,10.7,6.2c7.4,8.7,18.8,17,36.3,20.8c12,2.6,21.1,3.9,27.9,3.9c0,0,0,0,0,0
		c9.6,0,13.2-2.5,16.8-5c1.8-1.2,3.5-2.4,5.9-3.3c9.7,1.3,18.4,1.5,23.4,1.5c5.7,0,11.3-0.3,15.6-0.8c6.8-0.8,7-1.6,7.2-2.3
		c0.1-0.5,0-1.1-0.8-1.4c-3.4-1.7-3.4-4-3-11.2c0.2-3,0.4-6.6,0.3-11.1c0-0.9-0.1-1.7-0.3-2.5c0.5-0.1,0.9-0.3,1.4-0.5
		c12.5-4.6,12.8-7,11.7-15.5c-0.4-3.6-1.1-8.5-0.6-15.5c0.4-6.2,0.9-11,1.5-14.8c11.5-7.1,17.1-12.3,16.8-15.5
		c-0.1-0.6-0.3-1.1-0.6-1.4c0.8-1.6,1.2-3.8,0.7-7c0-0.5-0.6-9.4-3.6-18.5c-4.1-12.5-10.8-19.6-19.3-20.4c-1.4-0.1-2.7-0.2-4-0.4
		c0-0.2,0.1-0.5,0.1-0.7c0.2-1.8,0.4-3.4,0.4-4.9c7.2-5.6,13.9-11.7,20.1-18.3c6-2.8,12.6-6.4,19.1-10.8c6.3-4.2,11.8-8.8,16.6-13.7
		c0,0,0,0,0,0l0,0c16-16.2,23.6-35.6,22.2-57c1.2-3.1,2.2-6.3,2.8-8.3c6-21.7,9-58.5-7.5-71.9c0.1-8.1-0.6-16.5-1.2-24.5
		c-0.5-6.5-1-12.7-1-18c0-0.3,0-0.5,0-0.5l0,0c0.1-7.2,1.1-12.6,4.5-14.6c10.7-6.3,7.6-12.7,5.4-17.3c-0.8-1.7-1.6-3.3-1.4-4.5
		l0.1-0.1l-0.1-0.1c0-0.1,0-0.3,0.1-0.4c0.3-0.8,1.1-1.4,2.6-2c2.6-1.1,5.4-3.6,8.1-7.1c0.2-0.2,0.3-0.4,0.4-0.6
		c1.7-2.3,3.3-5.1,4.7-8.1c0.8-1.7,1.5-3.4,2.1-5.1l0.2-0.4l0-0.1C416.1,31.7,417,24.9,416.2,19.2z M414.2,28.2
		c-12.8-2.2-34.4,6-45.9,11.1c3.9-2.9,9-6.5,14.6-9.9c14.6-8.8,25.4-11.7,31.5-8.5C414.6,23.2,414.5,25.7,414.2,28.2z M414,18.5
		c-12.9-4.9-36.9,11.5-48,19.9c8.7-11.3,28.9-34.3,44.2-28.4C412.1,12.4,413.4,15.2,414,18.5z M385.1,159.6c-1.3,4.7-3.3,9-6.2,12.4
		c-4.7,5.5-11.3,8.5-20.3,9.2c-22.2,1.7-42.2,4.7-56.9,6.9c-11.4,1.7-20.4,3-25.3,3c-3,0-3.4-0.5-3.4-0.5c0,0,0-0.2,0.4-0.8
		c1.5-2.1,2.6-4.4,3.1-6.7c9.7-0.7,60.4-5.1,69.1-15c7.5-8.6,33.4-13.7,38.8-10.3C385.3,158.3,385.4,158.8,385.1,159.6L385.1,159.6z
		 M353.1,264.2c-15.1,35.9-56.5,32.3-59.8,32c-8-5.1-9.1-9-8.6-13.8c1.2,1.6,3,2.7,5.4,3c2.7,0.4,5.3,0.6,8,0.6
		c18.6,0,36.4-10.5,51.2-30.4c11.3-15.1,10.7-24.1,8.2-29c-3.1-6.2-10.1-8.4-15.6-8.4c-2.9,0-5.7,0.6-7.8,1.7
		c-1.6,0.9-3.1,1.7-4.3,2.4c-1.3,0.7-2.3,1.4-3.4,1.9c0.1-0.8,0.4-1.8,1.3-3c5.7-7.5,25.6-8.4,37-8.2c9.9,1.5,11.9,2.5,14.2,6.8
		C376.3,221.9,367,231.3,353.1,264.2z M379.9,221.6c0.2,0.4,0.4,0.8,0.6,1.2c0.9,1.9,2,4.2,3.5,7c0.5,1,1.1,1.5,1.7,1.8
		c-15.4,39.2-30.2,38.3-32.8,37.8l0,0c0.7-1.4,1.4-2.8,2.1-4.3C368,233.8,377.1,224,379.9,221.6z M252.1,299.8
		c-4-5.6-16.4-12.4-24.4-12.3c-0.7,0-1.3-0.2-1.7-0.8c-2.5-3.1-0.8-13.8,0.2-18.6c2.2,0.3,4.4,0.6,6.8,1.1
		c14,5.3,35.3,16.2,33.1,22.8c-2.2,6.5,9,17.3,19.7,25.5c0.3,0.3,0.5,0.4,0.5,0.5l0,0c4.4,3.4,8.6,6.3,11.8,8.2
		C267.9,321.6,259.9,310.5,252.1,299.8z M289,326.5c-0.1,0-0.2,0-0.3,0c-0.1,0-0.1-0.1-0.2-0.1C288.6,326.4,288.8,326.4,289,326.5z
		 M215.7,295.4c3.4,3,6.8,3.6,10.5,4.4c4.4,0.9,9,1.8,14.4,6.9c4.3,4.1,6.5,7.6,8.5,10.7c2.6,4.1,4.8,7.6,10.6,10.2
		c1.8,0.8,3.8,1.2,6,1.2c2.9,0,5.7-0.7,8.5-1.4c2.6-0.6,5-1.2,7.4-1.2c1.8,0,3.4,0.4,4.8,1.2c-20.1,10.9-28.9,8.4-29,8.4l-0.2,0
		c-16.3-1.3-21.2-8.2-26.9-16.1c-1-1.4-2-2.8-3.1-4.3c-3.2-4.1-7.4-6.6-11.6-9c-5.6-3.3-11-6.4-13.5-13.2
		c-3.7-9.8,0.3-27.1,1.9-33.1l0.3,0l0.1-0.3c2.6,2.9,4.7,5.6,5.5,7.8c1.5,3.7,1.4,7.9,1.4,12C211.2,285.4,211.2,291.4,215.7,295.4z
		 M224.5,288c0.8,1,1.9,1.6,3.3,1.5c7.3-0.1,19,6.3,22.7,11.5c6.3,8.7,12.8,17.6,30.4,23.3c-2.4,0.1-4.8,0.7-7.2,1.3
		c-2.6,0.6-5.4,1.3-8,1.3c-1.9,0-3.6-0.3-5.2-1.1c-5.3-2.4-7.2-5.4-9.8-9.5c-2-3.2-4.3-6.9-8.8-11.1c-5.8-5.6-10.9-6.5-15.4-7.4
		c-3.5-0.7-6.6-1.3-9.5-3.9c-3.8-3.4-3.8-8.7-3.7-14.3c0-3.5,0-7.1-0.8-10.5c0.1-0.5,0.1-0.9,0.1-1.2c1.1-0.1,2.7-0.3,5-0.3
		c2.1,0,4.3,0.1,6.7,0.4C223.4,271.9,221.2,283.9,224.5,288z M273.9,291.1c-0.2,7.3,2.2,13.4,5,18c-6.9-6.3-12.2-12.7-10.9-16.5
		c3.4-10-27.3-22.5-33.6-25c0.9-2.7,6.2-3.6,12.5-4.1l0,0.1C247.2,263.8,274.4,276.1,273.9,291.1z M283,299.1l-6.8-2.5
		c-0.3-1.7-0.4-3.5-0.3-5.3c0.2-6.9-4.5-14-14-21c-4.2-3.1-8.4-5.5-11.2-6.9c0.3,0,0.6,0,0.9-0.1c6.6-0.4,14.1-0.8,20.2-2.8
		c0.1,1.2,0.9,2.3,1.9,3.5c2.4,2.9,6,7.3,4.2,18.9C277,288.9,280.6,295.5,283,299.1z M287.3,316.1c-1.7-1.5-8.2-7.8-10.5-17.2
		l6.8,2.5c23.2,7.8,21.8,24,21.7,24.7c0,0,0,0,0,0l1,0.1l1,0.1c0-0.2,0.5-4.7-2.2-10.3c-2.3-4.8-7.4-11.3-18.7-15.6
		c-1.3-1.6-7.5-10-6.4-17.2c1.9-12.5-2.2-17.5-4.7-20.5c-1.3-1.6-1.7-2.1-1.4-2.8l-0.2-0.1c3.3-1.4,6.1-3.3,7.9-6
		c4.7,10.8,3.2,18.1,1.9,23.9c-1.6,7.2-2.8,13,8.8,20.3c2.4,1.5,4.7,2.9,6.8,4.1c10.9,6.4,16.3,9.6,14.4,24.4c0,0.3-0.1,0.5-0.2,0.8
		c-4-0.3-7.5-0.5-10.6-0.6C300,325.2,293.7,321.1,287.3,316.1z M330.8,224c1.2-0.7,2.6-1.5,4.2-2.4c1.8-0.9,4.3-1.5,6.9-1.5
		c4.9,0,11.2,1.9,13.9,7.3c2.2,4.4,2.6,12.7-8.1,26.9C333.2,273.8,316,284,298,284c-2.5,0-5-0.2-7.7-0.6c-2.1-0.3-3.5-1.2-4.3-2.7
		c-0.3-0.6-0.5-1.2-0.7-1.9c0.1-0.3,0.1-0.5,0.2-0.8c0.6-2.7,1.2-5.7,1.3-9.1l0.1-0.1l0-0.1c0.1-4.8-0.8-10.5-4.2-17.7l-0.9-1.9
		l-0.9,1.9c-3.9,8.7-17.4,9.5-29.3,10.2c-9.4,0.6-17.7,1.1-19,5.8c-5.5-1-10.5-1.5-15-1.5c-2.7,0-4.6,0.2-5.7,0.4
		c-0.2-0.1-0.4-0.1-0.5-0.2c-4.1-8.1-20.8-22-26.6-26.7l12.3-1.2l-10.6-22.5l-1.8,0.8l9.4,19.9l-11.4,1.1l-0.1-0.1l-0.2,0l0,0
		l-0.5,0.1l-0.1,0l-0.6,0.1l-10.4-6l-2.4,8.8l0,0l-0.1,0.6c0,0-0.3,1.2-0.7,3.1l-10.9-15.8l12.9-33.5l-5.9-13.1l10.8-37.1l0-0.1
		c2.6-19.8,8.7-28.2,14.4-31.6c3.1-0.8,5.8-1.2,8.2-1.2c8.2,0,12.9,4.4,20.1,11.1l0.3,0.3c6.6,6.2,12.4,9.6,17,11.7l0,0c0,0,0,0,0,0
		c2.9,1.3,5.3,2.1,7.2,2.7c3.6,1.2,4.7,1.7,4.8,2.9c0.5,11.9,14.5,16,16.6,16.6c0.9,0.8,5.3,4.8,8.5,10.2c3,5,4.1,9.7,3.4,14.1
		c0,0,0,0,0,0l0,0.1c-0.4,2.6-1.4,5-3.1,7.4c-0.8,1.1-0.9,2-0.5,2.8c0.6,1.1,2.1,1.6,5.2,1.6c0.5,0,1.1,0,1.6,0
		c0.1,11.4,10.3,17.6,25.2,26.4l2.2,1.3c7.8,4.7,12.5,6.6,16.3,6.6C325.1,227.4,327.6,225.9,330.8,224z M233.2,342
		c0.2,0.4,0.5,0.9,0.8,1.3c4.5,7.9,12,20.9,45.5,20.9c0.6,0,1.2,0,1.8,0c12.4-0.2,24.7-8.8,32.7-15.9c0.7,0.9,1.2,1.9,1.8,3.1
		c-6.5,12.7-18.5,30.1-35.9,30.4c-3.5,0.1-6.7-0.3-9.9-0.9c-10.8-7.3-23.3-17.4-35.2-31.1c-4.3-5-8.5-8.4-12.4-11.1
		c-0.6-0.7-4-4.5-7.6-8.6c-3.6-4-7.3-8.3-8.7-10.1c-1.2-1.6-3.5-2.9-6.1-4.4c-4.1-2.4-8.8-5.1-11.2-9.6c-1.7-3.2-2.2-5.6-2.6-8
		c-0.5-2.9-1-5.6-4.1-9c-3.2-3.5-4.3-7-4.8-9c0-0.2-0.1-0.4-0.1-0.6c2.4-0.3,4.4-1.1,6.1-1.9c1.9,3.7,4.4,7.1,7.1,9.3
		c1.4,1.1,1.4,2.5,1.4,4.9c0,4.4,0,10.5,12.2,17.5c9.3,5.3,10.8,7.7,12.2,10c1.2,1.9,2.4,3.7,6.8,6.6
		C227,331.8,230.5,337.4,233.2,342z M227,328.3c4.7,2.9,8.3,6.3,11.8,9.7c6.2,6,12,11.7,22.6,11.7c0.7,0,1.5,0,2.3-0.1
		c10.7-0.8,14.3-2.6,17.4-4.2c2.2-1.1,4.1-2.1,8.4-2.7c2.9-0.4,6.2-0.7,9.4-0.7c6.3,0,10.7,1.5,13.8,4.8
		c-7.8,6.9-19.7,15.3-31.4,15.5c-34,0.5-41.2-12.3-45.6-19.9c-0.3-0.5-0.5-0.9-0.8-1.3C232.7,337.3,230,333,227,328.3z M309.3,455.8
		c-10.1-8.6-32-8.4-49.8-8.2c-7.2,0.1-13.4,0.1-17.6-0.4c-5.8-0.8-9.8-8.1-12.6-16.7c0.5-1.1,1-2.2,1.4-3.4c2.9,3.9,6.8,7.4,12,9.6
		c4.2,1.8,8.9,2.8,14.1,2.8c9.5,0.1,18-0.2,25.5-0.4c13.6-0.4,24.4-0.8,27,1.8c0.4,0.4,0.6,0.9,0.6,1.5h0c0,3-0.2,5.6-0.3,7.8
		C309.4,452.4,309.3,454.2,309.3,455.8z M178.1,378.7c0.2-0.6,0.4-1.2,0.6-1.9l0.3-0.4c0.7-3.3,1.5-6.3,2.3-8.4
		c3.2-8.6-7.8-23.8-11.1-28c0-0.8,0-1.6,0-2.4c16.9,3.8,23.4,13.9,24.2,15.2c0.2,1.2,1.1,9.9-7.4,21.9l-0.1,0.1
		c-10,18.4-6.5,28.5-1.9,33.7c7.8,8.9,23.8,9.4,31.8,6.2c0.4-0.2,0.8-0.3,1.2-0.5c0.1-0.1,0.3-0.1,0.4-0.2c0.2-0.1,0.4-0.2,0.6-0.3
		c0.2-0.1,0.3-0.2,0.5-0.3c0.2-0.1,0.3-0.2,0.5-0.3c0.2-0.1,0.3-0.2,0.5-0.4c0.1-0.1,0.3-0.2,0.4-0.3c0.2-0.1,0.3-0.3,0.5-0.4
		c0.1-0.1,0.3-0.3,0.4-0.4c0.1-0.1,0.3-0.3,0.4-0.4c0.2-0.2,0.3-0.4,0.5-0.6c0.1-0.1,0.1-0.2,0.2-0.2c2.1-2.6,3.4-6,3.8-10.1
		l0.9,3.3c3.8,14.6,2.7,24.7-3.3,30.1c-10.3,9.3-32.2,1.4-32.4,1.3c-6.3-2.2-11-6.6-14-12.9c-2.7-5.6-4.5-14.9-3.5-26.2
		c0.8-6.1,2.3-12.1,4.1-17.1L178.1,378.7z M254.9,417.4c-1.3-1.5-2.7-2.8-4.1-4.1c6.8,2.7,12.4,3,15.7,3.2c1,0.1,1.8,0.1,2.3,0.2
		c1.1,0.3,3.6,5.8,5.5,12.1c-1.6,0.1-3.1,0.2-4.7,0.3c-0.4,0-0.9,0-1.3,0c-2,0-3.9-0.3-5.9-0.7C262.4,427.1,261,424.3,254.9,417.4z
		 M260.3,427.9c-13.1-4.1-25.1-16.6-30.1-22.4c-0.2-0.8-0.4-1.6-0.6-2.4L229,401c2,1,5.5,2.8,9.5,5.4c1.3,1,2.7,1.9,4,2.7
		c3.8,2.7,7.7,6,11,9.7C258.7,424.6,260,427,260.3,427.9z M269.3,414.8c-0.6-0.1-1.4-0.2-2.6-0.3c-4.3-0.3-12.7-0.8-22.8-6.9
		c-7.1-5.2-13.8-8.4-15.5-9.2l-1-3.8c18.1,7.9,39.3,13,54.1,13c0.3,0,0.5,0,0.8,0c0.5,0,0.8,0.2,1.1,0.7c1.5,2.9-0.5,11.9-4.1,20.1
		c0,0-0.1,0-0.1,0c-0.9,0.1-1.9,0.2-2.9,0.2C274.9,424.2,272,415.5,269.3,414.8z M285.1,407.4c-0.6-1.1-1.6-1.7-2.9-1.7c0,0,0,0,0,0
		c-0.3,0-0.5,0-0.8,0c-15,0-36.9-5.5-54.8-13.6l-0.8-2.8c0-0.1,0-0.1,0-0.2l-0.3-1.7l-1.4,1.2c-0.6,0.5-1.2,1.1-1.8,1.6
		c-9.5-4.7-17.6-10-22.3-15.6c0.8-3.3,1.7-6.5,2.5-9.4c2.6,2.1,10,8,19.1,14c15.3,10.1,27.8,15.7,37.1,16.8c2,0.2,4.1,0.4,6.1,0.6
		c12.4,1.2,25.3,2.5,29.7,10.1c2.8,4.7,2.2,11.6-1.9,21c-3.5,0-7.3,0.3-11.4,0.6C284.9,420,287,411,285.1,407.4z M220.7,391.6
		c-7.7,6.4-13.6,9.6-17.5,9.6c-1.2,0-2.2-0.3-3-1c-0.3-0.4-0.6-0.7-0.9-1.1c-2.7-4.1-1.8-13.2,0.2-22.2
		C205.3,383,213.9,388.1,220.7,391.6z M198.6,372.5c-3.5,14.2-3.8,23.5-0.8,27.8c1.3,1.8,3.1,2.8,5.5,2.8c4.8,0,11.6-3.9,20.9-11.9
		c0.3,2.2,0.6,4.2,0.7,6.1c0,5.7-1.5,12.8-8.8,15.6c-7.5,2.9-22.3,2.5-29.6-5.7c-1.5-1.7-2.6-3.6-3.2-5.8c0,0,0,0,0-0.1
		c-0.2-0.5-0.3-1-0.4-1.6c0,0,0-0.1,0-0.1c-0.1-0.5-0.2-1.1-0.2-1.6c0-0.1,0-0.1,0-0.2c0-0.5-0.1-1-0.1-1.4c0-0.1,0-0.3,0-0.4
		c0-0.4,0-0.8,0-1.3c0-0.2,0-0.4,0-0.7c0-0.4,0.1-0.7,0.1-1.1c0-0.3,0.1-0.6,0.1-0.9c0-0.3,0.1-0.7,0.2-1c0.1-0.4,0.1-0.7,0.2-1.1
		c0.1-0.3,0.2-0.6,0.2-0.9c0.1-0.4,0.2-0.8,0.3-1.2c0.1-0.2,0.1-0.5,0.2-0.7c0.2-0.5,0.3-1,0.5-1.6c0-0.1,0.1-0.3,0.2-0.5
		c0.2-0.6,0.4-1.2,0.7-1.9c0-0.1,0.1-0.1,0.1-0.2c0.3-0.7,0.6-1.5,0.9-2.2c0-0.1,0.1-0.2,0.2-0.3c0.3-0.7,0.6-1.4,1-2.1
		c0,0,0-0.1,0.1-0.1c0.4-0.8,0.8-1.6,1.2-2.4c12.6-16.4,8.3-23,7.5-23.9c-0.7-1.2-6.8-11.2-23.2-15.7c0.2,0,0.5,0,0.7,0
		c7.6,0,17.7,5.6,30.2,16.7c0.2,0.2,0.3,0.3,0.5,0.4C203.6,355.6,200.7,363.7,198.6,372.5z M282.2,437.1c-7.5,0.2-16,0.5-25.4,0.4
		c-4.9,0-9.4-0.9-13.3-2.6c-5.4-2.4-9.3-6.2-12.2-10.3c0.8-4.2,0.7-9.3-0.4-15.2c2.2,2.4,5,5.2,8.2,8.1c7.4,6.5,14.5,10.7,21.1,12.6
		l0,0c0.1,0,0.2,0,0.3,0c2.6,0.7,5.2,1.1,7.7,1.1c0.5,0,1,0,1.4,0c3.3-0.2,6.5-0.5,9.6-0.7c5.3-0.4,10.3-0.9,14.6-0.9
		c10.9,0,15.5,2.7,15.8,9.2C305.9,436.3,296.7,436.6,282.2,437.1z M298.9,427.8c-1.3-0.1-2.6-0.2-3.9-0.2c4-9.6,4.5-16.9,1.4-22
		c-4.9-8.4-18.3-9.7-31.2-11c-2-0.2-4.1-0.4-6.1-0.6c-20.4-2.3-52.1-27.9-55.8-30.9c1.3-4.2,2.4-7.4,2.9-8.8
		c5.9,1.1,13.4,3.7,19.8,9.6c13.2,12.2,42.7,25.5,70.1,31.7c8.4,1.9,12.6,6.2,12.5,13C308.5,417.6,300.6,427.5,298.9,427.8z
		 M227.4,362.3c-6.9-6.4-15-9.1-21.4-10.2c-0.2-0.2-0.4-0.4-0.8-0.7c-12.9-11.4-23.5-17.2-31.5-17.2c-1.2,0-2.4,0.1-3.5,0.4
		c0-0.6,0-1.1,0-1.7c0-1.2,0-2.3,0-3.3c0-4.5,0.1-8.4,0.3-12.2c1,5,2.5,9.3,4.6,10.8c2.3,1.6,9.3,4.7,17.4,8.2
		c11.1,4.8,24.9,10.8,27.8,13.9c4.2,4.4,29.9,20.6,42.3,28.3c2.7,1.7,4.7,2.9,5.2,3.3l0,0c3.6,2.5,7,4.6,10.2,6.5
		C257.2,381.5,237.2,371.4,227.4,362.3z M168.7,279.3l1.8,0.3c0.6,1.7,2.8,8.1,10.5,31.3c5.4,16.2,13.8,19,23.6,22.2
		c8.5,2.8,18,5.9,28.7,18.1c6,6.9,12.2,12.8,18.2,18c-12.2-7.7-26.8-17.3-29.7-20.3c-3.2-3.3-16.6-9.2-28.4-14.3
		c-7.7-3.3-14.9-6.5-17.1-8c-3.2-2.3-4.8-14.1-5.5-22.6c-0.1-3.8-0.4-8-1-12.8C169.3,287,168.9,283.1,168.7,279.3z M168.9,353
		C168.9,353,168.9,353,168.9,353L168.9,353L168.9,353z M168.3,323.7c-0.3,1.3-0.7,2.6-1.3,4l-4.8,8.1l3.4-5.2
		c-2.2,4.3-5.5,8.9-8.9,13.8c-1.4,1.9-2.7,3.9-4,5.8c-0.5-3.9-0.8-12.6,4.7-23.8c7.8-16,5.8-27.1,5.7-27.6c-0.5-2-1.1-3.7-1.6-5.1
		c1.5-1.6,3.4-8.4,5.1-16c0.2,5.8,0.8,11,1.1,13.8c1.4,10.6,1.1,17.9,0.7,25.7C168.4,319.2,168.3,321.4,168.3,323.7z M167.9,353.1
		c-1,12.5-18.9,19.6-23.5,21.3c0.1-9.2,7.1-19.2,14-28.9c3.9-5.5,7.6-10.7,9.9-15.6c0,1,0,2.1,0,3.2
		C168.3,338.9,168.4,346.1,167.9,353.1z M150.7,350.2C80.7,329.8,29.9,269.8,29.9,199.1c0-6.8,0.5-13.6,1.4-20.2
		c5.2-37.8,24.9-71.1,53.6-95.6c0.3-0.2,0.6-0.4,0.8-0.7c0.1-0.1,0.1-0.1,0.1-0.2c14.6-12.3,31.4-22.2,49.8-29.4
		c0.8-0.3,1.5-0.5,2.3-0.9c14.4-5.4,29.7-9,45.7-10.7c0.1,0,0.3,0.1,0.4,0.1c0.1,0,0.2,0,0.2,0c0.2,0,0.5-0.1,0.7-0.3
		c6-0.6,12.1-0.9,18.2-0.9c21.3,0,41.6,3.5,60.5,10C254,52.5,243.5,56,233,62l0.2,0.3c-29.1,5.9-39.8,26.7-41.1,29.4
		c-0.7,0.5-1.5,1-2.2,1.5c-1.3,0.9-2.7,2-4.1,3.2l-0.1,0l0,0c-4.6,3.9-9.5,9.3-11.9,15.8c-2.4,6.5-2.1,13.3,0.9,20.2
		c-0.9,3.4-1.7,7.3-2.3,11.8l-11,37.7l5.8,13l-12.9,33.7l11.3,16.4c-0.8,1.3-2.8,4.8-4.3,9.5c-2.2,6.7-2.5,13.1-1,18.7
		c-2.5,7.2-3,11.2-2.6,14.5c-2.8,14.8-2.6,25.2-0.2,33.2c-0.6,1.5-1.3,3-2,4.6C149.9,337,150.1,346,150.7,350.2z M31.6,238
		c1.1,1.1,1.7,2.5,1.7,4c0,1.6-0.8,3.1-2.1,4.2c-2,1.8-5.2,1.8-7.1,0c-0.6-0.6-1-1.4-1-2.3c0-0.9,0.4-1.8,1.2-2.5c1.2-1,3-1,4,0
		c0.3,0.3,0.5,0.7,0.5,1.2c0,0.5-0.2,1-0.6,1.3c-0.6,0.5-1.6,0.5-2.1,0c-0.2-0.2-0.2-0.4-0.2-0.5c0-0.2,0.1-0.4,0.3-0.6
		c0.4-0.4,0.5-1,0.1-1.4c-0.4-0.4-1-0.5-1.4-0.1c-0.6,0.5-0.9,1.3-1,2c0,0.7,0.3,1.4,0.8,2c1.3,1.2,3.4,1.2,4.8,0
		c0.8-0.7,1.3-1.7,1.3-2.8c0-1-0.4-2-1.1-2.7c-1.8-1.7-4.8-1.7-6.7,0c-1.2,1-1.8,2.4-1.9,3.9c0,1.4,0.5,2.7,1.6,3.7
		c2.6,2.5,7,2.5,9.8,0.1c1.2-1,2-2.3,2.4-3.7c0.8,2.7,1.8,5.3,2.8,7.9c-5.5,4.6-13.6,4.5-18.6-0.2c-1.8-1.8-2.8-4.1-2.8-6.6
		c0.1-2.7,1.3-5.2,3.4-7C23.1,235,28.4,235,31.6,238z M28,234c1.3-0.6,2.5-1.4,3.6-2.3c0.4,1.6,0.7,3.1,1.1,4.6
		C31.4,235.1,29.7,234.3,28,234z M38.4,253.8c0.4,1,0.8,2,1.2,2.9c-1.2-0.7-2.5-1.1-3.9-1.2C36.7,255,37.6,254.4,38.4,253.8z
		 M15.2,169c-0.4-0.4-1-0.5-1.4-0.1c-0.6,0.6-1,1.4-1.1,2.2c0,0.8,0.3,1.6,0.9,2.1c1.4,1.3,3.8,1.4,5.3,0c0.9-0.8,1.4-1.9,1.5-3
		c0-1.1-0.4-2.1-1.2-2.9c-2-1.9-5.3-1.9-7.5,0c-1.3,1.1-2,2.7-2.1,4.3c0,1.6,0.6,3,1.7,4.1c2.9,2.8,7.8,2.8,10.9,0.1
		c1.9-1.7,3-3.9,3.1-6.4c0.1-2.3-0.8-4.4-2.5-6.1c-1-1-2.2-1.7-3.4-2.2c1,0.2,2.1,0.3,3.1,0.3c3.9,0,7.9-1.2,11.3-3.4
		c-1.9,6.7-3.4,13.5-4.4,20.6c-0.1,0.6-0.1,1.1-0.2,1.7c-0.2,0-0.3,0.1-0.5,0.2c-6.3,5.6-15.8,5.6-21.6,0c-2.1-2-3.2-4.7-3.2-7.6
		c0.1-3,1.5-5.9,3.9-8.1c3.9-3.4,10-3.4,13.6,0c1.3,1.2,2,2.9,1.9,4.6c0,1.9-0.9,3.6-2.4,4.9c-2.4,2.1-6,2.1-8.2,0
		c-0.7-0.7-1.1-1.7-1.1-2.7c0-1.1,0.5-2.1,1.4-2.9c1.4-1.2,3.5-1.2,4.8,0c0.4,0.4,0.6,0.9,0.6,1.4c0,0.6-0.3,1.2-0.8,1.6
		c-0.7,0.6-1.9,0.7-2.6,0c-0.2-0.2-0.3-0.5-0.3-0.7c0-0.3,0.1-0.5,0.4-0.8C15.5,170.1,15.6,169.5,15.2,169z M155.6,20.7
		c-1-0.2-2,0-2.8,0.5c-0.8,0.5-1.3,1.4-1.4,2.3c-0.3,2.3,1.3,4.6,3.6,5.1c1.4,0.3,2.8,0.1,4-0.7c1.1-0.7,1.8-1.9,2-3.2
		c0.5-3.3-1.9-6.6-5.2-7.4c-2.1-0.5-4.1-0.1-5.8,1c-1.6,1.1-2.6,2.7-2.9,4.6c-0.7,4.9,2.7,9.8,7.7,10.9c3.1,0.7,6.1,0.2,8.5-1.5
		c2-1.4,3.4-3.3,4-5.6c1.9,5.7,6.2,10.6,12,13.2c-8.3,1-16.3,2.6-24.2,4.7c-0.1-0.1-0.3-0.2-0.5-0.3c-10.5-2.4-17.5-12.2-16-22.4
		c0.5-3.7,2.5-6.9,5.6-9c3.2-2.2,7.3-2.9,11.3-2c6.5,1.5,11,7.9,10.1,14.2c-0.3,2.3-1.5,4.3-3.4,5.5c-2,1.4-4.5,1.8-7,1.2
		c-4-0.9-6.8-4.8-6.2-8.7c0.2-1.4,0.9-2.5,2-3.3c1.2-0.8,2.7-1.1,4.2-0.7c2.4,0.5,4,2.9,3.7,5.2c-0.1,0.8-0.5,1.4-1.1,1.9
		c-0.7,0.5-1.5,0.6-2.4,0.4c-1.3-0.3-2.3-1.6-2.1-2.9c0.1-0.4,0.3-0.7,0.6-1c0.3-0.2,0.8-0.3,1.3-0.2c0.5,0.1,1.1-0.2,1.2-0.7
		C156.5,21.4,156.2,20.8,155.6,20.7z M311.1,57.6c0.3,0,0.6,0,0.9-0.1c5-0.2,9.3,1,12.9,2.5c1.1,0.7,2.1,1.7,2.9,3
		c2.9,4.6,2.1,11.9-2.3,21.5c-0.8,1.8-2,3.4-3.3,5l-33.7,8.6c-17.8,4.5-25.5,2.1-28.9-0.7c-2.3-1.9-2.8-4.2-2.9-5.3
		c4-1.2,8.4-2,13.2-2.3c20-1.3,33-6.3,38.9-14.8c0.8-0.7,1.3-1.6,1.7-2.9C313.3,66.3,312.2,60.7,311.1,57.6z M329.7,62.2
		c0.3,0.1,0.6,0.3,0.8,0.4c2.4,1.2,4.2,2.1,5.6,2.1c0.7,0,1.2-0.2,1.5-0.5c2.8,2.3,7.2,3.5,11.1,4.1c2,8.1-9.2,32.3-27.9,49.8
		c-27.7,15.7-55.7-1.4-62.4-6.1c4.5-1,9.2-1.9,13.9-2.8c20.3-3.9,41.1-7.8,51-18.1l0.2,0l0-0.1c1.7-1.7,3-3.7,4-5.8
		C332,75.2,332.8,67.4,329.7,62.2z M357.1,42.6c0.1-0.5,0.4-0.9,0.8-1.3c0.7-0.8,1.8-1.3,3.1-1.5c0,0,0.1,0,0.1,0
		c-0.5,1.8-0.8,2.9-0.8,2.9l1.3,0.3c0.1,0.7,0.5,1.6,1.1,2.8c-0.3,0.1-0.6,0.2-0.9,0.2c-0.3,0-0.6,0.1-0.9,0.1c-2.1,0-3.7-1.1-4-2.5
		c0-0.1,0-0.3,0-0.4c0.2-0.2,0.3-0.3,0.3-0.3L357.1,42.6z M375.4,71.7c-1.9,0.3-4.1,0.1-6.8-0.6c-0.3-0.1-0.7-0.3-1.1-0.4
		c-6.9-3.1-6.7-15.6-6-22.7c0.2,0,0.4,0,0.6,0c0.2,0,0.5-0.1,0.7-0.1c0.3,0.5,0.6,1.1,1,1.7C367.2,54.9,375.9,69,375.4,71.7z
		 M370.3,56.4c2.8,3.5,6.2,7.3,9.9,11.3c-0.3,0.8-1,2-2.3,2.9c-0.2,0.1-0.4,0.3-0.7,0.4C376.9,68.4,374.5,63.5,370.3,56.4z
		 M362.7,41.5C362.7,41.5,362.7,41.5,362.7,41.5c0.1-0.4,0.3-1,0.4-1.6c1.4,0.3,2.5,1.2,2.6,2.4c0.1,0.4,0,0.9-0.2,1.3l-0.7-0.5
		C363.7,41.7,363.1,41.5,362.7,41.5z M359.5,47.9c-0.6,6-0.8,15.6,3.1,21.2c-2-0.7-4-1.4-4.7-1.9c-9.7-7.1-5.4-17.1-2.4-22
		C356.3,46.6,357.7,47.6,359.5,47.9z M345.7,150.4c-3.1,2.3-6.3,4.4-9.6,6.3c-36,17.1-56.4,4.4-62.6-0.7
		c11.9,0.7,57.7,1.8,80.7-23.5C350,142.6,345.7,150.3,345.7,150.4L345.7,150.4z M270.8,153.9l-2.5-0.3l1.7,1.9
		c0.2,0.3,5.6,6.3,16.6,9.7c5.1,1.6,10.2,2.2,15.3,2.2c5.2,0,10.2-0.7,15.1-1.8c-20.8,7.6-39.3,8.9-40.2,8.9
		c-0.6-2.7-1.7-5.5-3.4-8.4c-3.8-6.4-8.9-10.7-9.1-10.9l-0.2-0.2l-0.2-0.1c-0.1,0-4.6-1.1-8.7-4c4.2,0.8,11.3,1.8,20,1.8
		c6.6,0,14.2-0.6,22-2.4c5.2-1.2,10.7-2.9,16.3-5.4c0,0,0.1,0,0.1,0l0,0c18-8.2,36.8-24.7,46.9-57.8l1.4,9.7
		c1.2,8.3-1.6,19.4-5.2,29.3C333.2,160.2,271.4,153.9,270.8,153.9z M254.8,92.7c0.2,1.5,1,4.1,3.5,6.2c2.9,2.5,7.3,3.7,13.2,3.7
		c4.9,0,10.7-0.9,17.6-2.6l30.1-7.7c-10.3,8-29,11.6-47.2,15.1c-21.9,4.2-42.7,8.1-46,20c-2-1.4-4.1-3.1-6.3-5.1
		c3-2.8,5.1-7.2,5.2-7.3C224.9,114.8,234.5,99.4,254.8,92.7z M245.8,88.9c1.6-3.4,6.8-7.8,22.6-10.1c13.9-2,23.3-2.1,29.5-2.2
		c3,0,5.4,0,7.3-0.3c-6.3,6.4-18.4,10.3-35.3,11.4c-9.6,0.6-17.7,3.3-24.2,6.6C245.2,93.3,244.7,91.2,245.8,88.9z M255.8,112.7
		c1.9,1.5,19.1,14,40.4,14c6.1,0,12.5-1,19-3.6c-5.3,4.3-11.1,7.9-17.3,10.5c-30.4,12.8-60.1,0.4-62.5-0.7c-2.3-1-4.9-2.4-7.8-4.3
		C229.4,120.4,241.1,116.1,255.8,112.7z M338.3,100.6c1.5-2.3,3-4.5,4.2-6.8c-6.3,17.7-15,30.1-25.4,36.1c-6.3,3.6-11.9,4.2-15.3,4
		C315.1,127.5,328.2,115.5,338.3,100.6z M265.7,141.3L265.7,141.3c1,0.3,21.2,4.7,37.2,4.7c1.1,0,2.2,0,3.2-0.1
		c-3,1-6.1,1.9-9.4,2.7c-22.2,5-42.1,0.5-44.8-0.2c-1.9-2.1-3.4-4.8-3.5-8.1c0-0.5-0.1-0.9-0.3-1.3C253,140.1,259,141.1,265.7,141.3
		z M313,143.2L313,143.2c-10.1,2.1-27.5-0.2-38-2c7.4-0.6,15.4-2.2,23.4-5.5c0.7,0.1,2.2,0.4,4.4,0.4c3.7,0,9.2-0.8,15.3-4.3
		c13.3-7.6,23.5-24.3,30.2-49.5l0,0c2.1-5.5,3.1-10.3,2.6-13.6c2.5,0.3,4.7,0.4,5.8,0.4c0.1,0.6,0.4,1.4,0.7,2.6
		c0.5,1.7,1.2,3.9,1.6,5.7l0.8,5.2C351.5,112.5,335.8,132.8,313,143.2z M354.6,67c-2.2-0.1-5-0.4-7.7-1c-3.1-6-3.7-11-1.8-14.7
		c1.9-3.6,5.7-5.3,8.2-6.1C350.6,50,346.9,59.5,354.6,67z M343.4,50.3c-2.1,4-1.7,9,1,15c-2.5-0.8-4.8-1.8-6.2-3.3
		c-0.2-0.7-0.7-1.6-1.4-2.6c-0.6-3-0.1-5.6,1.5-7.7c1.9-2.6,5.2-4.2,8.3-5.2C345.3,47.5,344.2,48.7,343.4,50.3z M307.8,73
		c-0.1,0.2-0.3,0.4-0.4,0.6c-1.4,1-4,1-9.6,1.1c-6.3,0.1-15.7,0.1-29.7,2.2c-13.4,2-21.6,5.8-24.2,11.3c-1.4,3.1-0.7,5.9-0.2,7.2
		c-11.9,6.6-18.6,15.4-20.3,18c0.5-3.8,2.1-9.9,6.9-16.8c13.3-18.8,40.3-28.3,60.8-32.9l0.2,0.1l0.4-0.3c0.1,0,5.9-4.5,17.2-5.6
		C310.2,60.7,311.6,66.9,307.8,73z M228.7,95.5c-7.5,10.7-7.5,19.6-7.4,21.5c-0.9,1.3-2,2.8-3.2,4c-2.7-2.5-5.1-4.7-7.5-6.5l0.2,0
		c0-0.1,1.2-9.9,8.5-21.4c6.8-10.5,20.3-24.6,46.5-32.1c1.6-0.1,3.2-0.1,4.8-0.1c7.4,0,13.1,0.9,16.6,1.7
		C266.8,67.6,241.5,77.3,228.7,95.5z M177.4,124.2c-0.6,1.5-1.3,3.2-1.8,5c-1.9-5.6-1.9-11.1,0-16.3c2.2-6.1,6.8-11.2,11.5-15.1
		l6.5-4.8l0.1-0.3c0-0.1,3.4-8,12.3-15.5c7.2-6.1,19.4-13.2,38.1-14.3c-16.6,4.7-35.3,13.1-47.2,28c-2.8,3.5-4.8,6.9-6.3,9.8
		C185.4,104.2,174.7,113,177.4,124.2z M189.1,104.1c-1.5,3.8-1.9,6.5-2,7.5c-2.8,1.8-5.6,4.8-8.1,9.4
		C178.8,113.7,184.6,107.7,189.1,104.1z M233.5,62.8C233.5,62.8,233.5,62.8,233.5,62.8L233.5,62.8L233.5,62.8z M198.6,91.9
		c14.6-18.1,39.6-26.3,58-30.1c0.1,0,0.2,0,0.3,0c-39.7,14.9-46.9,45.7-48,51.5c-3.5-2.3-7.2-3.6-11.9-3.6c-2.4,0-4.9,0.3-7.8,1
		C189.9,107.7,191.9,100.2,198.6,91.9z M284,59.9c-3.4-0.5-7.9-1-13.4-1c-4.7,0-9.5,0.4-14.3,1.1c-1.3,0.3-2.6,0.5-4,0.9
		c-3.1-0.1-6,0-8.7,0.1c0,0,0,0,0,0l-6.9,1.3c27.2-14.3,53.9-12.7,61.9-11.7l-1.4,0.3c-7.7,4-12.5,8.5-12.8,8.8L284,59.9z
		 M185.1,276.7c-1.9-3.7-3.1-7.6-3.1-10.6c0-1.2-0.1-2.2-0.4-3.1c-0.6-7.8,2.5-17.2,3.7-20.6l2.5,2.1
		C186.9,247.3,183.8,259.1,185.1,276.7z M168.6,276.8c-0.1-2.3-0.1-4.4,0-6.5c1.7,1.4,3.5,2.2,5.5,2.2c0.1,0,0.1,0,0.2,0
		c2.4,0,4.6-1.1,6.2-2.4c0.4,1.8,1.1,3.8,1.9,5.7C179.4,277.5,174.7,278.7,168.6,276.8z M175.2,279.7c0.3,2,1.4,6.3,5.4,10.7
		c2.7,3,3.1,5.2,3.6,8.1c0.4,2.4,0.9,5,2.8,8.6c2.6,4.9,7.8,7.9,11.9,10.3c2.5,1.4,4.6,2.7,5.6,3.9c1.9,2.4,8.2,9.5,12.4,14.3
		c-4.1-2-8-3.3-11.7-4.5c-9.6-3.2-17.2-5.7-22.3-20.9c-6.9-20.6-9.4-28-10.3-30.6C173.5,279.7,174.4,279.8,175.2,279.7z
		 M172.6,262.3c-1.1,0.9-2.3,1.9-3.6,2.7c0.1-0.5,0.1-1,0.2-1.4c0.4-3,1.7-7.7,3-12C172.1,256.4,172.5,260.8,172.6,262.3z
		 M173.5,264.1c1,1.2,3.1,3.1,6.4,4.1c-1.4,1.2-3.4,2.4-5.6,2.4c-0.1,0-0.1,0-0.2,0c-1.9,0-3.7-1-5.4-2.9c0-0.1,0-0.1,0-0.2
		C170.6,266.4,172.4,265,173.5,264.1z M179.7,258.5c-1.1-2.3-2.2-4.8-1.7-9.4c0.6-6.8,3.1-9,4.1-9.6c0.4,0.3,1,0.8,1.7,1.4
		C183,243,180.2,250.7,179.7,258.5z M176,248.9c-0.5,5.6,1,8.5,2.3,11.1c1,1.9,1.8,3.5,1.8,6c0,0,0,0,0,0.1c-3.2-1-5-3.2-5.4-3.8
		c-0.5-4.9-1-17.3,1.8-21.7l2.2-0.5C177.5,241.8,176.3,244.6,176,248.9z M175.4,238.8L175.4,238.8
		C175.3,238.8,175.3,238.8,175.4,238.8l-4.8,1l1.5-5.4l6.4,3.7L175.4,238.8z M173.5,241.3c-0.8,1.7-3.5,7.6-6.9,15.9
		c1.3-6.3,2.9-13.1,3.4-15.2L173.5,241.3z M161.2,299.1c0,0.1,1.3,7.3-2.3,18.2c-1.5-6.5-1.5-14.5,0.1-25c0.1,0.4,0.3,0.8,0.4,1.2
		C160,295.1,160.6,296.9,161.2,299.1z M161,292.1C161,292.1,161.1,292.1,161,292.1L161,292.1C161,292.1,161,292.1,161,292.1z
		 M160.8,291.3c-1.6-4.8-2-8.4,2.8-21c1.7-4.4,3.3-8.5,4.8-12.2c-0.5,1.9-0.9,3.7-1.1,5.2c-0.2,1.2-0.3,2.4-0.4,3.6
		C164.9,277.1,162.2,288.1,160.8,291.3z M163.1,264.6c-0.1,0.6-0.2,1.1-0.3,1.6c0,0.2,0,0.3,0,0.5c-0.4,0.9-0.7,1.9-1.1,2.8
		c0,0,0,0,0,0c-1.4-9.7,3.1-19.1,5.1-22.7C165.6,252.2,163.9,259.9,163.1,264.6z M221.7,339.6L221.7,339.6L221.7,339.6L221.7,339.6z
		 M189.6,283.4c-0.8-0.8-1.5-1.8-2.2-2.8c-1.9-17.8,0.9-30.6,2-34.7l3.3,2.8C192.1,252.4,188.6,272.4,189.6,283.4z M283.3,202.3
		c-1.4-1.9-2.3-3.8-2.8-6c0-0.6,0-1.3,0-2c0-0.4,0-0.9,0-1.4c5.1-0.4,12.4-1.5,21.6-2.9c11.4-1.7,26.1-3.9,42.5-5.6
		c-3,4.2-11.9,15.3-27.7,21.3c-15.6,0.2-29-0.9-31-1.1C284.8,203.8,284,203,283.3,202.3z M344.2,166.9c-8,9-56.7,13.4-67.3,14.3
		c0.2-1.5,0.2-3,0-4.6c3-0.2,33.5-2.8,60-18c0.1,0,0.1-0.1,0.2-0.1l0,0c5.4-3.1,10.6-6.7,15.3-10.9c9.7-8.6,17.8-11.9,24.1-9.9
		c7.5,2.5,10,12.2,10.3,13.2c-0.2,1.9-0.5,3.7-0.9,5.5c-0.1-0.1-0.2-0.1-0.3-0.2C378.8,152,352.1,157.9,344.2,166.9z M374.6,135.2
		c-6.5-0.9-14.4,2.7-23.6,10.8c-0.5,0.5-1.1,0.9-1.6,1.4c1.8-3.6,4.6-9.3,7.2-15.8c0.6-1.5,1.2-3,1.7-4.5c0.2-0.3,0.3-0.5,0.5-0.8
		l-0.2-0.1c4.4-12.3,6.1-22.2,5.1-29.6L360.8,77c-0.2-0.8-0.4-1.7-0.6-2.5c2.5,4.4,6.2,11.3,10.6,19.5c2.5,4.7,4.4,8.8,5.7,12.6
		c0,0.1-0.1,0.3-0.1,0.4l0.3,0.1C383.2,125.9,376.2,133.8,374.6,135.2z M372.6,92.9c-6.9-12.8-10.5-19.3-12.4-22.6
		c1.1,0.4,2.4,0.8,3.9,1.3c1,0.3,1.9,0.6,2.6,0.9c0.4,0.2,0.8,0.3,1.3,0.5c1.2,0.3,2.4,0.6,3.5,0.7c0.4,0.2,3.1,1.7,5.1,6.1
		c1.8,4,3.3,11.2,0.8,23.2C376.1,99.9,374.6,96.6,372.6,92.9z M374.8,73.8c0.2,0,0.5,0,0.7-0.1l0,0.1c0.3,0,0.6-0.1,0.9-0.3
		c1-0.2,1.8-0.6,2.6-1.1c1.6-1,2.4-2.4,2.9-3.5c0.1,0,0.2,0,0.3,0c0,0,0,0,0,0c1.5,0,4.3-1.2,8.3-3.5c0.4,1.9,1,6.7-2.4,9.7
		c-3.2,2.8-6.1,7.7-7.8,11C379.4,79.5,376.9,75.7,374.8,73.8z M382.2,67L382.2,67c-9.4-10-14.3-16.6-16.7-20.3
		c0.2-0.1,0.4-0.3,0.5-0.4l25.9,16.2C385.2,66.5,382.9,67,382.2,67z M393.7,2.5c5.7,0.5,10.2,2.1,13.6,4.7
		c-8.4-1.2-18.5,3.9-30,15.3c-5.6,5.5-10.4,11.4-13.5,15.5c0,0-0.1,0-0.1,0c3.2-9.6,11.3-29.9,25.5-35.8
		C390.7,2.3,392.2,2.4,393.7,2.5z M373.1,2.4c2.7-0.2,5.7-0.4,8.8-0.4c1.1,0,2.1,0,3.2,0c-6.9,4.1-13,11.6-18.2,22.5
		c-2.4,5-4.1,9.8-5.2,13.2c-0.2,0-0.3,0-0.5,0C359.7,28.3,358.2,7.6,373.1,2.4z M358.5,5c2.7-0.8,5.8-1.5,9.1-2
		c-5.7,4.1-8.9,11.5-9.3,21.7c-0.2,5.2,0.4,10,0.9,13.5c-0.1,0-0.1,0.1-0.2,0.1c-3.5-5.2-8.6-14.4-7.4-22.7
		C352.3,11.3,354.6,7.7,358.5,5z M338.6,16.9c0.3-0.3,0.6-0.7,0.9-1c3-3.1,7.5-6.5,14.1-9.2c-2.1,2.5-3.5,5.3-3.9,8.6
		c-1.3,8.9,3.9,18.5,7.6,23.9c-0.3,0.2-0.5,0.4-0.8,0.7c-0.1,0.2-0.3,0.3-0.4,0.5c-7.1-6.3-17.7-16.8-17.7-22.3
		C338.4,17.6,338.5,17.3,338.6,16.9z M331.9,30L331.9,30l0.1-0.4c0-0.1,0.7-4.7,4.5-10.1c1.4,6.9,12.6,17.5,18.6,22.7
		c0,0,0,0.1,0,0.1c-8.2-2.4-20.7-6.8-22.9-10.9C331.9,30.9,331.9,30.5,331.9,30z M330.1,31.6c0.1,0.2,0.2,0.5,0.3,0.7
		c2.4,4.4,13,8.5,20.8,10.9c-4.4,0.8-11.1,2.7-14.6,7.3c-1.3,1.7-2,3.6-2.1,5.6C329.6,49.1,322.9,39,330.1,31.6z M320.7,46.8
		c2.1,0,4.2,0.2,6.2,0.5c1.7,3.9,4.3,7.7,6.4,10.6c0.5,0.8,1.1,1.6,1.6,2.3c0.2,1,0.7,1.8,1.3,2.6c0,0,0,0-0.1,0
		c-0.9,0-2.6-0.9-4.7-1.9c-1.5-0.8-3.4-1.7-5.5-2.6c-3.3-2.1-6.8-2.3-7-2.3l0,0.1c-2.2-0.4-4.5-0.7-7-0.6
		c-12.1,0.4-19.1,4.7-20.9,5.9c-0.8-0.2-2.4-0.7-4.7-1.1C289.7,57.5,303.1,46.8,320.7,46.8z M269.5,30.2c0.4,2.1-0.1,4.3-1.3,6
		c-1,1.4-2.4,2.3-4.1,2.6c-1.7,0.3-3.3-0.1-4.7-1c-1.1-0.7-1.8-1.9-2-3.1c-0.2-1.3,0.1-2.6,0.8-3.6c1.2-1.7,3.5-2.1,5.2-0.9
		c0.6,0.4,1,1.1,1.2,1.8c0.1,0.7,0,1.5-0.5,2.1c-0.7,0.9-1.9,1.2-2.9,0.5c-0.7-0.5-0.8-1.4-0.4-2.1c0.2-0.2,0.4-0.4,0.7-0.4
		c0.3,0,0.5,0,0.8,0.2c0.4,0.3,0.9,0.2,1.2-0.2c0.3-0.4,0.2-0.9-0.2-1.2c-0.6-0.4-1.3-0.6-2.1-0.5c-0.7,0.1-1.4,0.5-1.8,1.1
		c-1,1.5-0.7,3.5,0.8,4.5c1.7,1.2,4.1,0.8,5.3-0.9c0.7-1,1-2.2,0.7-3.4c-0.2-1.2-0.9-2.2-1.9-2.9c-2.5-1.7-5.9-1.1-7.6,1.3
		c-1,1.4-1.4,3.2-1.1,4.9c0.3,1.7,1.3,3.2,2.7,4.3c1.8,1.2,3.9,1.7,6,1.3c2.1-0.4,4-1.5,5.2-3.3c2.7-3.9,2.2-9-0.9-12.3
		c12.9,6.3,25,13.9,36,22.6c-1.2,0.4-2.4,0.9-3.5,1.3c-0.5-0.1-1.2-0.2-2.3-0.3c-4.8-0.6-16.7-1.4-31.6,1.2c-4.1-1.5-8.3-2.8-12.5-4
		c-5.8-4.2-7.2-12.3-3.1-18.2c1.6-2.3,3.9-3.8,6.7-4.2c2.7-0.5,5.5,0.1,7.7,1.7C267.9,26.2,269.1,28.1,269.5,30.2z M261.1,21.4
		c-1-0.1-2,0-3,0.1c-2.6,0.5-5,1.8-6.8,3.7c0.1-3.2-1-6.5-3.3-9C252.5,17.8,256.8,19.5,261.1,21.4z M245.1,16.2
		c4.4,3.3,5.6,9.6,2.8,14.1c-1,1.6-2.6,2.6-4.4,3c-1.9,0.3-3.9-0.2-5.6-1.4c-2.7-2-3.4-5.8-1.7-8.5c0.6-0.9,1.5-1.6,2.6-1.7
		c1.1-0.2,2.3,0.1,3.3,0.9c1.6,1.2,2,3.4,1,5c-0.3,0.5-0.8,0.9-1.4,1c-0.6,0.1-1.3-0.1-1.8-0.5c-0.8-0.6-1.1-1.9-0.6-2.7
		c0.2-0.3,0.5-0.4,0.7-0.5c0.3-0.1,0.6,0,0.9,0.2c0.4,0.3,1.1,0.2,1.4-0.2c0.3-0.4,0.2-1.1-0.2-1.4c-0.7-0.5-1.6-0.8-2.4-0.6
		c-0.8,0.1-1.5,0.6-2,1.3c-1.1,1.7-0.6,4.1,1,5.4c1,0.8,2.2,1.1,3.4,0.9c1.1-0.2,2.1-0.9,2.7-1.8c1.5-2.4,0.9-5.8-1.5-7.6
		c-1.4-1.1-3.2-1.5-4.9-1.2c-1.6,0.3-3,1.2-3.9,2.6c-2.3,3.5-1.3,8.5,2.2,11.2c2.1,1.6,4.7,2.3,7.2,1.8c1.5-0.3,2.8-0.9,3.9-1.8
		c-0.5,4,0.8,8.2,3.5,11.3c-6-1.6-12.1-2.8-18.3-3.8c-6.9-5.4-8.8-15.1-4.3-22.2c1.7-2.6,4.2-4.4,7.2-4.9
		C239.1,13.2,242.4,14.1,245.1,16.2z M234.7,12.1c-3.2,0.8-5.9,2.7-7.7,5.6c-0.3,0.5-0.6,1-0.9,1.6c-0.4-3.5-2.2-6.9-5.2-9.2
		C220,9.3,219,8.7,218,8.2C223.6,9.2,229.2,10.5,234.7,12.1z M219.7,11.5c4.6,3.5,6,10.2,3,14.9c-1.1,1.7-2.7,2.8-4.7,3.2
		c-2.1,0.4-4.2-0.2-6-1.5c-2.8-2.1-3.6-6.2-1.8-9.1c0.6-1,1.6-1.7,2.7-1.9c1.2-0.2,2.5,0.1,3.5,0.9c1.7,1.3,2.1,3.7,1.1,5.3
		c-0.4,0.6-0.9,0.9-1.5,1c-0.7,0.1-1.4-0.1-2-0.5c-0.9-0.7-1.2-2-0.6-2.9c0.2-0.3,0.5-0.5,0.7-0.5c0.3-0.1,0.7,0,1,0.3
		c0.4,0.3,1.1,0.2,1.4-0.2c0.3-0.4,0.2-1.1-0.2-1.4c-0.7-0.6-1.7-0.8-2.5-0.6c-0.9,0.2-1.6,0.6-2.1,1.4c-1.1,1.8-0.6,4.3,1.1,5.6
		c1,0.8,2.3,1.1,3.5,0.9c1.2-0.2,2.2-0.9,2.8-1.9c1.6-2.5,0.9-6.1-1.5-8c-1.5-1.1-3.3-1.6-5.1-1.3c-1.7,0.3-3.1,1.3-4.1,2.7
		c-2.4,3.7-1.3,9,2.3,11.7c2.2,1.7,4.9,2.4,7.5,1.9c2.4-0.4,4.5-1.8,5.9-3.9c0.1,4.6,1.9,9.2,5.2,12.7c-7.2-1-14.6-1.6-22.1-1.8
		c0-0.3-0.1-0.5-0.4-0.7c-7.5-5.7-9.6-16.1-4.8-23.6c1.8-2.8,4.5-4.6,7.7-5.2C213.3,8.4,216.8,9.3,219.7,11.5z M185.3,6.3
		c6.5,1.5,11,7.9,10.1,14.2c-0.3,2.3-1.5,4.3-3.4,5.5c-2,1.4-4.5,1.8-7,1.2c-4-0.9-6.8-4.8-6.2-8.7c0.2-1.4,0.9-2.5,2-3.3
		c1.2-0.8,2.7-1.1,4.2-0.7c2.4,0.5,4,2.9,3.7,5.2c-0.1,0.8-0.5,1.4-1.1,1.9c-0.7,0.5-1.5,0.6-2.4,0.4c-1.3-0.3-2.3-1.6-2.1-2.9
		c0.1-0.4,0.3-0.7,0.6-1c0.4-0.2,0.8-0.3,1.3-0.2c0.5,0.1,1.1-0.2,1.2-0.7c0.1-0.5-0.2-1.1-0.7-1.2c-1-0.2-2,0-2.8,0.5
		c-0.8,0.5-1.3,1.4-1.4,2.3c-0.3,2.3,1.3,4.6,3.6,5.1c1.4,0.3,2.8,0.1,4-0.7c1.1-0.7,1.8-1.9,2-3.2c0.5-3.3-1.9-6.6-5.2-7.4
		c-2.1-0.5-4.1-0.1-5.7,1c-1.6,1.1-2.6,2.7-2.9,4.6c-0.7,4.9,2.7,9.8,7.7,10.9c3.1,0.7,6.1,0.2,8.5-1.5c2.3-1.6,3.8-4,4.3-6.9
		c1-6.5-3.1-13-9.2-15.6c7.4,0.1,14.9,0.7,22.3,1.8c-0.3,0-0.6,0.1-0.9,0.1c-3.7,0.7-6.9,2.8-9,6.1c-5.1,8-3.3,18.9,4.2,25.4
		c-0.6,0-1.1,0-1.7,0c-6.5,0-13,0.3-19.3,1c-10.1-2.7-16.8-12.3-15.4-22.2c0.5-3.7,2.5-6.9,5.6-9C177.2,6.1,181.2,5.4,185.3,6.3z
		 M175,5.4c-0.8,0.4-1.5,0.7-2.2,1.2c-3.5,2.4-5.8,6.1-6.4,10.4c0,0.2,0,0.4-0.1,0.5c-1.9-4.1-5.7-7.4-10.4-8.5
		c-4.6-1.1-9.2-0.3-12.9,2.3c-3.5,2.4-5.8,6.1-6.4,10.4c-0.2,1.2-0.2,2.5-0.2,3.7c-0.1-0.3-0.3-0.6-0.5-0.9c-2.7-4.9-8-7.9-13.6-8.2
		C139.4,10.1,157.1,6.4,175,5.4z M115.4,19.6c6.9-3.1,15.4-0.5,18.9,5.9c1.3,2.3,1.5,4.9,0.7,7.4c-0.9,2.6-2.8,4.7-5.5,5.9
		c-4.2,1.9-9.5,0.3-11.6-3.6c-0.8-1.4-0.9-3-0.4-4.4c0.5-1.6,1.7-2.8,3.3-3.6c2.6-1.2,5.7-0.2,7,2.1c0.4,0.8,0.5,1.7,0.3,2.6
		c-0.3,0.9-1,1.6-1.9,2.1c-1.5,0.7-3.3,0.1-4-1.2c-0.2-0.4-0.3-0.9-0.1-1.3c0.2-0.5,0.5-0.9,1-1.1c0.5-0.2,0.7-0.8,0.5-1.3
		c-0.2-0.5-0.8-0.7-1.3-0.5c-1,0.5-1.8,1.3-2.1,2.3c-0.3,1-0.2,2,0.3,2.9c1.2,2.2,4.2,3.1,6.6,2.1c1.5-0.7,2.5-1.8,3-3.3
		c0.5-1.4,0.3-2.8-0.4-4.1c-1.8-3.2-6.1-4.6-9.5-3c-2.1,1-3.7,2.6-4.4,4.7c-0.7,2-0.5,4.1,0.6,6c2.6,4.8,9,6.8,14.2,4.4
		c3.2-1.4,5.5-4,6.6-7.1c0.3-0.8,0.4-1.7,0.5-2.5c2,6.6,7.3,12.2,14.3,14.7c-4.8,1.4-9.5,2.9-14.1,4.6c0,0-0.1,0-0.1,0
		c-0.2,0.1-0.3,0.1-0.5,0.2c-0.6,0.2-1.2,0.5-1.8,0.7c-10.5,3.5-22.2-0.6-27.4-10c-2.1-3.7-2.5-8-1.2-12
		C108,24.9,111.1,21.5,115.4,19.6z M108.6,22c-1.8,1.9-3.1,4-3.9,6.5c-0.9,2.6-1.1,5.3-0.6,8c-3.6-3.5-8.9-5.2-14.1-4.6
		C96,28.2,102.2,24.9,108.6,22z M77.1,44.1c1.3-4,4.5-7.3,8.8-9.2c6.9-2.9,15.3-0.4,18.8,5.6c1.3,2.1,1.5,4.6,0.8,6.8
		c-0.8,2.5-2.8,4.5-5.4,5.6c-4.2,1.8-9.4,0.3-11.6-3.5c-0.7-1.3-0.9-2.7-0.5-4.1c0.5-1.5,1.7-2.7,3.3-3.4c2.5-1.1,5.7-0.2,7,2.1
		c0.4,0.7,0.5,1.6,0.3,2.3c-0.3,0.9-1,1.6-1.9,2c-1.4,0.6-3.3,0.1-4-1.2c-0.2-0.4-0.3-0.8-0.1-1.2c0.1-0.5,0.5-0.8,1-1
		c0.5-0.2,0.7-0.8,0.5-1.3c-0.2-0.5-0.8-0.7-1.3-0.5c-1,0.4-1.8,1.3-2.1,2.2c-0.3,0.9-0.2,1.9,0.3,2.8c1.3,2.1,4.1,3,6.5,2
		c1.5-0.6,2.6-1.8,3-3.2c0.4-1.3,0.3-2.7-0.4-3.9c-1.8-3.1-6-4.4-9.5-2.9c-2.1,0.9-3.7,2.6-4.4,4.6c-0.6,1.9-0.4,3.9,0.6,5.7
		c2.7,4.5,9,6.5,14.1,4.3c3.2-1.4,5.6-3.8,6.6-6.8c0.3-1,0.5-2,0.5-3c4.6,5.9,11.8,9.3,19.4,9.3c-6.5,2.9-12.8,6.1-18.8,9.6
		c-0.2,0-0.3,0-0.5,0.1c-11,4.7-24,0.8-29.7-8.8C76.4,51.7,75.9,47.8,77.1,44.1z M52.3,61.7c0.9-1,1.9-1.9,2.9-2.9
		c5.7-4.5,14.1-4.4,19.2,0.3c1.9,1.7,2.8,4.1,2.8,6.5c-0.1,2.7-1.3,5.2-3.5,7.1c-3.5,3-8.9,3-12.1,0c-1.1-1-1.7-2.4-1.7-3.9
		c0-1.6,0.8-3.1,2.1-4.3c2.1-1.8,5.4-1.8,7.3,0c0.6,0.6,1,1.4,1,2.2c0,0.9-0.5,1.8-1.2,2.5c-1.2,1-3.1,1.1-4.2,0
		c-0.3-0.3-0.5-0.7-0.5-1.2c0-0.5,0.2-1,0.7-1.3c0.4-0.4,0.5-1,0.1-1.4c-0.4-0.4-1-0.5-1.4-0.1c-0.8,0.7-1.3,1.7-1.4,2.8
		c0,1,0.4,1.9,1.1,2.6c1.8,1.7,4.9,1.7,6.8,0c1.2-1,1.9-2.5,1.9-3.9c0-1.4-0.5-2.7-1.6-3.7c-2.6-2.5-7.1-2.5-9.9,0
		c-1.8,1.5-2.8,3.6-2.8,5.7c0,2,0.8,4,2.3,5.4c3.9,3.7,10.5,3.7,14.7,0c2.6-2.3,4.1-5.3,4.2-8.5c0.1-3-1.1-5.9-3.4-8
		c-4.1-3.8-10.1-5-15.6-3.5c5.1-4.7,10.6-9.1,16.3-13.3c-0.5,0.8-0.9,1.7-1.2,2.6c-1.4,4.2-0.9,8.8,1.4,12.8
		C81,63.7,89.5,68,98.3,68c1.4,0,2.9-0.1,4.3-0.3c-6.7,4.3-13,9-19,14.1c-9.1,7.2-22.1,7.1-30.1-0.5c-3-2.8-4.6-6.6-4.5-10.6
		C49.1,67.5,50.2,64.4,52.3,61.7z M47.6,66.7c-0.3,1.3-0.6,2.6-0.6,3.9c-0.1,3.3,0.9,6.5,2.7,9.2c-4.6-1.6-10-1-14.3,1.8
		C39.3,76.5,43.3,71.5,47.6,66.7z M35.1,84.3c5.3-4.4,13.4-4.5,18.1-0.2c1.6,1.5,2.5,3.4,2.5,5.5c0,2.3-1.2,4.6-3.3,6.3
		c-3.2,2.7-8.2,2.7-11.1,0.2c-1-0.9-1.5-2-1.5-3.3c0-1.4,0.7-2.7,2-3.8c1.9-1.6,4.9-1.7,6.6-0.1c0.5,0.5,0.8,1.1,0.8,1.8
		c0,0.8-0.4,1.6-1.1,2.1c-1.1,0.9-2.8,0.9-3.8,0.1c-0.3-0.2-0.4-0.6-0.4-0.9c0-0.4,0.2-0.8,0.6-1.1c0.4-0.3,0.5-1,0.1-1.4
		c-0.3-0.4-1-0.5-1.4-0.1c-0.8,0.7-1.3,1.6-1.3,2.6c0,0.9,0.4,1.8,1.1,2.4c1.7,1.5,4.5,1.5,6.4,0c1.1-0.9,1.8-2.3,1.8-3.6
		c0-1.3-0.5-2.5-1.5-3.3c-2.4-2.2-6.6-2.2-9.2,0.1c-1.7,1.4-2.6,3.3-2.7,5.3c0,1.8,0.7,3.5,2.1,4.8c3.6,3.2,9.7,3.2,13.7-0.1
		c2.5-2.1,3.9-4.9,4-7.8c0-1.2-0.2-2.4-0.7-3.5c3.5,1.9,7.5,2.9,11.5,2.9c2.9,0,5.8-0.5,8.7-1.5c-5.2,4.9-10,10.1-14.5,15.6
		c-0.1,0-0.2,0.1-0.4,0.2c-8.5,7-21,7.2-28.5,0.4c-2.7-2.4-4.1-5.6-4.1-9.1C29.9,90.8,31.8,87.1,35.1,84.3z M28,92.9
		c-0.1,0.5-0.1,1.1-0.1,1.7c-0.1,4,1.6,7.8,4.7,10.6c0.6,0.6,1.3,1.1,2,1.6c-4.7-2.1-10.6-1.3-14.8,2.3c-0.5,0.4-0.9,0.8-1.3,1.2
		C21.4,104.3,24.5,98.5,28,92.9z M21.1,110.5c4.5-4,11.5-4,15.7,0c1.5,1.4,2.3,3.3,2.2,5.3c0,2.2-1,4.2-2.8,5.7
		c-2.7,2.4-7,2.4-9.6,0c-0.9-0.8-1.4-2-1.3-3.2c0-1.3,0.6-2.5,1.7-3.4c1.6-1.4,4.2-1.4,5.6,0c0.5,0.5,0.8,1.1,0.7,1.8
		c0,0.7-0.3,1.4-0.9,1.9c-0.9,0.8-2.3,0.8-3.1,0c-0.2-0.2-0.4-0.5-0.4-0.9c0-0.4,0.2-0.7,0.5-1c0.4-0.4,0.5-1,0.1-1.4
		c-0.4-0.4-1-0.5-1.4-0.1c-0.7,0.6-1.1,1.5-1.2,2.4c0,0.9,0.3,1.7,1,2.3c1.5,1.5,4.1,1.5,5.8,0c1-0.9,1.6-2.1,1.6-3.4
		c0-1.2-0.5-2.4-1.3-3.2c-2.2-2.1-5.9-2.1-8.3-0.1c-1.5,1.3-2.3,3-2.3,4.8c0,1.7,0.6,3.4,1.9,4.6c3.2,3.1,8.7,3.1,12.2,0.1
		c2.2-1.9,3.4-4.4,3.4-7.1c0.1-2.6-1-5-2.9-6.8c-0.3-0.3-0.6-0.6-1-0.8c3.1,1.5,6.6,2.3,10.2,2.3c3.9,0,7.9-1,11.6-2.8
		c-4.9,6.5-9.3,13.4-13.2,20.5c-0.2,0-0.5,0.1-0.7,0.2c-7.3,6.4-18.2,6.4-24.8,0c-2.4-2.3-3.7-5.5-3.7-8.8
		C16.7,116.3,18.3,113,21.1,110.5z M19.7,142.3c-0.4-0.4-1-0.5-1.4-0.1c-0.7,0.6-1.1,1.5-1.1,2.3c0,0.9,0.3,1.7,0.9,2.3
		c1.5,1.4,4,1.5,5.6,0c1-0.9,1.5-2,1.6-3.3c0-1.2-0.4-2.3-1.3-3.1c-2.1-2.1-5.8-2.1-8.1-0.1c-1.4,1.2-2.2,2.9-2.3,4.7
		c0,1.7,0.6,3.3,1.9,4.5c3.1,3,8.5,3,11.8,0.1c2.1-1.8,3.3-4.3,3.3-6.9c0.1-2.5-0.9-4.8-2.8-6.6c-4.7-4.5-12.7-4.6-17.8-0.1
		c-0.7,0.6-1.4,1.3-2,2.1c1.8-6.4,3.9-12.8,6.4-18.9c0,0.2,0,0.4,0,0.6c-0.1,3.9,1.4,7.5,4.3,10.2c3.7,3.6,8.6,5.3,13.5,5.3
		c4,0,8-1.2,11.5-3.4c-3.7,7.3-6.8,15-9.3,22.9c0,0,0,0,0,0c-7,6.2-17.5,6.2-23.9,0c-2.3-2.3-3.6-5.2-3.5-8.4c0.1-3.4,1.6-6.6,4.3-9
		c4.3-3.8,11.1-3.8,15.1,0c1.4,1.4,2.2,3.2,2.2,5.1c0,2.1-1,4-2.7,5.5c-2.6,2.3-6.8,2.3-9.2,0c-0.8-0.8-1.3-1.9-1.3-3
		c0-1.2,0.6-2.4,1.6-3.2c1.6-1.4,4-1.4,5.4,0c0.5,0.4,0.7,1,0.7,1.7c0,0.7-0.3,1.3-0.9,1.8c-0.8,0.7-2.2,0.7-3,0
		c-0.3-0.3-0.3-0.6-0.3-0.8c0-0.3,0.2-0.7,0.4-0.9C20,143.3,20,142.7,19.7,142.3z M4.8,152.7c0.2-1.1,0.4-2.2,0.7-3.3
		c0.5,2.6,1.9,4.9,3.8,6.9c1.9,1.9,4.2,3.2,6.7,4.1c-3.3-0.4-6.9,0.6-9.5,3c-1.8,1.6-3.1,3.5-3.8,5.6C3.1,163.5,3.8,158.1,4.8,152.7
		z M2.2,175.8c0.5,2.3,1.7,4.5,3.5,6.2c2,2,4.5,3.3,7.1,4c-2.5,0.3-4.9,1.3-6.8,3c-1.7,1.5-2.9,3.2-3.6,5.1
		C2,188,1.9,181.9,2.2,175.8z M7.3,190.4c3.9-3.4,10-3.4,13.6,0c1.3,1.2,2,2.9,1.9,4.6c0,1.9-0.9,3.6-2.4,4.9c-2.4,2.1-6,2.1-8.2,0
		c-0.7-0.7-1.1-1.7-1.1-2.7c0-1.1,0.5-2.1,1.4-2.9c1.4-1.2,3.5-1.2,4.8,0c0.4,0.4,0.6,0.9,0.6,1.4c0,0.6-0.3,1.2-0.8,1.6
		c-0.7,0.6-1.9,0.7-2.6,0c-0.2-0.2-0.3-0.5-0.3-0.7c0-0.3,0.1-0.5,0.4-0.8c0.4-0.4,0.5-1,0.1-1.4c-0.4-0.4-1-0.5-1.4-0.1
		c-0.6,0.6-1,1.4-1.1,2.2c0,0.8,0.3,1.6,0.9,2.1c1.4,1.3,3.8,1.4,5.3,0c0.9-0.8,1.4-1.9,1.5-3c0-1.1-0.4-2.1-1.2-2.9
		c-2-1.9-5.3-1.9-7.5-0.1c-1.3,1.1-2,2.7-2.1,4.3c0,1.6,0.6,3,1.7,4.1c2.9,2.8,7.8,2.8,10.9,0.1c1.9-1.7,3-3.9,3.1-6.4
		c0.1-2.3-0.9-4.4-2.5-6.1c-1.1-1.1-2.5-1.9-3.9-2.4c3.7-0.1,7.4-1.4,10.5-3.7c-0.6,5.4-0.9,10.8-0.9,16.2c0,2.4,0.1,4.7,0.2,7.1
		c-6.3,5.5-15.8,5.5-21.5,0c-2.1-2-3.2-4.7-3.2-7.6C3.5,195.5,4.8,192.6,7.3,190.4z M3.5,205.5c0.5,0.7,1.1,1.4,1.7,2
		c2.6,2.5,5.8,3.9,9.2,4.5c-1.4,0.5-2.7,1.2-3.8,2.2c-2.3,2-3.7,4.6-4.1,7.4C5.2,216.3,4.2,210.9,3.5,205.5z M11.9,215.7
		c3.5-3.1,9-3.1,12.3,0c1.2,1.1,1.8,2.6,1.7,4.1c0,1.7-0.8,3.2-2.1,4.4c-2.1,1.9-5.4,1.9-7.4,0c-0.7-0.6-1-1.5-1-2.4
		c0-1,0.5-1.9,1.3-2.6c1.2-1.1,3.1-1.1,4.2,0c0.4,0.3,0.5,0.8,0.5,1.3c0,0.5-0.3,1-0.7,1.4c-0.6,0.6-1.7,0.6-2.2,0
		c-0.2-0.2-0.2-0.4-0.2-0.5c0-0.2,0.1-0.4,0.3-0.6c0.4-0.4,0.5-1,0.1-1.4c-0.4-0.4-1-0.5-1.4-0.1c-0.6,0.5-1,1.3-1,2.1
		c0,0.8,0.3,1.5,0.8,2c1.3,1.3,3.5,1.3,4.9,0c0.8-0.7,1.3-1.7,1.4-2.8c0-1-0.4-2-1.1-2.7c-1.8-1.8-4.9-1.8-6.9,0
		c-1.2,1.1-1.9,2.5-1.9,4c0,1.5,0.5,2.8,1.6,3.8c2.7,2.6,7.2,2.6,10,0.1c1.8-1.6,2.8-3.6,2.8-5.9c0-2.1-0.8-4.1-2.3-5.6
		c-1.2-1.2-2.8-2-4.4-2.5c2.5-0.6,5-1.6,7.2-3.2c0.5,7.1,1.4,14.2,2.9,21c-0.1,0-0.3,0.1-0.4,0.2c-5.7,5-14.3,5.1-19.6,0
		c-1.9-1.8-2.9-4.3-2.9-6.8C8.4,220.2,9.6,217.6,11.9,215.7z M8.6,229.8c0.4,0.5,0.8,1,1.3,1.4c2.7,2.6,6.2,4,9.9,4.3
		c-0.4,0.3-0.8,0.6-1.2,0.9c-2.6,2.3-4,5.3-4.1,8.5c0,0.8,0.1,1.6,0.2,2.3C12.2,241.5,10.2,235.7,8.6,229.8z M16.1,251.1
		c0.5,0.7,1,1.3,1.6,1.9c2.9,2.8,6.7,4.2,10.6,4.2c-0.4,0.3-0.8,0.5-1.1,0.8c-2.4,2.1-3.8,4.8-4,7.7
		C20.6,260.9,18.3,256.1,16.1,251.1z M26.8,272.2c-0.4-0.7-0.9-1.5-1.3-2.2c-0.4-1.1-0.7-2.3-0.6-3.5c0.1-2.7,1.3-5.2,3.5-7.1
		c3.4-3,8.8-3,12,0c0.4,0.4,0.7,0.8,1,1.3c0.1,0.3,0.3,0.6,0.4,1c0.2,0.6,0.3,1.2,0.3,1.8c0,1.6-0.8,3.2-2.1,4.3
		c-2.1,1.8-5.3,1.8-7.2,0c-0.7-0.6-1-1.5-1-2.4c0-1,0.5-1.9,1.2-2.5c1.2-1.1,3.1-1.1,4.2,0c0.4,0.3,0.6,0.8,0.5,1.3
		c0,0.5-0.3,1-0.7,1.4c-0.6,0.6-1.7,0.6-2.3,0c-0.2-0.2-0.3-0.4-0.2-0.6c0-0.2,0.1-0.5,0.3-0.7c0.4-0.3,0.4-0.9,0.1-1.2
		c-0.3-0.4-0.9-0.4-1.2-0.1c-0.6,0.5-0.9,1.2-0.9,1.9c0,0.7,0.3,1.4,0.8,1.9c1.2,1.2,3.3,1.2,4.6,0c0.8-0.7,1.3-1.7,1.3-2.7
		c0-1-0.4-1.9-1.1-2.6c-1.7-1.7-4.7-1.7-6.6,0c-1.1,1-1.8,2.4-1.8,3.8c0,1.4,0.5,2.7,1.5,3.7c2.5,2.4,6.8,2.5,9.6,0.1
		c1.2-1.1,2-2.4,2.4-3.8c1.3,2.6,2.7,5.2,4.1,7.8c-0.3-0.1-0.6-0.1-0.9,0.2c-5.6,4.9-14,4.9-19.1,0
		C27.4,272.8,27.1,272.5,26.8,272.2z M36.4,286.9c-0.3-0.4-0.6-0.8-0.9-1.2c-2.1-3-4.1-6-6-9.1c2.3,1.3,4.9,1.9,7.5,1.9
		c3.8,0,7.7-1.4,10.9-4.1c0.2-0.1,0.2-0.3,0.3-0.5c1,1.7,2,3.4,3,5.1c-0.2-0.2-0.5-0.3-0.7-0.5c-3.9-2.3-9.4-1.1-12.2,2.8
		C37.1,283,36.5,284.9,36.4,286.9z M41.3,293.4c-0.9-1.1-1.8-2.3-2.6-3.5c-0.1-0.3-0.2-0.7-0.3-1.1c-0.5-2.2,0.1-4.5,1.5-6.5
		c2.3-3.2,6.7-4.2,9.9-2.3c1.1,0.7,1.9,1.7,2.2,3c0.3,1.3,0,2.7-0.9,3.9c-1.3,1.9-4,2.5-5.9,1.4c-0.6-0.4-1.1-1-1.2-1.7
		c-0.2-0.8,0-1.6,0.5-2.3c0.8-1.1,2.3-1.4,3.4-0.8c0.3,0.2,0.6,0.5,0.6,0.9c0.1,0.4,0,0.8-0.3,1.2c-0.4,0.6-1.2,0.7-1.7,0.4
		c-0.2-0.1-0.2-0.3-0.3-0.4c0-0.2,0-0.4,0.1-0.5c0.3-0.4,0.2-0.9-0.2-1.2c-0.4-0.3-0.9-0.2-1.2,0.2c-0.4,0.6-0.5,1.2-0.4,1.9
		c0.1,0.6,0.5,1.2,1.1,1.5c1.3,0.8,3.1,0.4,4-0.9c0.5-0.8,0.8-1.7,0.6-2.6c-0.2-0.8-0.7-1.6-1.5-2c-1.8-1.1-4.4-0.5-5.7,1.3
		c-0.8,1.1-1.1,2.4-0.8,3.6c0.3,1.2,1,2.2,2,2.8c2.7,1.6,6.3,0.7,8.2-1.9c1.1-1.6,1.6-3.5,1.2-5.3c0-0.1,0-0.1-0.1-0.2
		c1.7,2.5,3.4,5,5.2,7.4c-0.4-0.1-0.8,0-1,0.3c-3.7,5.2-10.6,6.8-15.8,3.7C41.7,293.7,41.5,293.5,41.3,293.4z M43.7,296.5
		c1.3,0.4,2.6,0.6,3.9,0.6c4.4,0,8.7-2.1,11.5-6c0.1-0.2,0.2-0.4,0.1-0.5c22,29,54.3,51.1,91.9,61.9c0,0,0,0,0,0
		c-2.7,4.2-5.2,8.4-6.8,12.5C105.1,352.4,69.3,328,43.7,296.5z M141,402.6c-1-4-2-10.1-1.1-16c0.3-3.9,1.7-9.5,3.8-10l0.2-0.1l0,0
		c0,0,0.1,0,0.2-0.1l0.4-0.1l0,0c1.7-0.6,6.7-2.4,11.9-5.5c4.8-2.9,8.4-6.2,10.7-9.7c-0.1,0.7-0.2,1.5-0.4,2.2
		c-0.5,2.6-1.1,4.9-1.8,6.7c-0.9,2.4-2,4.2-3.3,5.4c-1.6,1.5-3.2,2.8-5,4.1C150,384.7,143.3,389.9,141,402.6z M172.7,440.3
		c-4-2.6-8.5-5.6-15-8.6c-4.3-2-8.5-8.7-11.5-18.4c-1.3-4.3-2.2-8.6-2.7-12.7c2.6-10.3,8.5-15,14.3-19.5c1.7-1.3,3.5-2.7,5.1-4.3
		c1.5-1.4,2.8-3.5,3.8-6.1c0.8-2,1.4-4.4,1.9-7.1c0.2-1.2,0.4-2.4,0.6-3.7c0.2-1.7,0.4-3.6,0.6-5.6c0-0.4,0.1-0.8,0.1-1.2
		c0,0,0-0.1,0-0.1l0,0c0.1-1,0.1-2.1,0.2-3.1c1.1,5.6,2.1,13.3,0.5,18.5c-0.9,3-3,4.8-5.5,6.9c-4.8,4.1-10.8,9.2-8.8,25.4
		c3.3,27.2,17,35,31.5,43.3c7.9,4.5,15.9,9.1,22.9,17c-6.1-4.3-16-10.7-23.5-13.2C181.2,445.9,177.3,443.3,172.7,440.3z
		 M186.4,449.7c0,0,0.1,0,0.1,0c9,3,22.2,12.4,26.8,15.7C202.4,462.3,193.4,457,186.4,449.7z M188.7,442.4
		c-14.1-8-27.4-15.5-30.5-41.8c-1.8-15.1,3.5-19.6,8.1-23.6c2.6-2.2,5.1-4.3,6.1-7.9c2.4-7.9-0.5-20.3-1.7-25.1
		c4.2,5.8,11.1,17,8.8,23.4c-0.9,2.4-1.8,5.3-2.4,8.5l-0.1,0c-1.9,5.2-3.5,11.6-4.3,18.3c-1.4,9.8-1,20.2,3,28.6
		c3.2,6.9,8.5,11.6,15.6,14.1c0.2,0.1,5.6,2,12.4,2.9c2.9,4.4,5.3,8.2,6.6,10.7c2.3,4.7,3.4,8.8,3.9,11.7
		C206.5,452.5,197.5,447.3,188.7,442.4z M229,468.9c-3.1-0.5-6.4-1.2-10-2c-0.8-0.2-1.7-0.4-2.5-0.6l0-0.5c0-0.3-0.2-7.3-4.6-16.2
		c-1.2-2.4-3.2-5.8-5.8-9.6c1.2,0.1,2.4,0.2,3.5,0.2c0.9,0,1.7,0,2.6-0.1C218.1,446.4,231.1,462.4,229,468.9z M262.1,466.1
		c-3.4,2.4-6.7,4.6-15.6,4.6c0,0,0,0,0,0c-4.2,0-9.3-0.5-15.5-1.5c2.1-8-11.4-24-16.2-29.3c2.5-0.4,4.8-1.1,6.8-2
		c5.2,16.2,25.6,23.2,44,26.1C264.3,464.7,263.2,465.4,262.1,466.1z M312.3,462.6c-2.8,0.7-9.8,1.5-19.8,1.5
		c-9.3,0-27.2-0.7-42.8-5.7c-14.7-4.7-23.6-11.9-26.4-21.4c0.8-0.5,1.6-1.1,2.3-1.7c0.9-0.8,1.6-1.6,2.3-2.6
		c3,8.5,7.4,15.6,13.6,16.5c4.3,0.6,10.6,0.5,17.9,0.4c17.7-0.2,42-0.4,50.3,9.5C310.2,460.5,311,461.7,312.3,462.6z M322.6,421
		c0.9,7.5,1.1,9.1-10.4,13.4c-0.4,0.2-0.8,0.3-1.2,0.4c-1.6-3.9-5.2-5.8-9.3-6.6c3.4-3.2,8.1-10.9,8.9-18c0.3-3.1,0-6.8-2.1-9.9
		c5.7-3.1,10.7-5.9,14.9-8.5c-0.4,3.5-0.9,7.9-1.3,13.3C321.5,412.3,322.2,417.4,322.6,421z M334.8,381.7
		c-5.5,4.4-14.9,10.2-27.7,17c-2.2-2.3-5.5-4.2-10.5-5.3c-3.1-0.7-6.3-1.5-9.5-2.4c-3.8-2-8.2-4.5-13.1-7.6c1.6,0.2,3.3,0.3,5,0.3
		c0.3,0,0.6,0,0.9,0c6.7-0.1,13.3-2.7,19.4-7.5c0.1,0,0.1-0.1,0.2-0.1c7.4-5.3,13.7-8,18.9-8c6.8,0,10.1,4.5,12.3,7.5
		c1.1,1.5,1.9,2.6,3,2.6h0c0.2,0,0.4,0,0.5-0.1c0.4-0.1,0.8-0.3,1.3-0.4c1.4-0.4,3.3-0.9,4.8-2.3C340.2,376.1,339.5,378,334.8,381.7
		z M335,375.8c-0.4,0.1-0.9,0.2-1.2,0.4c-0.3-0.2-0.9-1.1-1.4-1.7c-2.3-3.1-6.1-8.3-13.9-8.3c-3.6,0-7.7,1.2-12.3,3.5
		c2.3-2.6,4.4-5.5,6.5-8.7c1.6-2.5,3-5,4.3-7.4c5.8,9.4,20.1,13.2,23.5,14C341.2,374.1,337.9,375,335,375.8z M319.3,329.7
		c16.8,1.6,20.4,29.3,21,35.8c-4.4-1.1-18.4-5.4-22.6-14.7c-4.3-9.6-12.8-10.7-18.8-10.7c-3.3,0-6.7,0.4-9.6,0.7
		c-4.6,0.6-6.8,1.7-9,2.9c-2.9,1.5-6.3,3.3-16.6,4c-0.7,0.1-1.5,0.1-2.2,0.1c-9.8,0-15.1-5.2-21.3-11.1c-3.8-3.6-7.6-7.4-13-10.5
		c-6.7-3.9-8-5.8-9.3-7.9c-1.6-2.5-3.3-5.1-12.9-10.6c-11.2-6.4-11.2-11.6-11.2-15.8c0-2.3,0-4.4-1.9-6.2c-1.8-9,1.6-29.6,2.6-35.6
		c2.7,2.5,5.6,5.1,8,7.7c-1,3.6-6.7,24.3-2.3,36c2.8,7.5,8.7,10.9,14.4,14.3c4,2.3,8.1,4.7,11,8.5c1.1,1.4,2.1,2.8,3.1,4.2
		c5.7,8,11.1,15.5,28.2,16.9c0.4,0.1,1.5,0.4,3.4,0.4c4.5,0,13.6-1.4,28.3-9.6c0.6,0,2.3-0.1,5.1-0.1
		C298.9,328.4,307.5,328.6,319.3,329.7z M315.9,319.3c-0.2-2.9-0.8-5.3-1.8-7.3c2.6-0.8,9-2.8,17-6.3
		C326.4,310.5,321.3,315.1,315.9,319.3z M354.1,291.1c-18.2,12.3-37.2,18.1-41,19.2c-2.7-3.9-7.1-6.5-12.9-9.9c-1-0.6-2.2-1.3-3.3-2
		c0.6,0,1.3,0,2.1,0c4,0,9.6-0.3,15.9-1.6l0,0c0.2,0,1.5,0.2,3.7,0.2c7,0,23.3-1.6,45.7-13.6C361.1,286,357.7,288.6,354.1,291.1z
		 M371.3,278.2L371.3,278.2L371.3,278.2C371.3,278.2,371.3,278.2,371.3,278.2z M370.8,277.4L370.8,277.4
		c-26.7,16.2-46.3,17.6-53.1,17.6l14.6-4.5c7.4-4.1,14.4-10.2,19.6-19.2c0.3,0.1,1.2,0.4,2.6,0.4c5.7,0,19.4-4.2,33.3-40
		c1.6-0.7,3.1-2.7,4.4-5.3C392.5,245.5,385.3,262.7,370.8,277.4z M387,230.7L387,230.7L387,230.7L387,230.7z M394.8,213.2
		c-3.3,11.8-6.6,16.3-8.1,16.5c-0.4,0-0.8-0.5-1.1-1c-1.5-2.7-2.6-5-3.4-6.8c-2.1-4.5-3.3-6.8-6.6-8.4c4.9-1.5,16.1-6,22.7-17.9
		C397.5,201.7,396.3,207.7,394.8,213.2z M400,189.3L400,189.3L400,189.3L400,189.3z M397.5,156.7L397.5,156.7L397.5,156.7
		L397.5,156.7z M397.2,159.3c1.4,5.1,2,10.5,2.2,15.2c0.2,4.6,0.1,9.6-0.4,14.7c-6.8,19.6-26,23-26.2,23.1l0.1,0.3
		c-2-0.6-4.6-1.1-7.9-1.6l-0.1,0c-25.9-0.3-35.4,4.7-38.7,9c-1.6,2.1-1.8,3.9-1.8,5c-0.8,0.2-1.7,0.4-2.6,0.4c-2.3,0-5-0.8-8.9-2.7
		c-12-7.1-19.6-12.1-24.4-15.7c4.6,0.3,13.6,0.9,24.1,0.9c3.9,0,7.9-0.1,12-0.3c21.4-1,36.2-4.5,43.8-10.4
		c16.5-12.9,24.9-29.9,28.4-37.2C397,159.7,397.1,159.5,397.2,159.3z M389.2,144.5c3.4,3.2,5.7,7.5,7.2,12.1
		c-0.3,0.6-0.7,1.4-1.3,2.5c-3.5,7.1-11.7,23.8-27.9,36.5c-7.2,5.6-22,9.1-42.7,10c-0.8,0-1.6,0.1-2.3,0.1
		c15.5-7.4,23.4-19,24.9-21.4c3.8-0.4,7.7-0.7,11.7-1c9.4-0.7,16.7-4.1,21.6-9.9c3.2-3.8,5.4-8.4,6.7-13.6c0,0,0,0,0-0.1
		C388.4,155,389,149.8,389.2,144.5z M387.1,145.9c-1.6-3.6-4.7-8.4-10-10.1c-0.1,0-0.1,0-0.2,0c1.3-1.5,3.3-4.5,4.1-9.2
		c2.3-3.2,3.8-8.4,4.6-13.4c0.1,1.4,0.2,2.9,0.4,4.4C386.8,126.9,387.6,136.8,387.1,145.9z M390.5,82.6c-4.1,2.5-5.4,8.4-5.5,16.3
		l0,0c0,0.2-0.2,14.2-3.5,22.7c0-4.1-0.8-9.1-2.9-15.2c1.6-6.5,2.1-11.9,2-16.3c0.2-0.4,4.2-9.5,8.8-13.4c4.8-4.1,3.3-10.7,2.9-12.2
		c0.4-0.2,0.8-0.5,1.3-0.8c0.2,1.3,0.9,2.7,1.6,4.1C397.3,72.4,399.6,77.1,390.5,82.6z M397.4,58.1c-2,0.8-3.2,1.8-3.7,3.1l-25-15.6
		c6.4,2.7,22.5,9.1,31.6,9.1c0.6,0,1.2,0,1.8-0.1C400.5,56.3,398.9,57.5,397.4,58.1z M405.2,50.8c-0.2,0.3-0.4,0.6-0.7,0.9
		c-0.8,0.7-2.2,1-4.2,1c-8.7,0-24.8-6.5-30.9-9.1c6.5-2,23.9-6.9,34.6-6.9c3.9,0,6.5,0.7,7.5,1.9L405.2,50.8z M412.2,36.7
		c-1.6-1.3-4.4-1.9-8.3-1.9c-11.7,0-30.7,5.6-36.2,7.3c0,0,0-0.1,0-0.1c0-0.1-0.1-0.2-0.1-0.3c11-4.8,33.6-13.8,46.2-11.5
		C413.5,32.4,412.9,34.5,412.2,36.7z"/>
	<path class="st1" d="M357,43.6c0.2,1.5,1.9,2.5,4,2.5c0.3,0,0.6,0,0.9-0.1c0.3,0,0.6-0.1,0.9-0.2c-0.6-1.2-1-2.1-1.1-2.8
		l-1.3-0.3c0,0,0.3-1.1,0.8-2.9c0,0-0.1,0-0.1,0c-1.2,0.2-2.3,0.7-3.1,1.5c-0.4,0.4-0.7,0.9-0.8,1.3l0.2,0.2c0,0-0.1,0.1-0.3,0.3
		C357,43.3,357,43.4,357,43.6z"/>
	<path class="st1" d="M365.8,42.3c-0.2-1.1-1.2-2-2.6-2.4c-0.2,0.6-0.3,1.1-0.5,1.6c0,0,0,0,0,0c0.5,0,1,0.2,2.2,1.6l0.7,0.5
		C365.8,43.2,365.8,42.7,365.8,42.3z"/>
	<path d="M298.5,50.5c-8-0.9-34.7-2.6-61.9,11.7l6.9-1.3l0.1,0l-0.1,0c2.8-0.2,5.7-0.2,8.7-0.1c1.3-0.3,2.7-0.6,4-0.9
		c4.8-0.7,9.6-1.1,14.3-1.1c5.4,0,9.9,0.5,13.4,1l0.3-0.3c0.3-0.3,5.1-4.9,12.8-8.8L298.5,50.5z"/>
	<polygon points="233.5,62.8 233.5,62.8 233.5,62.8 	"/>
	<path d="M177.9,422.2c3,6.3,7.7,10.7,14,12.9c0.2,0.1,22.1,8,32.4-1.3c6-5.4,7.1-15.5,3.3-30.1l-0.9-3.3c-0.4,4.1-1.7,7.5-3.8,10.1
		c-0.1,0.1-0.1,0.2-0.2,0.2c-0.2,0.2-0.3,0.4-0.5,0.6c-0.1,0.1-0.3,0.3-0.4,0.4c-0.1,0.1-0.3,0.3-0.4,0.4c-0.2,0.1-0.3,0.3-0.5,0.4
		c-0.1,0.1-0.3,0.2-0.4,0.3c-0.2,0.1-0.3,0.2-0.5,0.4c-0.2,0.1-0.3,0.2-0.5,0.3c-0.2,0.1-0.3,0.2-0.5,0.3c-0.2,0.1-0.4,0.2-0.6,0.3
		c-0.1,0.1-0.3,0.2-0.4,0.2c-0.4,0.2-0.8,0.4-1.2,0.5c-8,3.1-24,2.7-31.8-6.2c-4.6-5.3-8-15.4,1.9-33.7l0.1-0.1
		c8.5-12,7.6-20.7,7.4-21.9c-0.8-1.3-7.3-11.4-24.2-15.2c0,0.8,0,1.6,0,2.4c3.3,4.2,14.3,19.4,11.1,28c-0.8,2.2-1.6,5.1-2.3,8.4
		l-0.3,0.4c-0.2,0.6-0.4,1.2-0.6,1.9l0.4,0.2c-1.8,5-3.3,11-4.1,17.1C173.4,407.3,175.2,416.5,177.9,422.2z"/>
	<path d="M169.2,263.6c-0.1,0.5-0.1,0.9-0.2,1.4c1.2-0.9,2.5-1.8,3.6-2.7c-0.1-1.5-0.5-5.9-0.4-10.6
		C170.9,255.9,169.6,260.5,169.2,263.6z"/>
	<path d="M174.6,262.3c0.4,0.6,2.2,2.8,5.4,3.8c0,0,0,0,0-0.1c0-2.5-0.8-4.2-1.8-6c-1.3-2.6-2.8-5.5-2.3-11.1
		c0.4-4.4,1.5-7.1,2.7-8.8l-2.2,0.5C173.5,245.1,174.1,257.4,174.6,262.3z"/>
	<path d="M166.6,257.2c3.4-8.3,6.1-14.2,6.9-15.9L170,242C169.5,244.1,167.9,250.9,166.6,257.2z"/>
	<path d="M288.6,328.5c-14.7,8.2-23.8,9.6-28.3,9.6c-1.9,0-3-0.2-3.4-0.4c-17.1-1.4-22.5-9-28.2-16.9c-1-1.4-2-2.8-3.1-4.2
		c-2.9-3.8-7-6.2-11-8.5c-5.7-3.3-11.6-6.7-14.4-14.3c-4.4-11.7,1.3-32.4,2.3-36c-2.5-2.6-5.3-5.2-8-7.7c-1,5.9-4.4,26.6-2.6,35.6
		c1.8,1.7,1.9,3.9,1.9,6.2c0,4.2,0,9.4,11.2,15.8c9.7,5.5,11.3,8.1,12.9,10.6c1.3,2.1,2.6,4,9.3,7.9c5.3,3.1,9.2,6.8,13,10.5
		c6.1,6,11.4,11.1,21.3,11.1c0.7,0,1.4,0,2.2-0.1c10.3-0.7,13.7-2.5,16.6-4c2.3-1.2,4.4-2.3,9-2.9c3-0.4,6.4-0.7,9.6-0.7
		c6,0,14.5,1.1,18.8,10.7c4.2,9.3,18.2,13.6,22.6,14.7c-0.6-6.5-4.2-34.2-21-35.8c-11.8-1.1-20.4-1.3-25.6-1.3
		C290.9,328.4,289.2,328.5,288.6,328.5z"/>
	<path d="M185.3,242.4c-1.2,3.4-4.2,12.8-3.7,20.6c0.2,0.9,0.4,1.9,0.4,3.1c0,3,1.2,6.9,3.1,10.6c-1.3-17.6,1.8-29.4,2.7-32.3
		L185.3,242.4z"/>
	<path d="M209.9,267.5c-0.8-2.1-2.9-4.9-5.5-7.8l-0.1,0.3l-0.3,0c-1.6,6-5.6,23.3-1.9,33.1c2.6,6.9,7.9,10,13.5,13.2
		c4.1,2.4,8.4,4.9,11.6,9c1.1,1.4,2.1,2.9,3.1,4.3c5.7,7.9,10.6,14.8,26.9,16.1l0.2,0c0.1,0,8.8,2.6,29-8.4c-1.4-0.8-3-1.2-4.8-1.2
		c-2.3,0-4.8,0.6-7.4,1.2c-2.7,0.7-5.6,1.4-8.5,1.4c-2.2,0-4.2-0.4-6-1.2c-5.8-2.6-8.1-6.1-10.6-10.2c-2-3.1-4.2-6.7-8.5-10.7
		c-5.4-5.2-10-6-14.4-6.9c-3.6-0.7-7.1-1.4-10.5-4.4c-4.5-4-4.4-10-4.4-15.8C211.3,275.5,211.3,271.2,209.9,267.5z"/>
	<path d="M189.4,245.9c-1.1,4.1-3.9,16.9-2,34.7c0.7,1,1.4,1.9,2.2,2.8c-1-11,2.5-31,3.2-34.7L189.4,245.9z"/>
	<path d="M177.9,249.1c-0.4,4.6,0.6,7.1,1.7,9.4c0.5-7.8,3.3-15.5,4-17.6c-0.7-0.6-1.3-1.1-1.7-1.4
		C181,240.1,178.5,242.3,177.9,249.1z"/>
	<path d="M161,292.1C161,292.1,161,292.1,161,292.1L161,292.1C161.1,292.1,161,292.1,161,292.1z"/>
	<path d="M167.2,263.3c0.2-1.5,0.6-3.3,1.1-5.2c-1.5,3.6-3.1,7.7-4.8,12.2c-4.7,12.6-4.4,16.2-2.8,21c1.5-3.1,4.1-14.2,6.1-24.3
		C166.9,265.7,167.1,264.5,167.2,263.3z"/>
	<path d="M156.5,379.6c1.8-1.4,3.4-2.7,5-4.1c1.3-1.2,2.4-3,3.3-5.4c0.7-1.9,1.4-4.1,1.8-6.7c0.1-0.7,0.3-1.4,0.4-2.2
		c-2.3,3.5-5.9,6.8-10.7,9.7c-5.2,3.2-10.2,5-11.9,5.5l0,0l-0.4,0.1c-0.1,0-0.2,0.1-0.2,0.1l0,0l-0.2,0.1c-2.1,0.5-3.4,6.1-3.8,10
		c-0.9,5.9,0.1,12,1.1,16C143.3,389.9,150,384.7,156.5,379.6z"/>
	<path d="M167.8,291.4c-0.4-2.8-0.9-8-1.1-13.8c-1.7,7.7-3.6,14.4-5.1,16c0.5,1.5,1,3.1,1.6,5.1c0.1,0.5,2.1,11.6-5.7,27.6
		c-5.5,11.2-5.3,19.9-4.7,23.8c1.3-1.9,2.7-3.9,4-5.8c3.4-4.8,6.7-9.4,8.9-13.8l-3.4,5.2l4.8-8.1c0.6-1.4,1-2.7,1.3-4
		c0.1-2.3,0.2-4.5,0.2-6.6C168.9,309.3,169.2,301.9,167.8,291.4z"/>
	<path d="M168.2,329.8c-2.3,4.9-6,10.2-9.9,15.6c-6.8,9.7-13.9,19.7-14,28.9c4.6-1.6,22.5-8.8,23.5-21.3c0.5-6.9,0.4-14.2,0.3-20.1
		C168.2,331.9,168.2,330.8,168.2,329.8z"/>
	<polygon points="168.9,353 168.9,353 168.9,353 	"/>
</g>
</svg>
