<!-- Generator: Adobe Illustrator 18.1.1, SVG Export Plug-In  -->
<svg version="1.1"
	 xmlns="http://www.w3.org/2000/svg" xmlns:xlink="http://www.w3.org/1999/xlink" xmlns:a="http://ns.adobe.com/AdobeSVGViewerExtensions/3.0/"
	 x="0px" y="0px" width="459.4px" height="473.4px" viewBox="0 0 270.5 404.1" enable-background="new 0 0 270.5 404.1"
	 xml:space="preserve">
<style>
path {
	fill:#000;
}
.st1 {
	fill:#d69b56;
}
</style>
<defs>
</defs>
<g>
	<path d="M107.5,386.5c-2.1,0.8-4.1,1.1-6.1,1.1c-4,0-7.7-1.6-10.2-4.4c-2.5-2.7-3.8-6.3-3.8-10.4c-4.7,5.1-5.8,11.4-5.8,21.2
		c4.4,1.2,8.4,1.8,11.8,1.8C101.2,395.8,105.9,392.6,107.5,386.5z"/>
	<path d="M60.1,212.3c-0.2-2.1,0.5-4.4,2.1-6.9c-0.9-0.8-1.7-1.7-2.4-2.5c-1.1,2.5-2.6,6.7-1.9,8.7c0.7,2,1.6,4.5,1.8,7.7
		c0.7-2.3,1-4,1.1-4.6C60.5,213.9,60.2,213.1,60.1,212.3z"/>
	<path d="M79,153l-7.5,10.3c2.3-0.6,5.6-1.3,9.5-1.3c3.1,0,6.5,0.4,10.1,1.7L79,153z"/>
	<path d="M93.6,164.3c0,0,0.8-0.2,1.9-0.2c0.1,0,0.3,0,0.4,0l0.1,0l-0.1,0c1.6,0.1,3.7,0.5,5,2.1c0.5,0.6,0.9,1.3,1.1,2.1
		c0.5-0.1,1.3-0.2,2.2-0.2c2.6,0,7,0.9,13,4.9c4.6,3.2,6.4,7.4,8.4,12c2.3,5.4,4.7,11,12.5,15.2c3,1.6,6.1,2.9,9.2,4.3
		c11.8,5.1,22.9,10,24.7,26.5c1.1,10.2-0.2,15.2-1.1,18.9c-0.1,0.5-0.3,1-0.4,1.5c16.3-8.2,18.4-8.9,19-9l53.3-36.3
		c0.7-2.7,5.1-20.3,7.4-41.7c-3.6,3.8-9.7,8.8-15.3,8.9c-0.1,0-0.1,0-0.2,0c-3.4,0-6.1-1.8-8-5.2c-4.8-8.6-1.8-12.7,0.4-15.7
		c1.3-1.8,2-2.8,1.6-4.3c-0.2-0.5,0.1-1.1,0.7-1.2c0.5-0.2,1.1,0.1,1.2,0.7c0.7,2.4-0.6,4.3-1.9,6c-2.1,2.8-4.4,6.1-0.2,13.6
		c1.6,2.9,3.7,4.2,6.4,4.2c6.7-0.1,15.3-9.1,16.5-11.5c0.7-1.4,2.4-3.2,4.5-5.4c4.9-5.2,12.3-13.1,12.6-22.9
		c0.2-7.5,0.6-21.5-7-28.9c-4-3.9-9.9-5.7-17.7-5.3c-5.7,0.3-9.5,2.1-11.3,5.4c-4.3,7.9,4,22,4.1,22.2c0.3,0.5,0.1,1.1-0.4,1.4
		c-0.5,0.3-1.1,0.1-1.4-0.4c-0.4-0.6-8.9-15.2-4.1-24.1c2.1-3.9,6.5-6.1,12.9-6.4c0.2,0,0.3,0,0.5,0c-0.8-1.9-1.7-3.5-2.6-4.9
		c-5.6-9.3-13.4-15.1-23.4-17.5c-13.4-3.2-23.5-16.9-34.2-31.4C169.7,22,155,2,130.5,2c-9.9,0-20.4,3.2-32.3,9.8l-33,66l9.1,20.2
		l-10.3,8.2l-19.3,48.6l7,6.9l16.8,2.6L78.7,150l13.4,11.9l4.5-4.3l1.4,1.4l-5.4,5.2c0.1,0,0.1,0.1,0.2,0.1l0.4,0.2
		c0.1-0.1,0.2-0.1,0.3-0.2L93.6,164.3z M249,144.2c1,0.1,1.9-0.7,2.5-1.4c2.2-2.5,3.5-7.5,2.8-10.4c-1.1-4.7-1.5-6.4-7.9-8.4
		c-2.2-0.7-3.7-1.9-4.2-3.5c-1-2.8,1.1-5.8,1.2-6c0.3-0.5,0.9-0.6,1.4-0.2c0.5,0.3,0.6,0.9,0.2,1.4c0,0.1-1.6,2.3-0.9,4.2
		c0.3,1,1.3,1.8,2.9,2.3c7.2,2.2,8,4.6,9.2,9.8c0.8,3.6-0.6,9.2-3.2,12.2c-1.3,1.5-2.7,2.2-4.2,2.1c-5.4-0.4-8.3,0.6-8.7,3.1
		c-0.1,0.5-0.5,0.9-1,0.9c0,0-0.1,0-0.1,0c-0.5-0.1-0.9-0.6-0.8-1.1C238.8,145.3,242.4,143.7,249,144.2z M73.1,74.1l50.8-12.7
		l41.3,33.9l-44.5-18.1L81.6,95.2L73.1,74.1z M97.8,130.6l-1-1.7l46.2-26.4l-44.3-4.2l5.1,19.3l-1.9,0.5l-5.8-22.1l53.5,5
		L97.8,130.6z"/>
	<polygon points="123.3,63.6 75.8,75.5 82.6,92.5 120.5,75.1 153.7,88.5 	"/>
	<path d="M71.9,204.3c-0.2,0-0.5,0.1-0.7,0.1c-1.1,0-2.6-0.4-4.3-1.8c-2.4,2.6-5.1,6.2-4.8,9.4c0.1,0.6,0.2,1.1,0.5,1.6
		c1.8,0.7,3.5,1.5,5,2.3c0.3,0.1,1.5,0.6,3,1.6c0.3-2.9,1-5.9,1.8-9C71.9,207.2,71.8,205.7,71.9,204.3z"/>
	<path class="st1" d="M165.1,95.3l-41.3-33.9L73.1,74.1l8.5,21.1l38.9-17.9L165.1,95.3z M82.6,92.5l-6.9-17l47.5-11.9l30.4,24.9
		l-33.2-13.5L82.6,92.5z"/>
	<polygon class="st1" points="95.9,96.1 101.7,118.2 103.7,117.7 98.6,98.3 142.9,102.5 96.8,128.9 97.8,130.6 149.4,101.1 	"/>
	<path d="M88.6,165c-10-2.8-19.3,1.1-19.4,1.2l-0.2,0.1c1,1.4,1.9,3.7,2.4,7.7c3.2-3.9,8.7-6.4,13.3-7.8
		C86.2,165.7,87.5,165.3,88.6,165z"/>
	<path d="M67.8,165L67.8,165L67.8,165C67.8,164.9,67.8,164.9,67.8,165z"/>
	<path d="M98.9,308.4c-0.8-5.8-0.8-12.5,1.1-20.8c2.1-8.9-0.3-16.6-4.8-23.1c-1.5,3.3-3.4,6-5.5,8.2
		C89.6,284.3,91.5,297.4,98.9,308.4z"/>
	<path class="st1" d="M262.8,101.1c-3.9-3.8-9.5-5.8-16.5-5.9c-0.9-2.1-1.9-4-3.1-5.9c-5.8-9.7-14.1-15.9-24.7-18.4
		c-12.7-3-22.6-16.4-33.1-30.7C171.7,21.3,156,0,130.5,0c-10.3,0-21.3,3.3-33.6,10.2l-0.3,0.1L62.9,77.7l8.8,19.6l-9.5,7.6l-20,50.3
		l8.4,8.3l13.2,2c-3.4,2.4-10.8,8.6-11.9,17.7c-0.7,5.9,1.4,12,6.3,18c-0.9,2-3.5,7.9-2.3,11.1c1.4,3.7,2.4,7.3,1.2,12.6
		c-1.9,3.3-4.7,6.8-9.1,9.4c-1.4,0.9-3.3,1.9-5.4,3c-15.9,8.6-48.9,26.4-35.6,57.4c4.3,10.1,9.4,19.7,14.3,28.9
		C32.7,345,41.6,361.9,32.8,369c-1.9,1.5-3.7,2.3-5.4,2.3c-3,0-5-2.4-6.1-4.5c-3.6-6.5-3.9-18.7,1.7-27.7l2-3.1l-3.3,1.7
		c-14.6,7.6-24.1,23.8-21.2,36.1c1.3,5.4,6.2,14.5,24.5,14.9c7.4,6.4,14.6,9.6,21.6,9.6c7.1,0,13.8-3.3,19.6-9.8
		c2.6,1.8,6.6,5.7,13,14.2c0.7,0.9,1,1.3,1.4,1.3c0.1,0,0.2,0,0.4-0.1l0.7-0.2l0-0.7c-0.1-2.5-0.2-4.8-0.2-7
		c4.4,1.1,8.3,1.7,11.8,1.7c12.1,0,15.6-7,16.5-12.8l0.3-1.8l-1.7,0.8c-2.4,1.1-4.7,1.7-7,1.7c-3.5,0-6.6-1.3-8.8-3.7
		c-2.4-2.7-3.6-6.5-3.2-10.8c0-0.1,0-0.2,0-0.3c2.6-2.2,6.1-4.2,10.6-6.2c4-1.8,7-5.3,8.8-10.3c1.3,2.9,3.2,5.8,5.6,8.4
		c8.7,9.7,23.4,16,37.5,16c8.9,0,16.8-2.5,23-7.2l2-1.5l-2.5-0.3c-10.9-1.3-17.6-4.8-19.5-10c-1.4-4,0-9.2,3.8-14.8
		c2.9,15.7,15.2,21.4,26.3,21.4c7.6,0,14.8-2.7,18.7-6.9c10.6-11.6,6.7-30.8,6.6-31.7l-0.7-3.3l-1.2,3.1c0,0.1-4.1,10.2-11.6,10.2
		c-1.6,0-3.3-0.5-5-1.4c-5.4-2.8-6.1-13-6.8-22.9c-0.3-4.2-0.6-8.4-1.2-12.2c-0.6,0.2-1.3,0.4-1.9,0.6c0.6,3.6,0.9,7.7,1.1,11.7
		c0.7,10.9,1.4,21.2,7.9,24.5c0.9,0.5,1.9,0.9,2.8,1.1c-1.6,0.4-4.1,0.7-6.9,0.2c-3.9-0.6-10.5-3-11.4-11.7
		c-1.7-15.6-10.5-24.9-10.9-25.3l-1.4,1.4c0.1,0.1,8.7,9.2,10.3,24.2c1.2,10.7,10,13,13.7,13.5c0.9,0.1,1.9,0.2,2.8,0.2
		c3,0,6-0.7,7.1-2c2.8-0.1,5.2-1.2,7.1-2.8c-3.7,7.8-8.7,11.9-14.5,11.9c-0.1,0-0.3,0-0.4,0c-9.5-0.3-19-11.4-21.6-21.1
		c-2.5-9.4-12.2-13.7-21.5-17.9c-8.7-3.9-17.7-7.9-20.5-15.9c-2.5-7-1.8-29.3-1.6-35.6c0-1,0.1-1.7,0.1-1.7l-2-0.1
		c0,0.1,0,0.3,0,0.6c-0.2,4.4-1.2,29.5,1.7,37.5c3.1,8.8,12.5,13,21.6,17c9.3,4.2,18.2,8.1,20.4,16.6c2.9,10.6,13,22.3,23.5,22.6
		c0.2,0,0.3,0,0.5,0c5.7,0,13.3-3.3,18.6-18.6c0.2-0.3,0.4-0.7,0.6-1c0.6,5.9,0.9,18.6-6.5,26.8c-3.5,3.8-10.2,6.3-17.2,6.3
		c-10.9,0-23.2-6-24.8-22.9c-1.7-18-10.9-21.6-20.5-25.5c-5.7-2.3-11.7-4.6-16.3-10.3c-5.3-6.5-5.6-13.6-5.9-21.9
		c-0.4-10.6-0.8-22.7-12.2-36.7c-4.7-5.9-8.6-11.1-11.8-15.8c-1.8-0.8-3.4-1.6-4.8-2.5c4.9,10.5,9.2,24.2,4.7,34.6
		c-3,6.8-7.9,10.7-12.2,14.1c-8.1,6.4-15.1,11.9-4,32.8c8.5,16.1,5.2,49.1-7,69.3c-4.6,7.7-12.5,16.8-23.8,16.8
		c-5.9,0-12.2-2.6-18.6-7.7c1.5-0.1,3-0.4,4.5-0.8c-0.1,0-0.1,0-0.2,0l0.2-2c1.6,0.2,3.1,0.3,4.6,0.3c5.6-2.8,10.3-7.9,13.9-15
		c4.6-9.3,6.9-21.4,7-33.9l0.1,0c0-0.5,0-1-0.1-1.5c-0.1-11.7-2-23.6-5.7-33.8c-3.2-5.1-5.7-8.1-5.8-8.2l1.5-1.3c0,0,0,0,0,0
		c-1.2-2.2-2.5-4.3-3.9-6.2c-2.1-4.2-1-8.3,1.9-12.2c0.8-1,1.6-1.9,2.4-2.8c3.1-3.3,7.3-6.5,11.5-9.6c-1.7,2.9-3.6,7.1-4.5,12.3
		c-3.3,18.5,7.2,36.1,16.7,47.6c0,0.1,0.1,0.1,0.1,0.2l1.5-1.3c-0.9-1.1-1.8-2.2-2.6-3.4c-11.3-14.9-16-29.6-13.8-42.7
		c1.8-10.2,7.2-16,7.7-16.5c5.3-3.8,10.2-7.5,12.7-11.1c1.7-2.5,5.4-9,3.1-16.6c-1.2-4-3.9-7.6-8-10.7c-0.2-0.2-0.4-0.3-0.6-0.5
		c0.2-2.5,0.7-5.3,1.4-8.1c1.1,1.2,2.8,2.1,5.4,2.8c0.3,0.1,0.7,0.1,1,0.2c0.1,0.2,0.3,0.5,0.6,0.8c-0.1-0.5-0.2-1-0.3-1.5l-0.1-0.4
		l0.2-0.3c0,0,0.1-0.2,0.3-0.4c-0.4-0.1-0.8-0.1-1.3-0.2c-6.7-1.7-6.2-5.7-5.7-9.5c0.2-1.8,0.5-3.4-0.2-4.6
		c-4.6-8.6-5.2-13.4-2.3-20.1c2.1-4.8,8.6-7.8,13.7-9.4c1.3-0.4,2.6-0.8,3.7-1c-0.3,0.6-0.5,1.3-0.7,2.1c1.9-2.3,3.7-3.9,4.7-4.5
		l-0.4-0.2c-0.1,0-0.1-0.1-0.2-0.1l5.4-5.2l-1.4-1.4l-4.5,4.3L78.7,150l-10.3,14.2l-16.8-2.6l-7-6.9l19.3-48.6l10.3-8.2l-9.1-20.2
		l33-66C110.1,5.2,120.6,2,130.5,2c24.5,0,39.2,20,53.4,39.3c10.7,14.5,20.8,28.3,34.2,31.4c10,2.3,17.9,8.2,23.4,17.5
		c0.9,1.4,1.7,3.1,2.6,4.9c-0.2,0-0.3,0-0.5,0c-6.5,0.3-10.8,2.5-12.9,6.4c-4.8,8.9,3.7,23.5,4.1,24.1c0.3,0.5,0.9,0.6,1.4,0.4
		c0.5-0.3,0.6-0.9,0.4-1.4c-0.1-0.1-8.3-14.2-4.1-22.2c1.8-3.3,5.6-5.1,11.3-5.4c7.7-0.4,13.6,1.4,17.7,5.3c7.6,7.4,7.2,21.4,7,28.9
		c-0.3,9.8-7.7,17.7-12.6,22.9c-2.1,2.2-3.7,4-4.5,5.4c-1.2,2.3-9.8,11.3-16.5,11.5c-2.8,0-4.8-1.3-6.4-4.2
		c-4.2-7.5-1.8-10.7,0.2-13.6c1.3-1.8,2.6-3.6,1.9-6c-0.2-0.5-0.7-0.8-1.2-0.7c-0.5,0.2-0.8,0.7-0.7,1.2c0.4,1.4-0.3,2.5-1.6,4.3
		c-2.2,3-5.1,7.1-0.4,15.7c1.9,3.5,4.6,5.2,8,5.2c0.1,0,0.1,0,0.2,0c5.6-0.1,11.8-5.1,15.3-8.9c-2.3,21.4-6.7,39-7.4,41.7
		l-53.3,36.3c-0.6,0.1-2.7,0.8-19,9c-0.2,0.8-0.3,1.6-0.3,2.4c14.3-7.2,18.2-8.9,19.3-9.3l0.2,0.3c0,0,0.2-0.1,0.4-0.3l54.5-37.1
		l0.1-0.4c0.4-1.6,5.6-21.4,7.9-45.4c0.2-0.3,0.4-0.6,0.5-0.8c0.6-1.2,2.2-2.9,4.1-4.9c5.1-5.4,12.8-13.6,13.1-24.3
		C270.7,123.6,271,109.1,262.8,101.1z M72.2,198.5c0,0,0,0.1,0.1,0.2l-0.1,3c0,0.1,0,0.1,0,0.2c0,0.1,0,0.2,0,0.3
		c-0.2,0.1-0.5,0.1-0.9,0.1c-1.7,0-3.5-1.3-5.2-3.7c-2.2-3.2-0.3-9.3,1.8-14C67.8,188.8,69.2,193,72.2,198.5z M79.1,230.8
		c2,6.8-1.3,12.7-2.9,14.9c-2.6,3.7-8.2,7.7-14.1,12c-8.2,5.9-17.1,12.3-20,19.4c-0.6-8.9,4.7-13.6,14-21.7c4-3.5,8.5-7.4,13.5-12.5
		c5.8-5.9,8.3-11.4,7.5-16.2C78,227.9,78.7,229.3,79.1,230.8z M60.2,231.4c-5.5,15-20.2,25.6-31.6,31.8c-7.5,4.1-11.8,8.9-13.1,14.7
		c-2.4,10.6,6.1,22.7,14.3,34.4c6,8.5,12.2,17.2,14.2,25.3c4,16.1,3.2,28.1-2.2,34.8c-3.4,4.2-8.7,6.2-15.7,6
		c-5.6-0.2-9.5-2.4-11.5-6.6c-3.3-6.8-1-17.8,3.4-26c-2.3,8.1-1.3,16.7,1.6,22c2,3.5,4.8,5.5,7.9,5.5c2.2,0,4.4-0.9,6.7-2.7
		c10.1-8,0.8-25.6-10.9-47.8c-4.9-9.2-9.9-18.8-14.2-28.8c-12.6-29.2,18.2-45.9,34.8-54.8c2.2-1.2,4.1-2.2,5.5-3.1
		c8.5-5.1,11.7-13.1,12.9-17.8C62.4,220.8,62.3,225.5,60.2,231.4z M57.9,211.6c-0.7-2,0.8-6.2,1.9-8.7c0.7,0.8,1.6,1.7,2.4,2.5
		c-1.6,2.5-2.3,4.8-2.1,6.9c0.1,0.8,0.3,1.6,0.7,2.4c-0.1,0.6-0.4,2.4-1.1,4.6C59.6,216.1,58.6,213.6,57.9,211.6z M54,183.4
		c1.1-9.6,10.4-16,12.3-17.1c0.5,0.2,1.2,0.8,1.8,2.1c0.1-0.1,0.1-0.1,0.2-0.2l1.2,1.6c-0.2,0.2-0.5,0.4-0.7,0.6
		c0.4,1.6,0.8,3.7,1,6.5c-0.2,0.6-0.5,1.1-0.6,1.7l-0.3,0.2l-0.1,0.2c-0.3,0.5-8,12.8-5,19.7c0,0,0,0.1,0,0.1c0,1.4-0.1,2.6-0.2,3.6
		c0.4,0.9,0.6,1.4,0.6,1.4l-1.8,0.9c0-0.1-0.7-1.4-1.5-3.6C55.6,195.1,53.3,189.2,54,183.4z M67.6,216c-1.6-0.8-3.2-1.6-5-2.3
		c-0.2-0.5-0.4-1-0.5-1.6c-0.3-3.2,2.3-6.9,4.8-9.4c1.7,1.4,3.2,1.8,4.3,1.8c0.3,0,0.5,0,0.7-0.1c-0.1,1.4,0,2.9,0.6,4.3
		c-0.8,3.1-1.5,6.1-1.8,9C69.2,216.6,68,216.1,67.6,216z M71.5,174c-0.5-4-1.4-6.3-2.4-7.7l0.2-0.1c0.1,0,9.3-4,19.4-1.2
		c-1.1,0.3-2.5,0.6-3.9,1.1C80.2,167.6,74.7,170,71.5,174z M81,162c-3.9,0-7.2,0.7-9.5,1.3L79,153l12,10.7
		C87.5,162.4,84.1,162,81,162z M94,235.3c2.8,4,6.1,8.3,9.9,13.1c10.9,13.5,11.4,25.2,11.7,35.5c0.3,8.3,0.6,16,6.3,23.1
		c4.9,6.1,11.1,8.5,17.1,10.9c0.1,0,0.2,0.1,0.3,0.1c1.2,1.5,9.5,12.3,6.1,22.5c-3,8.7-6,20.3-0.7,27.3c-5.5-1.9-9.5-4.3-11.8-7.4
		c-4.4-5.8-2.7-13.1-1-20c0.2-0.9,0.4-1.8,0.6-2.7c0.1-0.5,0.2-0.9,0.3-1.4c0.3-1.3,0.5-2.5,0.6-3.7c0.9-10-5.3-14-10.8-17.5
		c-3-1.9-5.8-3.6-7.3-6.2c-4.6-7.6-6.2-14.6-6.5-27.7c-0.3-10.7-7.2-24.5-10.2-29.9c-0.7-1.3-1.2-2.1-1.2-2.1l-0.1,0
		c-0.4-4.1-1.5-8.6-3.3-13.4C94,235.6,94,235.5,94,235.3z M153.1,360.4c2,5.6,8.2,9.3,18.6,11c-0.3,0.2-0.6,0.3-0.9,0.5
		c-8.8-0.5-16.1-1.4-22-2.9c-6.2-4.1-6.6-13-1.5-27.9c3-8.6-1.5-17.3-4.4-21.7c7.8,3.4,14,7.8,15.4,22.3c0,0.1,0,0.2,0,0.4
		C153.2,348.9,151.3,355.3,153.1,360.4z M99.3,362.8c-17.9,7.9-20,16.2-19.7,34c-4.6-16.5,3.1-29.4,10.4-41.9
		c2.6-4.4,5.3-9,7.4-13.6c5.9-13.1-0.4-24.1-6.8-33.4c-0.5-0.7-1-1.4-1.5-2.1c-2.5-3.6-4.9-7-6-10c-2.9-7.5,1.9-15.2,4.7-18.9
		c0.4,11.7,3,24.4,11.1,35.1c8.1,10.6,11.9,27.6,8.8,39.4C106.3,357,103.4,361,99.3,362.8z M87.4,372.8c0,4.1,1.3,7.7,3.8,10.4
		c2.6,2.8,6.2,4.4,10.2,4.4c2,0,4.1-0.4,6.1-1.1c-1.5,6.2-6.3,9.3-14.1,9.3c-3.4,0-7.3-0.6-11.8-1.8
		C81.6,384.2,82.7,377.9,87.4,372.8z M89.8,308.4L89.8,308.4L89.8,308.4L89.8,308.4z M106.7,281.2c0.3,13.4,2.1,20.9,6.8,28.7
		c1.8,2.9,4.9,4.9,7.9,6.8c5.3,3.3,10.2,6.5,10,14.4c-2.8-4.1-9-7.4-14-10c-1.9-1-3.6-1.9-4.8-2.6c-2.9-1.9-8.8-11.3-12.2-19.6
		c0.1-3.3,0.6-6.9,1.5-10.9c1.7-7.4,0.5-13.9-2.3-19.7c0.9-3.1,0.9-6.4,0.6-9.2C103.3,265.5,106.6,274.1,106.7,281.2z M109.9,351.1
		c2.8-11.9-0.6-27.8-8.2-38.8c-0.6-2.6-1-5.4-1.2-8.4c3.3,6.8,7.9,14.1,10.9,16.2c0.7,0.9,8.3,10.6,7.7,20.6c-0.2,3.5-1,6.5-1.8,9.4
		c-1.1,4.1-2.1,7.8-1,11.6c-0.1-0.1-0.2-0.2-0.3-0.4C113.1,358.2,111,354.7,109.9,351.1z M120.8,365.9c-4.2-5.2-3.1-9.4-1.6-15.3
		c0.8-2.9,1.6-6.1,1.8-9.8c0.4-7.3-3.1-14.3-5.6-18.4c0.4,0.2,0.7,0.4,1.1,0.6c6.4,3.3,14.9,7.7,14.3,13c-0.3,1.2-0.6,2.5-0.9,3.8
		c-1.7,7.1-3.6,15.1,1.4,21.7c5.1,6.8,16.9,10.8,36,12.2c-4.6,2-9.8,3-15.4,3C140.8,376.7,129.2,372.6,120.8,365.9z M97.5,254.6
		c0.6,2.6,1.4,6.8,0.8,11c-0.7-1.1-1.4-2.2-2.1-3.3C96.9,259.9,97.4,257.4,97.5,254.6z M100,287.6c-1.9,8.3-1.9,15-1.1,20.8
		c-7.4-11-9.3-24.1-9.1-35.7c2.1-2.2,4-4.9,5.5-8.2C99.7,271,102.1,278.7,100,287.6z M81.3,296.4c1.2,3.2,3.7,6.8,6.3,10.5
		c0.4,0.6,0.9,1.3,1.4,2c0.5,1.6,4.9,17.8,0,26.3c-3,5.3-5.3,9.5-6.6,12.2l1.8-9.2c0.5-11.1-1.1-21.5-5-28.9
		c-10.3-19.4-4.5-24,3.5-30.3c0.9-0.7,1.8-1.4,2.6-2.1C82.3,281.1,78.4,288.7,81.3,296.4z M82.6,351.1c0.6-1.1,3.3-6.7,8.1-15
		c3.7-6.4,2.6-16.2,1.4-22.4c4.8,7.9,8,16.5,3.5,26.6c-2.1,4.5-4.7,9.1-7.3,13.5c-7.6,13-15.5,26.4-10.6,43.7
		c-4.1-5.1-7.4-8.5-10.2-10.4c1.6-1.9,3.1-4.1,4.6-6.5C77.2,372.1,80.8,361.7,82.6,351.1z M25.9,386.7l-0.5,0
		c-12.8-0.2-21-5-23-13.4c-2.3-10,4.2-22.8,15-30.7c-5.5,8.8-8.6,22-4.7,30c2.3,4.9,6.9,7.5,13.3,7.7c0.4,0,0.8,0,1.1,0
		c7.1,0,12.6-2.3,16.2-6.8c5.8-7.2,6.7-19.8,2.5-36.5c-2.1-8.5-8.4-17.4-14.5-26c-8-11.3-16.3-23-14-32.7c1.2-5.2,5.2-9.6,12.1-13.4
		c3.8-2.1,7.2-4.2,10.2-6.3c-1.5,2.5-3.3,5.9-4.8,9.8c-4.3,10.7-4.6,19.8-0.7,26.4c2.9,4.9,6.1,8.5,9.2,11.9
		c6.5,7.2,12.1,13.3,12.7,30.2c-0.1,12.3-2.3,24.3-6.8,33.4C45.5,377.8,38.4,386.7,25.9,386.7z M54.8,319.7
		c-2.5-6.1-6.2-10.2-9.9-14.4c-3-3.3-6.1-6.8-9-11.6c-8.6-14.6,8.1-38.2,8.3-38.4l0,0C66,237.8,64.7,220.6,64,216.4
		c3,1.4,5.6,2.9,7.7,4.5c1.5,1.3,2.9,3.1,3.4,5.4c0.9,4.3-1.4,9.4-6.9,15c-5,5.1-9.5,9-13.4,12.4C43.6,263.6,37.4,269,41,282.7
		l0.1,0c0.1,1.5,0.5,3,1.3,4.6l0.1,0.1C48.7,295.5,52.9,307.2,54.8,319.7z M67.8,165C67.8,164.9,67.8,164.9,67.8,165L67.8,165
		L67.8,165z"/>
	<path class="st1" d="M239,150.2c0,0,0.1,0,0.1,0c0.5,0,0.9-0.4,1-0.9c0.4-2.5,3.3-3.6,8.7-3.1c1.5,0.1,2.9-0.6,4.2-2.1
		c2.6-3,4.1-8.6,3.2-12.2c-1.2-5.2-2.1-7.6-9.2-9.8c-1.6-0.5-2.6-1.2-2.9-2.3c-0.6-1.8,0.9-4.1,0.9-4.2c0.3-0.5,0.2-1.1-0.2-1.4
		c-0.5-0.3-1.1-0.2-1.4,0.2c-0.1,0.1-2.2,3.1-1.2,6c0.6,1.6,2,2.8,4.2,3.5c6.4,2,6.8,3.7,7.9,8.4c0.7,2.9-0.6,7.9-2.8,10.4
		c-0.6,0.7-1.5,1.5-2.5,1.4c-6.6-0.5-10.3,1.1-10.8,4.8C238.1,149.6,238.5,150.1,239,150.2z"/>
	<path d="M60.9,201.1c-2.4-6.9-5.8-22.3,7.2-32.6c-0.6-1.3-1.3-1.9-1.8-2.1c-1.8,1.2-11.1,7.5-12.3,17.1
		C53.3,189.2,55.6,195.1,60.9,201.1z"/>
	<path d="M60.7,191.5c0.5,4.8,1.9,8.8,2.8,10.9c0.2-1,0.2-2.2,0.2-3.6c0,0,0-0.1,0-0.1c-3-6.9,4.6-19.2,5-19.7l0.1-0.2l0.3-0.2
		c0.2-0.5,0.4-1.1,0.6-1.7c-0.2-2.8-0.5-4.9-1-6.5C62.6,175.6,59.8,182.7,60.7,191.5z"/>
	<path d="M131.3,361.5c-4.9-6.6-3-14.6-1.4-21.7c0.3-1.3,0.6-2.6,0.9-3.8c0.6-5.4-8-9.8-14.3-13c-0.4-0.2-0.7-0.4-1.1-0.6
		c2.6,4.1,6.1,11.1,5.6,18.4c-0.2,3.7-1.1,7-1.8,9.8c-1.5,5.8-2.7,10.1,1.6,15.3c8.4,6.7,20,10.8,31.2,10.8c5.6,0,10.8-1,15.4-3
		C148.3,372.3,136.4,368.4,131.3,361.5z"/>
	<path d="M158.4,341.7c-1.4-14.5-7.7-18.9-15.4-22.3c2.9,4.4,7.4,13.1,4.4,21.7c-5.1,14.9-4.6,23.8,1.5,27.9
		c5.9,1.5,13.2,2.4,22,2.9c0.3-0.2,0.6-0.3,0.9-0.5c-10.3-1.6-16.6-5.3-18.6-11c-1.8-5.1,0.1-11.5,5.3-18.4
		C158.4,341.9,158.4,341.8,158.4,341.7z"/>
	<path d="M117.3,350.1c0.8-2.9,1.6-5.9,1.8-9.4c0.6-10-7-19.7-7.7-20.6c-3-2.1-7.6-9.3-10.9-16.2c0.2,3,0.6,5.8,1.2,8.4
		c7.6,11,11,26.9,8.2,38.8c1.2,3.6,3.2,7.1,6.1,10.3c0.1,0.1,0.2,0.2,0.3,0.4C115.2,357.9,116.2,354.2,117.3,350.1z"/>
	<path d="M98.3,265.6c0.6-4.2-0.1-8.4-0.8-11c-0.1,2.8-0.6,5.3-1.4,7.7C96.9,263.4,97.6,264.5,98.3,265.6z"/>
	<path d="M100.3,259.2c0.3,2.8,0.3,6.1-0.6,9.2c2.8,5.8,3.9,12.3,2.3,19.7c-0.9,4-1.4,7.6-1.5,10.9c3.4,8.2,9.2,17.7,12.2,19.6
		c1.2,0.8,2.9,1.6,4.8,2.6c5,2.6,11.3,5.8,14,10c0.3-8-4.7-11.1-10-14.4c-3-1.9-6.2-3.9-7.9-6.8c-4.7-7.8-6.5-15.3-6.8-28.7
		C106.6,274.1,103.3,265.5,100.3,259.2z"/>
	<path d="M97.3,249.2L97.3,249.2c0.1,0,0.5,0.7,1.3,2.1c3,5.4,9.9,19.1,10.2,29.9c0.3,13.2,2,20.2,6.5,27.7c1.5,2.5,4.3,4.3,7.3,6.2
		c5.5,3.5,11.7,7.4,10.8,17.5c-0.1,1.2-0.3,2.4-0.6,3.7c-0.1,0.4-0.1,0.9-0.3,1.4c-0.2,0.9-0.4,1.8-0.6,2.7c-1.7,7-3.4,14.2,1,20
		c2.3,3.1,6.2,5.6,11.8,7.4c-5.2-7-2.2-18.7,0.7-27.3c3.5-10.2-4.8-21-6.1-22.5c-0.1,0-0.2-0.1-0.3-0.1c-6-2.4-12.1-4.8-17.1-10.9
		c-5.7-7-6-14.8-6.3-23.1c-0.4-10.3-0.8-22-11.7-35.5c-3.8-4.7-7.1-9.1-9.9-13.1c0,0.2,0,0.3,0,0.5
		C95.7,240.6,96.8,245.1,97.3,249.2z"/>
	<path d="M67.5,387.1c2.7,1.9,6.1,5.4,10.2,10.4c-4.9-17.3,3-30.7,10.6-43.7c2.6-4.4,5.2-8.9,7.3-13.5c4.6-10.1,1.4-18.7-3.5-26.6
		c1.2,6.2,2.2,16-1.4,22.4c-4.8,8.3-7.5,13.9-8.1,15c-1.9,10.5-5.5,21-10.5,29.4C70.6,383,69.1,385.1,67.5,387.1z"/>
	<path d="M82.6,279c-8,6.3-13.8,10.9-3.5,30.3c3.9,7.3,5.4,17.7,5,28.9l-1.8,9.2c1.4-2.7,3.6-6.9,6.6-12.2c4.9-8.5,0.4-24.7,0-26.3
		c-0.5-0.7-0.9-1.3-1.4-2c-2.6-3.7-5-7.2-6.3-10.5c-2.9-7.7,1-15.2,4-19.5C84.4,277.6,83.5,278.3,82.6,279z"/>
	<path d="M98.9,311.9c-8.1-10.7-10.8-23.4-11.1-35.1c-2.8,3.6-7.5,11.3-4.7,18.9c1.1,3,3.5,6.4,6,10c0.5,0.7,1,1.4,1.5,2.1
		c6.4,9.3,12.7,20.3,6.8,33.4c-2.1,4.6-4.8,9.2-7.4,13.6c-7.4,12.5-15,25.5-10.4,41.9c-0.3-17.8,1.9-26.1,19.7-34
		c4.1-1.8,7-5.8,8.5-11.5C110.8,339.5,107,322.5,98.9,311.9z"/>
	<path d="M163.6,301.6c-0.4,1-0.9,2-1.6,2.8c-1.6,2-3.9,3-6.7,3c-0.2,0-0.3,0-0.5,0c-13.3-0.5-25.2-9.8-26-20.2
		c-0.2-2.6,0.2-5.5,0.5-8.6c0.9-7.6,1.9-15.4-5.3-20.3c-0.2,6.3-0.9,28.6,1.6,35.6c2.8,8,11.8,12,20.5,15.9
		c9.4,4.2,19,8.5,21.5,17.9c2.6,9.7,12.1,20.8,21.6,21.1c0.1,0,0.3,0,0.4,0c5.8,0,10.8-4.1,14.5-11.9c-1.9,1.6-4.3,2.8-7.1,2.8
		c-1.2,1.3-4.1,2-7.1,2c-0.9,0-1.9-0.1-2.8-0.2c-3.7-0.5-12.5-2.8-13.7-13.5c-1.6-14.9-10.3-24.1-10.3-24.2l1.4-1.4
		c0.4,0.4,9.2,9.7,10.9,25.3c1,8.7,7.6,11,11.4,11.7c2.8,0.5,5.3,0.2,6.9-0.2c-0.9-0.3-1.9-0.6-2.8-1.1c-6.4-3.4-7.1-13.6-7.9-24.5
		c-0.3-4-0.6-8.1-1.1-11.7c-2.6,0.8-5.5,1.2-8.6,1.2C169.6,303.1,166.2,302.5,163.6,301.6z"/>
	<path d="M110.2,244.4c-0.8-3.5-1.5-6.6-7.7-9.4c-2-0.9-3.8-1.6-5.5-2.3c-1.1-0.5-2.2-0.9-3.2-1.3c3.2,4.7,7.1,9.9,11.8,15.8
		c11.3,14,11.8,26.1,12.2,36.7c0.3,8.2,0.6,15.4,5.9,21.9c4.6,5.7,10.5,8,16.3,10.3c9.7,3.8,18.8,7.5,20.5,25.5
		c1.6,16.9,13.9,22.9,24.8,22.9c7,0,13.7-2.5,17.2-6.3c7.5-8.2,7.1-20.9,6.5-26.8c-0.2,0.3-0.4,0.6-0.6,1
		c-5.2,15.3-12.9,18.6-18.6,18.6c-0.2,0-0.3,0-0.5,0c-10.5-0.3-20.6-12-23.5-22.6c-2.3-8.5-11.1-12.4-20.4-16.6
		c-9.1-4-18.4-8.2-21.6-17c-2.8-8-1.8-33.1-1.7-37.5c-0.4-0.2-0.8-0.4-1.2-0.6C112.1,252.7,111.1,248.3,110.2,244.4z"/>
	<path d="M59.2,376.9c18.5-27.6,2.6-60.1-6.8-75c3.7,10.2,5.6,22.2,5.7,33.8c0,0.5,0,1,0.1,1.5l-0.1,0c-0.1,12.5-2.4,24.6-7,33.9
		c-3.6,7.1-8.3,12.2-13.9,15C45.8,386.1,53.3,383,59.2,376.9z"/>
	<path d="M79.6,262.6c15.9-13.2,4.8-38,4.5-38.7c-1.4-2.3-2.5-5.3-3.2-9.3c-0.2-0.3-0.4-0.6-0.6-0.8c-0.3-0.1-0.7-0.1-1-0.2
		c-2.5-0.6-4.2-1.6-5.4-2.8c-0.7,2.8-1.3,5.6-1.4,8.1c0.2,0.2,0.4,0.3,0.6,0.5c4.1,3.1,6.7,6.7,8,10.7c2.3,7.6-1.4,14.2-3.1,16.6
		c-2.5,3.6-7.4,7.3-12.7,11.1c-0.5,0.5-5.9,6.3-7.7,16.5c-2.3,13.1,2.5,27.8,13.8,42.7c-0.8-3.3-1.9-6.4-3.3-8.9
		C55.6,284.1,63,276.4,79.6,262.6z"/>
	<path d="M89.9,238.1c1.2,11.1-1.9,20.1-9,26.1C64.3,278,58,284.5,69.7,307.3c8.2,15.9,7.8,47.6-5,66.1c-1.2,1.8-2.6,3.4-4,4.9
		c-0.1,0.2-0.3,0.4-0.4,0.6l-0.1-0.1c-6.2,6.2-14.1,9.4-23.1,9.4c-1.5,0-3.1-0.1-4.6-0.3c-1.4,0.4-2.9,0.6-4.5,0.8
		c6.4,5.1,12.6,7.7,18.6,7.7c11.3,0,19.1-9.1,23.8-16.8c12.2-20.2,15.5-53.2,7-69.3c-11-20.9-4.1-26.4,4-32.8
		c4.3-3.4,9.2-7.3,12.2-14.1c4.5-10.4,0.2-24.1-4.7-34.6c-0.4-0.3-0.8-0.5-1.1-0.8C88.6,230.6,89.5,234.1,89.9,238.1z"/>
	<path d="M64.4,321c6.1,15.8,7.1,30.7,3,43.7c5.9-13.1,7.2-29.7,4.9-43C62.8,310,52.3,292.4,55.5,274c0.9-5.3,2.8-9.4,4.5-12.3
		c-4.2,3.1-8.3,6.2-11.5,9.6c-0.8,0.9-1.6,1.9-2.4,2.8c-2.9,3.9-4,8-1.9,12.2c1.4,1.9,2.7,4,3.9,6.2C48.7,293.1,58.2,304.9,64.4,321
		z"/>
	<path class="st1" d="M96,164.1C96,164.1,96,164.1,96,164.1l0.1,0L96,164.1z"/>
	<path d="M67.9,184.7c-2.1,4.6-4.1,10.8-1.8,14c1.7,2.4,3.5,3.7,5.2,3.7c0.4,0,0.7-0.1,0.9-0.1c0-0.1,0-0.2,0-0.3c0-0.1,0-0.1,0-0.2
		l0.1-3c0-0.1,0-0.1-0.1-0.2C69.2,193,67.8,188.8,67.9,184.7z"/>
	<path d="M49.3,236c-1.4,0.9-3.3,1.9-5.5,3.1C27.2,248-3.6,264.6,9,293.9c4.3,10,9.3,19.6,14.2,28.8c11.7,22.2,21,39.8,10.9,47.8
		c-2.3,1.8-4.5,2.7-6.7,2.7c-3.1,0-5.9-1.9-7.9-5.5c-2.9-5.3-3.8-13.9-1.6-22c-4.4,8.2-6.7,19.2-3.4,26c2,4.2,5.9,6.4,11.5,6.6
		c7,0.2,12.3-1.8,15.7-6c5.4-6.7,6.1-18.7,2.2-34.8c-2-8.1-8.2-16.8-14.2-25.3c-8.2-11.7-16.8-23.7-14.3-34.4
		c1.3-5.8,5.6-10.6,13.1-14.7c11.4-6.3,26.1-16.9,31.6-31.8c2.1-5.8,2.2-10.5,2-13.1C61,222.9,57.7,230.9,49.3,236z"/>
	<path d="M49.3,370.3c4.6-9.1,6.8-21.1,6.8-33.4c-0.7-16.9-6.3-23-12.7-30.2c-3.1-3.4-6.3-6.9-9.2-11.9c-3.8-6.5-3.6-15.7,0.7-26.4
		c1.6-3.9,3.4-7.3,4.8-9.8c-3,2.1-6.4,4.3-10.2,6.3c-7,3.8-11,8.2-12.1,13.4c-2.2,9.8,6,21.5,14,32.7c6.1,8.6,12.4,17.5,14.5,26
		c4.1,16.7,3.3,29.4-2.5,36.5c-3.6,4.5-9.1,6.8-16.2,6.8c-0.4,0-0.8,0-1.1,0c-6.4-0.2-10.9-2.9-13.3-7.7c-3.8-8-0.7-21.2,4.7-30
		c-10.8,7.9-17.4,20.7-15,30.7c2,8.4,10.1,13.2,23,13.4l0.5,0C38.4,386.7,45.5,377.8,49.3,370.3z"/>
	<path d="M42.5,287.2c-0.8-1.6-1.2-3.1-1.3-4.6l-0.1,0c-3.6-13.7,2.6-19.1,13.7-28.9c3.9-3.5,8.4-7.4,13.4-12.4
		c5.5-5.6,7.9-10.7,6.9-15c-0.5-2.3-1.9-4.1-3.4-5.4c-2.2-1.6-4.7-3.1-7.7-4.5c0.7,4.2,2.1,21.3-19.8,38.9l0,0
		c-0.2,0.2-16.8,23.9-8.3,38.4c2.8,4.8,5.9,8.2,9,11.6c3.8,4.2,7.4,8.2,9.9,14.4c-2-12.5-6.1-24.1-12.2-32.3L42.5,287.2z"/>
	<path d="M77.1,226.5c0.8,4.9-1.7,10.3-7.5,16.2c-5,5.1-9.5,9.1-13.5,12.5c-9.3,8.1-14.6,12.8-14,21.7c2.9-7.1,11.8-13.5,20-19.4
		c5.9-4.3,11.5-8.3,14.1-12c1.5-2.2,4.9-8.1,2.9-14.9C78.7,229.3,78,227.9,77.1,226.5z"/>
	<path d="M82.5,192.9c-2.1-3.1-2.4-6.9-1-11.6c1.4-4.5,4.2-9,6.9-12.2c0.2-0.8,0.4-1.5,0.7-2.1c-1.1,0.3-2.3,0.6-3.7,1
		c-5.1,1.6-11.6,4.6-13.7,9.4c-2.9,6.7-2.4,11.6,2.3,20.1c0.7,1.2,0.4,2.8,0.2,4.6c-0.5,3.8-1,7.8,5.7,9.5c0.4,0.1,0.9,0.2,1.3,0.2
		C82.4,209.9,87.8,200.6,82.5,192.9z"/>
	<path d="M185.2,272.8c-4.3,0-11.2-5.8-15-12.6c-2.7-4.9-2.1-7.3-1.2-11c0.9-3.5,2.1-8.3,1-18.2c-1.7-15.3-11.8-19.7-23.5-24.8
		c-3.1-1.3-6.2-2.7-9.3-4.3c-8.5-4.5-11.1-10.7-13.5-16.1c-1.8-4.2-3.5-8.2-7.6-11.1c-4.8-3.3-8.4-4.3-10.8-4.5
		c3,1.7,7.1,5.1,9.4,11.5c6.9,19.3,15.6,29.2,26.7,30.4c5.2,0.6,22.2,4.5,21.1,29.9c-0.6,16.1,5,34.9,15.6,38.5
		c3.7,1.2,6.5,1,8.5-0.6c3.1-2.5,4.2-8.5,3.4-17c-0.3,1.9-0.7,4.1-1.1,6.2C188.7,271.5,187.3,272.8,185.2,272.8z"/>
	<path d="M141.2,214.2c-3.3-0.4-6.3-1.5-9-3.1c1.2,5.1,5.2,17.1,16.7,21.3c2.7,1,4.9,3.4,6.5,7.1c4.3,10.3,2.9,28.5,0.6,33.7
		c-2.3,5-0.9,10.4,3.8,14.6c0.3,0.3,0.6,0.5,0.9,0.7c1.2-1.7,1.7-3.7,1.7-3.8l1-4.9l1,4.9c0,0.2,0.6,3,0.7,6.5
		c5.9,2.9,13.4,3.7,19.2,0.5c6.2-3.5,9-11,8.1-21.5c-0.3,4.6-1.5,8.9-4.3,11.3c-1.5,1.3-3.4,1.9-5.5,1.9c-1.5,0-3.1-0.3-4.9-0.9
		c-11.9-4-17.6-23.9-16.9-40.5C161.2,226,154,215.6,141.2,214.2z"/>
	<path d="M112.9,182.4c-2.7-7.5-8-10.4-10.4-11.4c0,0.6-0.1,1.2-0.2,1.8c-1.4,8.8,4.5,35.9,18.8,43.9c15.1,8.5,29.8,31.3,28.5,44.5
		c-0.3,3.6-1.1,6.9-1.7,9.9c-1.7,7.9-3,13.6,3.8,17.9c1.9,1.2,3.6,1.9,5.1,1.9c1,0,1.8-0.3,2.5-0.8c-0.3-0.2-0.5-0.5-0.8-0.7
		c-5.4-4.9-6.9-11.1-4.3-16.9c2-4.4,3.6-22.1-0.6-32.1c-1.3-3.2-3.1-5.2-5.3-6c-14.7-5.3-17.9-21.8-18.4-24.7
		C119.9,202.1,114.9,188,112.9,182.4z"/>
	<path d="M193.8,289.7c2.4-5.6,1.9-12.3,0.5-18.2c0.4,8.2-1.2,17.5-9.2,22c-2.9,1.6-6.2,2.4-9.5,2.4c-3.7,0-7.4-0.9-10.7-2.4
		c0,2-0.3,4.1-0.8,6.1c2.3,0.9,5.5,1.4,9.1,1.4C176.9,301.1,189.2,300.3,193.8,289.7z"/>
	<path class="st1" d="M170.6,251.3c0.1-0.5,0.2-1,0.4-1.5c0.9-3.7,2.2-8.7,1.1-18.9c-1.8-16.5-12.9-21.3-24.7-26.5
		c-3-1.3-6.2-2.7-9.2-4.3c-7.9-4.1-10.3-9.7-12.5-15.2c-1.9-4.5-3.7-8.8-8.4-12c-5.9-4.1-10.3-4.9-13-4.9c-0.9,0-1.6,0.1-2.2,0.2
		c-0.2-0.8-0.6-1.5-1.1-2.1c-1.4-1.6-3.4-2.1-5-2.1c0,0,0,0-0.1,0c-0.1,0-0.3,0-0.4,0c-1.1,0-1.9,0.2-1.9,0.2l-0.2,0.1
		c-0.1,0-0.2,0.1-0.3,0.2c-1.1,0.6-2.9,2.3-4.7,4.5c-2.7,3.2-5.6,7.7-6.9,12.2c-1.4,4.6-1.1,8.5,1,11.6c5.3,7.8-0.1,17-1.4,19.1
		c-0.2,0.3-0.3,0.4-0.3,0.4l-0.2,0.3l0.1,0.4c0.1,0.5,0.2,1,0.3,1.5c0.7,4.1,1.8,7,3.2,9.3c0.3,0.7,11.4,25.5-4.5,38.7
		C63,276.4,55.6,284.1,68,308.2c1.3,2.6,2.4,5.6,3.3,8.9c0.8,1.1,1.7,2.2,2.6,3.4l-1.5,1.3c0-0.1-0.1-0.1-0.1-0.2
		c2.3,13.3,1,30-4.9,43c4.1-13,3.1-27.8-3-43.7c-6.2-16.1-15.6-27.8-16.2-28.5c0,0,0,0,0,0l-1.5,1.3c0.1,0.1,2.6,3.2,5.8,8.2
		c9.4,14.9,25.3,47.4,6.8,75c-5.9,6.1-13.4,9.3-22.1,9.3c-1.5,0-3-0.1-4.6-0.3l-0.2,2c0.1,0,0.1,0,0.2,0c1.6,0.2,3.1,0.3,4.6,0.3
		c9,0,16.8-3.2,23.1-9.4l0.1,0.1c0.1-0.2,0.3-0.4,0.4-0.6c1.4-1.5,2.7-3.1,4-4.9c12.8-18.5,13.2-50.1,5-66.1
		C58,284.5,64.3,278,80.9,264.2c7.2-6,10.3-15,9-26.1c-0.4-3.9-1.3-7.5-2.2-10.1c0.4,0.3,0.7,0.5,1.1,0.8c1.4,1,3,1.7,4.8,2.5
		c1,0.4,2.1,0.9,3.2,1.3c1.7,0.7,3.5,1.4,5.5,2.3c6.2,2.8,6.9,5.9,7.7,9.4c0.9,3.9,1.9,8.3,10.8,12.2c0.4,0.2,0.8,0.4,1.2,0.6
		c0-0.3,0-0.6,0-0.6l2,0.1c0,0,0,0.7-0.1,1.7c7.1,4.9,6.2,12.7,5.3,20.3c-0.4,3.1-0.7,6-0.5,8.6c0.8,10.4,12.7,19.7,26,20.2
		c0.2,0,0.3,0,0.5,0c2.8,0,5-1,6.7-3c0.7-0.8,1.2-1.8,1.6-2.8c2.7,1,6.1,1.6,9.7,1.6c3.1,0,6-0.4,8.6-1.2c0.7-0.2,1.3-0.4,1.9-0.6
		c5.5-2.1,9.7-5.8,11.8-10.9c6-13.9-4.3-33-4.7-33.8l-1.4-2.5l-0.5,2.9c0,0-1,6-2,11.9c-0.3,1.7-1.2,1.9-1.9,1.9
		c-3.2,0-9.6-4.9-13.2-11.6c-1.3-2.4-1.7-4-1.7-5.6C170.3,252.9,170.4,252.1,170.6,251.3z M147.2,294.9c-5.5-2.1-9.8-8.3-7.2-17.5
		c4.2-14.8-6.7-24.7-16.7-31.6c-2.5-1.7-3.6-6.2-4.6-10c-0.8-3.4-1.6-6.3-3.2-7.6c-1.8-1.5-4.5-2.9-7.3-4.4
		c-7.9-4.2-16.8-9-15.1-18.3l0.1-0.5c1-5.3,1.9-10.3-1.3-16.2c-3.6-6.6-2.1-14.1,0.3-18.4c0.8-1.5,1.7-2.5,2.4-3.1
		c-1.9,8.3-6.1,39.2,27.4,61.1c5.2,3.4,8.7,9.3,12,15c3.8,6.5,7.4,12.6,13.3,14.2c0.1,1.3,0.2,2.5,0,3.6c-0.3,3.5-1,6.6-1.7,9.6
		c-1.7,8-3.2,14.9,4.6,20c2.2,1.4,4.3,2.2,6.2,2.2c1.7,0,3-0.6,4.1-1.4C157,295.8,151.4,296.5,147.2,294.9z M177.5,282.5
		c1.8,0.6,3.4,0.9,4.9,0.9c2.2,0,4-0.6,5.5-1.9c2.9-2.4,4.1-6.6,4.3-11.3c0.8,10.5-2,18-8.1,21.5c-5.8,3.3-13.3,2.4-19.2-0.5
		c-0.1-3.5-0.6-6.3-0.7-6.5l-1-4.9l-1,4.9c0,0-0.4,2.1-1.7,3.8c-0.3-0.2-0.6-0.5-0.9-0.7c-4.7-4.3-6.1-9.6-3.8-14.6
		c2.4-5.2,3.8-23.5-0.6-33.7c-1.6-3.7-3.8-6.1-6.5-7.1c-11.5-4.2-15.5-16.2-16.7-21.3c2.7,1.6,5.7,2.7,9,3.1
		c12.8,1.4,20,11.8,19.4,27.9C159.9,258.6,165.6,278.5,177.5,282.5z M129.8,209.5c0.5,2.9,3.7,19.4,18.4,24.7c2.2,0.8,4,2.8,5.3,6
		c4.2,10,2.6,27.7,0.6,32.1c-2.7,5.9-1.1,12.1,4.3,16.9c0.3,0.2,0.5,0.5,0.8,0.7c-0.7,0.5-1.5,0.8-2.5,0.8c-1.5,0-3.2-0.6-5.1-1.9
		c-6.7-4.4-5.5-10.1-3.8-17.9c0.6-3,1.4-6.3,1.7-9.9c1.3-13.2-13.4-36-28.5-44.5c-14.3-8-20.2-35.1-18.8-43.9
		c0.1-0.6,0.2-1.2,0.2-1.8c2.4,1,7.7,3.9,10.4,11.4C114.9,188,119.9,202.1,129.8,209.5z M100.3,172.5c-1.5,9.5,4.5,37.4,19.7,46
		c12.5,7,24.7,24.1,27.1,36.7c-4.6-1.8-7.8-7.3-11.2-13c-3.5-5.9-7-12-12.6-15.6c-34.8-22.7-27.6-55.2-26.3-60.2
		c0.9,0.2,1.8,0.5,2.5,1.3C100.4,168.6,100.7,170.3,100.3,172.5z M165,293.6c3.3,1.5,7,2.4,10.7,2.4c3.3,0,6.6-0.7,9.5-2.4
		c8-4.6,9.6-13.9,9.2-22c1.4,5.8,1.9,12.5-0.5,18.2c-4.6,10.6-16.9,11.5-20.6,11.5c-3.6,0-6.8-0.6-9.1-1.4
		C164.7,297.7,164.9,295.6,165,293.6z M190.1,263c0.8,8.5-0.4,14.4-3.4,17c-2,1.7-4.9,1.9-8.5,0.6c-10.6-3.6-16.2-22.4-15.6-38.5
		c1-25.5-15.9-29.4-21.1-29.9c-11.1-1.2-19.8-11.2-26.7-30.4c-2.3-6.5-6.4-9.9-9.4-11.5c2.4,0.2,6,1.2,10.8,4.5
		c4.2,2.9,5.9,6.9,7.6,11.1c2.3,5.5,4.9,11.7,13.5,16.1c3.1,1.6,6.2,3,9.3,4.3c11.7,5.1,21.8,9.5,23.5,24.8c1.1,9.9-0.1,14.7-1,18.2
		c-0.9,3.7-1.5,6.1,1.2,11c3.8,6.8,10.7,12.6,15,12.6c2.1,0,3.5-1.3,3.9-3.6C189.4,267.1,189.8,264.9,190.1,263z M121.7,254.7
		c-7.9-3.4-8.7-7-9.6-10.8c-0.9-3.7-1.8-7.5-8.9-10.8c-2-0.9-3.9-1.7-5.6-2.4c-5.3-2.2-9.2-3.7-11.7-7.7c0,0,0,0,0,0l0,0
		c-1.5-2.3-2.6-5.4-3.2-9.9c0.6-0.9,2.2-3.4,3.2-6.7c1.7-5.5,1.1-10.6-1.7-14.7c-1.7-2.5-2-5.8-0.8-9.8c1.4-4.6,4.4-9.1,7-12.1
		c-2.5,4.9-3.9,12.8-0.1,19.8c2.9,5.3,2.1,9.8,1.1,14.9l-0.1,0.5c-2,10.8,8.1,16.1,16.1,20.4c2.7,1.4,5.3,2.8,6.9,4.2
		c1.1,0.9,1.8,3.8,2.5,6.6c1,4.2,2.2,9,5.4,11.2c9.4,6.6,19.8,15.8,15.9,29.4c-3,10.5,2.1,17.6,8.4,20c1.6,0.6,3.3,0.9,5.1,0.9
		c3.9,0,8-1.6,10.9-5.3c0.1,0.1,0.3,0.2,0.4,0.2c0,3.7-0.5,7.9-2.6,10.5c-1.3,1.6-3.1,2.4-5.5,2.3c-12.1-0.5-23.3-9-24-18.3
		c-0.2-2.4,0.2-5.2,0.5-8.2C132.4,270.4,133.7,259.9,121.7,254.7z"/>
	<path class="st1" d="M60.9,201.1c0.8,2.2,1.5,3.6,1.5,3.6l1.8-0.9c0,0-0.3-0.5-0.6-1.4c-0.9-2-2.3-6.1-2.8-10.9
		c-0.9-8.8,1.9-15.8,8.1-21c0.2-0.2,0.5-0.4,0.7-0.6l-1.2-1.6c-0.1,0.1-0.1,0.1-0.2,0.2C55.1,178.8,58.4,194.2,60.9,201.1z"/>
	<path d="M97.1,166.3c-1.4,5.1-8.5,37.6,26.3,60.2c5.6,3.7,9.2,9.7,12.6,15.6c3.4,5.8,6.6,11.2,11.2,13
		c-2.4-12.6-14.6-29.7-27.1-36.7c-15.3-8.5-21.3-36.5-19.7-46c0.4-2.2,0.1-3.9-0.8-4.9C98.9,166.8,98,166.4,97.1,166.3z"/>
	<path d="M131.3,278.8c-0.4,3-0.7,5.8-0.5,8.2c0.7,9.3,11.9,17.9,24,18.3c2.4,0.1,4.2-0.6,5.5-2.3c2.1-2.6,2.6-6.8,2.6-10.5
		c-0.1-0.1-0.3-0.2-0.4-0.2c-3,3.8-7.1,5.3-10.9,5.3c-1.8,0-3.5-0.3-5.1-0.9c-6.3-2.4-11.4-9.5-8.4-20c3.9-13.6-6.4-22.9-15.9-29.4
		c-3.1-2.2-4.3-7-5.4-11.2c-0.7-2.8-1.4-5.7-2.5-6.6c-1.7-1.4-4.2-2.7-6.9-4.2c-8.1-4.3-18.1-9.6-16.1-20.4l0.1-0.5
		c1-5.2,1.8-9.6-1.1-14.9c-3.9-7.1-2.4-15,0.1-19.8c-2.6,3-5.6,7.5-7,12.1c-1.2,4-1,7.3,0.8,9.8c2.8,4.1,3.4,9.2,1.7,14.7
		c-1,3.3-2.6,5.8-3.2,6.7c0.7,4.5,1.7,7.6,3.2,9.9l0,0c0,0,0,0,0,0c2.6,3.9,6.4,5.5,11.7,7.7c1.7,0.7,3.6,1.5,5.6,2.4
		c7.1,3.3,8,7.1,8.9,10.8c0.9,3.8,1.7,7.3,9.6,10.8C133.7,259.9,132.4,270.4,131.3,278.8z"/>
	<path d="M160.8,291.4c-1,0.8-2.4,1.4-4.1,1.4c-1.9,0-3.9-0.7-6.2-2.2c-7.9-5.1-6.4-12-4.6-20c0.7-3,1.3-6.2,1.7-9.6
		c0.1-1.1,0.1-2.4,0-3.6c-5.8-1.6-9.5-7.7-13.3-14.2c-3.3-5.7-6.8-11.6-12-15c-33.6-21.9-29.3-52.8-27.4-61.1
		c-0.8,0.6-1.6,1.7-2.4,3.1c-2.4,4.4-4,11.8-0.3,18.4c3.2,5.9,2.3,10.9,1.3,16.2l-0.1,0.5c-1.7,9.3,7.2,14.1,15.1,18.3
		c2.8,1.5,5.4,2.9,7.3,4.4c1.6,1.3,2.3,4.2,3.2,7.6c1,3.9,2,8.3,4.6,10c10,6.9,20.9,16.8,16.7,31.6c-2.6,9.2,1.7,15.5,7.2,17.5
		C151.4,296.5,157,295.8,160.8,291.4z"/>
	<polygon points="89.8,308.4 89.8,308.4 89.8,308.4 	"/>
</g>
</svg>
